<?xml version="1.0" encoding="utf-8"?>
<!-- Generator: Adobe Illustrator 23.1.0, SVG Export Plug-In . SVG Version: 6.00 Build 0)  -->
<svg version="1.1" id="Capa_1" xmlns="http://www.w3.org/2000/svg" xmlns:xlink="http://www.w3.org/1999/xlink" x="0px" y="0px"
	 viewBox="0 0 288 345.9" style="enable-background:new 0 0 288 345.9;" xml:space="preserve">
<style type="text/css">
	.st0{fill:#3C444F;}
	.st1{fill:#2F383A;}
	.st2{opacity:0.36;}
	.st3{fill:#FFD300;}
	.st4{fill:#F29F05;}
	.st5{fill:#AA6707;}
	.st6{fill:#FEFDFF;}
	.st7{fill:#EDECC8;}
	.st8{fill:#774407;}
	.st9{fill:#FFEA94;}
	.st10{fill:#71BDC1;}
	.st11{fill:#FFFFFF;}
	.st12{fill:#C3B7A0;}
</style>
<g>
	<path class="st0" d="M282.7,173c0,93.4-62.1,169.1-138.7,169.1C67.4,342,5.3,266.3,5.3,173C5.3,79.6,67.4,3.9,144,3.9
		C220.6,3.9,282.7,79.6,282.7,173z"/>
</g>
<g>
	<path class="st1" d="M196.8,239.3l38.7-83.5L179,182.1l10.9-19.3L78.1,74.3L6.5,151c-0.8,7.2-1.2,14.6-1.2,22
		C5.3,266.3,67.4,342,144,342c13,0,25.6-2.2,37.5-6.3l43.9-48.2L196.8,239.3z"/>
</g>
<g class="st2">
	<path class="st3" d="M81.6,76.3l-6.6,22.8c0,0-29,96.7-32.3,107c-3.3,10.3-7,31.1-7,31.1s-7.5,0.8-8.9,10.1
		c-1.4,9.4,17.8,28.1,58.5,43.3c40.7,15.2,113.4,19.9,99.1-10.6c0,0,28.4-89,37.3-121.9c8.9-33,9.7-38.1,9.7-38.1
		s-31.3-21.1-64.8-33C133.2,75.2,81.6,76.3,81.6,76.3z"/>
	<path class="st4" d="M224.7,123c0,0-20.5,65.9-30.8,101c-10.3,35.1-15.4,57.5-25.6,59.4c-10.3,1.9-51.8-5.7-80.7-15.4
		c-28.9-9.7-46.4-26.7-46.2-31.1c0.3-4.3,29.4-111.8,37.2-135.3s9.4-25.4,9.4-25.4s41.3-1.3,78.5,10.8
		c37.2,12.2,58.8,29.1,58.8,29.1S225.9,119.2,224.7,123z"/>
	<path class="st3" d="M188.4,95.3c0,0,24.9,8.5,37.1,20.9c0,0,1,1.1-3.8,16.7s-40.3,133-40.3,133s9,38.3-42.7,18.3
		c0,0-13-35.6,3.1-97.1C157.8,125.6,188.4,95.3,188.4,95.3z"/>
	<path class="st5" d="M147,81.8c0,0-16.5,56.7-31.4,107.6c-15,51-28,84.5,9.1,96.5c0,0-77.2-15.6-88.8-51.7c0,0,5.3-24.9,12.4-47.5
		c7.2-22.5,33.3-110.6,33.3-110.6S114.6,75.6,147,81.8z"/>
	<path class="st4" d="M73.8,139c0,0,7.5,3.7,15.2,2.1c0,0-8.5,15.7-17.5,46.1c-9,30.4-11.8,47.9-8.1,51.6c0,0-14.4,1.2-16.1-11.5
		c0,0,9.2-25.3,15.7-46.1C69.5,160.4,73.8,139,73.8,139z"/>
	<path class="st5" d="M40.3,246.3c0,0-5.6-4.9-8.7-1.7c-3.1,3.2,1.7,17.5,20.6,27.5c18.8,10,34.2,16,46.8,20.1s16.6,0,16.6,0
		s25.2,5.4,35.8,3c10.6-2.4,11.8-5.5,11.8-5.5s-40.6-1.2-74.3-14.3C55.3,262.2,40.3,246.3,40.3,246.3z"/>
	<path class="st5" d="M157.3,283.4c0,0,13.7,7.8,24.2-28.3c10.5-36.1,40.4-141.5,40.4-141.5s6.6,4.2,9.7,6.5
		c0,0-42.6,146.1-44.8,153c-2.2,7-0.3,15.9-23.5,16.6C140,290.5,147,282.7,157.3,283.4z"/>
	<g>
		<path class="st6" d="M77,107c0,0,0.3,3.2,10.1,1.4c9.7-1.9,3.6-3.7,14.4-4.3c10.7-0.7,8.6-5.8,11.8-3.9c3.2,1.9,3.6,5.6,8.3,10.9
			c4.7,5.3,13.1,3.7,22,2.6c8.9-1.1,6.5,7.6,13.5,8.4c7,0.8,9.2-4.6,14.6-2.4c5.4,2.2,1.9,3,8.6,4.3c6.7,1.4,11.9,0.3,14.8,6.2
			c3,5.9,4.3,8.4,13.2,8.9c8.9,0.5,7.4-0.7,10.9,2.1l5.1-16.3c0,0,2.1-4.8,1.3-8.5c-0.8-3.7-8.1-8.6-21.3-16.6
			c-13.2-7.9-36.4-16.9-57.5-21.2c-21.1-4.3-54.8-5.4-56.3-5.4c-1.5,0-3.1,4.3-4.9,9.1C83.9,86.9,77,107,77,107z"/>
		<path class="st7" d="M110.9,92.3c0,0,0.9,3.6-9.4,5c-10.3,1.4-14.5,5.3-16.9,2.8c-2.4-2.5-4.5-3.1-1.7-10.5L77,107
			c0,0,0.5,1.6,2.7,1.8c2.2,0.2,3.8,0.3,6-0.2c2.2-0.4,4.2-0.5,5.9-1.5c1.7-1,2.9-2.3,5.3-2.6c2.5-0.3,8.2,0.1,11.8-2.3
			c3.6-2.4,4.1-4,4.8-6.8c0.6-2.8-0.9-6.9-2.4-7.5C109.7,87.3,111.5,90.5,110.9,92.3z"/>
		<path class="st7" d="M116.7,104c0,0,1.4,6.5,8.5,9.6c7.1,3.1,20.1-1.4,22.5,0.4c2.3,1.8,3.8,7.3,7.8,7.6c4.1,0.4,6.8,0.4,12.3-2.5
			s5.9-7.7,3.7-8.2c-2.2-0.4-9.1,7.5-12.5,4.5c-3.4-3-5-10.7-11.3-11.5c-6.4-0.7-9.2,7.3-16.2,3.3c-7-4-9.2-10.6-12.8-9.8
			C115,98.3,115.9,101.9,116.7,104z"/>
		<path class="st7" d="M184.2,124.7c0,0,6.7-0.4,8.8,2.5c2.1,2.8,2.1,6.7,7.3,9.9c5.2,3.2,14.3,1.2,15.7,1.9
			c1.4,0.7,3.2,2.1,3.2,2.1s2-6.2,2.9-9.4c0,0-5.5,2.8-8.7,2.7c-3.2-0.1-8.3-1.8-12.2-7.2c-3.9-5.4-6.6-6.6-12.8-7.7
			c-6.2-1.1-9.1-1.7-10-0.7C177.4,119.9,178.4,124,184.2,124.7z"/>
		<g>
			<path class="st8" d="M77,107c1.8,1.3,4.1,1.6,6.2,1.5c2.1-0.1,4.2-0.7,6.2-1.5c2-0.8,4.1-1.6,5.7-2.8c0.2-0.2,0.4-0.3,0.8-0.5
				c0.4-0.2,0.8-0.4,1.1-0.4c0.7-0.1,1.2-0.2,1.8-0.2c1.1-0.1,2.3-0.1,3.3-0.2c2.1-0.1,4.2-0.6,6-1.5c1.8-0.9,3.4-2.3,4.2-4l0.2-0.7
				c0-0.2,0.1-0.5,0.1-0.7c0-0.4,0-1,0.1-1.6c0-1.1,0.1-2.2,0-3.3c-0.1-1.1-0.3-2.1-0.8-3c-0.5-1-1.1-1.9-1.9-2.7
				c0.9,0.7,1.8,1.4,2.4,2.4c0.7,0.9,1.1,2.1,1.3,3.2c0.2,1.1,0.3,2.3,0.4,3.4c0,0.6,0.1,1.1,0.1,1.7c0,0.3-0.1,0.6-0.1,1
				c-0.1,0.3-0.2,0.6-0.2,0.9c-0.8,2.4-2.8,4.2-4.9,5.3c-2.1,1.1-4.5,1.7-6.8,1.9c-1.2,0.1-2.2,0.1-3.3,0.1c-0.5,0-1.1,0.1-1.5,0.1
				c-0.2,0-0.3,0.1-0.5,0.2c-0.1,0.1-0.4,0.2-0.6,0.4c-1,0.7-2.1,1.2-3.2,1.6c-1.1,0.4-2.1,0.8-3.2,1.1c-2.2,0.7-4.5,1.1-6.8,0.9
				C81,109.4,78.6,108.7,77,107z"/>
		</g>
		<g>
			<path class="st8" d="M111.9,99.7c0.8,0,1.7,0.3,2.4,0.7c0.7,0.5,1.3,1.2,1.7,1.9c0.8,1.5,1.5,3,2.4,4.4c1.7,2.8,4.2,5,7.2,6.1
				c3,1.1,6.3,1.1,9.5,0.7c1.6-0.2,3.3-0.4,4.9-0.7c1.7-0.2,3.3-0.6,5.2-0.6c0.3,0,0.5,0,0.8,0.1c0.3,0.1,0.6,0.1,0.9,0.3
				c0.5,0.2,0.9,0.5,1.3,0.9c0.8,0.7,1.3,1.4,1.8,2.1c1,1.4,1.8,2.7,3,3.7c0.3,0.3,0.6,0.4,0.9,0.6c0.3,0.2,0.6,0.3,1,0.5
				c0.7,0.3,1.4,0.4,2.2,0.5c1.5,0.2,3.1,0.1,4.7-0.2c3.1-0.6,6.2-2.1,8.4-4.4c1.1-1.1,2-2.6,2.4-4.1c0.4-1.6,0.4-3.3,0.1-4.9
				c0.5,1.6,0.8,3.3,0.5,5.1c-0.1,0.9-0.4,1.7-0.8,2.5c-0.4,0.8-0.8,1.6-1.4,2.2c-2.3,2.7-5.4,4.5-8.9,5.4c-1.7,0.4-3.5,0.6-5.3,0.5
				c-0.9-0.1-1.8-0.3-2.7-0.6c-0.4-0.1-0.9-0.4-1.3-0.6c-0.4-0.3-0.8-0.5-1.2-0.8c-1.5-1.2-2.5-2.7-3.4-4c-0.9-1.4-1.9-2.5-3-2.4
				c-1.4,0-3.2,0.3-4.8,0.5c-1.7,0.2-3.4,0.5-5.1,0.6c-1.7,0.1-3.5,0.2-5.2,0c-1.7-0.1-3.5-0.5-5.2-1.2c-1.6-0.7-3.2-1.7-4.4-2.9
				c-1.3-1.2-2.3-2.7-3.1-4.2c-0.8-1.5-1.4-3.2-2-4.7C114.9,101.2,113.6,99.9,111.9,99.7z"/>
		</g>
		<g>
			<path class="st8" d="M167.8,119.2c1.2-0.2,2.5-0.2,3.8,0c0.6,0.1,1.3,0.4,1.9,0.7c0.6,0.3,1.1,0.7,1.6,1.1c1,0.7,2,1.3,3.1,1.7
				c1.1,0.4,2.3,0.6,3.5,0.8c2.4,0.4,4.9,0.6,7.4,0.9c0.6,0.1,1.3,0.2,2,0.4c0.7,0.2,1.4,0.6,2,1.1c0.6,0.5,1,1.1,1.4,1.7
				c0.4,0.6,0.6,1.2,0.9,1.8c0.5,1.2,0.9,2.3,1.4,3.3c0.5,1,1.2,1.9,2.1,2.5c0.8,0.7,1.9,1.2,3,1.6c1.1,0.4,2.2,0.7,3.5,0.9
				c2.4,0.5,4.8,0.9,7.2,0.6c1.3-0.1,2.6-0.1,3.9,0.3c0.6,0.2,1.2,0.4,1.8,0.7c0.3,0.2,0.5,0.4,0.7,0.7c0.2,0.3,0.3,0.6,0.2,0.9
				c0-0.7-0.6-1.1-1.1-1.3c-0.6-0.2-1.2-0.4-1.8-0.4c-1.2-0.2-2.4-0.1-3.6,0.2c-1.2,0.3-2.6,0.4-3.9,0.4c-1.3,0-2.6-0.2-3.8-0.3
				c-2.5-0.3-5.2-0.9-7.4-2.6c-1.1-0.8-2-2-2.7-3.2c-0.7-1.2-1.1-2.4-1.6-3.5c-0.5-1.1-1-2.2-1.7-2.8c-0.6-0.6-1.7-0.9-2.9-1.1
				c-2.4-0.4-4.9-0.7-7.4-1.3c-1.2-0.3-2.5-0.6-3.7-1.2c-1.2-0.5-2.3-1.3-3.3-2.2c-0.5-0.4-0.9-0.9-1.4-1.2c-0.5-0.3-1-0.6-1.6-0.8
				C170.3,119.4,169.1,119.2,167.8,119.2z"/>
		</g>
		<g>
			<path class="st8" d="M200,122.5c1.5,1.3,3.1,2.4,4.7,3.1c0.8,0.4,1.7,0.6,2.5,0.7c0.4,0.1,0.8,0,1.2,0c0.2,0,0.4-0.1,0.6-0.1
				l0.3-0.1l0.4-0.1c1.9-0.5,3.9-0.8,5.9-0.9c1,0,2.1,0.1,3.1,0.3c0.5,0.2,1,0.4,1.5,0.7c0.4,0.3,0.8,0.7,1,1.2
				c-0.8-0.7-1.7-0.8-2.6-0.8c-0.9,0-1.8,0.1-2.8,0.3c-1.8,0.4-3.7,0.8-5.6,1.3l-0.4,0.1l-0.4,0.1c-0.3,0-0.6,0.1-0.9,0.1
				c-0.6,0-1.1,0-1.7-0.1c-1.1-0.2-2.1-0.6-3-1.3C202.2,125.9,200.8,124.3,200,122.5z"/>
		</g>
	</g>
	<ellipse class="st4" cx="94.7" cy="132.9" rx="4.2" ry="4.2"/>
	<path class="st3" d="M141.8,167.7c0,4-3.2,7.2-7.2,7.2c-4,0-7.2-3.2-7.2-7.2c0-4,3.2-7.2,7.2-7.2
		C138.5,160.4,141.8,163.7,141.8,167.7z"/>
	<ellipse class="st4" cx="69.8" cy="198.4" rx="6.5" ry="6.5"/>
	<path class="st4" d="M71.4,190.6c0,3,2.4,5.4,5.4,5.4c3,0,5.4-2.4,5.4-5.4c0-3-2.4-5.4-5.4-5.4C73.9,185.2,71.4,187.6,71.4,190.6z"
		/>
	<g>
		
			<ellipse transform="matrix(2.046661e-03 -1 1 2.046661e-03 -138.832 351.1675)" class="st3" cx="106.5" cy="245.1" rx="7.6" ry="7.6"/>
		<path class="st3" d="M110.9,235.5c0,2.6-2.1,4.7-4.7,4.7c-2.6,0-4.7-2.1-4.7-4.7s2.1-4.7,4.7-4.7
			C108.8,230.8,110.9,232.9,110.9,235.5z"/>
	</g>
	<g>
		<path class="st9" d="M181,160.4c0,3.6-3,6.6-6.6,6.6c-3.6,0-6.6-3-6.6-6.6c0-3.6,3-6.6,6.6-6.6C178.1,153.8,181,156.8,181,160.4z"
			/>
		<path class="st9" d="M176.7,150.7c0,2.6,2.1,4.7,4.7,4.7c2.6,0,4.7-2.1,4.7-4.7c0-2.6-2.1-4.7-4.7-4.7
			C178.8,146,176.7,148.1,176.7,150.7z"/>
		<path class="st9" d="M155.9,238.8c0,2.5-2,4.5-4.5,4.5c-2.5,0-4.5-2-4.5-4.5c0-2.5,2-4.5,4.5-4.5
			C153.9,234.3,155.9,236.3,155.9,238.8z"/>
	</g>
	<g>
		<g>
			<path class="st8" d="M208.3,143c-2.7,10-5.5,20-8.4,30c-2.9,10-6,19.9-9,29.8c-3.1,9.9-6.3,19.8-9.5,29.6
				c-1.6,4.9-3.3,9.8-5,14.8c-1.7,4.9-3.5,9.8-5,14.7c1.1-5.1,2.6-10,4-15c1.4-5,2.9-10,4.3-14.9c2.9-10,6-19.9,9-29.8
				c3.1-9.9,6.3-19.8,9.5-29.6C201.4,162.6,204.8,152.8,208.3,143z"/>
		</g>
		<g>
			<path class="st8" d="M169.1,265.9c0.6,1,1.2,1.8,1.8,2.5c0.6,0.7,1.3,1.4,2,1.9c0.7,0.5,1.5,1,2.4,1.5c0.4,0.3,0.9,0.4,1.4,0.7
				c0.5,0.2,1,0.4,1.5,0.7c-0.5,0.2-1.1,0.3-1.7,0.4c-0.6,0-1.1,0.1-1.7-0.1c-1.2-0.2-2.3-0.7-3.2-1.4c-1-0.7-1.7-1.7-2.2-2.8
				C169,268.3,168.8,267.1,169.1,265.9z"/>
		</g>
	</g>
	<g>
		<g>
			<path class="st8" d="M54.7,269.6c1,0.1,1.8,0.4,2.6,0.8c0.8,0.4,1.5,0.8,2.2,1.2c0.7,0.5,1.4,1,2,1.5c0.6,0.6,1.2,1.2,1.8,2
				c-1,0-1.9-0.2-2.7-0.5c-0.8-0.3-1.6-0.7-2.3-1.2c-0.7-0.5-1.4-1-2-1.7C55.7,271.2,55.1,270.5,54.7,269.6z"/>
		</g>
		<g>
			<g>
				<path class="st8" d="M37.8,241.6c3.4,5,8,9.1,12.7,12.8c4.8,3.7,9.9,6.8,15.3,9.7c10.6,5.8,22,9.9,33.5,13.6
					c5.7,1.9,11.5,3.6,17.4,5.2c5.8,1.6,11.7,2.9,17.7,4c5.9,1.1,11.9,1.9,18,2.2c6,0.3,12.1,0,18.1-0.9c-5.9,1.5-12,2-18.1,2
					c-6.1,0-12.2-0.6-18.2-1.5c-12.1-1.8-23.9-5-35.5-8.8l-4.3-1.5l-4.3-1.5c-2.9-1-5.7-2.1-8.5-3.3c-1.4-0.5-2.8-1.2-4.2-1.8
					c-1.4-0.6-2.8-1.2-4.2-1.9c-2.7-1.4-5.5-2.7-8.1-4.3c-5.3-3-10.4-6.4-15.1-10.4c-1.1-1-2.3-2-3.4-3.1l-1.6-1.6l-1.6-1.7
					C41.2,246.7,39.2,244.3,37.8,241.6z"/>
			</g>
			<g>
				<path class="st8" d="M184.5,280.1c0.3,0.7,0.3,1.3,0.1,1.9c-0.1,0.6-0.4,1.2-0.8,1.7c-0.4,0.5-0.9,0.9-1.5,1.2
					c-0.6,0.3-1.3,0.4-2,0.2c0.3-0.7,0.6-1.1,0.8-1.6c0.3-0.4,0.5-0.8,0.8-1.2c0.3-0.4,0.6-0.8,1-1.1
					C183.4,280.8,183.9,280.5,184.5,280.1z"/>
			</g>
		</g>
		<g>
			<g>
				<path class="st8" d="M33,249.3c2.5,3.1,5.1,5.8,7.8,8.5c1.4,1.3,2.8,2.6,4.2,3.9c0.7,0.7,1.4,1.3,2.2,1.9c0.7,0.7,1.5,1.3,2.2,2
					c-0.9-0.3-1.9-0.7-2.8-1.1c-0.9-0.5-1.8-0.9-2.6-1.5c-1.7-1-3.2-2.3-4.7-3.7c-1.4-1.4-2.7-2.9-3.8-4.6
					C34.3,253.1,33.4,251.3,33,249.3z"/>
			</g>
			<g>
				<path class="st8" d="M35.7,237.3c0.5,0.1,0.8,0.3,1.1,0.5c0.2,0.2,0.4,0.4,0.5,0.7c0.1,0.2,0.1,0.5,0,0.8
					c-0.1,0.3-0.2,0.6-0.6,1c-0.5-0.1-0.8-0.3-1.1-0.5c-0.2-0.2-0.4-0.4-0.5-0.7c-0.1-0.2-0.1-0.5,0-0.8
					C35.2,238,35.4,237.6,35.7,237.3z"/>
			</g>
		</g>
	</g>
	<g>
		<path class="st3" d="M85.7,100.6c0,0-11.9-4.1-22.9-3.2c-11.1,0.8-17.3,6.8-24,19.7c-6.7,13-13.8,33-17.5,44.8
			c-3.8,11.9-8.6,35.7-3.8,45.1c4.9,9.5,19.2,20,22.7,21.9c3.5,1.9,9.4-2.2,12.1-8.4c2.7-6.2,3.5-14,2.2-15.4
			c-1.3-1.4-11.9-1.9-14.8-10c-3-8.1,2.7-30.3,7.3-44.3c4.6-14,8.6-24.9,16.2-23.8c7.6,1.1,10,2.4,10,2.4s12.1,1.1,15.7-8.4
			c3.5-9.5,0.8-14.3,0-16.5C87.9,102.5,87.5,101.2,85.7,100.6z"/>
		<path class="st4" d="M89.8,117.6c0,0-16.8-6.7-27.8-4c-11,2.8-14.1,14.7-18.4,26.5c-4.3,11.7-15.4,50.8-7.8,58.3
			c7.6,7.5,19,9.1,19,9.1s0.9-3.3-4.2-3.8c-5.1-0.4-12.2-7.1-11.8-14.3c0.5-7.2,5.3-33.5,11.5-48.4c6.2-14.9,9.9-14.8,17.4-13.2
			c7.5,1.6,8.2,2.9,12.5,0.8C84.5,126.7,88.9,125.7,89.8,117.6z"/>
		<path class="st5" d="M80.2,128.7c0,0-8-2.7-15.2-4.7c-7.3-1.9-12.1,3.8-16.6,15.8c-4.5,12-12.6,42.7-11.7,49.6
			c0.9,6.9,9.6,12.6,9.6,12.6s-8.9-4.5-7.3-14.9c1.7-10.4,9-45,14.7-52.8c5.7-7.7,7.4-7.9,12.2-6.8C70.7,128.6,75.2,132,80.2,128.7z
			"/>
		<g>
			<path class="st9" d="M74,97.9c0,0-13.9-2.7-21.8,2.6c-7.9,5.3-12.9,14.1-17.3,24.7c-4.4,10.7-10.2,23.5-13.6,36.7
				c-3.4,13.2-5.3,20.4-5.6,27.5c-0.3,7.1-1,14.4,2.8,19.4c3.8,5,2.3,0.3,0.7-5.6c-1.7-5.9-1.2-22.1,4.8-39.9
				c6-17.8,14.3-42.8,20.8-50.4c6.5-7.6,11.4-12.9,22.9-12.4C79.2,101,78.6,98.5,74,97.9z"/>
			<path class="st9" d="M29.5,212c1.7,2,2.2,4.3,1.2,5.2c-1,0.9-3.2-0.1-4.9-2.1c-1.7-2-2.2-4.3-1.2-5.2
				C25.6,209,27.8,209.9,29.5,212z"/>
			<circle class="st9" cx="23.1" cy="207.5" r="1.9"/>
			<path class="st9" d="M69.7,104.9c-0.2,1,1.5,2.1,3.8,2.4c2.2,0.4,4.2-0.1,4.4-1.1c0.2-1-1.5-2.1-3.8-2.4S69.9,103.9,69.7,104.9z"
				/>
		</g>
		<g>
			<path class="st8" d="M63.3,102.8c-1.1-0.6-2.4-0.8-3.6-0.7c-1.2,0.1-2.3,0.6-3.4,1.2c-2.1,1.3-3.8,3.1-5.2,5.1
				c-2.9,4-4.9,8.5-6.8,13.1c-3.7,9.2-6.9,18.6-9.9,28.1c-1.5,4.7-3,9.5-4.4,14.3c-1.4,4.8-2.7,9.6-3.9,14.4
				c-0.3,1.2-0.6,2.4-0.8,3.6c-0.3,1.2-0.4,2.4-0.6,3.6c-0.2,2.5-0.3,5-0.4,7.4c-0.1,2.5,0,5,0.3,7.4c0.3,2.4,0.9,4.9,2,7.1
				c-0.7-1.1-1.2-2.2-1.6-3.4c-0.4-1.2-0.7-2.4-0.9-3.6c-0.5-2.5-0.7-5-0.8-7.5c-0.1-2.5-0.1-5,0-7.5c0.1-1.3,0.2-2.6,0.4-3.8
				c0.2-1.3,0.4-2.5,0.7-3.7c2.1-9.8,4.8-19.4,7.8-28.9c3-9.5,6.4-19,10.4-28.1c2.1-4.5,4.4-9.1,7.6-13c1.6-2,3.5-3.7,5.7-5
				c1.2-0.5,2.4-1,3.7-1C61,101.8,62.3,102.1,63.3,102.8z"/>
		</g>
		<g>
			<path class="st8" d="M78.1,112.6c-0.8,0.3-1.5,0.5-2.2,0.5c-0.7,0-1.4,0-2.1-0.1c-0.7-0.1-1.4-0.3-2-0.6
				c-0.7-0.3-1.3-0.7-1.9-1.3c0.8-0.3,1.5-0.4,2.2-0.4c0.7,0,1.4,0,2.1,0.2c0.7,0.1,1.4,0.3,2,0.6C76.9,111.6,77.5,112,78.1,112.6z"
				/>
		</g>
		<g>
			<path class="st8" d="M61,113.6c-1,0.5-1.8,1.1-2.5,1.7c-0.7,0.6-1.4,1.3-2,1.9c-0.7,0.7-1.3,1.4-2,2.1c-0.3,0.4-0.7,0.7-1.1,1.1
				c-0.4,0.4-0.7,0.8-1.2,1.1c0-0.6,0.1-1.1,0.2-1.6c0.1-0.5,0.3-1,0.5-1.5c0.5-1,1.1-1.9,1.9-2.7c0.8-0.8,1.7-1.5,2.8-1.9
				C58.7,113.3,59.9,113.1,61,113.6z"/>
		</g>
		<g>
			<path class="st8" d="M85.7,100.6c-1.8-0.8-3.8-1.3-5.8-1.8c-2-0.4-4-0.7-5.9-0.9c-4-0.4-8-0.3-12,0.1c-3.9,0.4-7.8,1.4-11.1,3.6
				l-1.2,0.8c-0.4,0.3-0.7,0.6-1.1,0.9c-0.8,0.6-1.4,1.4-2.1,2c-1.3,1.5-2.5,3.1-3.5,4.8c-4.1,6.8-6.8,14.4-9.9,21.9
				c-3.1,7.4-6.1,14.9-8.6,22.5c-1.3,3.8-2.4,7.6-3.5,11.5c-1,3.9-1.9,7.8-2.7,11.7c-0.8,3.9-1.5,7.9-1.9,11.8
				c-0.4,4-0.6,7.9,0,11.8c0.3,1.9,0.9,3.8,1.6,5.6c0.8,1.8,1.9,3.4,3.1,4.9c1.3,1.5,2.7,2.9,4.2,4.3l4.4,4.1c3,2.7,5.9,5.4,9.3,7.7
				c0.9,0.5,1.6,1.2,2.6,1.3c0.9,0.2,1.9-0.1,2.8-0.4c1.8-0.8,3.4-2.1,4.8-3.5c-1.3,1.5-2.8,2.9-4.7,3.9c-0.9,0.4-2,0.7-3,0.6
				l-0.8-0.2l-0.7-0.3c-0.5-0.2-0.9-0.5-1.3-0.8c-3.5-2.1-6.6-4.7-9.7-7.3c-1.5-1.3-3-2.7-4.5-4c-1.5-1.3-3-2.7-4.4-4.3
				c-1.3-1.6-2.5-3.3-3.5-5.2c-0.9-1.9-1.5-3.9-1.9-5.9c-0.7-4.1-0.6-8.2-0.2-12.3c0.4-4.1,1-8.1,1.8-12c0.8-4,1.7-7.9,2.7-11.9
				c1-3.9,2.2-7.8,3.5-11.6c2.6-7.7,5.6-15.2,8.7-22.6l4.8-11.1c1.6-3.7,3.4-7.4,5.6-10.8c1.1-1.7,2.4-3.4,3.8-4.9
				c0.8-0.7,1.4-1.5,2.3-2.1c0.4-0.3,0.8-0.7,1.2-1l1.3-0.9c3.5-2.2,7.7-3.2,11.8-3.5c4.1-0.2,8.1-0.1,12.1,0.4
				C78.1,97.9,82.1,98.8,85.7,100.6z"/>
		</g>
		<g>
			<path class="st8" d="M39.6,195.2c1,1,2,1.9,3.1,2.8c1,0.9,2.1,1.7,3.2,2.4c1.1,0.7,2.2,1.3,3.4,1.8c1.2,0.5,2.4,0.7,3.7,0.9
				l-0.2,0c0.3,0,0.4,0,0.6,0c0.2,0,0.3,0.1,0.4,0.2c0.3,0.1,0.5,0.3,0.7,0.5c0.3,0.4,0.5,0.8,0.7,1.1c0.3,0.7,0.4,1.5,0.4,2.2
				c0,0.7-0.1,1.4-0.2,2c-0.1,0.7-0.3,1.3-0.5,2l-0.3-1.9c0-0.3-0.1-0.6-0.2-0.9c-0.1-0.3-0.1-0.6-0.2-0.9c-0.2-0.6-0.3-1.2-0.6-1.6
				c-0.1-0.2-0.3-0.4-0.4-0.5c-0.1,0-0.1-0.1-0.1-0.1c0,0,0,0,0,0c0,0,0,0,0.1,0l-0.2,0c-1.5,0-3-0.3-4.4-0.8
				c-1.4-0.6-2.7-1.3-3.8-2.2c-1.1-0.9-2.1-2-3-3.1C40.8,197.7,40.1,196.5,39.6,195.2z"/>
		</g>
		<g>
			<path class="st8" d="M52.9,135.3c1.1-2.5,2.6-4.9,4.7-6.9c0.3-0.3,0.5-0.5,0.8-0.7c0.3-0.2,0.6-0.4,0.9-0.6
				c0.3-0.2,0.7-0.4,1.1-0.5c0.4-0.1,0.8-0.3,1.2-0.3c0.2,0,0.4,0,0.7,0c0.2,0,0.4,0,0.6,0c0.4,0,0.7,0.1,1.1,0.1
				c0.7,0.1,1.4,0.2,2.1,0.4c1.4,0.3,2.7,0.7,4,1.1l3.8,1.3c2.4,0.7,5-0.2,7.6-0.9c-1.1,0.8-2.3,1.5-3.6,2.1
				c-0.7,0.3-1.4,0.5-2.1,0.6c-0.8,0.1-1.5,0.1-2.2,0c-0.8-0.1-1.4-0.3-2.1-0.5l-2-0.5c-1.3-0.3-2.6-0.7-3.9-1
				c-0.6-0.1-1.3-0.3-1.9-0.4c-0.3,0-0.6-0.1-1-0.1c-0.2,0-0.3,0-0.5,0c-0.1,0-0.2,0-0.3,0c-1,0-2.1,0.7-3.1,1.4
				C56.7,131.3,54.8,133.3,52.9,135.3z"/>
		</g>
		<g>
			<path class="st8" d="M89.8,107.3c0.9,1,1.3,2.2,1.6,3.5c0.3,1.3,0.3,2.5,0.2,3.8c-0.1,1.3-0.4,2.5-0.8,3.7
				c-0.4,1.2-1,2.3-1.9,3.3c-0.1-0.7,0-1.3,0-1.9c0-0.6,0.1-1.2,0.1-1.8l0.3-3.5c0.1-1.2,0.2-2.3,0.3-3.5
				C89.7,109.7,89.8,108.6,89.8,107.3z"/>
		</g>
	</g>
	<path class="st9" d="M153.3,128.7c0,0-27.1,77.2-33.2,96.8c-6.1,19.6-0.3,23.8-0.3,23.8L157,139C157,139,159,131.3,153.3,128.7z"/>
	<path class="st4" d="M197.9,148.6c0,0-1.6-6.4-3.9-5.6c-2.3,0.9-33.7,104.4-35,109.7c-1.3,5.3,1.8,9.6,1.8,9.6L197.9,148.6z"/>
	<path class="st4" d="M108.5,125.9c0,0-30.4,96.8-32.2,104.9c-1.8,8.1,1.8,8.9,1.8,8.9l36-115L108.5,125.9z"/>
	<g>
		<g>
			<path class="st8" d="M114.1,124.7c-2.7,10-5.5,20-8.4,29.9c-2.9,9.9-6,19.8-9,29.7c-3.1,9.9-6.2,19.7-9.5,29.6
				c-3.2,9.8-6.6,19.6-10.1,29.4c2.7-10,5.5-20,8.4-29.9c2.9-9.9,6-19.8,9-29.7c3.1-9.9,6.2-19.7,9.5-29.6
				C107.2,144.3,110.6,134.5,114.1,124.7z"/>
		</g>
		<g>
			<path class="st8" d="M46.3,233c1.7,1.5,2.9,2.9,4.2,4.4l2,2.1c0.7,0.7,1.4,1.4,2.2,2.2c-1.1,0.1-2.2-0.2-3.2-0.7
				c-1-0.5-1.9-1.2-2.6-2c-0.7-0.8-1.3-1.7-1.8-2.7C46.7,235.2,46.4,234.1,46.3,233z"/>
		</g>
		<g>
			<path class="st8" d="M60.6,245.1c2.6,0.5,4.9,1.1,7.2,1.2c1.1,0.1,2.2,0,3.4-0.1c1.1-0.2,2.2-0.6,3.5-1.1
				c-0.6,1.2-1.6,2.2-2.9,2.8c-1.3,0.6-2.7,0.8-4.1,0.7c-1.4-0.1-2.7-0.5-3.9-1.1C62.6,246.9,61.5,246.2,60.6,245.1z"/>
		</g>
	</g>
	<g>
		<g>
			<path class="st8" d="M127.3,122.8c-2.9,10.3-5.9,20.5-9,30.7c-3.1,10.2-6.4,20.4-9.6,30.6c-3.3,10.2-6.6,20.3-10.1,30.4
				c-1.7,5.1-3.5,10.1-5.2,15.1l-2.7,7.5c-0.5,1.3-0.9,2.5-1.4,3.8l-1.6,3.7c1.7-5.1,3.1-10.2,4.6-15.4c1.5-5.1,3.1-10.2,4.6-15.3
				c3.1-10.2,6.4-20.4,9.6-30.5c3.3-10.1,6.6-20.3,10.1-30.4C120,142.9,123.6,132.8,127.3,122.8z"/>
		</g>
		<g>
			<path class="st8" d="M87.6,247.5c0.5,0.4,0.9,0.8,1.2,1.2c0.3,0.4,0.5,0.8,0.7,1.2c0.2,0.4,0.3,0.8,0.5,1.2
				c0.1,0.4,0.3,0.9,0.4,1.6c-0.7,0.1-1.3-0.1-1.8-0.4c-0.5-0.4-0.9-0.8-1.1-1.3c-0.3-0.5-0.4-1.1-0.4-1.6
				C87.2,248.7,87.3,248.1,87.6,247.5z"/>
		</g>
		<g>
			<path class="st8" d="M92.2,255.1c1.7,1.2,3.3,2.2,5,3.1c1.7,0.9,3.5,1.6,5.3,2.1c1.8,0.5,3.7,0.9,5.6,1c1,0.1,1.9,0.1,2.9,0.1
				c1,0,2-0.1,3-0.1c-1.8,1-3.8,1.6-5.9,1.8c-2.1,0.3-4.2,0-6.3-0.6c-2-0.6-3.9-1.5-5.6-2.8C94.7,258.5,93.2,257,92.2,255.1z"/>
		</g>
		<g>
			<path class="st8" d="M118.4,253.8c3-10.2,6.1-20.4,9.3-30.5c3.2-10.1,6.6-20.2,9.9-30.3c3.4-10.1,6.8-20.1,10.4-30.1
				c3.5-10,7.2-20,11-29.9c-3,10.2-6.1,20.4-9.3,30.5c-3.2,10.1-6.6,20.2-9.9,30.3c-3.4,10.1-6.8,20.1-10.4,30.1
				C125.9,233.9,122.2,243.9,118.4,253.8z"/>
		</g>
	</g>
	<g>
		<g>
			<path class="st8" d="M167.8,134.4c-3.5,11.6-7.1,23.2-10.9,34.7c-3.7,11.5-7.6,23-11.5,34.5c-3.9,11.5-7.9,22.9-11.9,34.4
				l-3.1,8.6l-1.5,4.3l-0.8,2.1l-0.4,1.1c-0.1,0.3-0.2,0.7-0.3,1c-0.6,2.8,0.2,5.9,2.1,8.2c1.9,2.3,4.7,3.7,7.7,4.3
				c-1.5-0.3-3-0.6-4.4-1.2c-1.4-0.7-2.7-1.6-3.7-2.7c-2.1-2.3-3.2-5.6-2.7-8.8c0-0.4,0.2-0.8,0.3-1.2l0.3-1.1l0.7-2.2l1.4-4.3
				l2.8-8.7c3.7-11.5,7.6-23,11.5-34.5c3.9-11.5,7.9-22.9,11.9-34.4C159.4,157.1,163.5,145.7,167.8,134.4z"/>
		</g>
		<g>
			<path class="st8" d="M151.4,270c1.4,0.4,2.9,0.1,4.1-0.7c1.2-0.7,2.1-1.8,2.9-3l0.6-0.9l0.5-1c0.3-0.6,0.6-1.3,0.8-2
				c0.5-1.3,0.9-2.7,1.4-4.1c1.8-5.5,3.5-11,5.2-16.5c3.5-11,7-22.1,10.5-33.1c3.6-11,7.2-22,10.9-33c3.7-11,7.5-21.9,11.4-32.8
				c-3.1,11.2-6.4,22.3-9.7,33.3c-3.4,11.1-6.9,22.1-10.4,33.1c-3.6,11-7.2,22-11,32.9c-1.9,5.5-3.8,10.9-5.8,16.4
				c-0.5,1.4-1,2.7-1.6,4.1c-0.3,0.7-0.6,1.3-1,2l-0.6,1l-0.6,0.9c-0.9,1.2-1.9,2.3-3.2,3C154.3,270.3,152.7,270.5,151.4,270z"/>
		</g>
	</g>
	<g>
		<path class="st6" d="M96,57.7c-6.2,0.6-15.7,3.8-19.7,10.5c-4,6.8-6.4,13.5-2.2,16.5s12.7-2.2,18.9-4.3c6.2-2.2,9.4,5.9,8.6,11.1
			c-0.8,5.1-14.6,30,3.2,34c17.8,4.1,17-19.2,17.3-23.2c0.3-4.1,2-11.9,6.9-11.9c4.9,0,1.4,13.8,8.7,12.2s5.9-6.5,5.9-9.2
			c0-2.7,4.9-9.2,10.8-3.8c5.9,5.4,1.1,11.6,5.7,12.4c4.6,0.8,7.8-7.8,15.7-2.7c7.8,5.1-3,9.5-5.1,17.8c-2.2,8.4,1.9,16.5,10,15.7
			c8.1-0.8,10.5-8.4,14.6-14.6c4-6.2,8.4-7.3,11.1-3.8c2.7,3.5-1.6,9.5,6.2,9.7c7.8,0.3,4.6-5.1,10.5-3.5c5.9,1.6,6.8,6.6,5.7,10.9
			c-1.1,4.3-5.9,22.6-5.9,22.6s2.4,11.3,12.9,5.4c10.5-5.9,18.6-24,18.1-30.3S248,115,248,109.5s-1.1-8.2,10.3-12.2
			c11.3-3.9,4.3-18.5-11.6-18.3c-15.9,0.3-23.2,0.8-24.3-5.4c-1.1-6.2-2.2-16.7-20.8-12.4c-18.6,4.3-15.4,1.9-21.6-3.5
			c-6.2-5.4-17.5-8.4-32.1-4.1c-14.6,4.3-17,1.8-21.6-2.1c-4.6-3.9-16.2-0.1-21.1,2.9C100.3,57.4,99.1,57.4,96,57.7z"/>
		<g>
			<path class="st8" d="M103.6,66.1c-1.6,1-3.1,2-4.3,3.1c-0.6,0.6-1.1,1.2-1.3,1.8c-0.2,0.6-0.2,1.1,0.1,1.7c0.3,0.6,0.7,1,1.2,1.2
				c0.5,0.2,1.3,0.1,2.1-0.1c1.6-0.4,3.2-1.3,4.9-2.1c-1.1,1.6-2.5,2.9-4.3,3.7c-0.9,0.4-2,0.8-3.2,0.5c-0.6-0.1-1.2-0.4-1.7-0.9
				c-0.1-0.1-0.2-0.2-0.3-0.3l-0.3-0.4c-0.2-0.3-0.4-0.5-0.5-0.8c-0.6-1-0.6-2.5,0-3.5c0.5-1.1,1.3-1.8,2.2-2.3
				C99.8,66.7,101.7,66.2,103.6,66.1z"/>
		</g>
		<g>
			<path class="st8" d="M124.1,67.4c1.4-0.6,3-1,4.5-1.3c1.6-0.3,3.2-0.3,4.8-0.1c1.6,0.2,3.2,0.8,4.6,1.5c1.4,0.8,2.7,1.7,4,2.7
				c2.5,1.9,4.9,3.7,7.7,4.5c1.4,0.4,2.8,0.6,4.3,0.5c1.5-0.1,3-0.3,4.6-0.5c3.1-0.4,6.2-0.7,9.4-0.9c3.2-0.1,6.4,0,9.5,0.5
				c3.2,0.5,6.3,1.5,9.1,3c2.8,1.5,5.3,3.5,7.3,5.9c-2.4-2.1-5-3.8-7.8-5c-1.4-0.6-2.9-1.1-4.3-1.4c-1.5-0.4-3-0.6-4.5-0.8
				c-6.1-0.7-12.2,0-18.4,0.8c-1.6,0.2-3.1,0.4-4.8,0.4c-1.7,0.1-3.4-0.2-5-0.7c-3.2-1-5.8-3.1-8.2-5.2c-2.4-2-4.8-3.9-7.7-4.5
				c-1.5-0.3-3-0.4-4.5-0.3C127.1,66.8,125.6,67,124.1,67.4z"/>
		</g>
		<g>
			<path class="st8" d="M127.3,84.4c-3.3,2.1-5.8,5.3-6.9,8.9c-0.3,0.9-0.5,1.8-0.6,2.7l-0.1,1.4l-0.1,1.5c-0.2,2-0.4,4-0.7,5.9
				c-0.3,2-0.8,3.9-1.4,5.9c-0.7,1.9-1.4,3.9-2.7,5.5c-0.6,0.8-1.4,1.6-2.3,2.3c-1,0.6-1.9,1-2.9,1.2c-1,0.2-2.1,0.3-3.1,0.1
				c-1-0.2-2-0.6-2.7-1.4c1.7,1.1,3.7,0.9,5.4,0.2c0.9-0.3,1.7-0.8,2.4-1.4c0.7-0.6,1.2-1.3,1.7-2.1c0.9-1.6,1.6-3.3,2.1-5.2
				c0.5-1.8,0.9-3.7,1.2-5.6c0.3-1.9,0.6-3.8,0.8-5.8l0.2-1.5l0.2-1.5c0.2-1,0.5-2,0.9-3C120.4,88.8,123.6,85.7,127.3,84.4z"/>
		</g>
		<g>
			<path class="st8" d="M217.7,100.1c1.7-0.5,3.6-0.5,5.3-0.4c1.8,0.2,3.6,0.6,5.2,1.3c0.8,0.3,1.6,0.8,2.4,1.2
				c0.8,0.5,1.5,1,2.2,1.6c1.4,1.1,2.6,2.6,3.4,4.1c-1.6-0.9-2.9-1.9-4.4-2.7c-0.7-0.4-1.5-0.8-2.2-1.1c-0.8-0.3-1.5-0.7-2.3-1
				c-1.5-0.6-3.1-1.2-4.7-1.7C221.1,101,219.5,100.5,217.7,100.1z"/>
		</g>
		<g>
			<path class="st8" d="M155.5,52c1.9-0.7,4-1,6-1.2c2.1-0.2,4.2-0.1,6.2,0.3c1,0.2,2.1,0.5,3,0.9c1,0.3,1.9,0.6,2.9,1
				c1.9,0.7,3.9,1.6,5.6,2.9c1.7,1.3,3.2,2.8,4.6,4.3c1.3,1.6,2.6,3.1,3.9,4.6c1.4,1.5,2.7,2.9,4.4,3.9c0.8,0.5,1.7,0.9,2.6,1.3
				c0.9,0.3,1.9,0.5,2.9,0.6c-1,0.1-2.1,0.1-3.1,0c-1-0.2-2.1-0.5-3-0.9c-1.9-0.9-3.6-2.2-5.1-3.6c-3.1-2.8-5.5-6.1-8.6-8.3
				c-1.5-1.2-3.3-2-5.1-2.7c-0.9-0.4-1.9-0.8-2.8-1.1c-1-0.4-1.8-0.7-2.8-1c-1.9-0.5-3.8-0.8-5.8-0.9
				C159.6,51.7,157.6,51.8,155.5,52z"/>
		</g>
		<path class="st7" d="M72.5,76.3c0,0-4.1,11.1,5.6,9.3c9.7-1.8,16.1-8.7,20.7-2.2c4.6,6.4,1.2,12-0.4,17.7
			c-1.7,5.7-8,17.6,3.1,23.2c11,5.6,18.2-0.8,19.4-9.8c1.2-9,1.4-20.8,6.4-23.2c5.1-2.4,1.6,6.9,7.2,10.5c5.6,3.6,10.5-2.2,9.3-7.5
			c-1.2-5.4,7.8-9.6,10.8-4.7c3,4.9-0.7,8.6,3.2,11.8c4,3.2,9.5-3.1,11.3-3.4c1.8-0.3,7.1,0.6,9.3,4c2.3,3.4-5.8,8.2-7.7,15.1
			c-1.9,6.9-0.3,13,5.9,15.3c6.2,2.2,12.1-1.5,15.2-8.3c3.1-6.8,8.8-16.5,16.4-16.1c7.6,0.4,7.7,5.7,7.7,5.7s-0.6-12.5-13.4-11.5
			c-12.7,1-14,14-18.4,15.4c-4.4,1.4-8.6-1.3-4.5-8.5c4.1-7.2,1.2-15.7-6.9-15.7c-8.1,0-10.1,3.5-11,2c-0.9-1.5-2.1-11.1-7.9-12
			c-5.9-0.9-11.2,1.4-13.2,4.1c-2,2.6-0.5,7.9-1.9,7.9c-1.4,0-3.1-8.7-6.4-9.1c-3.3-0.4-7.8,0.3-9.3,5c-1.6,4.8-3.1,25.7-7.5,27.9
			c-4.4,2.1-13.9,3.1-13.6-6.6c0.3-9.6,6.7-21.7,4.3-27.2c-2.4-5.5-10.2-12.5-18.3-9C79.8,79.8,73,79.7,72.5,76.3z"/>
		<path class="st7" d="M207.3,116.8c0,0-1.2,7,3.4,7.1c4.5,0,4.8,0.6,8.5-2.4c3.6-3,8,1,9.6,4c1.6,3-5.9,28.6-5.9,28.6
			s0.4,7.9,8.6,7c8.2-0.9,13.9-9.9,16.6-15.1c2.7-5.3,5.9-9.4,5.8-16.7c-0.2-7.4-5.7-12.6-5.8-18.3c0,0,0.8,25.1-5,32.6
			c-5.8,7.5-10.5,1.1-7.9-9.2c2.6-10.3-1.4-20.4-9.4-20.8c-8-0.4-7.6,4.7-11.1,4.7c-3.6,0-5.9-5.3-9.8-5.4
			C204.7,112.9,206.4,114.9,207.3,116.8z"/>
		<path class="st7" d="M209.6,82.1c4.2-1.6,10.9,3.2,16,1.2c5.1-2,13.5-2.5,14.5,1.1c1.1,3.9-0.5,8.3-8.7,7.8
			c-8.3-0.5-11.5-0.4-20.9,0C201.2,92.7,201,85.4,209.6,82.1z"/>
		<g>
			<path class="st8" d="M74.5,85.5c1.5,0.1,2.9,0,4.4-0.3c1.4-0.3,2.8-0.6,4.2-1.2c2.7-1.1,5.2-2.6,8.1-3.5c1.4-0.4,3-0.7,4.7-0.3
				c1.6,0.5,2.9,1.6,3.8,2.8c0.9,1.3,1.5,2.7,1.9,4.3c0.4,1.5,0.5,3.1,0.3,4.7c-0.1,0.8-0.3,1.6-0.5,2.3c-0.2,0.7-0.5,1.4-0.7,2.1
				l-1.5,4.1c-1,2.8-1.8,5.5-2.5,8.3c-0.6,2.8-1,5.7-0.2,8.1c0.9,2.5,2.7,4.7,5,6.1c2.3,1.4,5,2.2,7.8,2.1c2.7-0.1,5.5-0.8,7.3-2.7
				c0.9-0.9,1.6-2.1,2.2-3.4c0.5-1.3,0.9-2.6,1.2-4c0.5-2.8,0.7-5.7,1.1-8.6c0.4-2.9,0.8-5.9,1.6-8.8c0.4-1.4,1-2.9,1.8-4.2
				c0.8-1.3,2.1-2.5,3.8-2.9c0.4-0.1,0.9-0.1,1.4,0.1c0.5,0.2,0.9,0.6,1,1c0.4,0.8,0.4,1.5,0.5,2.3c0.2,1.5,0.3,2.9,0.8,4.2
				c0.5,1.3,1.3,2.5,2.5,3.3c1.2,0.8,2.7,1.1,4.1,1.3c-1.5,0-3-0.3-4.3-1c-1.3-0.7-2.4-2-2.9-3.4c-0.6-1.4-0.8-2.9-1.1-4.3
				c-0.1-0.7-0.3-1.4-0.6-2c-0.3-0.5-0.7-0.6-1.3-0.4c-1.3,0.3-2.3,1.3-2.9,2.5c-0.7,1.2-1.2,2.5-1.5,3.9c-0.7,2.8-1,5.7-1.3,8.6
				c-0.3,2.9-0.4,5.8-1,8.8c-0.3,1.5-0.7,3-1.3,4.4c-0.6,1.4-1.4,2.9-2.5,4c-1.1,1.2-2.6,2.1-4.1,2.6c-1.5,0.5-3.1,0.8-4.7,0.8
				c-3.1,0.1-6.3-0.7-9-2.4c-2.7-1.7-4.9-4.3-5.9-7.3c-0.5-1.6-0.5-3.2-0.5-4.8c0.1-1.6,0.4-3,0.7-4.5c0.7-2.9,1.7-5.7,2.7-8.5
				l1.6-4.1c0.3-0.7,0.5-1.4,0.7-2c0.2-0.7,0.4-1.3,0.5-2c0.4-2.7-0.2-5.6-1.7-7.9c-0.7-1.1-1.8-2.1-3-2.5c-1.2-0.4-2.7-0.2-4,0.1
				c-2.8,0.7-5.4,2-8.2,3C80.5,85.6,77.5,85.9,74.5,85.5z"/>
		</g>
		<g>
			<path class="st8" d="M149.6,87.5c1.6,0.1,3.1,0.6,4.4,1.6c0.6,0.5,1.2,1.1,1.5,1.9c0.3,0.8,0.4,1.6,0.5,2.4
				c0.1,1.6,0.1,3.2,0.3,4.7c0.1,0.7,0.3,1.5,0.7,2c0.4,0.6,1,0.9,1.7,1.1c1.4,0.5,2.8,0.3,4.2-0.4c1.4-0.6,2.5-1.5,3.8-2.5
				c1.5-1,3.2-1.3,4.9-1.3c1.7,0.1,3.4,0.6,4.8,1.5c1.4,1,2.6,2.3,3.2,4.1c0.3,0.9,0.3,2-0.1,2.9c-0.4,0.9-0.9,1.6-1.5,2.2
				c-1.1,1.2-2.2,2.3-3.2,3.4c-1,1.1-1.9,2.3-2.5,3.7c-1.3,2.6-1.9,5.6-1.5,8.5c0.2,1.4,0.6,2.9,1.3,4.1c0.7,1.2,1.6,2.3,2.8,2.9
				c0.5,0.3,1.3,0.6,2,0.8c0.7,0.2,1.4,0.4,2.1,0.6c1.4,0.3,2.8,0.2,4.1-0.3c2.6-0.9,4.7-3.2,6.5-5.6c0.9-1.2,1.6-2.6,2.5-3.9
				c0.9-1.3,1.7-2.7,2.7-4c1-1.3,2-2.6,3.2-3.7c0.6-0.6,1.3-1.1,2.1-1.5c0.8-0.4,1.7-0.7,2.6-0.8c0.5,0,0.9,0,1.3,0
				c0.2,0,0.4,0,0.6,0.1l0.3,0l0.4,0.1c0.6,0.1,1.2,0.5,1.5,1.1c0.4,0.5,0.5,1,0.6,1.5c0.2,0.9,0.1,1.7,0.2,2.5c0,0.8,0,1.5,0.1,2.2
				c0.1,1.4,0.7,2.6,1.7,3.3c0.1,0.1,0.3,0.2,0.4,0.2l0.5,0.2c0.3,0.2,0.7,0.3,1,0.4c0.7,0.2,1.4,0.3,2,0.3c1.3,0,2.6-0.6,3.8-1.5
				c0.3-0.2,0.6-0.5,0.9-0.7l0.4-0.4l0.2-0.2c0.1-0.1,0.2-0.2,0.3-0.2c0.8-0.6,1.7-0.8,2.6-0.9c1.8-0.2,3.6,0.4,4.9,1.5
				c1.4,1.1,2.3,2.5,2.9,4.1l0,0.1l0,0c0.2,1.3,0.2,2.4,0.1,3.6c-0.1,1.2-0.2,2.3-0.5,3.4c-0.2,1.1-0.5,2.2-0.9,3.3l-0.6,1.6
				c-0.1,0.3-0.2,0.5-0.3,0.8l-0.2,0.4l0,0.1c0,0,0,0,0,0.1c-0.1,0,0-0.1,0-0.1l0.1-0.2l0,0.2c-0.1,0,0-0.1,0-0.1l0.1-0.4
				c0-0.3,0.1-0.6,0.1-0.8l0.3-1.7c0.1-1.1,0.4-2.2,0.6-3.3c0.2-1.1,0.3-2.2,0.3-3.3c0-1.1,0-2.2-0.2-3.2l0,0.1
				c-0.6-1.4-1.4-2.6-2.6-3.4c-1.1-0.8-2.6-1.2-3.9-1.1c-0.7,0.1-1.3,0.3-1.8,0.7c-0.1,0-0.1,0.1-0.2,0.1l-0.2,0.2l-0.4,0.4
				c-0.3,0.3-0.6,0.6-0.9,0.8c-1.2,1.1-3,2-4.8,2c-0.9,0-1.8-0.1-2.6-0.3c-0.4-0.1-0.8-0.3-1.2-0.4l-0.6-0.3
				c-0.2-0.1-0.4-0.2-0.6-0.3c-0.8-0.5-1.5-1.2-1.9-2.1c-0.4-0.8-0.7-1.7-0.8-2.6c-0.2-1.7-0.1-3.3-0.3-4.6
				c-0.1-0.3-0.2-0.6-0.3-0.7c-0.1-0.1-0.2-0.2-0.4-0.2l-0.2,0l-0.3,0c-0.2,0-0.4,0-0.5,0c-0.4,0-0.7,0-1,0
				c-1.3,0.1-2.4,0.8-3.5,1.8c-1.1,1-2,2.2-2.9,3.4c-0.9,1.2-1.7,2.5-2.6,3.8c-0.8,1.3-1.6,2.7-2.5,4c-0.9,1.3-2,2.6-3.2,3.8
				c-1.2,1.1-2.7,2.1-4.4,2.7c-1.7,0.6-3.5,0.7-5.2,0.3c-0.8-0.2-1.7-0.4-2.4-0.6c-0.8-0.3-1.5-0.5-2.3-1c-1.6-0.9-2.8-2.3-3.6-3.8
				c-0.8-1.5-1.3-3.2-1.5-4.9c-0.4-3.3,0.3-6.7,1.9-9.7c0.8-1.5,1.8-2.8,2.9-4c1.1-1.2,2.3-2.3,3.3-3.3c0.5-0.5,1-1.1,1.2-1.6
				c0.3-0.6,0.3-1.1,0.1-1.7c-0.4-1.3-1.3-2.5-2.4-3.3c-1.2-0.8-2.6-1.3-4-1.4c-1.4-0.1-2.9,0.2-4.1,0.9c-1.2,0.9-2.6,1.9-4.1,2.5
				c-1.5,0.7-3.4,0.9-5,0.2c-0.4-0.2-0.8-0.3-1.1-0.6c-0.4-0.3-0.7-0.6-0.9-1c-0.5-0.8-0.6-1.6-0.7-2.4c-0.2-1.6-0.1-3.2-0.1-4.7
				c0-0.8-0.1-1.5-0.3-2.3c-0.2-0.7-0.7-1.3-1.3-1.8C152.7,88.3,151.2,87.7,149.6,87.5z"/>
		</g>
	</g>
	<g>
		<path class="st8" d="M186.1,63.1c4.6,0,9.2-0.9,13.7-2.1c2.3-0.5,4.5-1.1,6.9-1.4c2.3-0.3,4.8-0.4,7.2,0.2
			c1.2,0.3,2.4,0.8,3.4,1.5c0.6,0.3,1,0.7,1.5,1.1c0.4,0.5,0.9,0.9,1.3,1.4c1.6,2,2.2,4.6,2.7,6.8c0.4,2.3,0.8,4.5,2.3,5.6l0.3,0.2
			c0.1,0.1,0.2,0.1,0.3,0.2c0.2,0.1,0.4,0.2,0.7,0.3l0.7,0.2c0.3,0.1,0.5,0.1,0.8,0.2c1,0.2,2.2,0.4,3.3,0.4c4.5,0.3,9.1-0.2,13.9,0
			c0.6,0,1.2,0.1,1.8,0.1c0.6,0.1,1.2,0.2,1.8,0.3c1.1,0.2,2.3,0.4,3.5,0.6c2.3,0.5,4.7,1.1,6.8,2.4c1.1,0.6,2,1.4,2.9,2.3
			c0.8,0.9,1.5,2,2,3.1c0.3,0.6,0.5,1.1,0.6,1.7c0.2,0.6,0.3,1.2,0.4,1.8c0.2,1.2-0.1,2.6-0.7,3.7c-0.6,1.1-1.6,1.9-2.6,2.6
			c-1,0.6-2.1,1.1-3.2,1.5c-1.1,0.4-2.2,0.7-3.3,1c-1.1,0.3-2.2,0.6-3.2,1.3c0.9-0.8,2-1.2,3.1-1.6c1.1-0.4,2.2-0.8,3.2-1.3
			c2.1-0.9,4.2-2.1,5.1-4c0.5-0.9,0.6-2,0.4-3c-0.1-0.5-0.2-1-0.4-1.6c-0.2-0.5-0.4-1-0.6-1.5c-0.5-1-1.1-1.8-1.8-2.6
			c-0.8-0.7-1.6-1.4-2.6-1.9c-1.9-1-4.1-1.6-6.3-2c-1.1-0.2-2.2-0.4-3.4-0.5c-0.6-0.1-1.1-0.1-1.7-0.2c-0.5,0-1.1-0.1-1.7-0.1
			c-4.5-0.1-9.2,0.4-13.9,0.2c-1.2-0.1-2.4-0.2-3.6-0.5c-0.3-0.1-0.6-0.1-0.9-0.2l-0.9-0.3c-0.3-0.1-0.6-0.3-0.9-0.4
			c-0.2-0.1-0.3-0.2-0.5-0.2l-0.4-0.3c-1.1-0.9-1.8-2.2-2.2-3.4c-0.4-1.2-0.6-2.4-0.8-3.5c-0.4-2.3-0.9-4.4-2.1-6
			c-0.3-0.4-0.7-0.8-1-1.2c-0.4-0.3-0.8-0.7-1.3-1c-0.9-0.6-1.9-1-2.9-1.4c-2.1-0.6-4.3-0.6-6.6-0.4c-2.3,0.2-4.5,0.6-6.8,1
			c-2.3,0.4-4.6,0.8-6.9,1C190.8,63.3,188.5,63.4,186.1,63.1z"/>
	</g>
</g>
<g>
	<path class="st10" d="M166.2,111.8c-13.3-21.1-38.2-25.1-55.5-8.8c-17.3,16.3-20.6,46.6-7.2,67.7c13.3,21.1,38.2,25.1,55.5,8.8
		C176.3,163.3,179.5,133,166.2,111.8z"/>
	<g>
		<g>
			<polygon class="st11" points="186,213 178.6,220 156.1,184.4 163.5,177.4 			"/>
			<path class="st12" d="M229.1,269.3c3.2,5.1,2.1,12.8-2.5,17.2l0,0c-4.7,4.4-11.1,3.7-14.3-1.4l-34.8-55.1
				c-3.2-5.1-2.1-12.8,2.6-17.2l0,0c4.6-4.4,11-3.7,14.3,1.4L229.1,269.3z"/>
			<g>
				<path class="st11" d="M172.7,105.7c-16.1-25.5-46.1-30.3-67-10.6c-20.9,19.6-24.8,56.2-8.7,81.7c16.1,25.5,46.1,30.3,67,10.6
					C184.9,167.8,188.8,131.2,172.7,105.7z M159,179.6c-17.3,16.3-42.2,12.3-55.5-8.8c-13.3-21.1-10.1-51.4,7.2-67.7
					c17.3-16.3,42.2-12.3,55.5,8.8C179.5,133,176.3,163.3,159,179.6z"/>
				<path class="st10" d="M166.2,111.8c-13.3-21.1-38.2-25.1-55.5-8.8c-17.3,16.3-20.6,46.6-7.2,67.7c13.3,21.1,38.2,25.1,55.5,8.8
					C176.3,163.3,179.5,133,166.2,111.8z"/>
			</g>
		</g>
	</g>
</g>
</svg>
