<?xml version="1.0" encoding="utf-8"?>
<!-- Generator: Adobe Illustrator 23.1.0, SVG Export Plug-In . SVG Version: 6.00 Build 0)  -->
<svg version="1.1" id="Capa_1" xmlns="http://www.w3.org/2000/svg" xmlns:xlink="http://www.w3.org/1999/xlink" x="0px" y="0px"
	 viewBox="0 0 288 345.9" style="enable-background:new 0 0 288 345.9;" xml:space="preserve">
<style type="text/css">
	.st0{fill:#3F4D50;}
	.st1{fill:#2F383A;}
	.st2{fill:#DA4643;}
	.st3{fill:#F39225;}
	.st4{fill:#E6E6E5;}
</style>
<g>
	<g>
		<path class="st0" d="M281.5,171.1c0,93.4-62.1,169.1-138.7,169.1c-76.6,0-138.7-75.7-138.7-169.1C4.2,77.7,66.3,2,142.8,2
			C219.4,2,281.5,77.7,281.5,171.1z"/>
	</g>
</g>
<g>
	<path class="st0" d="M23.1,256.4c-0.4-0.8-0.7-1.6-1.1-2.4C22.4,254.9,22.7,255.6,23.1,256.4z"/>
	<path class="st0" d="M21.1,252.1c-0.2-0.5-0.5-1-0.7-1.5C20.7,251.1,20.9,251.6,21.1,252.1z"/>
	<path class="st0" d="M32.5,273.5c-0.4-0.6-0.7-1.1-1.1-1.7C31.8,272.4,32.2,273,32.5,273.5z"/>
	<path class="st0" d="M30.8,270.7c-0.6-1.1-1.3-2.1-1.9-3.2C29.6,268.6,30.2,269.7,30.8,270.7z"/>
	<path class="st0" d="M28.2,266.2c-0.3-0.5-0.6-1.1-0.9-1.7C27.6,265.1,27.9,265.6,28.2,266.2z"/>
	<path class="st0" d="M26.5,263.1c-0.3-0.5-0.6-1.1-0.9-1.6C25.9,262,26.2,262.5,26.5,263.1z"/>
	<path class="st0" d="M24.8,259.9c-0.3-0.5-0.5-1.1-0.8-1.6C24.3,258.8,24.6,259.4,24.8,259.9z"/>
	<path class="st0" d="M19.7,248.8c-0.2-0.5-0.4-1-0.7-1.6C19.2,247.8,19.5,248.3,19.7,248.8z"/>
	<path class="st0" d="M11.7,226.2c-0.1-0.4-0.2-0.7-0.3-1.1C11.5,225.5,11.6,225.8,11.7,226.2z"/>
	<path class="st0" d="M12.9,230.1c-0.1-0.5-0.3-1-0.4-1.4C12.6,229.2,12.7,229.6,12.9,230.1z"/>
	<path class="st0" d="M14,233.7c-0.2-0.5-0.3-1-0.5-1.5C13.7,232.7,13.9,233.2,14,233.7z"/>
	<path class="st0" d="M16.8,241.6c-0.2-0.4-0.3-0.9-0.5-1.3C16.5,240.7,16.6,241.2,16.8,241.6z"/>
	<path class="st0" d="M18.3,245.4c-0.2-0.5-0.4-1-0.6-1.5C17.9,244.4,18.1,244.9,18.3,245.4z"/>
	<path class="st0" d="M15.2,237.2c-0.2-0.5-0.3-0.9-0.5-1.4C14.9,236.3,15,236.8,15.2,237.2z"/>
	<path class="st0" d="M75.5,318.9c-3-2-6-4.2-8.8-6.5C69.5,314.7,72.5,316.8,75.5,318.9z"/>
	<path class="st0" d="M66.3,312c-0.6-0.5-1.3-1.1-1.9-1.6C65,311,65.6,311.5,66.3,312z"/>
	<path class="st0" d="M63.9,310.1c-2.8-2.3-5.5-4.8-8.1-7.4C58.5,305.3,61.2,307.8,63.9,310.1z"/>
	<path class="st0" d="M77.9,320.5c-0.7-0.5-1.4-0.9-2.2-1.4C76.5,319.5,77.2,320,77.9,320.5z"/>
	<path class="st0" d="M90.2,327.5c-0.8-0.4-1.6-0.8-2.3-1.2C88.7,326.7,89.4,327.1,90.2,327.5z"/>
	<path class="st0" d="M34.4,276.4c-0.4-0.6-0.7-1.1-1.1-1.7C33.6,275.3,34,275.9,34.4,276.4z"/>
	<path class="st0" d="M55.4,302.3c-0.6-0.6-1.1-1.1-1.7-1.7C54.3,301.2,54.8,301.7,55.4,302.3z"/>
	<path class="st0" d="M87.8,326.3c-3.2-1.7-6.4-3.6-9.5-5.6C81.3,322.7,84.5,324.6,87.8,326.3z"/>
	<path class="st0" d="M41.3,286.2c-1.5-2-3-4-4.4-6C38.4,282.3,39.8,284.3,41.3,286.2z"/>
	<path class="st0" d="M43.3,288.8c-0.5-0.6-0.9-1.2-1.4-1.7C42.4,287.6,42.9,288.2,43.3,288.8z"/>
	<path class="st0" d="M36.3,279.3c-0.4-0.6-0.8-1.1-1.2-1.7C35.5,278.1,35.9,278.7,36.3,279.3z"/>
	<path class="st0" d="M45.4,291.3c-0.5-0.6-1-1.2-1.4-1.7C44.4,290.2,44.9,290.8,45.4,291.3z"/>
	<path class="st0" d="M53.2,300c-0.6-0.6-1.1-1.2-1.7-1.7C52.1,298.9,52.6,299.5,53.2,300z"/>
	<path class="st0" d="M51.2,297.9c-1.8-1.9-3.5-3.9-5.2-5.9C47.6,294,49.4,296,51.2,297.9z"/>
	<path class="st0" d="M7,205.3c-0.1-0.3-0.1-0.6-0.1-0.9C6.9,204.7,7,205,7,205.3z"/>
	<path class="st0" d="M7.9,210.1c-0.1-0.4-0.1-0.7-0.2-1.1C7.8,209.4,7.8,209.8,7.9,210.1z"/>
	<path class="st0" d="M5.9,197.6c-0.1-0.5-0.1-0.9-0.2-1.4C5.8,196.7,5.8,197.1,5.9,197.6z"/>
	<path class="st0" d="M6.4,201.5c-0.1-0.5-0.1-0.9-0.2-1.4C6.3,200.6,6.3,201.1,6.4,201.5z"/>
	<path class="st0" d="M8.7,214.2c-0.1-0.5-0.2-0.9-0.3-1.4C8.5,213.2,8.6,213.7,8.7,214.2z"/>
	<path class="st0" d="M9.6,217.9c-0.1-0.5-0.2-0.9-0.3-1.4C9.4,217,9.5,217.5,9.6,217.9z"/>
	<path class="st0" d="M4.6,184.5c0-0.4-0.1-0.9-0.1-1.3C4.6,183.6,4.6,184.1,4.6,184.5z"/>
	<path class="st0" d="M4.2,176.3c0-0.4,0-0.8,0-1.3C4.2,175.5,4.2,175.9,4.2,176.3z"/>
	<path class="st0" d="M10.5,221.6c-0.1-0.4-0.2-0.8-0.3-1.2C10.3,220.8,10.4,221.2,10.5,221.6z"/>
	<path class="st0" d="M5.4,193.5c0-0.4-0.1-0.8-0.1-1.2C5.3,192.7,5.3,193.1,5.4,193.5z"/>
	<path class="st0" d="M4.9,188.4c0-0.2,0-0.4,0-0.6C4.9,188,4.9,188.2,4.9,188.4z"/>
	<path class="st0" d="M4.4,180.5c0-0.5,0-0.9-0.1-1.4C4.3,179.6,4.4,180,4.4,180.5z"/>
	<path class="st1" d="M51.5,298.3c-0.1-0.1-0.2-0.2-0.3-0.4C51.3,298.1,51.4,298.2,51.5,298.3z"/>
	<path class="st1" d="M4.5,183.2c-0.1-0.9-0.1-1.8-0.1-2.7C4.4,181.4,4.5,182.3,4.5,183.2z"/>
	<path class="st1" d="M45.9,292c-0.2-0.2-0.4-0.4-0.6-0.7C45.6,291.6,45.8,291.8,45.9,292z"/>
	<path class="st1" d="M44,289.6c-0.2-0.3-0.4-0.5-0.7-0.8C43.5,289.1,43.7,289.3,44,289.6z"/>
	<path class="st1" d="M41.9,287c-0.2-0.3-0.4-0.5-0.6-0.8C41.5,286.5,41.7,286.8,41.9,287z"/>
	<path class="st1" d="M5.3,192.3c-0.1-1.3-0.3-2.6-0.4-3.9C5,189.7,5.1,191,5.3,192.3z"/>
	<path class="st1" d="M4.9,187.9c-0.1-1.1-0.2-2.2-0.2-3.3C4.7,185.6,4.8,186.7,4.9,187.9z"/>
	<path class="st1" d="M75.8,319.1c-0.1-0.1-0.2-0.1-0.3-0.2C75.6,318.9,75.7,319,75.8,319.1z"/>
	<path class="st1" d="M53.7,300.6c-0.2-0.2-0.4-0.4-0.5-0.6C53.4,300.2,53.5,300.4,53.7,300.6z"/>
	<path class="st1" d="M90.5,327.7c-0.1-0.1-0.2-0.1-0.3-0.2C90.3,327.6,90.4,327.6,90.5,327.7z"/>
	<path class="st1" d="M87.9,326.3c0,0-0.1,0-0.1-0.1C87.8,326.3,87.8,326.3,87.9,326.3z"/>
	<path class="st1" d="M78.2,320.7c-0.1-0.1-0.2-0.1-0.3-0.2C78,320.6,78.1,320.6,78.2,320.7z"/>
	<path class="st1" d="M4.3,179.1c0-0.9-0.1-1.8-0.1-2.8C4.3,177.3,4.3,178.2,4.3,179.1z"/>
	<path class="st1" d="M55.9,302.7c-0.2-0.1-0.3-0.3-0.5-0.4C55.6,302.5,55.7,302.6,55.9,302.7z"/>
	<path class="st1" d="M4.2,175.1c0-1.3,0-2.7,0-4C4.2,172.4,4.2,173.7,4.2,175.1z"/>
	<path class="st1" d="M64.3,310.5c-0.1-0.1-0.3-0.2-0.4-0.3C64.1,310.2,64.2,310.3,64.3,310.5z"/>
	<path class="st1" d="M66.7,312.3c-0.1-0.1-0.2-0.2-0.4-0.3C66.4,312.1,66.5,312.2,66.7,312.3z"/>
	<path class="st1" d="M11.4,225.1c-0.3-1.2-0.6-2.3-0.9-3.5C10.8,222.8,11.1,224,11.4,225.1z"/>
	<path class="st1" d="M17.7,243.9c-0.3-0.7-0.6-1.5-0.9-2.3C17.1,242.4,17.4,243.1,17.7,243.9z"/>
	<path class="st1" d="M19,247.2c-0.3-0.6-0.5-1.2-0.8-1.8C18.5,246,18.8,246.6,19,247.2z"/>
	<path class="st1" d="M9.2,216.5c-0.2-0.8-0.4-1.6-0.5-2.4C8.9,215,9.1,215.7,9.2,216.5z"/>
	<path class="st1" d="M20.4,250.6c-0.3-0.6-0.5-1.2-0.8-1.8C19.9,249.4,20.2,250,20.4,250.6z"/>
	<path class="st1" d="M8.4,212.8c-0.2-0.9-0.4-1.8-0.5-2.6C8.1,211,8.2,211.9,8.4,212.8z"/>
	<path class="st1" d="M22,254.1c-0.3-0.6-0.6-1.3-0.9-2C21.4,252.8,21.7,253.4,22,254.1z"/>
	<path class="st1" d="M13.5,232.2c-0.2-0.7-0.4-1.4-0.7-2.1C13.1,230.8,13.3,231.5,13.5,232.2z"/>
	<path class="st1" d="M16.3,240.3c-0.4-1-0.7-2-1.1-3.1C15.6,238.3,15.9,239.3,16.3,240.3z"/>
	<path class="st1" d="M14.7,235.9c-0.2-0.7-0.5-1.4-0.7-2.1C14.2,234.4,14.5,235.1,14.7,235.9z"/>
	<path class="st1" d="M36.9,280.2c-0.2-0.3-0.4-0.6-0.7-1C36.5,279.6,36.7,279.9,36.9,280.2z"/>
	<path class="st1" d="M10.2,220.4c-0.2-0.8-0.4-1.7-0.6-2.5C9.8,218.8,10,219.6,10.2,220.4z"/>
	<path class="st1" d="M31.5,271.8c-0.2-0.4-0.4-0.7-0.6-1.1C31,271.1,31.3,271.5,31.5,271.8z"/>
	<path class="st1" d="M6.2,200.1c-0.1-0.8-0.2-1.7-0.3-2.5C6,198.5,6.1,199.3,6.2,200.1z"/>
	<path class="st1" d="M12.4,228.7c-0.2-0.8-0.5-1.7-0.7-2.5C12,227,12.2,227.9,12.4,228.7z"/>
	<path class="st1" d="M33.3,274.7c-0.2-0.4-0.5-0.8-0.7-1.2C32.8,273.9,33,274.3,33.3,274.7z"/>
	<path class="st1" d="M35.1,277.5c-0.2-0.4-0.5-0.7-0.7-1.1C34.6,276.8,34.9,277.2,35.1,277.5z"/>
	<path class="st1" d="M5.7,196.2c-0.1-0.9-0.2-1.8-0.3-2.7C5.5,194.4,5.6,195.3,5.7,196.2z"/>
	<path class="st1" d="M25.6,261.4c-0.3-0.5-0.5-1-0.8-1.5C25.1,260.4,25.4,260.9,25.6,261.4z"/>
	<path class="st1" d="M24,258.3c-0.3-0.6-0.6-1.2-0.9-1.9C23.4,257,23.7,257.7,24,258.3z"/>
	<path class="st1" d="M7.7,209c-0.2-1.2-0.5-2.5-0.7-3.7C7.2,206.6,7.5,207.8,7.7,209z"/>
	<path class="st1" d="M6.9,204.4c-0.2-1-0.3-1.9-0.5-2.9C6.6,202.5,6.7,203.4,6.9,204.4z"/>
	<path class="st1" d="M28.9,267.5c-0.3-0.5-0.5-0.9-0.8-1.4C28.4,266.6,28.7,267.1,28.9,267.5z"/>
	<path class="st1" d="M27.3,264.5c-0.3-0.5-0.5-1-0.8-1.4C26.7,263.5,27,264,27.3,264.5z"/>
	<path class="st1" d="M199.1,266.8L187.8,239l-5.3-2.1l40.1-34.6l-12.2-7.5l21.8-77.9l-55.8-23.1l-37.9,26l-27.4-17.3L95,116.2
		l-7.6-8.7l-55.4-7.5l-19.6,13.2c-5.4,18-8.3,37.5-8.3,57.8c0,1.3,0,2.7,0,4c0,0.4,0,0.8,0,1.3c0,0.9,0.1,1.8,0.1,2.8
		c0,0.5,0,0.9,0.1,1.4c0,0.9,0.1,1.8,0.1,2.7c0,0.4,0,0.9,0.1,1.3c0.1,1.1,0.2,2.2,0.2,3.3c0,0.2,0,0.4,0,0.6
		c0.1,1.3,0.2,2.6,0.4,3.9c0,0.4,0.1,0.8,0.1,1.2c0.1,0.9,0.2,1.8,0.3,2.7c0.1,0.5,0.1,0.9,0.2,1.4c0.1,0.9,0.2,1.7,0.3,2.5
		c0.1,0.5,0.1,0.9,0.2,1.4c0.1,1,0.3,1.9,0.5,2.9c0.1,0.3,0.1,0.6,0.1,0.9c0.2,1.2,0.4,2.5,0.7,3.7c0.1,0.4,0.1,0.7,0.2,1.1
		c0.2,0.9,0.3,1.8,0.5,2.6c0.1,0.5,0.2,0.9,0.3,1.4c0.2,0.8,0.3,1.6,0.5,2.4c0.1,0.5,0.2,0.9,0.3,1.4c0.2,0.8,0.4,1.7,0.6,2.5
		c0.1,0.4,0.2,0.8,0.3,1.2c0.3,1.2,0.6,2.3,0.9,3.5c0.1,0.4,0.2,0.7,0.3,1.1c0.2,0.8,0.5,1.7,0.7,2.5c0.1,0.5,0.3,1,0.4,1.4
		c0.2,0.7,0.4,1.4,0.7,2.1c0.2,0.5,0.3,1,0.5,1.5c0.2,0.7,0.5,1.4,0.7,2.1c0.2,0.5,0.3,0.9,0.5,1.4c0.4,1,0.7,2,1.1,3.1
		c0.2,0.4,0.3,0.9,0.5,1.3c0.3,0.8,0.6,1.5,0.9,2.3c0.2,0.5,0.4,1,0.6,1.5c0.2,0.6,0.5,1.2,0.8,1.8c0.2,0.5,0.4,1,0.7,1.6
		c0.3,0.6,0.5,1.2,0.8,1.8c0.2,0.5,0.4,1,0.7,1.5c0.3,0.7,0.6,1.3,0.9,2c0.4,0.8,0.7,1.6,1.1,2.4c0.3,0.6,0.6,1.3,0.9,1.9
		c0.3,0.5,0.5,1.1,0.8,1.6c0.3,0.5,0.5,1,0.8,1.5c0.3,0.6,0.6,1.1,0.9,1.6c0.3,0.5,0.5,1,0.8,1.4c0.3,0.6,0.6,1.1,0.9,1.7
		c0.3,0.5,0.5,0.9,0.8,1.4c0.6,1.1,1.2,2.2,1.9,3.2c0.2,0.4,0.4,0.7,0.6,1.1c0.4,0.6,0.7,1.2,1.1,1.7c0.2,0.4,0.5,0.8,0.7,1.2
		c0.4,0.6,0.7,1.1,1.1,1.7c0.2,0.4,0.5,0.7,0.7,1.1c0.4,0.6,0.8,1.2,1.2,1.7c0.2,0.3,0.4,0.6,0.7,1c1.4,2.1,2.9,4.1,4.4,6
		c0.2,0.3,0.4,0.5,0.6,0.8c0.5,0.6,0.9,1.2,1.4,1.7c0.2,0.3,0.4,0.5,0.7,0.8c0.5,0.6,0.9,1.2,1.4,1.7c0.2,0.2,0.4,0.4,0.6,0.7
		c1.7,2,3.5,4,5.2,5.9c0.1,0.1,0.2,0.2,0.3,0.4c0.6,0.6,1.1,1.2,1.7,1.7c0.2,0.2,0.4,0.4,0.5,0.6c0.6,0.6,1.1,1.1,1.7,1.7
		c0.2,0.1,0.3,0.3,0.5,0.4c2.6,2.6,5.3,5,8.1,7.4c0.1,0.1,0.3,0.2,0.4,0.3c0.6,0.5,1.3,1.1,1.9,1.6c0.1,0.1,0.2,0.2,0.4,0.3
		c2.9,2.3,5.8,4.5,8.8,6.5c0.1,0.1,0.2,0.1,0.3,0.2c0.7,0.5,1.4,1,2.2,1.4c0.1,0.1,0.2,0.1,0.3,0.2c3.1,2,6.3,3.9,9.5,5.6
		c0,0,0.1,0,0.1,0.1c0.8,0.4,1.6,0.8,2.3,1.2c0.1,0.1,0.2,0.1,0.3,0.2C93.8,329.3,199.1,266.8,199.1,266.8z"/>
</g>
<path class="st2" d="M213.8,174c-0.3,1.6-1.7,2.5-3.2,2.1l-45.5-12.2c-1.5-0.4-2.4-2-2.1-3.6l12-66.1c0.3-1.6,1.7-2.5,3.2-2.1
	l45.5,12.2c1.5,0.4,2.4,2,2.1,3.6L213.8,174z"/>
<path class="st3" d="M180.2,179.8c0,1.8-1.7,3.3-3.8,3.3H112c-2.1,0-3.8-1.5-3.8-3.3v-75.3c0-1.8,1.7-3.3,3.8-3.3h64.4
	c2.1,0,3.8,1.5,3.8,3.3V179.8z"/>
<g>
	<g>
		<g>
			<path class="st4" d="M236.1,112.6H94.4c-1.5,0-2.7,1.7-2.7,3.8c0,2.1,1.2,3.8,2.7,3.8h141.7c1.5,0,2.7-1.7,2.7-3.8
				C238.8,114.3,237.6,112.6,236.1,112.6z"/>
			<path class="st4" d="M227.2,142.7H101.3c-1.5,0-2.7,1.7-2.7,3.8c0,2.1,1.2,3.7,2.7,3.7h125.8c1.5,0,2.7-1.7,2.7-3.7
				C229.8,144.4,228.6,142.7,227.2,142.7z"/>
			<path class="st4" d="M217.7,172.8H106.8c-1.5,0-2.7,1.7-2.7,3.8c0,2.1,1.2,3.8,2.7,3.8h74.8h36.1c1.5,0,2.7-1.7,2.7-3.8
				C220.4,174.5,219.2,172.8,217.7,172.8z"/>
			<polygon class="st4" points="120.4,117.6 115.1,118.6 122.3,196.8 127.9,198.5 			"/>
			<polygon class="st4" points="141.7,118.2 136.4,118.7 140.3,199.2 145.9,197.8 			"/>
			<polygon class="st4" points="157.9,117 157.8,199.5 162.9,199.2 163.2,117 			"/>
			<polygon class="st4" points="182.6,116.8 172.5,200.4 178.2,197.5 187.9,118 			"/>
			<polygon class="st4" points="205.6,116.7 189,200.9 194.9,199.2 210.7,118.7 			"/>
			<polygon class="st4" points="228.1,115.4 206.1,196.8 211.4,199.9 233.1,118 			"/>
		</g>
	</g>
	<g>
		<path class="st2" d="M222.7,191.3h-108l-21.8-85.5c-0.3,4.6-3.7,5.5-6.9,6.1l22.2,86.8c0.6,2.2,2,3.6,3.7,3.6h110.7
			c2.2,0,3.9-2.5,3.9-5.5C226.6,193.7,224.8,191.3,222.7,191.3z"/>
		<path class="st4" d="M91.9,101.4c-1.3-1.4-3-2.2-4.9-2.2h-2.9H36.4c-3.9,0-7,3.4-7,7.7c0,4.2,3.1,7.7,7,7.7H87
			c0.3,0,0.6-0.1,0.8-0.1c3.2-0.4,5.8-3.3,6.1-6.8c0-0.2,0.1-0.5,0.1-0.7C94,104.7,93.2,102.8,91.9,101.4z"/>
	</g>
	<polygon class="st2" points="192.3,254.4 105.8,254.4 116.1,196 121.5,197.9 112.9,246.6 192.3,246.6 	"/>
	<g>
		<ellipse class="st4" cx="110.3" cy="251.2" rx="15.5" ry="19"/>
		<path class="st3" d="M121.9,251.2c0,7.9-5.2,14.2-11.7,14.2c-6.4,0-11.7-6.4-11.7-14.2c0-7.8,5.2-14.2,11.7-14.2
			C116.7,237,121.9,243.4,121.9,251.2z"/>
	</g>
	<g>
		<path class="st4" d="M206.3,251.2c0,10.5-7,19-15.5,19c-8.6,0-15.5-8.5-15.5-19c0-10.5,7-19,15.5-19
			C199.3,232.3,206.3,240.7,206.3,251.2z"/>
		<path class="st3" d="M202.4,251.2c0,7.9-5.2,14.2-11.7,14.2c-6.4,0-11.7-6.4-11.7-14.2c0-7.8,5.2-14.2,11.7-14.2
			C197.1,237,202.4,243.4,202.4,251.2z"/>
	</g>
</g>
</svg>
