<?xml version="1.0" encoding="utf-8"?>
<!-- Generator: Adobe Illustrator 23.1.0, SVG Export Plug-In . SVG Version: 6.00 Build 0)  -->
<svg version="1.1" id="Capa_1" xmlns="http://www.w3.org/2000/svg" xmlns:xlink="http://www.w3.org/1999/xlink" x="0px" y="0px"
	 viewBox="0 0 288 345.9" style="enable-background:new 0 0 288 345.9;" xml:space="preserve">
<style type="text/css">
	.st0{fill:#DA4643;}
	.st1{fill:#CE2729;}
	.st2{fill:#E3C08A;}
	.st3{fill:#C8A679;}
	.st4{fill:#F3F5FA;}
	.st5{fill:#C7C8CC;}
	.st6{fill:#C2A077;}
</style>
<g>
	<g>
		<g>
			<path class="st0" d="M284.8,178.1c0,92.7-63.4,167.8-141.7,167.8c-78.3,0-141.7-75.1-141.7-167.8c0-92.7,63.5-167.8,141.7-167.8
				C221.4,10.4,284.8,85.5,284.8,178.1z"/>
		</g>
	</g>
</g>
<g>
	<path class="st0" d="M1.9,159.7c0.3-4.3,0.8-8.6,1.4-12.8C2.7,151.2,2.3,155.4,1.9,159.7z"/>
	<path class="st0" d="M1.7,163.2c0-0.7,0.1-1.5,0.1-2.2C1.8,161.8,1.7,162.5,1.7,163.2z"/>
	<path class="st0" d="M1.5,166.9c0-0.6,0.1-1.2,0.1-1.9C1.6,165.7,1.5,166.3,1.5,166.9z"/>
	<path class="st0" d="M1.4,170.7c0-0.5,0-1,0-1.5C1.4,169.8,1.4,170.2,1.4,170.7z"/>
	<path class="st1" d="M1.4,169.3c0-0.8,0-1.6,0.1-2.4C1.5,167.7,1.5,168.5,1.4,169.3z"/>
	<path class="st1" d="M1.6,165.1c0-0.6,0.1-1.2,0.1-1.8C1.7,163.8,1.6,164.4,1.6,165.1z"/>
	<path class="st1" d="M1.4,174.6c0-1.3,0-2.6,0-3.9C1.4,172,1.4,173.3,1.4,174.6z"/>
	<path class="st1" d="M1.8,161c0-0.4,0.1-0.9,0.1-1.3C1.9,160.2,1.9,160.6,1.8,161z"/>
	<path class="st1" d="M3.3,146.9C3.3,146.9,3.3,147,3.3,146.9C3.3,147,3.3,146.9,3.3,146.9L3.3,146.9z"/>
	<g>
		<path class="st0" d="M1.4,169.3c0-0.8,0-1.6,0.1-2.4c0-0.6,0.1-1.2,0.1-1.9c0-0.6,0.1-1.2,0.1-1.8c0-0.7,0.1-1.4,0.1-2.2
			c-0.3,4.5-0.5,9-0.5,13.6c0-1.3,0-2.6,0-3.9C1.4,170.2,1.4,169.8,1.4,169.3z"/>
		<path class="st0" d="M1.9,159.7c0.3-4.3,0.8-8.5,1.4-12.7C2.7,151.2,2.3,155.4,1.9,159.7z"/>
		<path class="st0" d="M1.4,179.1c0-0.1,0-0.2,0-0.4C1.4,178.9,1.4,179,1.4,179.1z"/>
		<path class="st1" d="M3.3,146.9C3.3,146.9,3.3,147,3.3,146.9C3.3,147,3.3,147,3.3,146.9C3.3,147,3.3,147,3.3,146.9L3.3,146.9z"/>
		<path class="st1" d="M1.4,178.8c0-1.4,0-2.8,0-4.1C1.4,176,1.4,177.4,1.4,178.8z"/>
		<path class="st1" d="M1.9,159.7c0,0.4-0.1,0.9-0.1,1.3c0,0,0,0,0,0C1.9,160.6,1.9,160.2,1.9,159.7C1.9,159.7,1.9,159.7,1.9,159.7z
			"/>
		<path class="st1" d="M187.8,184.2l-38.7-23l9.4-17.9l12.3-21.9l-3.5-45.8l-32.6,10.8l-22.3-21.1l-109,81.6c0,0,0,0,0,0.1
			c-0.6,4.2-1.1,8.4-1.4,12.7c0,0.4-0.1,0.9-0.1,1.3c-0.1,0.7-0.1,1.4-0.1,2.2c0,0.6-0.1,1.2-0.1,1.8c0,0.6-0.1,1.2-0.1,1.9
			c0,0.8-0.1,1.6-0.1,2.4c0,0.5,0,1,0,1.5c0,1.3,0,2.6,0,3.9c0,1.4,0,2.8,0,4.1c0,0.1,0,0.2,0,0.4c2,88.5,62.9,159.5,137.9,159.8
			l72.9-55.7L187.8,184.2z"/>
	</g>
</g>
<g>
	<rect x="81.6" y="156.7" class="st2" width="130.7" height="126.5"/>
	<polygon class="st3" points="203.8,136.6 203.7,136.6 203.6,136.3 146.9,136.5 90.2,136.3 90.1,136.6 90,136.6 81.6,156.7 
		212.2,156.7 	"/>
	<rect x="137.8" y="156.7" class="st4" width="18.3" height="52.5"/>
	<polygon class="st5" points="153.5,136.4 152.3,136.4 141.5,136.4 140.3,136.4 137.8,156.7 156,156.7 	"/>
	<rect x="174.2" y="269.9" class="st6" width="30.4" height="7.1"/>
	<g>
		<g>
			<polygon class="st6" points="187.6,245.5 182.7,239.6 177.8,245.5 179.3,245.5 179.3,267.8 186.1,267.8 186.1,245.5 			"/>
			<polygon class="st6" points="201,251 197.3,246.6 193.6,251 194.7,251 194.7,267.8 199.8,267.8 199.8,251 			"/>
		</g>
	</g>
	<rect x="86.2" y="166.7" class="st6" width="20.9" height="4.7"/>
	<rect x="110.8" y="166.7" class="st6" width="16" height="4.7"/>
	<rect x="86.2" y="176.5" class="st6" width="11.7" height="4.7"/>
	<rect x="115" y="176.5" class="st6" width="11.7" height="4.7"/>
	<rect x="100.6" y="176.5" class="st6" width="11.7" height="4.7"/>
</g>
<g>
	<rect x="107.3" y="77.5" class="st2" width="79.2" height="76.7"/>
	<polygon class="st3" points="181.4,65.3 181.3,65.3 181.3,65.2 146.9,65.2 112.5,65.2 112.5,65.3 112.4,65.3 107.3,77.5 
		186.5,77.5 	"/>
	<rect x="141.4" y="77.5" class="st4" width="11.1" height="31.8"/>
	<polygon class="st5" points="150.9,65.2 150.2,65.2 143.6,65.2 142.9,65.2 141.4,77.5 152.4,77.5 	"/>
	<rect x="163.4" y="146.1" class="st6" width="18.4" height="4.3"/>
	<g>
		<g>
			<polygon class="st6" points="171.6,131.4 168.6,127.8 165.6,131.4 166.6,131.4 166.6,144.9 170.7,144.9 170.7,131.4 			"/>
			<polygon class="st6" points="179.7,134.7 177.5,132 175.2,134.7 175.9,134.7 175.9,144.9 179,144.9 179,134.7 			"/>
		</g>
	</g>
	<rect x="110.1" y="83.6" class="st6" width="12.7" height="2.9"/>
	<rect x="125" y="83.6" class="st6" width="9.7" height="2.9"/>
	<rect x="110.1" y="89.5" class="st6" width="7.1" height="2.9"/>
	<rect x="127.6" y="89.5" class="st6" width="7.1" height="2.9"/>
	<rect x="118.8" y="89.5" class="st6" width="7.1" height="2.9"/>
</g>
</svg>
