<?xml version="1.0" encoding="utf-8"?>
<!-- Generator: Adobe Illustrator 23.1.0, SVG Export Plug-In . SVG Version: 6.00 Build 0)  -->
<svg version="1.1" xmlns="http://www.w3.org/2000/svg" xmlns:xlink="http://www.w3.org/1999/xlink" x="0px" y="0px"
	 viewBox="0 0 187.9 184" style="enable-background:new 0 0 187.9 184;" xml:space="preserve">
<style type="text/css">
	.st0{fill:#4D4D4D;}
	.st1{clip-path:url(#SVGID_2_);}
	.st2{fill:#D59A4E;stroke:#000000;stroke-width:9;stroke-miterlimit:10;}
	.st3{fill:#D59A4E;}
	.st4{display:none;fill:#D59A4E;}
	.st5{fill:#E1BE92;}
	.st6{fill:#BB8547;}
	.st7{fill:#E9D4B5;}
	.st8{fill:#000400;}
	.st9{fill:#131515;}
	.st10{fill:#272A2C;}
	.st11{fill:#1F2223;}
	.st12{fill:#2A2E30;}
	.st13{fill:#C6362E;}
	.st14{fill:#C9B3C2;}
	.st15{fill:#BABABA;}
	.st16{fill:#CDB2AA;}
	.st17{opacity:0.3;fill:#88A4B9;}
	.st18{fill:#80B7D6;}
	.st19{fill:#8DAABB;}
	.st20{fill:#C4C4C4;}
	.st21{fill:#FFFFFF;}
	.st22{fill:#AEAEAE;}
	.st23{fill:#5E3E1A;}
	.st24{fill:#68441E;}
	.st25{fill:#D5CACA;}
</style>
<g id="Capa_2">
	<ellipse class="st0" cx="94.5" cy="94.1" rx="90.2" ry="88.1"/>
</g>
<g id="Capa_1">
	<g>
		<defs>
			<ellipse id="SVGID_1_" cx="94.5" cy="94.1" rx="90.2" ry="88.1"/>
		</defs>
		<clipPath id="SVGID_2_">
			<use xlink:href="#SVGID_1_"  style="overflow:visible;"/>
		</clipPath>
		<g class="st1">
			<g>
				<path class="st2" d="M41.8,107c0,0,6.6,1.6,5,7.2c-1.5,5.6-1.5,9.6-0.8,12.1c0.8,2.5,1.2,10.9,0,15.2
					c-1.2,4.4,2.7,19.6,2.7,24.6s0,13.7-0.4,16.5c-0.4,2.8-1.2,7.5-0.4,8.4c0,0-7.2,4.2-9.7,4.4c-2.3,0.1-7.7,2.5-11.6,2.8
					c-3.9,0.3-15.3,3.3-16.4,5.8c-1.2,2.5-1.9,3.4,0.4,4.4c2.3,0.9,6.6,0,7.4,0.6c0.8,0.6,4.3,0.9,6.2-0.3
					c1.9-1.2,10.1-3.7,14.3-3.7c4.3,0,5-2.8,8.5-2.5s1.2,12.4-6.2,13.7c-4.6,1.9-7.7,0.9-10.1,1.9c-2.3,0.9-6.6,1.6-8.1,1.9
					c-1.5,0.3-3.9,1.6-5,1.6c-1.2,0-5,0.3-6.2,1.2c-1.2,0.9-3.5,3.1-3.1,4.7c0.4,1.6,1.9,5,4.6,6.2c2.7,1.2,0.8,3.1,1.9,3.7
					c1.2,0.6,3.1,2.2,5.4,2.5c2.3,0.3,13.5,1.2,17.8-2.2c4.3-3.4,17-13.1,20.1-17.1c3.1-4,8.9-1.2,12.8-0.3s8.5,0.3,13.2-0.3
					c4.6-0.6,9.7,2.2,16.3,1.2s7.7,1.9,7.7,1.9s0.4,6.2,1.2,8.4c0.8,2.2-2.7,5-2.7,7.5c0,2.5,1.9,8.1-1.5,12.7
					c-3.5,4.7-7,7.2-6.6,9.6c0.4,2.5,1.9,1.6,1.9,1.6s0,1.9,4.3,1.6c0,0,1.2,0.6,3.1,0.6c1.9,0,4.6-1.2,4.6-1.2s1.2,1.2,3.1,0
					c1.9-1.2,4.6-3.1,7.7-3.4c3.1-0.3,1.9-9,3.1-10.6c1.2-1.6,0.8-5.3,3.1-7.5c2.3-2.2-3.1-5-1.5-11.5c1.5-6.5,4.6-10.9,9.3-12.1
					c4.6-1.2,20.9-8.7,23.2-9.9c2.3-1.2,16.6-9.3,18.6-11.5c1.9-2.2,31.7-26.1,16.3-50.1c-15.5-23.9-7.7-27.4-24-41
					c0,0-11.6-8.6-17.8-11.8c-6.6-3.4-11.3-10-12.4-12.4c-1.5-3.4-2.7-4.7-4.6-6.5c-1.9-1.9-0.8-1.6-3.5-5c-2.2-2.8-3.1-4.4-6.2-6.8
					c-2.7-2.2-7.7-7.2-13.9-7.2c-6.2,0-14.3-1.6-23.6-2.2c-8.9-0.6-10.1-1.2-16.6-1.2c-6.6,0-6.6,0-6.6,0s-4.6-3.7-9.7-2.5
					c-5,1.2-3.9,7.2-3.9,7.2s-10.8,7.2-13.2,14.3c-2.3,7.2-0.4,12.7-3.1,14.9c-2.7,2.2-13.5,8.4-12,12.4
					C25.7,103.1,30.8,107.8,41.8,107z"/>
				<path class="st3" d="M41.8,107c0,0,6.6,1.6,5,7.2c-1.5,5.6-1.5,9.6-0.8,12.1c0.8,2.5,1.2,10.9,0,15.2
					c-1.2,4.4,2.7,19.6,2.7,24.6s0,13.7-0.4,16.5c-0.4,2.8-1.2,7.5-0.4,8.4c0,0-7.2,4.2-9.7,4.4c-2.3,0.1-7.7,2.5-11.6,2.8
					c-3.9,0.3-15.3,3.3-16.4,5.8c-1.2,2.5-1.9,3.4,0.4,4.4c2.3,0.9,6.6,0,7.4,0.6c0.8,0.6,4.3,0.9,6.2-0.3
					c1.9-1.2,10.1-3.7,14.3-3.7c4.3,0,5-2.8,8.5-2.5s1.2,12.4-6.2,13.7c-4.6,1.9-7.7,0.9-10.1,1.9c-2.3,0.9-6.6,1.6-8.1,1.9
					c-1.5,0.3-3.9,1.6-5,1.6c-1.2,0-5,0.3-6.2,1.2c-1.2,0.9-3.5,3.1-3.1,4.7c0.4,1.6,1.9,5,4.6,6.2c2.7,1.2,0.8,3.1,1.9,3.7
					c1.2,0.6,3.1,2.2,5.4,2.5c2.3,0.3,13.5,1.2,17.8-2.2c4.3-3.4,17-13.1,20.1-17.1c3.1-4,8.9-1.2,12.8-0.3s8.5,0.3,13.2-0.3
					c4.6-0.6,9.7,2.2,16.3,1.2s7.7,1.9,7.7,1.9s0.4,6.2,1.2,8.4c0.8,2.2-2.7,5-2.7,7.5c0,2.5,1.9,8.1-1.5,12.7
					c-3.5,4.7-7,7.2-6.6,9.6c0.4,2.5,1.9,1.6,1.9,1.6s0,1.9,4.3,1.6c0,0,1.2,0.6,3.1,0.6c1.9,0,4.6-1.2,4.6-1.2s1.2,1.2,3.1,0
					c1.9-1.2,4.6-3.1,7.7-3.4c3.1-0.3,1.9-9,3.1-10.6c1.2-1.6,0.8-5.3,3.1-7.5c2.3-2.2-3.1-5-1.5-11.5c1.5-6.5,4.6-10.9,9.3-12.1
					c4.6-1.2,20.9-8.7,23.2-9.9c2.3-1.2,16.6-9.3,18.6-11.5c1.9-2.2,31.7-26.1,16.3-50.1c-15.5-23.9-7.7-27.4-24-41
					c0,0-11.6-8.6-17.8-11.8c-6.6-3.4-11.3-10-12.4-12.4c-1.5-3.4-2.7-4.7-4.6-6.5c-1.9-1.9-0.8-1.6-3.5-5c-2.2-2.8-3.1-4.4-6.2-6.8
					c-2.7-2.2-7.7-7.2-13.9-7.2c-6.2,0-14.3-1.6-23.6-2.2c-8.9-0.6-10.1-1.2-16.6-1.2c-6.6,0-6.6,0-6.6,0s-4.6-3.7-9.7-2.5
					c-5,1.2-3.9,7.2-3.9,7.2s-10.8,7.2-13.2,14.3c-2.3,7.2-0.4,12.7-3.1,14.9c-2.7,2.2-13.5,8.4-12,12.4
					C25.7,103.1,30.8,107.8,41.8,107z"/>
				<g>
					<path class="st4" d="M61,215.3c-0.4-6.2,2.3-38.2,5.4-40.4c3.1-2.2,5.8-3.4-1.2-8.4c-7-5-3.5-11.8-12.4-4.7
						c-1.7,1.4-3,2.7-4.1,3.9c0,0.1,0,0.2,0,0.3c0,5,0,13.7-0.4,16.5c-0.4,2.8-1.2,7.5-0.4,8.4c0,0-7.2,4.2-9.7,4.4
						c-2.3,0.1-7.7,2.5-11.6,2.8c-3.9,0.3-15.3,3.3-16.4,5.8c-1.2,2.5-1.9,3.4,0.4,4.4c2.3,0.9,6.6,0,7.4,0.6
						c0.8,0.6,4.3,0.9,6.2-0.3c1.9-1.2,10.1-3.7,14.3-3.7c4.3,0,5-2.8,8.5-2.5s1.2,12.4-6.2,13.7c-4.6,1.9-7.7,0.9-10.1,1.9
						c-2.3,0.9-6.6,1.6-8.1,1.9c-1.5,0.3-3.9,1.6-5,1.6c-1.2,0-5,0.3-6.2,1.2c-1.2,0.9-3.5,3.1-3.1,4.7c0.4,1.6,1.9,5,4.6,6.2
						c2.7,1.2,0.8,3.1,1.9,3.7c1.2,0.6,3.1,2.2,5.4,2.5c2.3,0.3,13.5,1.2,17.8-2.2c4.3-3.4,17-13.1,20.1-17.1c0.6-0.8,1.3-1.3,2-1.6
						C60.8,217.6,61,216.5,61,215.3z"/>
					<path class="st4" d="M195.3,146.9c-15.5-23.9-7.7-27.4-24-41c0,0-11.6-8.6-17.8-11.8c-6.6-3.4-11.3-10-12.4-12.4
						c-1.5-3.4-2.7-4.7-4.6-6.5c-1.9-1.9-0.8-1.6-3.5-5c-2.2-2.8-3.1-4.4-6.2-6.8c-2.7-2.2-7.7-7.2-13.9-7.2
						c-6.2,0-14.3-1.6-23.6-2.2c-8.9-0.6-10.1-1.2-16.6-1.2c-6.6,0-6.6,0-6.6,0s-4.6-3.7-9.7-2.5c-5,1.2-3.9,7.2-3.9,7.2
						s-10.8,7.2-13.2,14.3c-2.3,7.2-0.4,12.7-3.1,14.9c-2.7,2.2-13.5,8.4-12,12.4c0.3,0.9,0.8,1.7,1.5,2.6
						c10.8-3.6,25-8.5,28.7-10.7c6.2-3.7,24-18,31.7-9.6c7.7,8.4,15.5,5.3,13.9,15.5c-1.5,10.3-11.2,11.2-12.4,16.8
						c-1.2,5.6-7.7,9.9-1.2,14.6c6.6,4.7,21.7-0.3,27.1,1.2c5.4,1.6-5.8,8.1-1.9,13.4c3.9,5.3,23.2-4.7,24,0.9
						c0.8,5.6,1.2,10.3-7,14c-8.1,3.7-15.1,19.3-15.1,27.7c0,8.4-1.2,28-1.2,28s-3.9,1.6-3.5,9l-0.7,1.7c0.2,2,0.5,5.5,1.1,7
						c0.8,2.2-2.7,5-2.7,7.5c0,2.5,1.9,8.1-1.5,12.7c-3.5,4.7-7,7.2-6.6,9.6c0.4,2.5,1.9,1.6,1.9,1.6s0,1.9,4.3,1.6
						c0,0,1.2,0.6,3.1,0.6c1.9,0,4.6-1.2,4.6-1.2s1.2,1.2,3.1,0c1.9-1.2,4.6-3.1,7.7-3.4c3.1-0.3,1.9-9,3.1-10.6
						c1.2-1.6,0.8-5.3,3.1-7.5c2.3-2.2-3.1-5-1.5-11.5c1.5-6.5,4.6-10.9,9.3-12.1c4.6-1.2,20.9-8.7,23.2-9.9
						c2.3-1.2,16.6-9.3,18.6-11.5C180.9,194.8,210.7,170.9,195.3,146.9z"/>
					<path class="st5" d="M112,199.2c0,0,1.9-5.4,1.6-13.7c-0.3-8.4,7-23.9,15.1-27.7c8.1-3.7,7.7-8.4,7-14
						c-0.8-5.6-20.1,4.4-24-0.9c-3.9-5.3,7.4-11.8,1.9-13.4c-5.4-1.6-20.5,3.4-27.1-1.2c-6.6-4.7,0-9,1.2-14.6
						c1.2-5.6,10.8-6.5,12.4-16.8c1.5-10.3-6.2-7.2-13.9-15.5c-7.7-8.4-25.5,5.9-31.7,9.6c-3.7,2.2-17.9,7.1-28.7,10.7
						c2.5,3.2,7.4,5.9,16.1,5.3c0,0,6.6,1.6,5,7.2c-1.5,5.6-1.5,9.6-0.8,12.1c0.8,2.5,1.2,10.9,0,15.2c-1.1,4.3,2.6,19,2.7,24.3
						c1.1-1.2,2.4-2.5,4.1-3.9c8.9-7.2,5.2-0.1,12.4,4.7c7.5,5.1,9.7,8.7,10.5,15.8c0.4,3.8-5.9,18.3-7.3,24.8
						c-0.2,1.1,20.3-6.2,26.8-7.6C98.5,198.7,111.6,199.2,112,199.2z"/>
				</g>
				<path d="M28.8,94.1c0,0-3.1,0.3-3.5,2.2c-0.4,1.9-1.5,1.9-0.8,3.4c0.8,1.6,2.3,2.8,4.6,2.8c2.3,0,2.7,1.2,5,0.6
					c2.3-0.6,12.8-5,5.4-7.5C36.6,94.1,28.8,94.1,28.8,94.1z"/>
				<path d="M39.4,73.3c0.7,0.2,4.1,1.4,4.1,2.8c0,0-0.4,2.2-3.5,2.8c-1.9,0.6-1.9-0.3-1.9-0.3s0.6-4.3,1-5.2
					C39.2,73.3,39.3,73.3,39.4,73.3z"/>
				<path class="st6" d="M97.6,62.6c-0.2-0.1-0.2-0.3-0.1-0.4c1-1.2,5.8-6.2,10.6-5.7c5.4,0.6,7.7,2.2,9.3,5.3
					c1.5,3,2.6,9.6,0.2,14.5c-0.1,0.2-0.4,0.3-0.7,0.1L97.6,62.6z"/>
				<path d="M30,236.2c0,0-2.7,1.2-3.1,2.5c0,0,2.3,0.6,3.5,0.3C31.6,238.6,30.4,236.2,30,236.2z"/>
				<path class="st6" d="M167.6,112.4c-2.2,2.6-13.1,15.2-22.9,19.1c-0.1,0,0,0.2,0.1,0.2c5.1-1.5,18.3-6.4,23-19.2
					C167.8,112.3,167.7,112.3,167.6,112.4z"/>
				<path class="st6" d="M176.5,118.4C176.5,118.3,176.4,118.3,176.5,118.4c-1,1.7-8.4,15.6-12,18.5c-3.1,2.5-1.7,7.1-1,8.7
					c0.1,0.1,0.3,0.1,0.3,0c0.2-1.6,1-5.7,2.2-7.2C167.6,136.5,175.9,124.3,176.5,118.4z"/>
				<g>
					<path class="st6" d="M57.8,110.4c4.3-0.9,5.8-4.7,7.4-5.9c1.5-1.2,5-0.3,9.3-2.8c4.3-2.5-2.3-5-3.9-5.6c-1.5-0.6-5,1.6-7,3.7
						c-1.9,2.2-11.6,8.4-18.6,5.9c-5.7-2-12.4-0.7-14.7-0.2c2.8,1.3,6.6,2.1,11.6,1.8c0,0,3.6,0.9,4.9,3.6c0.3,0,0.6,0.1,1,0.1
						C55.5,112.3,53.5,111.4,57.8,110.4z"/>
					<path class="st6" d="M197,150.2c-0.5-1-1-1.9-1.7-2.9c-1.9-2.9-3.4-5.6-4.7-7.9c-3,4.8-6.9,11.8-8,17.8
						c-0.1,0.5,0.7,0.9,1.2,0.5C186.1,156.2,190.9,153.2,197,150.2z"/>
					<path class="st6" d="M171.1,181.6c0.3-0.5-0.3-1-0.9-0.8c-3.8,1.4-12.3,4.1-14.1,1.5c-1.8-2.6-1.1-11.9-0.8-14.3
						c0,0-0.1,0-0.1,0c-0.5,2.4-2.9,11.4-9,15.4c-0.9,0.6-1.3,1.4-1.3,2.3c0.1,5.5,0,24-6.2,31.4c-0.5,0.6-0.9,1.2-1.3,1.7
						c4.7-1.3,20.9-8.7,23.2-9.9c0.9-0.5,3.5-1.9,6.4-3.6l-11.9-13.1c-0.6-0.7-0.2-1.6,0.8-1.9C159.7,189.5,167.2,187.2,171.1,181.6
						z"/>
				</g>
				<path d="M21.5,206c0,0-2.7,1.2-2.7,1.9c0,0.6,3.1-0.3,3.1-0.3S22.3,206.6,21.5,206z"/>
				<g>
					<path class="st6" d="M52.6,215.8c5.4-5.9-3.9-37.4-4.2-34c1.5,5.7-0.2,17.7,0.5,21.8c0.8,4.4-3.9,12.7-5.4,14
						c-1.5,1.2-4.6,2.2-6.6,5c-1.9,2.8-4.3,3.4-7.4,4.4c-3.1,0.9-4.6,3.1-8.1,4c-2.4,0.6-5.5,2.4-7.2,3.5c0,0.1,0.1,0.1,0.1,0.2
						c5.5-2.2,13.5-2.5,18.2-4.8C37.6,227.3,47.2,221.7,52.6,215.8z"/>
				</g>
				<path d="M41.2,107.4c2.4-0.1,4.8-0.3,7.2-0.5c1.2-0.1,2.4-0.2,3.6-0.3c0.3,0,0.6-0.1,0.9-0.1c0.3,0,0.6-0.1,0.9-0.1
					c0.3,0,0.6-0.1,0.9-0.2c0.3-0.1,0.5-0.2,0.8-0.3c1.1-0.4,2.1-0.9,3.1-1.5l3-1.6c1-0.5,2-1,3.1-1.5c0.5-0.2,1.1-0.5,1.7-0.6
					c0.2,0,0.3,0,0.5,0l0.5,0l0.9,0.1c0.1,0,0.1,0,0.1,0.1c0,0-0.1,0.1-0.1,0.1l-0.9,0l-0.5,0c-0.2,0-0.3,0-0.4,0
					c-0.6,0.1-1.1,0.3-1.6,0.6c-1,0.5-2.1,1-3.1,1.5l-3,1.6c-1,0.5-2,1.1-3.1,1.5c-0.3,0.1-0.6,0.2-0.9,0.3
					c-0.3,0.1-0.6,0.1-0.9,0.2c-0.3,0.1-0.6,0.1-0.9,0.1c-0.3,0-0.6,0.1-0.9,0.1c-1.2,0.1-2.4,0.3-3.6,0.4c-2.4,0.2-4.8,0.4-7.2,0.5
					c-0.1,0-0.3-0.1-0.3-0.2C41,107.5,41.1,107.4,41.2,107.4L41.2,107.4z"/>
				<path d="M61.5,79.6c-0.2-0.1-0.1-0.3,0-0.3c1.4-0.5,6.2-2.1,8.5-2.4c2.4-0.3,9.3,0.2,11.2,0.7c0.2,0.1,0.2,0.3,0,0.3
					c-0.4,0.1-1,0.4-1.5,0.8c-0.8,0.6-3.1,2.2-4.3,2.5c-1.2,0.3-7.4,0.3-9.3,0C64.7,81.1,62.4,80.1,61.5,79.6z"/>
				<g>
					<path class="st7" d="M69.3,78.9c0,0-1.4,0.2-1.6,0.5c-0.2,0.3,1.6,0.4,1.6,0.4L69.3,78.9z"/>
					<path d="M74.2,79.3c0,1-1.1,1.9-2.5,1.9s-2.5-0.8-2.5-1.9s1.1-1.9,2.5-1.9S74.2,78.3,74.2,79.3z"/>
				</g>
			</g>
			<g>
				<path class="st8" d="M68.4,75.2c0,0,19.1,1.1,39.1-3.1c25.1-5.2,28-12.3,28-12.3s-17.3-0.5-32.1,2.1
					C88.7,64.6,68.4,75.2,68.4,75.2z"/>
				<path class="st9" d="M26.7,58c-1.9,7.6,7.9,17.2,31.2,18.2c16.7,0.7,27.3-5.6,44.4-9.8c17.6-4.2,32.9-4,33.6-7.2
					c0.1-0.6,0.1-2.2,0.1-2.2S72,46.5,57.9,46.5C48.6,46.5,29.2,47.7,26.7,58z"/>
				<path class="st10" d="M26.7,56c-1.9,7.6,7.9,17.2,31.2,18.2c16.7,0.7,27.3-5.6,44.4-9.8c17.6-4.2,32.9-4,33.6-7.2
					c1.4-6.2-62.5-12.8-78.1-12.8C48.6,44.5,29.2,45.8,26.7,56z"/>
				<path class="st11" d="M115.3,50.4c1.4,0.7,2.1,1.4,2,2.2c-0.7,3.2-16.1,3-33.6,7.2C66.6,63.9,56,70.3,39.2,69.5
					c-1.2-0.1-2.4-0.1-3.5-0.2c5.1,2.6,12.5,4.5,22.2,5c16.7,0.7,27.3-5.6,44.4-9.8c17.6-4.2,32.9-4,33.6-7.2
					C136.5,54.9,127.5,52.5,115.3,50.4z"/>
				<path class="st12" d="M123.2,20c-0.9-2.6-9.5-5.7-36.8-5.8c-24.7-0.1-35.7,2.4-36.7,5c-1,2.7,4.8,39,4.8,39s6.8,4.7,31.2,4.8
					c24.4,0.1,32.3-4.6,32.3-4.6S124.1,22.7,123.2,20z"/>
				<path class="st8" d="M119.5,17.5c-0.2,0-0.4,0.1-0.6,0.1c-10.8,1.5-21.8,1.7-32.8,2c-7.7,0.2-16.3-0.2-23.8,1.1
					c-0.3,0-0.5,0.1-0.8,0.1c2.1,0.7,4.4,1.3,6.7,1.7c8,1.6,15.9,2.4,24.3,1.3c9.4-1.1,14.6,2.4,14.1,7.4c-0.5,4.4-3.1,8.8-7.6,12.5
					c-4.5,3.7-10.1,6.8-17.4,8.7c-2.1,0.5-4.2,1-6.4,1.5c4.1,0.5,8.2,1,12.3,1.4c7.8,0.8,5.5,7.1-1.8,7.3c-3.7,0.1-7.4,0.1-11,0
					c3.2,0.2,6.9,0.4,11.1,0.4c24.4,0.1,32.3-4.6,32.3-4.6s6.1-35.7,5.2-38.4C122.9,19.2,121.8,18.3,119.5,17.5z"/>
				<path class="st13" d="M53.2,51.7c0.7,4.4,1.3,7.5,1.3,7.5s6.8,4.3,31.3,4.3c24.4,0.1,32.3-4.2,32.3-4.2s0.6-3.2,1.4-7.6
					c0,0-8.2,3.2-33.4,3.2C60.9,54.9,53.2,51.7,53.2,51.7z"/>
				<path class="st14" d="M90.5,62.5c-7.7,0.1-16.2-0.2-23-2.3c-4.9-1.6-9.1-3.7-13.8-5.4c0.5,2.7,0.8,4.4,0.8,4.4s6.8,4.3,31.3,4.3
					c24.4,0.1,32.3-4.2,32.3-4.2s0.5-2.4,1.1-5.9C112.4,58.6,103,62.3,90.5,62.5z"/>
				<path class="st11" d="M121.1,19.3c0,2.4-15.7,4.4-35.1,4.4c-19.4,0-35.1-2-35.1-4.4c0-2.4,15.7-4.4,35.1-4.4
					C105.3,14.9,121.1,16.9,121.1,19.3z"/>
				<path class="st15" d="M108.8,16c0.2,0.2,0.3,0.4,0.3,0.6c0,2.4-15.7,4.4-35.1,4.4c-8.7,0-16.7-0.4-22.8-1.1
					c2.2,2.2,16.9,3.8,34.8,3.8c19.4,0,35.1-2,35.1-4.4C121.1,18,116.3,16.8,108.8,16z"/>
				<path class="st16" d="M60.2,53.9c-0.9,0-2-0.3-2.6,0.3c1.4,0.7,4.1,0.7,5.8,1.1c-0.6,0.3-2.5,0-2.8,0.6
					c-0.4,0.8,1.8,0.7,2.6,0.8c2.4,0.4,4.6,0.7,7.1,0.9c0.7,0,3.9,0,3.2,0.6c-0.6,0.6-3.5,0-4.5,0.3c-2.5,0.7,3.5,1.2,4.4,1.3
					c-0.3,0.5-1.6,0.4-0.6,0.9c0.5,0.3,2.1,0.3,2.8,0.3c2.3,0.3,4.4,0.7,6.8,0.8c2.1,0.1,4.2,0.2,6.3,0.1c2.5-0.2,5.1-0.9,7.7-0.9
					c-0.1-0.9-3.5-0.6-4.6-0.6c0.6-0.4,2.8-0.7,3.8-0.9c1.2-0.3,2.6-0.5,3.9-0.7c2.1-0.3,4.4-0.5,6.6-0.6c-0.4-0.5-2.1-0.5-3-0.8
					c2.8-0.8,6.3-0.4,9.1-1.1c0.9-0.2,2.8-0.9,2.3-1.6c-0.4-0.6-2.9-0.5-4-0.5c-2.1,0.1-4.1,0.6-6.2,0.8c-2.2,0.2-4.6,0.4-6.8,0.5
					c-4.2,0.2-8.4,0.4-12.6,0.4c-3,0-6,0-9-0.1c-1.6,0-3.4,0-5-0.2c-1.3-0.2-3.1-0.2-4.3-0.5L60.2,53.9z"/>
				<path class="st17" d="M59.7,51.6c3.7,0.5,8,0,11.8,0.3c3.1,0.2,7.4,1.1,10.2,0c-0.6-0.5-1.6-0.9-2.3-1.4
					c1.3-0.3,9.7-0.1,7.8-1.8c-0.8-0.7-6.4-1-7.8-1.1c-1.9-0.2-5.4,0.2-6.2-1c4.1-1.1,11.1-0.3,15.6-0.4c1.1,0,6.9-0.4,5.6-1.6
					c-0.6-0.5-5.9-0.6-7.2-1.1c0.7-0.7,10.3-0.8,8.4-1.9c-0.8-0.5-4.1-0.6-5.3-0.8c-1.2-0.3-2.4-0.7-3.6-1c3.3-0.9,7.7,0.3,11.2-0.8
					c1-0.3,3.5-1.2,2.5-2c-0.7-0.6-6.3-0.1-7.3-0.2c-1.8,0-6.5,0.1-3.6-1.1c2.9-1.3,8.6-0.4,11.2-2.1c3.5-2.4-7.9-0.7-9.5-2
					c2-0.9,5.4-0.9,7.7-1.8c-0.5-0.3-3.2-0.7-3.5-1c-0.5-0.7,1.8-1,2-1.7c0.4-1.5-4.3-1.5-6.4-1.7c-8.1-0.6-16.6-0.3-24.5-1.1
					c-2.2-0.2-13.1-1.3-13.3,1.1c-0.2,1.4,6.7,1.6,8.5,2.5c3.5,1.8-3.2,1.2-4.6,2.2c-0.3,0.2-0.5,0.3-0.4,0.6
					c2.8,0.1,8.1,0.4,10.4,1.4c2.8,1.2-1.1,1.1-2.8,1.8c1.4,0.2,5.5,0.4,6,1c-1.8,0.9-5.4,1.1-7.6,1.1c-1.5,0-3.8-0.3-4.9,0.4
					c2.4,1.2,11.9,1.4,11.1,4.1c-1.7,0.1-5.8-0.2-7.1,0.5c-1.8,0.9,2.5,1.4,3.7,1.7c-2.1,0.6-4.9,0.9-7,1.3c1.2,0.4,2.6,0.8,3.6,1.3
					c-1.1,0.9-3.6,0.8-5.3,1.2c1.1,0.2,5.5,0.5,5.9,1.4c0.4,0.9-1.8,1.2-2.9,1.3c-1,0.1-2.7-0.3-3,0.4c-0.3,0.7,2.2,1.2,3,1.3
					L59.7,51.6z"/>
				<path class="st17" d="M36.9,67.2c-4.3-2-8.9-7.2-8-10.3c2.9-0.2,4.2,0.6,2.7-1.3c-1.3-1.6,0-2.2,3.3-1.8c-0.2-0.5-1.3-1.5-0.9-2
					c0.5-0.6,2-0.4,3.2-0.4c-0.4-0.4-1.6-1.7-0.9-2.1c0.5-0.3,3-0.1,3.9-0.1c0.2-0.6-0.2-1.1-0.4-1.6c1.2,0,2.5,0.1,3.7-0.1
					c0.8-0.2,1.2-0.6,2.1-0.7c2.5-0.5,4.1,0.5,5.6,0.8c-1.4,0.4-2.3,0.8-3.9,1.2c0.6,0.4,3.4,0.7,3.4,1.2c0.1,0.8-4,0.5-5,0.5
					c1,0.3,5.3,0.4,5.7,0.9c0.7,0.7-1.8,0.8-2.6,1.2c1,0.4,2.8,0.5,2.8,1.4c-1.2,0.2-2.5,0.2-3.8,0.1c0.9,0.1,1.9,0.3,2.7,0.5
					c-1.4,0.8-4,0.7-5.9,0.9c-1.9,0.1-3.7,0.6-5.6,0.5c1.5,1.7,9.3,1.4,11.7,2.6c-1.7,0.4-3.8,0.3-5.7,0.3c2.3,0.4,3.8,1.3,5.9,1.9
					c2,0.6,4.4,0.9,6.5,1.5c1.1,0.3,6.3,1.1,6,1.7c-0.8,1.7-6.4-0.3-7.8-0.4c0.5,0.5,1.7,1.1,2.7,1.4c-1.9,0.6-4.4,0.1-6.3-0.3
					c1.3,0.6,2.8,1.1,4.3,1.5c-1.4,0.1-3.4-0.8-4.9-1.1c-1.9-0.4-3.8-0.9-5.7-1.3c-3-0.6-6.1-1.3-9.2-1.8c3.7,2.4,10.8,3.1,14,5.8
					c-3.1,0.1-4.8-0.8-7.6-1.1c0.6,0.5,1.5,1.1,2.2,1.6c-2-0.4-3.4-1.5-5.6-1.6c0,0.2-0.1,0.5,0,0.7L36.9,67.2z"/>
			</g>
			<g>
				<g>
					<path class="st18" d="M60.4,82.3l8.8-6.4l-7.9,7c-0.2,0.2-0.6,0.2-0.9,0.1C60.2,82.8,60.1,82.5,60.4,82.3
						C60.4,82.3,60.4,82.3,60.4,82.3z"/>
				</g>
				<g>
					<path class="st18" d="M61.5,84l5.1-3.4l-4.2,4c-0.2,0.2-0.6,0.2-0.9,0.1C61.2,84.5,61.2,84.2,61.5,84C61.4,84,61.5,84,61.5,84z
						"/>
				</g>
				<g>
					<path class="st18" d="M84.1,74.5l-5.3,3.2l4.5-3.8c0.2-0.2,0.6-0.2,0.9,0C84.3,74,84.4,74.3,84.1,74.5
						C84.1,74.5,84.1,74.5,84.1,74.5z"/>
				</g>
				<path class="st19" d="M74.6,88.4c-7,0-12.7-4.3-12.7-9.7c0-1.8,0.6-3.4,1.8-4.9c-1.9,1.7-3,3.9-3,6.3c0,5.3,5.7,9.7,12.7,9.7
					c4.7,0,8.8-1.9,11-4.8C82,87.1,78.5,88.4,74.6,88.4z"/>
				<g>
					<path class="st20" d="M73.4,90.6c-7.7,0-13.9-4.7-13.9-10.5c0-5.8,6.2-10.5,13.9-10.5c7.7,0,13.9,4.7,13.9,10.5
						C87.2,85.8,81,90.6,73.4,90.6z M73.4,70.9c-6.7,0-12.1,4.1-12.1,9.1c0,5,5.4,9.2,12.1,9.2c6.7,0,12.1-4.1,12.1-9.2
						C85.4,75,80,70.9,73.4,70.9z"/>
				</g>
				<g>
					<path class="st20" d="M60.8,81.3c0,1.1-1.2,2-2.6,2c-1.4,0-2.6-0.9-2.6-2c0-1.1,1.2-2,2.6-2C59.7,79.3,60.8,80.2,60.8,81.3z"/>
				</g>
				<path class="st21" d="M58.5,79.7c0.2,0.3-0.1,0.6-0.7,0.8c-0.5,0.2-1.1,0.1-1.2-0.1c-0.2-0.3,0.1-0.6,0.7-0.8
					C57.8,79.4,58.4,79.5,58.5,79.7z"/>
				<path class="st21" d="M85.1,75c-0.1,0.1-1.3-1.7-3.7-3c-2.5-1.4-5.3-1.8-5.2-1.9c0.1-0.1,3,0.2,5.5,1.6
					C84.1,73,85.2,74.9,85.1,75z"/>
				<g>
					<path class="st22" d="M85.7,79.3c0-5-5.4-9.2-12.1-9.2c-6,0-10.9,3.3-11.9,7.6c1.3-3.9,6.1-6.9,11.7-6.9
						c6.7,0,12.1,4.1,12.1,9.1c0,0.5-0.1,1-0.2,1.5C85.5,80.8,85.7,80.1,85.7,79.3z"/>
					<path class="st22" d="M73.6,89.8c-7.7,0-13.9-4.7-13.9-10.5c0-0.6,0.1-1.3,0.2-1.9c-0.3,0.8-0.4,1.7-0.4,2.6
						c0,5.8,6.2,10.5,13.9,10.5c6.8,0,12.5-3.7,13.7-8.6C85.5,86.4,80,89.8,73.6,89.8z"/>
				</g>
			</g>
			<g>
				<path class="st23" d="M49.3,105.7c-0.8,1.1,1.9,1.6-0.2,2.5c-1.8,0.8-6.7-5-11.2-5c-2.5,0-3.4,1.9-3.4,1.9s-0.9-1.9-3.4-1.9
					c-4.5,0-9.4,5.8-11.2,5c-2.1-0.9,0.7-1.4-0.2-2.5c-0.7-0.9-5.6,2.3-2.2,6c3.5,3.7,15,1.7,17-2.8c2,4.5,13.5,6.5,17,2.8
					C55,108,50,104.8,49.3,105.7z"/>
				<path class="st24" d="M21.5,108.1c0.6,0.3,1.3,0.1,1.9,0c1.9-0.6,3.6-1.8,5.4-2.6c1-0.5,2-0.8,3.1-0.8c1,0,1.8,0.6,2.5,1.1
					c0.5,0.4,0.7,0.1,1.1-0.2c0.7-0.5,1.4-0.9,2.3-1c2.3-0.3,3.7,1.2,5.2,2.4c1.1,0.9,2.6,1.6,4.1,2c1.2,0.3,2.5,0.1,2.7-1.1
					c-0.1,0.1-0.3,0.3-0.6,0.4c-1.8,0.8-6.7-5-11.2-5c-2.5,0-3.4,1.9-3.4,1.9s-0.9-1.9-3.4-1.9c-3.7,0-7.5,3.8-9.8,4.8
					C21.4,108,21.4,108.1,21.5,108.1z"/>
				<g>
					<path class="st25" d="M51.5,110c-3.5,3.7-15,0.5-17-4c-2,4.5-13.5,7.7-17,4c-0.6-0.6-0.9-1.2-1.1-1.8c-0.3,1-0.1,2.2,1.1,3.4
						c3.5,3.7,15,1.7,17-2.8c2,4.5,13.5,6.5,17,2.8c1.2-1.2,1.4-2.4,1.1-3.4C52.4,108.8,52.1,109.4,51.5,110z"/>
				</g>
				<g>
					<path class="st25" d="M26.5,110.8c-2.8,0.7-6.8,0.6-8.6-1.8c0,0,0,0,0,0C19.5,111.4,23.7,111.9,26.5,110.8
						C26.5,110.8,26.5,110.7,26.5,110.8z"/>
					<path class="st25" d="M33.9,106.3c-1.3,0.7-2.5,1.7-3.8,2.4c-1.4,0.7-3,1.2-4.6,1.5c0,0,0,0,0,0
						C28.6,109.8,31.9,108.5,33.9,106.3C34,106.3,34,106.2,33.9,106.3z"/>
					<path class="st25" d="M20,108.7c-1-0.4-1.9-1-1.5-2c0,0,0,0,0,0C18.1,107.6,18.8,108.6,20,108.7C20,108.7,20,108.7,20,108.7z"
						/>
					<path class="st25" d="M25.1,108.3c-2,1.2-4.8,1.7-6.7,0.1c0,0,0,0,0,0C20.1,110.2,23.3,109.8,25.1,108.3
						C25.2,108.3,25.1,108.3,25.1,108.3z"/>
					<path class="st25" d="M26.8,108.2c-1.4,0.7-2.7,1.4-4.3,1.8c0,0,0,0,0,0C24.1,109.8,25.7,109.2,26.8,108.2
						C26.9,108.2,26.9,108.2,26.8,108.2z"/>
					<path class="st25" d="M33,104.5c-3.8-2-7.7,2.3-10.6,3.8c0,0,0,0,0,0c3.3-1.4,6.4-5.2,10.4-3.5C33.1,104.9,33.3,104.6,33,104.5
						z"/>
					<path class="st25" d="M30.5,105.3c-1.6,0-2.8,1-4,1.8c0,0,0,0,0,0C27.8,106.5,28.9,105.7,30.5,105.3
						C30.5,105.4,30.5,105.4,30.5,105.3z"/>
					<path class="st25" d="M33.8,105.5c-1.7-0.5-3.9,0.9-5.2,1.7c0,0,0,0,0,0c0.8-0.4,1.6-0.8,2.5-1.1c0.9-0.3,1.8-0.1,2.7-0.4
						C33.9,105.6,33.9,105.5,33.8,105.5z"/>
					<path class="st25" d="M30.7,106.8c-1.3,0.2-2.4,1.3-3.5,1.9c0,0,0,0.1,0,0c0.6-0.3,1.2-0.6,1.7-1
						C29.5,107.4,30.1,107.2,30.7,106.8C30.7,106.9,30.7,106.8,30.7,106.8z"/>
				</g>
				<g>
					<path class="st25" d="M42.7,110.8c2.8,0.7,6.8,0.6,8.6-1.8c0,0,0,0,0,0C49.6,111.4,45.4,111.9,42.7,110.8
						C42.6,110.8,42.6,110.7,42.7,110.8z"/>
					<path class="st25" d="M35.2,106.3c1.3,0.7,2.5,1.7,3.8,2.4c1.4,0.7,3,1.2,4.6,1.5c0,0,0,0,0,0
						C40.5,109.8,37.3,108.5,35.2,106.3C35.1,106.3,35.1,106.2,35.2,106.3z"/>
					<path class="st25" d="M49.2,108.7c1-0.4,1.9-1,1.5-2c0,0,0,0,0,0C51.1,107.6,50.3,108.6,49.2,108.7
						C49.2,108.7,49.1,108.7,49.2,108.7z"/>
					<path class="st25" d="M44,108.3c2,1.2,4.8,1.7,6.7,0.1c0,0,0,0,0,0C49,110.2,45.8,109.8,44,108.3C44,108.3,44,108.3,44,108.3z"
						/>
					<path class="st25" d="M42.3,108.2c1.4,0.7,2.7,1.4,4.3,1.8c0,0,0,0,0,0C45,109.8,43.5,109.2,42.3,108.2
						C42.2,108.2,42.3,108.2,42.3,108.2z"/>
					<path class="st25" d="M36.1,104.5c3.8-2,7.7,2.3,10.6,3.8c0,0,0,0,0,0c-3.3-1.4-6.4-5.2-10.4-3.5
						C36.1,104.9,35.8,104.6,36.1,104.5z"/>
					<path class="st25" d="M38.7,105.3c1.6,0,2.8,1,4,1.8c0,0,0,0,0,0C41.3,106.5,40.2,105.7,38.7,105.3
						C38.6,105.4,38.6,105.4,38.7,105.3z"/>
					<path class="st25" d="M35.4,105.5c1.7-0.5,3.9,0.9,5.2,1.7c0,0,0,0,0,0c-0.8-0.4-1.6-0.8-2.5-1.1c-0.9-0.3-1.8-0.1-2.7-0.4
						C35.2,105.6,35.2,105.5,35.4,105.5z"/>
					<path class="st25" d="M38.4,106.8c1.3,0.2,2.4,1.3,3.5,1.9c0,0,0,0.1,0,0c-0.6-0.3-1.2-0.6-1.7-1
						C39.6,107.4,39,107.2,38.4,106.8C38.4,106.9,38.4,106.8,38.4,106.8z"/>
				</g>
			</g>
		</g>
	</g>
</g>
</svg>
