<?xml version="1.0" encoding="utf-8"?>
<!-- Generator: Adobe Illustrator 23.1.0, SVG Export Plug-In . SVG Version: 6.00 Build 0)  -->
<svg version="1.1" xmlns="http://www.w3.org/2000/svg" xmlns:xlink="http://www.w3.org/1999/xlink" x="0px" y="0px"
	 viewBox="0 0 500 500" style="enable-background:new 0 0 500 500;" xml:space="preserve">
<style type="text/css">
	.st0{display:none;}
	.st1{fill:#D59A4E;stroke:#000000;stroke-width:9;stroke-miterlimit:10;}
	.st2{fill:#D59A4E;}
	.st3{display:none;fill:#D59A4E;}
	.st4{fill:#E1BE92;}
	.st5{fill:#BB8547;}
	.st6{fill:#E9D4B5;}
	.st7{fill:#FFD300;}
	.st8{fill:#774407;}
	.st9{fill:none;stroke:#000000;stroke-width:1.1242;stroke-miterlimit:10;}
	.st10{fill:#F29F05;}
	.st11{fill:#AA6707;}
	.st12{fill:#FFEA94;}
	.st13{fill:#FEFDFF;}
	.st14{fill:#EDECC8;}
	.st15{fill:#D84821;}
	.st16{fill:#3A1F04;}
	.st17{fill:#AD321E;}
	.st18{clip-path:url(#SVGID_2_);}
	.st19{clip-path:url(#SVGID_4_);}
	.st20{fill:#EF5722;}
	.st21{fill:none;}
	.st22{fill:#381F03;stroke:#381F03;stroke-width:2.2485;stroke-miterlimit:10;}
	.st23{fill:#EF5722;stroke:#EF5722;stroke-width:4.497;stroke-miterlimit:10;}
</style>
<g id="BACKGROUND" class="st0">
</g>
<g id="OBJECTS">
	<g>
		<path class="st1" d="M172.4,116.5c0,0,8.2,2.4,6.3,11.1c-1.9,8.7-1.9,15-1,18.9c1,3.9,1.5,16.9,0,23.7s3.4,30.5,3.4,38.2
			s0,21.3-0.5,25.6c-0.5,4.4-1.5,11.6-0.5,13.1c0,0-9,6.5-12.1,6.8c-2.9,0.2-9.7,3.9-14.6,4.4c-4.9,0.5-19.2,5.1-20.6,8.9
			c-1.5,3.9-2.4,5.3,0.5,6.8c2.9,1.5,8.2,0,9.2,1c1,1,5.3,1.5,7.8-0.5c2.4-1.9,12.6-5.8,18-5.8c5.3,0,6.3-4.4,10.7-3.9
			c4.4,0.5,1.5,19.3-7.8,21.3c-5.8,2.9-9.7,1.5-12.6,2.9c-2.9,1.5-8.2,2.4-10.2,2.9c-1.9,0.5-4.9,2.4-6.3,2.4s-6.3,0.5-7.8,1.9
			c-1.5,1.5-4.4,4.8-3.9,7.3c0.5,2.4,2.4,7.7,5.8,9.7c3.4,1.9,1,4.8,2.4,5.8s3.9,3.4,6.8,3.9c2.9,0.5,17,1.9,22.3-3.4
			c5.3-5.3,21.4-20.3,25.2-26.6c3.9-6.3,11.2-1.9,16-0.5c4.9,1.5,10.7,0.5,16.5-0.5c5.8-1,12.1,3.4,20.4,1.9
			c8.2-1.5,9.7,2.9,9.7,2.9s0.5,9.7,1.5,13.1c1,3.4-3.4,7.7-3.4,11.6c0,3.9,2.4,12.6-1.9,19.8c-4.4,7.3-8.7,11.1-8.2,15
			c0.5,3.9,2.4,2.4,2.4,2.4s0,2.9,5.3,2.4c0,0,1.5,1,3.9,1c2.4,0,5.8-1.9,5.8-1.9s1.5,1.9,3.9,0c2.4-1.9,5.8-4.8,9.7-5.3
			c3.9-0.5,2.4-14,3.9-16.4c1.5-2.4,1-8.2,3.9-11.6c2.9-3.4-3.9-7.7-1.9-17.9c1.9-10.2,5.8-16.9,11.6-18.9
			c5.8-1.9,26.2-13.5,29.1-15.5c2.9-1.9,20.9-14.5,23.3-17.9c2.4-3.4,39.8-40.6,20.4-77.8c-19.4-37.2-9.7-42.5-30.1-63.8
			c0,0-14.5-13.3-22.3-18.4c-8.2-5.3-14.2-15.6-15.5-19.3c-1.9-5.3-3.4-7.3-5.8-10.2c-2.4-2.9-1-2.4-4.4-7.7
			c-2.8-4.3-3.9-6.8-7.8-10.6c-3.4-3.4-9.7-11.1-17.5-11.1c-7.8,0-18-2.4-29.6-3.4c-11.1-0.9-12.6-1.9-20.9-1.9s-8.2,0-8.2,0
			s-5.8-5.8-12.1-3.9c-6.3,1.9-4.9,11.1-4.9,11.1s-13.6,11.1-16.5,22.2s-0.5,19.8-3.9,23.2c-3.4,3.4-17,13.1-15,19.3
			C152.2,110.5,158.6,117.7,172.4,116.5z"/>
		<path class="st2" d="M344.4,256.4c-2.4,3.4-20.4,16-23.3,17.9c-2.9,1.9-23.3,13.5-29.1,15.5c-5.8,1.9-9.7,8.7-11.6,18.9
			c-1.9,10.1,4.9,14.5,1.9,17.9c-2.9,3.4-2.4,9.2-3.9,11.6c-1.5,2.4,0,15.9-3.9,16.4c-3.9,0.5-7.3,3.4-9.7,5.3c-2.4,1.9-3.9,0-3.9,0
			s-3.4,1.9-5.8,1.9c-2.4,0-3.9-1-3.9-1c-5.3,0.5-5.3-2.4-5.3-2.4s-1.9,1.4-2.4-2.4c-0.5-3.9,3.9-7.7,8.2-15
			c4.4-7.3,1.9-16,1.9-19.8c0-3.9,4.4-8.2,3.4-11.6c-1-3.4-1.5-13.1-1.5-13.1s-1.5-4.3-9.7-2.9c-8.2,1.5-14.6-2.9-20.4-1.9
			c-5.8,1-11.6,1.9-16.5,0.5c-4.9-1.5-12.1-5.8-16,0.5c-3.9,6.3-19.9,21.3-25.2,26.6c-5.3,5.3-19.4,3.9-22.3,3.4
			c-2.9-0.5-5.3-2.9-6.8-3.9c-1.5-1,1-3.9-2.4-5.8s-5.3-7.3-5.8-9.7c-0.5-2.4,2.4-5.8,3.9-7.3c1.5-1.5,6.3-1.9,7.8-1.9
			c1.5,0,4.4-1.9,6.3-2.4c1.9-0.5,7.3-1.5,10.2-2.9c2.9-1.5,6.8,0,12.6-2.9c9.2-1.9,12.1-20.8,7.8-21.3c-4.4-0.5-5.3,3.9-10.7,3.9
			c-5.3,0-15.5,3.9-18,5.8c-2.4,1.9-6.8,1.4-7.8,0.5c-1-1-6.3,0.5-9.2-1c-2.9-1.4-1.9-2.9-0.5-6.8c1.5-3.9,15.8-8.5,20.6-8.9
			c4.8-0.5,11.7-4.1,14.6-4.3c3.2-0.2,12.1-6.8,12.1-6.8c-1-1.4,0-8.7,0.5-13c0.5-4.4,0.5-17.9,0.5-25.6c0-7.7-4.8-31.4-3.4-38.2
			c1.5-6.8,1-19.8,0-23.7c-1-3.9-1-10.2,1-18.9c1.9-8.7-6.3-11.1-6.3-11.1c-13.8,1.2-20.1-6-22.1-12.3c-1.9-6.3,11.6-16,15-19.3
			c3.4-3.4,1-12.1,3.9-23.2c2.9-11.1,16.5-22.2,16.5-22.2s-1.5-9.2,4.8-11.1c6.3-1.9,12.1,3.9,12.1,3.9s0,0,8.2,0
			c8.2,0,9.7,1,20.9,1.9c11.6,1,21.8,3.4,29.6,3.4c7.8,0,14.1,7.7,17.5,11.1c3.9,3.9,5,6.3,7.8,10.6c3.4,5.3,1.9,4.8,4.4,7.7
			c2.4,2.9,3.9,4.8,5.8,10.1c1.4,3.7,7.3,14,15.5,19.3c7.8,5,22.3,18.4,22.3,18.4c20.4,21.3,10.7,26.6,30.1,63.8
			C384.2,215.8,346.8,253.1,344.4,256.4z"/>
		<g>
			<path class="st3" d="M196.4,285c-0.5-9.7,2.9-59.5,6.8-62.8c3.9-3.4,7.3-5.3-1.5-13.1s-4.4-18.4-15.5-7.3
				c-2.1,2.1-3.8,4.2-5.1,6.1c0,0.2,0,0.3,0,0.5c0,7.7,0,21.3-0.5,25.6c-0.5,4.4-1.5,11.6-0.5,13.1c0,0-9,6.5-12.1,6.8
				c-2.9,0.2-9.7,3.9-14.6,4.4c-4.9,0.5-19.2,5.1-20.6,8.9c-1.5,3.9-2.4,5.3,0.5,6.8c2.9,1.5,8.2,0,9.2,1c1,1,5.3,1.5,7.8-0.5
				c2.4-1.9,12.6-5.8,18-5.8c5.3,0,6.3-4.4,10.7-3.9c4.4,0.5,1.5,19.3-7.8,21.3c-5.8,2.9-9.7,1.5-12.6,2.9
				c-2.9,1.5-8.2,2.4-10.2,2.9c-1.9,0.5-4.9,2.4-6.3,2.4s-6.3,0.5-7.8,1.9c-1.5,1.5-4.4,4.8-3.9,7.3c0.5,2.4,2.4,7.7,5.8,9.7
				c3.4,1.9,1,4.8,2.4,5.8s3.9,3.4,6.8,3.9c2.9,0.5,17,1.9,22.3-3.4c5.3-5.3,21.4-20.3,25.2-26.6c0.7-1.2,1.6-2,2.5-2.5
				C196.2,288.5,196.5,286.7,196.4,285z"/>
			<path class="st3" d="M364.8,178.6c-19.4-37.2-9.7-42.5-30.1-63.8c0,0-14.5-13.3-22.3-18.4c-8.2-5.3-14.2-15.6-15.5-19.3
				c-1.9-5.3-3.4-7.3-5.8-10.2c-2.4-2.9-1-2.4-4.4-7.7c-2.8-4.3-3.9-6.8-7.8-10.6c-3.4-3.4-9.7-11.1-17.5-11.1
				c-7.8,0-18-2.4-29.6-3.4c-11.1-0.9-12.6-1.9-20.9-1.9s-8.2,0-8.2,0s-5.8-5.8-12.1-3.9c-6.3,1.9-4.9,11.1-4.9,11.1
				s-13.6,11.1-16.5,22.2s-0.5,19.8-3.9,23.2c-3.4,3.4-17,13.1-15,19.3c0.4,1.3,1,2.7,1.9,4.1c13.6-5.6,31.4-13.2,36-16.6
				c7.8-5.8,30.1-28,39.8-15s19.4,8.2,17.5,24.2c-1.9,16-14.1,17.4-15.5,26.1s-9.7,15.5-1.5,22.7c8.2,7.3,27.2-0.5,34,1.9
				c6.8,2.4-7.3,12.6-2.4,20.8c4.9,8.2,29.1-7.3,30.1,1.5c1,8.7,1.5,16-8.7,21.8c-10.2,5.8-18.9,30-18.9,43
				c0,13.1-1.5,43.5-1.5,43.5s-4.9,2.4-4.4,14l-0.8,2.7c0.2,3.1,0.6,8.5,1.3,10.8c1,3.4-3.4,7.7-3.4,11.6c0,3.9,2.4,12.6-1.9,19.8
				c-4.4,7.3-8.7,11.1-8.2,15c0.5,3.9,2.4,2.4,2.4,2.4s0,2.9,5.3,2.4c0,0,1.5,1,3.9,1c2.4,0,5.8-1.9,5.8-1.9s1.5,1.9,3.9,0
				c2.4-1.9,5.8-4.8,9.7-5.3c3.9-0.5,2.4-14,3.9-16.4c1.5-2.4,1-8.2,3.9-11.6c2.9-3.4-3.9-7.7-1.9-17.9c1.9-10.2,5.8-16.9,11.6-18.9
				c5.8-1.9,26.2-13.5,29.1-15.5c2.9-1.9,20.9-14.5,23.3-17.9C346.8,253.1,384.2,215.8,364.8,178.6z"/>
			<path class="st4" d="M260.4,259.9c0,0,2.3-8.4,2-21.3c-0.3-13,8.7-37.2,18.9-43c10.2-5.8,9.7-13.1,8.7-21.8
				c-1-8.7-25.2,6.8-30.1-1.5c-4.9-8.2,9.2-18.4,2.4-20.8c-6.8-2.4-25.7,5.3-34-1.9c-8.2-7.3,0-14,1.5-22.7s13.6-10.2,15.5-26.1
				c1.9-16-7.8-11.1-17.5-24.2s-32,9.2-39.8,15c-4.6,3.5-22.4,11.1-36,16.6c3.1,4.9,9.3,9.2,20.2,8.3c0,0,8.2,2.4,6.3,11.1
				c-1.9,8.7-1.9,15-1,18.9c1,3.9,1.5,16.9,0,23.7c-1.4,6.6,3.2,29.6,3.4,37.7c1.3-1.9,3-4,5.1-6.1c11.2-11.1,6.6-0.2,15.5,7.3
				c9.5,7.9,12.2,13.6,13.1,24.6c0.5,5.9-7.4,28.4-9.2,38.5c-0.3,1.7,25.5-9.7,33.6-11.9C243.4,259.1,259.9,259.8,260.4,259.9z"/>
		</g>
		<path d="M156.1,96.5c0,0-3.9,0.5-4.4,3.4c-0.5,2.9-1.9,2.9-1,5.3c1,2.4,2.9,4.4,5.8,4.4c2.9,0,3.4,1.9,6.3,1
			c2.9-1,16-7.7,6.8-11.6C165.8,96.5,156.1,96.5,156.1,96.5z"/>
		<path d="M169.4,64.1c0.9,0.4,5.2,2.1,5.2,4.3c0,0-0.5,3.4-4.4,4.4c-2.4,1-2.4-0.5-2.4-0.5s0.8-6.8,1.3-8
			C169.1,64.2,169.3,64.1,169.4,64.1z"/>
		<path class="st5" d="M242.4,47.5c-0.2-0.2-0.2-0.5-0.1-0.7c1.3-1.8,7.3-9.7,13.3-8.8c6.8,1,9.7,3.4,11.6,8.2
			c1.9,4.7,3.3,14.9,0.3,22.5c-0.1,0.3-0.6,0.4-0.8,0.2L242.4,47.5z"/>
		<path d="M145.3,322.8c0,0-3.4,1.9-3.9,3.9c0,0,2.9,1,4.4,0.5C147.2,326.6,145.8,322.8,145.3,322.8z"/>
		<path class="st5" d="M330.1,124.9c-2.8,4.1-16.4,23.6-28.8,29.7c-0.2,0.1-0.1,0.3,0.1,0.2c6.5-2.3,22.9-10,28.9-29.9
			C330.4,124.9,330.2,124.8,330.1,124.9z"/>
		<path class="st5" d="M341.2,134.2C341.2,134.2,341.2,134.1,341.2,134.2c-1.2,2.6-10.5,24.2-15,28.7c-3.9,3.9-2.1,11.1-1.3,13.6
			c0.1,0.2,0.4,0.2,0.4,0c0.3-2.4,1.2-8.8,2.8-11.1C330.1,162.5,340.6,143.5,341.2,134.2z"/>
		<g>
			<path class="st5" d="M192.4,121.9c5.3-1.5,7.3-7.3,9.2-9.2c1.9-1.9,6.3-0.5,11.6-4.4s-2.9-7.7-4.9-8.7c-1.9-1-6.3,2.4-8.7,5.8
				c-2.4,3.4-14.6,13.1-23.3,9.2c-7.1-3.2-15.6-1.2-18.4-0.3c3.5,2.1,8.2,3.3,14.5,2.7c0,0,4.5,1.3,6.1,5.6c0.4,0.1,0.8,0.2,1.2,0.2
				C189.5,124.8,187.1,123.3,192.4,121.9z"/>
			<path class="st5" d="M367,183.7c-0.6-1.5-1.3-3-2.1-4.5c-2.4-4.6-4.3-8.6-5.9-12.3c-3.8,7.4-8.6,18.4-10,27.6
				c-0.1,0.8,0.8,1.4,1.5,0.8C353.3,193,359.3,188.3,367,183.7z"/>
			<path class="st5" d="M334.5,232.5c0.4-0.8-0.4-1.6-1.1-1.2c-4.7,2.1-15.4,6.4-17.6,2.3c-2.2-4.1-1.3-18.5-1-22.3
				c0-0.1-0.1-0.1-0.1,0c-0.7,3.7-3.6,17.7-11.3,24c-1.1,0.9-1.7,2.2-1.6,3.6c0.1,8.5,0,37.4-7.8,48.8c-0.6,0.9-1.2,1.8-1.7,2.6
				c5.9-2,26.2-13.5,29.1-15.5c1.1-0.7,4.3-3,8.1-5.7l-14.9-20.3c-0.8-1.1-0.2-2.6,1-2.9C320.1,244.8,329.6,241.3,334.5,232.5z"/>
		</g>
		<path d="M146.9,270.5c0,0-3.4,1.9-3.4,2.9c0,1,3.9-0.5,3.9-0.5S147.9,271.4,146.9,270.5z"/>
		<g>
			<path class="st5" d="M186,285.7c6.8-9.2-4.9-58.2-5.2-52.9c1.8,8.9-0.3,27.4,0.6,33.8c1,6.8-4.9,19.8-6.8,21.8
				c-1.9,1.9-5.8,3.4-8.2,7.7c-2.4,4.4-5.3,5.3-9.2,6.8c-3.9,1.5-5.8,4.8-10.2,6.3c-3,1-6.9,3.8-9.1,5.5c0,0.1,0.1,0.2,0.1,0.3
				c6.9-3.4,17-3.9,22.8-7.5C167,303.6,179.2,294.9,186,285.7z"/>
		</g>
		<path d="M171.7,117.1c3-0.2,6-0.4,9-0.7c1.5-0.1,3-0.3,4.5-0.5c0.4,0,0.7-0.1,1.1-0.2c0.4-0.1,0.7-0.1,1.1-0.2
			c0.4-0.1,0.7-0.2,1.1-0.3c0.3-0.1,0.7-0.3,1-0.4c1.3-0.7,2.6-1.5,3.9-2.3l3.8-2.5c1.3-0.8,2.5-1.6,3.9-2.4
			c0.7-0.3,1.3-0.7,2.1-0.9c0.2,0,0.4,0,0.6,0l0.6,0l1.1,0.1c0.1,0,0.1,0.1,0.1,0.1c0,0.1-0.1,0.1-0.1,0.1l-1.1-0.1l-0.6,0
			c-0.2,0-0.4,0-0.5,0c-0.7,0.1-1.4,0.5-2,0.9c-1.3,0.7-2.6,1.6-3.8,2.4l-3.8,2.5c-1.3,0.8-2.5,1.6-3.9,2.3
			c-0.3,0.2-0.7,0.3-1.1,0.4c-0.4,0.1-0.7,0.2-1.1,0.3c-0.4,0.1-0.7,0.2-1.1,0.2c-0.4,0.1-0.7,0.1-1.1,0.2c-1.5,0.2-3,0.4-4.5,0.6
			c-3,0.3-6,0.6-9,0.8c-0.2,0-0.3-0.1-0.3-0.3C171.4,117.3,171.5,117.1,171.7,117.1L171.7,117.1z"/>
		<path d="M197.1,74c-0.2-0.1-0.2-0.4,0-0.5c1.7-0.7,7.8-3.2,10.7-3.7c3.1-0.4,11.6,0.3,14,1.2c0.2,0.1,0.2,0.4,0,0.5
			c-0.5,0.2-1.3,0.6-1.9,1.2c-1,1-3.9,3.4-5.3,3.9c-1.5,0.5-9.2,0.5-11.6,0C201.1,76.3,198.2,74.7,197.1,74z"/>
		<g>
			<path class="st6" d="M206.9,72.9c0,0-1.8,0.4-2,0.8c-0.3,0.4,2,0.7,2,0.7L206.9,72.9z"/>
			<path d="M213,73.5c0,1.6-1.4,2.9-3.2,2.9s-3.2-1.3-3.2-2.9s1.4-2.9,3.2-2.9S213,71.9,213,73.5z"/>
		</g>
	</g>
	<g>
		<g>
			<g>
				<path class="st7" d="M366.7,189c0,0,11.8-3.6,22.7-2.5c10.9,1.1,16.8,7.2,23.1,20.2c6.3,13,12.6,32.9,16,44.7
					c3.4,11.8,7.4,35.4,2.4,44.6c-5.1,9.2-19.5,19.1-23,20.9c-3.5,1.8-9.3-2.4-11.7-8.6c-2.5-6.2-3-13.9-1.7-15.2
					c1.4-1.3,11.8-1.5,14.9-9.4c3.2-7.9-1.8-29.9-5.9-43.9c-4.1-14-7.8-24.7-15.3-23.9c-7.5,0.8-9.9,2.1-9.9,2.1s-12,0.7-15.2-8.7
					c-3.2-9.4-0.4-14.1,0.5-16.2C364.6,190.8,365,189.5,366.7,189z"/>
				<g>
					<path class="st8" d="M388.8,191.8c1-0.7,2.3-1,3.6-0.9c1.3,0.1,2.5,0.6,3.6,1.1c2.2,1.3,4,3.1,5.5,5.1c3.1,4,5.2,8.5,7.1,13.1
						c3.7,9.2,6.7,18.6,9.5,28c2.7,9.5,5.1,19,6.9,28.8c0.2,1.2,0.4,2.4,0.6,3.7c0.2,1.2,0.3,2.5,0.3,3.8c0,2.5-0.1,4.9-0.2,7.4
						c-0.2,2.5-0.5,4.9-1,7.4c-0.3,1.2-0.6,2.4-1,3.6c-0.5,1.2-1,2.3-1.7,3.3c1.2-2.2,1.8-4.6,2.2-7c0.4-2.4,0.5-4.9,0.5-7.3
						c0-2.4,0-4.9-0.1-7.3c-0.1-1.2-0.2-2.3-0.4-3.6c-0.2-1.2-0.4-2.4-0.7-3.6c-1-4.8-2.2-9.5-3.4-14.3c-1.2-4.7-2.5-9.5-3.9-14.2
						c-2.7-9.4-5.5-18.8-8.9-28c-1.8-4.5-3.6-9.1-6.3-13.1c-1.3-2-3-3.8-4.9-5.2c-1-0.6-2.1-1.1-3.3-1.3
						C391.1,191.1,389.9,191.2,388.8,191.8z"/>
				</g>
				<path class="st9" d="M390.8,202.5c0,0,4.7-0.1,8.4,8.1"/>
				<path class="st10" d="M394.4,302.1c0,0,19.4-10.3,22.5-22.3c3.1-12-2.1-30.3-7.2-47.2c-5.1-16.9-8.1-26.5-17.5-31.8
					c-9.4-5.3-29.8,5.7-29.8,5.7s0.6,11.6,16,11.3c0,0,7.7-2.3,11.2-2.1c3.5,0.2,6.8,3.4,9.7,12.2c2.9,8.8,6.7,20.4,8.4,28.9
					c1.7,8.8,3.2,21.5,2.5,24.1c-0.7,2.6-3.2,7.7-8.3,9.6c-6.5,2.4-7.6,1.8-7.8,3.6C393.8,295.8,393.9,299.9,394.4,302.1z"/>
				<path class="st11" d="M374.2,217.5c0,0,11-5.8,16.6-4.6c5.7,1.2,7.8,5.7,10.4,12c2.7,6.2,6.9,22.3,8.9,31.8
					c2,9.4,3.3,19.9,2.4,23.7c-0.9,3.7-4.2,6.6-7.7,8.5c0,0,6.3-3.9,5.2-15c-1.1-11.1-5.4-28.9-7.2-34.6c-1.8-5.7-4.6-14.5-5.9-16.8
					c-1.3-2.3-4.4-7-7.4-6.7c-3.1,0.3-8.6,1.3-11.2,2.1C378.4,217.8,375.8,218.2,374.2,217.5z"/>
				<path class="st12" d="M366.3,198.8c0,0,8.9-3.1,14.2-3.6c5.3-0.5,12.4-0.7,16.5,2.4c4,3.1,7.6,10,8.8,13c0,0,0.8,1.9-0.7,2.8
					c-1.5,0.9-2.4-1.3-2.9-2.1c-0.5-0.8-3.7-9.6-8.7-11.9c-5-2.3-19,0.3-23.7,1.9s-5.8,0.6-5.6-0.4
					C364.5,199.8,365,199.2,366.3,198.8z"/>
				<path class="st12" d="M379.1,190.1c-3,0.1-5,1.2-5,2.6c0.1,1.4,3.9,0.4,6.3,0C382.9,192.3,383.6,189.8,379.1,190.1z"/>
				<path class="st12" d="M417.8,286.9c-1.1,4.3-5.5,7.6-10.3,11.1c-4.8,3.5-8.6,7.1-6.8,9.2c1.8,2.1,10.9-5.4,15.2-10.1
					c4.4-4.7,6.4-9.7,6.1-14.4C421.8,277.9,419.3,280.8,417.8,286.9z"/>
				<g>
					<path class="st8" d="M370.9,195.9c0.6-0.7,1.4-1.1,2.1-1.5c0.8-0.4,1.5-0.6,2.4-0.8c0.8-0.2,1.6-0.2,2.5-0.2
						c0.8,0.1,1.7,0.2,2.5,0.6c-0.8,0.5-1.5,0.8-2.3,1.1c-0.8,0.3-1.5,0.5-2.3,0.6c-0.8,0.2-1.6,0.3-2.4,0.3
						C372.7,196.1,371.9,196.1,370.9,195.9z"/>
				</g>
				<g>
					<path class="st8" d="M419.4,264.8c0.6,0.7,1,1.6,1.2,2.4c0.2,0.8,0.4,1.7,0.4,2.6c0,0.9-0.1,1.8-0.4,2.6
						c-0.2,0.9-0.6,1.7-1.3,2.4c-0.3-0.9-0.4-1.8-0.5-2.6c-0.1-0.8-0.1-1.6-0.1-2.4c0-0.8,0-1.6,0.1-2.4
						C419,266.5,419.1,265.7,419.4,264.8z"/>
				</g>
				<g>
					<path class="st8" d="M431.6,265.4c1.6,5.1,2.4,10.4,2.7,15.7c0.1,2.7,0,5.4-0.4,8.1c-0.4,2.7-1.2,5.4-2.4,7.9
						c-1.3,2.5-3,4.6-4.9,6.6c-1.9,1.9-3.9,3.7-6,5.3c-4.3,3.2-8.8,6-13.7,8.2c4.4-3,8.6-6.1,12.6-9.6c1-0.8,1.9-1.8,2.9-2.6
						c0.9-0.9,1.9-1.8,2.7-2.8c1.7-1.9,3.4-3.9,4.5-6.2c2.3-4.4,2.9-9.7,3-14.9C432.7,275.9,432.3,270.6,431.6,265.4z"/>
				</g>
				<g>
					<path class="st8" d="M370.3,188c4.3-1.6,8.9-2.5,13.5-2.8c2.3-0.2,4.7-0.1,7,0.1c2.3,0.3,4.7,0.9,6.9,1.9
						c4.4,2.3,7.6,5.8,10.2,9.6c2.6,3.8,4.7,8,6,12.4c-2.2-4-4.6-7.9-7.4-11.4c-1.4-1.7-2.9-3.4-4.5-4.9c-1.6-1.5-3.4-2.8-5.3-3.8
						c-1.9-0.9-4.1-1.4-6.2-1.8c-2.2-0.3-4.4-0.5-6.6-0.5C379.3,187,374.8,187.4,370.3,188z"/>
				</g>
			</g>
			<path class="st9" d="M267.1,208.9c0,0-7.7-6.1-14.1,3.2"/>
			<path class="st7" d="M366.4,159.7l6.5,22.5c0,0,28.6,95.3,31.9,105.5c3.2,10.2,6.9,30.7,6.9,30.7s7.4,0.7,8.8,10
				c2.6,17.5-24.7,42.3-64.9,57.3c-40.2,15-110.3,15-90.6-25.1c0,0-28-87.7-36.8-120.2c-8.8-32.5-9.6-37.5-9.6-37.5
				s30.9-20.8,63.9-32.5C315.5,158.7,366.4,159.7,366.4,159.7z"/>
			<path class="st10" d="M341.8,359.1c-11.2,3.6-42.8,14.4-48.2,20.7c-5.4,6.4-14,13.3,4.1,15.3c18.1,1.9,48.2-5.2,67.4-13.3
				c19.2-8.1,47.8-26.2,52.4-41c4.6-14.9-5.4-14.3-9.3-14.6c-4-0.3-4.7,15.4-13.1,19.7S356.5,354.4,341.8,359.1z"/>
			<path class="st11" d="M382.4,351.8c-5.4,2.9-19.6,11-37.8,17.5c-18.3,6.5-36.7,10.5-41.7,10.9c-5,0.4-14.6,6.9-8.1,10.8
				c6.5,3.8,27.1,0.2,47.6-7s27.5-11.8,27.5-11.8s10.3,2.1,21.1-5.1c10.8-7.2,20.2-13.3,22.4-20.5c2.2-7.2-5.7-6.8-9.6-3.7
				c-3.8,3.1-12.3,11.7-15.7,14.4C384.6,359.9,388.9,348.3,382.4,351.8z"/>
			<path class="st10" d="M225.2,205.8c0,0,20.2,65,30.4,99.6s15.4,56,18.1,52.9c7.7-9.1,43.9-24.4,72.4-33.9
				c28.5-9.6,60-6.1,59.7-10.4c-0.3-4.3-28.8-106-36.5-129.1c-7.7-23.2-9.3-25-9.3-25s-40.7-1.3-77.5,10.7c-36.7,12-58,28.7-58,28.7
				S224.1,202,225.2,205.8z"/>
			<path class="st12" d="M312.1,205.8l30.2,89.8c0,0,1.6,9.3,8.3,8.9l-37.3-112.9C313.3,191.7,306.3,193.3,312.1,205.8z"/>
			<path class="st7" d="M411.7,318.4c0,0-22.2,2.1-30.1-13.7c-7.9-15.9-41.4-138.1-41.4-138.1s17.8-7.9,26.2-6.8L411.7,318.4z"/>
			<path class="st10" d="M361.7,184.2c0,0,17.2,49.2,23,68.4s14.1,43.4,12.8,49.5c0,0-2.3,2.9-10-20.9
				c-7.7-23.8-33.4-101.6-33.4-101.6S356.1,172.4,361.7,184.2z"/>
			<path class="st11" d="M312.1,205.8c0,0,4.6,10.7,5.7,17.2c1.1,6.5,0.8,13.9-5.7,22.9c-6.6,9-16.6,24.9-24.3,22.9
				c0,0,12.5,44.7,21.1,51.2c8.6,6.5,47-2.2,58.4,0c11.4,2.2,9.6,5.7,0,7.6c-9.6,1.9-10.8,2-13.9,3.5c-3.1,1.5-0.4,4,20.6,0
				c21-4,28-4.4,28.8,2.2c0.8,6.6-2.5,5-9.4,5c-6.9,0-74.9,20-95.9,34c-21,14-7.6,14.2-7.6,14.2s-14.9,5.9-18.4-5.3
				c-3.4-11.3,20.1-23.7,26-27.2c5.9-3.5,9.4-10.5,0-5.1c-9.4,5.4-30.7,18-32.6,11.7c-2-6.2-28.8-95.5-44.9-151.1
				c0,0,45.7-24.6,82.8-37.4c37-12.8,68.1,17.8,68.1,17.8s0.6,1.9,2.1,6.7c1.4,4.8-14.1,2.4-14.4-1.8c-0.3-4.2,0.3,11-4.5,14.6
				s-13.2,6.9-16.9,6.5c-3.7-0.4-8.1-2.6-10.2-5.7c-2.1-3.2-4.5,1.8-9.2,0C313.2,208.4,312.1,205.8,312.1,205.8z"/>
			<path class="st10" d="M265.2,309.8l9.4,30.4c0,0-0.3,5.4-2.2,1.8c-1.8-3.6-9.4-27.8-9.4-27.8l2.1-6.9V309.8z"/>
			<g>
				<path class="st13" d="M370.9,190c0,0-0.3,3.2-9.9,1.3c-9.6-1.9-3.6-3.6-14.2-4.3c-10.6-0.7-8.5-5.7-11.7-3.9
					c-3.2,1.9-3.5,5.5-8.2,10.7c-4.6,5.2-12.9,3.7-21.7,2.6c-8.8-1.1-6.4,7.5-13.3,8.3c-6.9,0.8-9.1-4.5-14.4-2.4
					c-5.3,2.1-1.9,2.9-8.5,4.3c-6.7,1.3-11.7,0.3-14.6,6.1c-2.9,5.9-4.3,8.3-13,8.8c-8.8,0.5-7.3-0.6-10.7,2.1l-5-16.1
					c0,0-2.1-4.7-1.3-8.4c0.8-3.7,8-8.5,21-16.3c13-7.8,35.9-16.6,56.7-20.9c20.8-4.3,54-5.3,55.5-5.3c1.5,0,3,4.3,4.8,8.9
					C364.2,170.1,370.9,190,370.9,190z"/>
				<path class="st14" d="M312.8,197.3c0,0,10,2.5,14.2-3.5c4.2-6,5.2-9.1,7.9-9.7c2.7-0.6,6.3,6.6,10.9,5.8c4.7-0.8,4.4-1.3,8.2,0
					c3.9,1.3,6.6,3.9,12.2,3.3c5.5-0.5,4.9-2.8,3.3-7.5c-1.6-4.7-4.7-13.8-4.7-13.8s4.6,13.5-1.3,14.5c-5.9,1-10.2-3.1-12.9-4.4
					c-2.7-1.3-8,0.2-10.4-1.2c-2.3-1.4-5.5-3.4-8.6-1.4c-3.1,2-4.8,10.4-8.7,11.5c-3.8,1-10.6,1.2-16.3,1.2c-5.8,0-8,4.5-8.2,7
					c0,0,3.2-3.1,7-2.9C309.1,196.7,312.8,197.3,312.8,197.3z"/>
			</g>
			<g>
				<g>
					<path class="st8" d="M271.6,365.8c4.4-3.9,9.3-7.3,14.2-10.7c5-3.2,10.1-6.3,15.3-9.1c10.5-5.6,21.4-10.4,32.7-14.2
						c11.3-3.7,22.8-6.9,34.5-8.7c2.9-0.5,5.8-1.1,8.8-1.3l8.9-0.9c2.9-0.4,5.9-0.4,8.9-0.5c3-0.1,5.9-0.2,8.9-0.3
						c-2.9,0.3-5.9,0.6-8.8,0.9c-2.9,0.3-5.9,0.5-8.8,1c-5.8,0.9-11.7,1.6-17.5,2.9l-4.3,0.9c-1.4,0.3-2.9,0.5-4.3,0.9l-8.6,2.2
						c-2.9,0.7-5.7,1.6-8.5,2.4c-2.8,0.9-5.7,1.6-8.4,2.7l-8.3,2.9l-8.2,3.3c-5.4,2.3-10.8,4.7-16.1,7.4
						C291.4,352.9,281.1,358.8,271.6,365.8z"/>
				</g>
				<g>
					<path class="st8" d="M276.4,373.5c2.8-3.5,6.1-6.5,9.6-9.3c3.5-2.8,7.2-5.4,11-7.6c1-0.6,1.9-1.1,2.9-1.6c1-0.5,2-1.1,3-1.6
						c2-0.9,4-2,6.1-2.7c4.1-1.7,8.4-3,12.8-4c-4.1,1.9-8.1,3.6-12.1,5.6c-4,1.9-7.8,4.1-11.6,6.3c-3.8,2.2-7.5,4.6-11.1,7.1
						C283.4,368.1,279.9,370.7,276.4,373.5z"/>
				</g>
				<g>
					<path class="st8" d="M327,344.1c0.7-0.8,1.5-1.4,2.3-1.9c0.8-0.5,1.7-1,2.6-1.3c0.9-0.4,1.8-0.6,2.8-0.8c1-0.2,2-0.3,3-0.2
						c-0.8,0.7-1.6,1.3-2.4,1.8c-0.8,0.5-1.7,0.9-2.6,1.3c-0.9,0.4-1.8,0.6-2.7,0.9C329.1,344,328.1,344.2,327,344.1z"/>
				</g>
				<g>
					<path class="st8" d="M285.6,382c-0.3-0.6-0.2-1.4,0-2c0.2-0.7,0.5-1.3,0.8-1.9c0.4-0.6,0.8-1.1,1.2-1.7l1.4-1.5
						c1-0.9,2-1.9,3.1-2.7l1.6-1.3c0.6-0.4,1.1-0.8,1.7-1.2c2.3-1.6,4.7-2.9,7-4.3c2.4-1.3,4.8-2.6,7.3-3.7
						c9.9-4.7,20-8.7,30.3-12.4c10.3-3.6,20.7-6.9,31.4-9.3c5.3-1.2,10.7-2.1,16.2-2.6c2.7-0.2,5.5-0.3,8.2-0.1
						c1.4,0.1,2.7,0.3,4.1,0.6c1.3,0.4,2.7,0.8,3.7,1.8c-1.1-0.9-2.4-1.2-3.7-1.5c-1.3-0.2-2.7-0.3-4-0.3c-2.7,0-5.4,0.2-8.1,0.6
						c-5.4,0.7-10.7,1.9-15.9,3.2c-5.2,1.4-10.5,2.8-15.6,4.5c-5.2,1.6-10.3,3.3-15.4,5.2c-5.1,1.8-10.2,3.7-15.3,5.7
						c-2.6,0.9-5.1,2-7.6,3c-2.5,1-5,2.1-7.5,3.2c-5,2.2-9.8,4.6-14.5,7.4c-0.6,0.3-1.2,0.7-1.7,1l-1.7,1.1
						c-1.2,0.7-2.2,1.6-3.2,2.4l-1.5,1.4c-0.5,0.5-0.9,1-1.3,1.5c-0.3,0.6-0.7,1.1-1,1.8C285.5,380.7,285.3,381.4,285.6,382z"/>
				</g>
				<g>
					<path class="st8" d="M297.6,384.1c8.4-0.8,16.7-2.4,25-4.4c4.1-1,8.2-2.1,12.2-3.3l6-1.9l6-2.1c2-0.7,3.9-1.5,5.9-2.2
						c2-0.8,3.9-1.5,5.8-2.4l5.8-2.5c1-0.4,1.9-0.9,2.9-1.4l2.8-1.4c3.8-1.8,7.5-3.9,11.2-5.8c1.9-0.9,3.7-2.1,5.5-3.1
						c1.8-1.1,3.6-2.2,5.5-3.2c-1.7,1.3-3.4,2.5-5.2,3.7c-1.7,1.2-3.4,2.5-5.3,3.6c-3.6,2.2-7.2,4.5-11,6.5
						c-7.4,4.1-15.3,7.5-23.3,10.5c-8,2.9-16.2,5.2-24.6,6.9C314.6,383.1,306.1,384.1,297.6,384.1z"/>
				</g>
				<g>
					<path class="st8" d="M413.2,334.3c-0.1,2.2-0.9,4.4-1.8,6.4c-1,2-2.1,3.9-3.4,5.7c-2.6,3.6-5.8,6.8-9.2,9.6l-1.3,1.1l-1.3,1
						l-2.7,2c-1.9,1.2-3.7,2.4-5.6,3.5c-1.9,1.1-3.9,2.1-5.8,3.1c-2,0.9-4,1.8-6.1,2.6c1.8-1.3,3.7-2.4,5.5-3.6l5.4-3.6l5.3-3.8
						l2.6-2l1.3-1l1.2-1.1c0.8-0.7,1.7-1.4,2.5-2.1l2.4-2.2c1.5-1.5,3-3.1,4.4-4.7c1.4-1.6,2.7-3.4,3.9-5.2
						C411.6,338.3,412.6,336.4,413.2,334.3z"/>
				</g>
			</g>
			<g>
				<g>
					<path class="st8" d="M367.3,196c3.1,8.1,6.1,16.3,9,24.5c1.4,4.1,2.8,8.2,4.2,12.4c1.3,4.2,2.5,8.4,3.7,12.6
						c1.2,4.2,2.4,8.4,3.6,12.6c1.2,4.2,2.4,8.4,3.5,12.6c2.3,8.4,4.5,16.8,6.7,25.3l0-0.1c0.4,1.1,0.5,2.1,0.5,3.2
						c0,1.1-0.2,2.1-0.5,3.1c-0.3,1-0.7,2-1.3,2.8c-0.3,0.4-0.6,0.8-0.9,1.2c-0.3,0.4-0.7,0.7-1,1.1c0.3-0.4,0.6-0.8,0.9-1.2
						c0.3-0.4,0.6-0.8,0.8-1.3c0.5-0.9,0.8-1.8,1.1-2.8c0.2-1,0.3-2,0.2-2.9c-0.1-1-0.3-2-0.6-2.8l0,0l0,0c-2.7-8.3-5.2-16.6-7.7-25
						c-1.3-4.2-2.5-8.4-3.7-12.5c-1.2-4.2-2.4-8.4-3.6-12.6l-3.5-12.6l-3.8-12.5C372.2,212.7,369.7,204.4,367.3,196z"/>
				</g>
				<g>
					<path class="st8" d="M388.8,309.2c-0.6,0.6-1.2,1-1.8,1.4c-0.7,0.3-1.3,0.6-2,0.7c-0.7,0.2-1.4,0.2-2.2,0.2
						c-0.7-0.1-1.5-0.2-2.3-0.6c0.7-0.5,1.3-0.8,2-1.1c0.6-0.3,1.3-0.5,2-0.6c0.7-0.1,1.4-0.2,2.1-0.2
						C387.2,308.9,388,309,388.8,309.2z"/>
				</g>
				<g>
					<path class="st8" d="M332.3,212.1c3.3,8.8,6.5,17.7,9.6,26.5c3.1,8.9,6,17.8,9,26.7c2.9,8.9,5.8,17.9,8.5,26.9
						c1.4,4.5,2.7,9,4.1,13.5l0.2,0.8l0.1,0.4c0,0.1,0.1,0.2,0.2,0.4c0.2,0.5,0.6,0.9,0.9,1.3c0.8,0.8,1.8,1.3,2.9,1.8
						c1.1,0.5,2.2,0.9,3.3,1.2c1.1,0.3,2.3,0.6,3.5,0.6c-2.4,0.1-4.7-0.4-7-1.2c-1.1-0.4-2.2-0.9-3.2-1.7c-0.5-0.4-0.9-0.9-1.2-1.5
						c-0.1-0.1-0.2-0.3-0.2-0.4l-0.2-0.4l-0.3-0.8c-1.6-4.4-3.2-8.9-4.7-13.3c-3.1-8.9-6.1-17.8-9-26.8c-2.9-9-5.8-17.9-8.5-26.9
						C337.5,230.2,334.9,221.1,332.3,212.1z"/>
				</g>
			</g>
			<g>
				<g>
					<path class="st8" d="M317.8,204.2c3.5,9.3,6.8,18.6,10,27.9c3.2,9.3,6.4,18.7,9.4,28.1c3,9.4,6.1,18.8,9,28.3
						c1.5,4.7,2.9,9.5,4.3,14.2c0.7,2.4,1.3,4.8,1.6,7.3c0.1,1.2,0.1,2.5-0.1,3.8c-0.2,1.2-0.7,2.4-1.5,3.4c0.7-1,1-2.2,1.1-3.5
						c0.1-1.2,0-2.4-0.2-3.6c-0.4-2.4-1.2-4.7-2.1-7.1c-1.7-4.7-3.3-9.3-4.9-14c-3.2-9.3-6.4-18.7-9.4-28.1c-3-9.4-6.1-18.8-9-28.3
						C323.3,223.2,320.5,213.7,317.8,204.2z"/>
				</g>
				<g>
					<path class="st8" d="M299.1,259.1c2.8,5.8,5.3,11.7,7.8,17.7c2.5,5.9,4.9,11.9,7.3,17.9c2.3,6,4.6,12,6.8,18.1l0.8,2.3l0.4,1.1
						c0.1,0.4,0.3,0.8,0.4,1.1c0.6,1.3,1.8,2.3,3.1,3c1.3,0.8,2.9,1.2,4.4,1.6c1.5,0.3,3.1,0.6,4.8,0.5c-1.6,0.2-3.2,0.2-4.9,0.1
						c-1.6-0.2-3.2-0.5-4.8-1.2c-1.5-0.7-3-1.7-3.9-3.3c-0.3-0.4-0.4-0.8-0.5-1.1l-0.5-1.1l-0.9-2.2c-2.5-5.9-4.9-11.9-7.3-17.9
						c-2.3-6-4.6-12-6.8-18.1C303.2,271.4,301,265.3,299.1,259.1z"/>
				</g>
				<g>
					<path class="st8" d="M341.8,320c0.3-0.5,0.5-0.7,0.8-0.9c0.3-0.2,0.5-0.2,0.8-0.2c0.3,0,0.5,0.1,0.8,0.2
						c0.3,0.2,0.5,0.4,0.8,0.9c-0.3,0.5-0.5,0.7-0.8,0.9c-0.3,0.2-0.5,0.2-0.8,0.2c-0.3,0-0.5-0.1-0.8-0.2
						C342.3,320.7,342,320.5,341.8,320z"/>
				</g>
			</g>
			<g>
				<g>
					<path class="st8" d="M292.4,258.3c2.9,7.3,5.7,14.6,8.3,21.9c2.7,7.3,5.2,14.7,7.8,22.1l3.7,11.1c1.2,3.6,2.6,7.6,1.9,11.8
						c-0.2,1-0.5,2.1-1,3c-0.5,1-1.2,1.8-2,2.5c-0.8,0.7-1.7,1.2-2.6,1.7c-0.9,0.5-1.8,0.9-2.7,1.3c-3.6,1.5-7.3,2.8-11.1,3.9
						c3.6-1.6,7.2-3.1,10.6-4.9c0.9-0.5,1.7-0.9,2.5-1.4c0.8-0.5,1.6-1,2.2-1.6c0.6-0.6,1.2-1.3,1.5-2.1c0.4-0.8,0.6-1.7,0.7-2.6
						c0.1-0.9,0.1-1.8,0-2.7c-0.1-0.9-0.3-1.8-0.5-2.8c-0.4-1.8-1.1-3.7-1.8-5.5l-3.8-11.1c-2.5-7.4-4.9-14.8-7.3-22.3
						C296.7,273.3,294.4,265.8,292.4,258.3z"/>
				</g>
				<g>
					<path class="st8" d="M269.5,293.3c1.3,2.6,2.4,5.3,3.4,8c1,2.7,1.9,5.4,2.8,8.2c0.8,2.8,1.7,5.5,2.3,8.3
						c0.7,2.8,1.3,5.6,1.7,8.5c-1.3-2.6-2.4-5.3-3.4-8c-1-2.7-1.9-5.4-2.8-8.2c-0.8-2.8-1.7-5.5-2.3-8.3
						C270.5,299,269.9,296.2,269.5,293.3z"/>
				</g>
				<g>
					<path class="st8" d="M281.4,331.1c0.6,0.2,1,0.5,1.3,0.8c0.3,0.3,0.6,0.6,0.8,0.9c0.2,0.3,0.4,0.7,0.5,1.1
						c0.1,0.4,0.2,0.9,0.2,1.5c-0.6,0-1.2-0.2-1.6-0.4c-0.4-0.3-0.8-0.6-1-1c-0.3-0.4-0.4-0.8-0.5-1.3
						C281.1,332.2,281.1,331.7,281.4,331.1z"/>
				</g>
				<g>
					<path class="st8" d="M265.2,307.3c1.5,3.2,2.7,6.5,3.9,9.8c1.2,3.3,2.3,6.7,3.3,10c1,3.4,2,6.7,2.8,10.2
						c1.1,3.5,0.8,7.4-0.6,10.6c0.5-3.5,0.2-7-1.1-10.1c-1.2-3.3-2.3-6.7-3.3-10c-1-3.4-2-6.7-2.8-10.2
						C266.6,314.2,265.8,310.8,265.2,307.3z"/>
				</g>
			</g>
			<g>
				<circle class="st12" cx="354.1" cy="220.8" r="4.8"/>
				<path class="st12" d="M358.6,230.1c0,3.9-3.1,7-7,7c-3.9,0-7-3.1-7-7c0-3.9,3.1-7,7-7C355.5,223,358.6,226.2,358.6,230.1z"/>
			</g>
			<g>
				<path class="st7" d="M323.8,255.4c0,3.7-3,6.7-6.7,6.7c-3.7,0-6.7-3-6.7-6.7c0-3.7,3-6.7,6.7-6.7
					C320.8,248.7,323.8,251.7,323.8,255.4z"/>
				<circle class="st7" cx="369.8" cy="279.6" r="4.8"/>
			</g>
			<circle class="st10" cx="287.3" cy="307.2" r="7.5"/>
			<g>
				<path class="st13" d="M238.7,146c2.2,0.8,3-2.2,1.1-5.9c-2-3.8-5-14.2,2.3-20.8s14.9-3.4,19.6,6.3c4.7,9.7,12.6,10.8,17.4,11.3
					c4.8,0.5,8.1,5.6,8.1,5.6s9-11.7,20.4-10.8c11.5,0.9,12.6,6.8,19,6.3c6.5-0.5,15.6-9.3,25.5-8.6c9.9,0.7,14,5.2,14.5,10.9
					c0.5,5.7-1.1,10,2.9,14.5c3.9,4.5,15.5,15.8,9.1,20.5c-6.3,4.7-11.8,1.1-15.8-3.2c-3.9-4.2-11.1-7.9-15.1,1.7
					c-3.9,9.6,8.3,19.5,5.7,28.6c-2.6,9.2-19.7,14.2-21.1,0.1c-1.4-14.1-0.7-11.6-0.7-11.6s-1.4,12.1-9.8,13.1
					c-8.3,1-10.3-6.5-10.3-6.5s-8.3-10.9-14.7-6.6c-6.5,4.3-6.8,12.2-14.3,15.9c-7.5,3.7-19.4-7.9-27.3-2.7
					c-7.9,5.2-11,16.3-21.3,17.6c-10.3,1.2-10.8,1.6-15.3-7.9c-4.5-9.5-0.3-23.2,7.5-27.8c7.8-4.6,7-8.2,1.1-13.8
					c-5.9-5.7-1.6-11.4-1.6-11.4s-5.7-6.3-2.2-12.9C227,141.2,231.5,143.3,238.7,146z"/>
				<path class="st14" d="M317.8,188.1c0,0,2.7,9.9,6,7.9c3.3-2.1,8.4-6.3,5.1-15.8c0,0,4.6,2.3,5.7,11.6c1,9.2,6.5,12.7,11.4,10.8
					c5-1.9-0.6-15.3-4.4-20.2c-3.8-4.9,1.1-15.9,7.8-18.1c6.6-2.2,15.2,6.7,20.5,7.4c5.3,0.6,5.6-9.7,1.2-15c0,0,8,7.7,9.4,13.1
					c1.4,5.4-4.5,9.6-10.7,7.8c-6.2-1.8-10.4-9.1-13.7-9.5c-3.3-0.4-9.2,3.5-8.7,9.5c0.6,6,5.6,14.9,6.7,18.7
					c1,3.9,1.7,10.6-8.1,14.1c-9.8,3.5-11.9-0.8-13.7-7.7c-1.7-6.9-0.7-9.9-3-4.3c-2.3,5.7-7.6,8.8-14.5,4.1
					c-6.8-4.6-3.6-14.1-2.7-16.8c0.9-2.6,5-7.1,7.5-8.3C319.6,177.4,317.5,183.7,317.8,188.1z"/>
				<g>
					<g>
						<path class="st8" d="M272.1,150.9c2.7-1.1,5.4-2.4,7.9-4c2.5-1.5,4.8-3.3,6.8-5.3c2.1-2.1,4.2-4.2,6.5-6.2
							c2.4-1.9,5.1-3.5,8.2-4.3c3.1-0.7,6.3-0.8,9.3,0c3,0.8,5.7,2.2,8.3,3.7c2.6,1.5,5.1,3.1,7.6,4.5c2.5,1.4,5.2,2.9,8.1,3.1
							c-1.5,0.2-3-0.1-4.5-0.5c-1.4-0.4-2.8-1-4.2-1.6c-2.7-1.3-5.3-2.7-8-4c-2.6-1.3-5.3-2.5-8-3.2c-2.7-0.7-5.6-0.6-8.3,0.1
							c-2.7,0.6-5.2,2-7.5,3.8c-2.3,1.7-4.4,3.8-6.6,5.8c-2.2,2.1-4.8,3.7-7.5,5C277.8,149.1,275,150.2,272.1,150.9z"/>
					</g>
					<g>
						<path class="st8" d="M356.7,141.2c-0.1,0.3-0.1,0.7-0.1,1c0,0.3,0,0.7,0,1c0,0.7,0,1.4,0.1,2c0.1,1.3,0.2,2.7,0.4,4
							c0.4,2.6,1.1,5.2,2.5,7.2c0.6,1,1.6,2,2.5,2.8c0.9,0.9,2,1.7,3.1,2.4c1.1,0.8,2.3,1.5,3.3,2.5c1.1,0.9,2,2.1,2.4,3.5
							c-1.7-2.2-4.2-3.1-6.6-4.4c-1.2-0.6-2.4-1.4-3.6-2.3c-0.6-0.4-1.1-1-1.6-1.5c-0.2-0.3-0.5-0.5-0.7-0.8l-0.7-0.9
							c-0.8-1.3-1.4-2.7-1.7-4.1c-0.3-1.4-0.5-2.8-0.6-4.2c-0.1-1.4,0-2.8,0.2-4.2c0.1-0.7,0.2-1.4,0.4-2.1
							C356.2,142.5,356.4,141.8,356.7,141.2z"/>
					</g>
					<g>
						<path class="st8" d="M337.2,160.2c0.8,0.7,1.4,1.6,1.9,2.4c0.5,0.9,1,1.9,1.4,2.8c0.7,2,1.3,4,1.5,6.1
							c0.3,2.1,0.4,4.1,0.7,6.1c0.3,2,0.7,3.9,1.4,5.7c0.6,1.8,1.6,3.6,2.5,5.6c0.8,1.9,1.5,4.1,1.6,6.2c0.2,2.1,0,4.4-1,6.4
							c-0.5,1-1.3,1.8-2.3,2.3c-1,0.5-2.1,0.5-3.1,0.3c1-0.1,2-0.3,2.8-0.9c0.8-0.6,1.3-1.3,1.6-2.2c0.7-1.8,0.5-3.8,0.3-5.7
							c-0.2-1-0.4-1.9-0.7-2.8c-0.3-0.9-0.7-1.8-1.1-2.7c-0.8-1.8-1.9-3.6-2.6-5.7c-0.7-2-1.1-4.1-1.4-6.2c-0.2-2.1-0.2-4.2-0.3-6.2
							c-0.1-2-0.4-4-0.8-6c-0.2-1-0.5-1.9-0.9-2.9C338.2,161.9,337.8,161,337.2,160.2z"/>
					</g>
					<path class="st14" d="M331.6,191c0,0-0.1-5.4-2.7-10.9c-2.6-5.5-9.3-9.1-9.3-9.1"/>
				</g>
			</g>
			<path class="st14" d="M243.6,125.1c0,0.2-0.1,0.4-0.1,0.6c-0.3,4.3,1.8,15.7,6.9,18.5c5.3,2.9,5,9.4,0,8.6
				c-5-0.9-7.1-6.7-10-11.1c-2.8-4.4-5-14.7-0.6-19.8C244.3,116.7,244.3,120.9,243.6,125.1z"/>
		</g>
	</g>
	<g>
		<path class="st7" d="M142.1,175.3l-6.5,22.5c0,0-28.6,95.3-31.9,105.5c-3.2,10.2-6.9,30.7-6.9,30.7s-7.4,0.7-8.8,10
			c-1.4,9.2,17.6,27.7,57.7,42.7c40.2,15,111.9,19.6,97.8-10.5c0,0,28-87.7,36.8-120.2c8.8-32.5,9.6-37.5,9.6-37.5
			s-30.9-20.8-63.9-32.5C193.1,174.3,142.1,175.3,142.1,175.3z"/>
		<path class="st10" d="M283.3,221.4c0,0-20.2,65-30.4,99.6c-10.1,34.6-15.2,56.7-25.3,58.6c-10.1,1.9-51.1-5.6-79.6-15.2
			c-28.5-9.6-45.8-26.4-45.5-30.6c0.3-4.3,29-110.2,36.7-133.4s9.3-25,9.3-25s40.7-1.3,77.5,10.7c36.7,12,58,28.7,58,28.7
			S284.5,217.6,283.3,221.4z"/>
		<path class="st7" d="M247.5,194.1c0,0,24.6,8.4,36.6,20.6c0,0,1,1.1-3.8,16.4c-4.7,15.3-39.7,131.1-39.7,131.1s8.9,37.8-42.1,18.1
			c0,0-12.8-35,3-95.7C217.3,223.9,247.5,194.1,247.5,194.1z"/>
		<path class="st11" d="M206.6,180.8c0,0-16.3,55.8-31,106.1c-14.8,50.2-27.6,83.3,9,95.2c0,0-76.1-15.4-87.6-50.9
			c0,0,5.2-24.6,12.3-46.8c7.1-22.2,32.9-109,32.9-109S174.7,174.6,206.6,180.8z"/>
		<path class="st10" d="M134.4,237.1c0,0,7.4,3.6,14.9,2.1c0,0-8.4,15.5-17.3,45.4c-8.9,29.9-11.6,47.2-8,50.9
			c0,0-14.2,1.2-15.8-11.4c0,0,9.1-25,15.5-45.4C130.2,258.2,134.4,237.1,134.4,237.1z"/>
		<path class="st11" d="M101.4,342.9c0,0-5.5-4.8-8.6-1.7c-3,3.1,1.7,17.2,20.3,27.1c18.6,9.9,33.7,15.7,46.2,19.8
			c12.5,4,16.4,0,16.4,0s24.9,5.4,35.3,3c10.4-2.4,11.7-5.4,11.7-5.4s-40.1-1.1-73.3-14.1C116.1,358.6,101.4,342.9,101.4,342.9z"/>
		<path class="st11" d="M216.8,379.5c0,0,13.5,7.7,23.8-27.9c10.3-35.6,39.9-139.5,39.9-139.5s6.5,4.1,9.5,6.4
			c0,0-42,144-44.2,150.9c-2.2,6.9-0.3,15.6-23.2,16.4C199.8,386.4,206.6,378.8,216.8,379.5z"/>
		<g>
			<path class="st13" d="M137.6,205.6c0,0,0.3,3.2,9.9,1.3c9.6-1.9,3.6-3.6,14.2-4.3c10.6-0.7,8.5-5.7,11.7-3.9
				c3.2,1.9,3.5,5.5,8.2,10.7c4.6,5.2,12.9,3.7,21.7,2.6c8.8-1.1,6.4,7.5,13.3,8.3c6.9,0.8,9.1-4.5,14.4-2.4
				c5.3,2.1,1.9,2.9,8.5,4.3c6.7,1.3,11.7,0.3,14.6,6.1c2.9,5.9,4.3,8.3,13,8.8c8.8,0.5,7.3-0.6,10.7,2.1l5-16.1
				c0,0,2.1-4.7,1.3-8.4c-0.8-3.7-8-8.5-21-16.3c-13-7.8-35.9-16.6-56.7-20.9c-20.8-4.3-54-5.3-55.5-5.3c-1.5,0-3,4.3-4.8,8.9
				C144.3,185.7,137.6,205.6,137.6,205.6z"/>
			<path class="st14" d="M171,191c0,0,0.9,3.6-9.3,4.9c-10.2,1.4-14.3,5.3-16.7,2.8c-2.4-2.5-4.4-3-1.7-10.3l-5.7,17.2
				c0,0,0.5,1.6,2.6,1.7c2.2,0.2,3.7,0.2,6-0.2c2.2-0.4,4.2-0.5,5.8-1.5c1.7-1,2.9-2.2,5.3-2.6c2.4-0.3,8.1,0.1,11.6-2.3
				s4.1-3.9,4.7-6.7c0.6-2.8-0.9-6.8-2.3-7.4C169.8,186.2,171.6,189.3,171,191z"/>
			<path class="st14" d="M176.8,202.6c0,0,1.4,6.4,8.4,9.5c7,3.1,19.8-1.4,22.2,0.4c2.3,1.8,3.7,7.2,7.7,7.5c4,0.3,6.7,0.4,12.2-2.4
				s5.8-7.6,3.6-8.1c-2.2-0.4-9,7.4-12.3,4.4c-3.4-3-4.9-10.6-11.2-11.3c-6.3-0.7-9,7.2-16,3.2c-7-4-9.1-10.5-12.6-9.6
				C175.1,197,176,200.5,176.8,202.6z"/>
			<path class="st14" d="M243.3,223c0,0,6.6-0.4,8.7,2.5s2.1,6.6,7.2,9.7c5.1,3.1,14.1,1.1,15.5,1.9c1.4,0.7,3.2,2.1,3.2,2.1
				s2-6.1,2.9-9.3c0,0-5.4,2.8-8.6,2.7c-3.2-0.1-8.2-1.8-12-7.1c-3.8-5.3-6.5-6.5-12.7-7.6c-6.1-1.1-9-1.7-9.9-0.7
				C236.6,218.3,237.6,222.3,243.3,223z"/>
			<g>
				<path class="st8" d="M137.6,205.6c1.8,1.3,4,1.6,6.1,1.5c2.1-0.1,4.2-0.7,6.1-1.5c2-0.8,4.1-1.6,5.6-2.8
					c0.2-0.2,0.4-0.3,0.7-0.5c0.3-0.2,0.8-0.3,1.1-0.4c0.7-0.1,1.2-0.2,1.8-0.2c1.1-0.1,2.3-0.1,3.3-0.2c2.1-0.1,4.1-0.6,5.9-1.5
					c1.8-0.9,3.4-2.2,4.2-4l0.2-0.7c0-0.2,0.1-0.5,0.1-0.7c0-0.4,0-1,0.1-1.6c0-1.1,0.1-2.2,0-3.2c0-1-0.3-2-0.8-3
					c-0.5-1-1.1-1.8-1.9-2.6c0.9,0.6,1.7,1.4,2.4,2.3c0.7,0.9,1.1,2,1.3,3.2c0.2,1.1,0.3,2.3,0.4,3.3c0,0.5,0.1,1,0.1,1.7
					c0,0.3-0.1,0.6-0.1,0.9c-0.1,0.3-0.2,0.6-0.2,0.9c-0.8,2.4-2.8,4.1-4.8,5.2c-2.1,1.1-4.4,1.7-6.7,1.8c-1.2,0.1-2.2,0.1-3.3,0.1
					c-0.5,0-1.1,0.1-1.5,0.1c-0.2,0-0.3,0.1-0.4,0.1c-0.1,0.1-0.4,0.2-0.6,0.4c-1,0.7-2.1,1.2-3.1,1.6c-1,0.4-2.1,0.8-3.2,1.1
					c-2.2,0.7-4.4,1-6.7,0.9C141.5,208,139.1,207.2,137.6,205.6z"/>
			</g>
			<g>
				<path class="st8" d="M172,198.4c0.8,0,1.7,0.3,2.4,0.7c0.7,0.5,1.3,1.2,1.7,1.9c0.8,1.5,1.5,3,2.4,4.3c1.7,2.8,4.1,4.9,7.1,6
					c2.9,1,6.2,1.1,9.4,0.7c1.6-0.2,3.2-0.4,4.9-0.7c1.7-0.2,3.2-0.6,5.1-0.6c0.3,0,0.5,0,0.8,0.1c0.3,0.1,0.6,0.1,0.9,0.3
					c0.5,0.2,0.9,0.5,1.3,0.9c0.7,0.7,1.3,1.4,1.7,2.1c0.9,1.4,1.8,2.6,3,3.6c0.3,0.3,0.6,0.4,0.9,0.6c0.3,0.2,0.6,0.3,1,0.5
					c0.7,0.3,1.4,0.4,2.2,0.5c1.5,0.2,3.1,0.1,4.6-0.2c3.1-0.6,6.1-2.1,8.3-4.3c1.1-1.1,2-2.5,2.4-4.1c0.4-1.6,0.4-3.2,0.1-4.9
					c0.5,1.6,0.8,3.3,0.5,5c-0.1,0.9-0.4,1.7-0.7,2.5c-0.4,0.8-0.8,1.5-1.4,2.2c-2.2,2.7-5.4,4.5-8.7,5.3c-1.7,0.4-3.5,0.6-5.2,0.5
					c-0.9-0.1-1.8-0.2-2.7-0.6c-0.4-0.1-0.9-0.4-1.3-0.6c-0.4-0.3-0.8-0.5-1.2-0.8c-1.4-1.1-2.5-2.7-3.4-4c-0.9-1.3-1.9-2.4-3-2.3
					c-1.4,0-3.1,0.3-4.7,0.5c-1.6,0.2-3.3,0.5-5,0.6c-1.7,0.1-3.4,0.2-5.1,0c-1.7-0.1-3.5-0.5-5.1-1.2c-1.6-0.7-3.1-1.7-4.4-2.9
					c-1.2-1.2-2.3-2.7-3-4.2c-0.8-1.5-1.3-3.1-2-4.6C175,199.8,173.7,198.5,172,198.4z"/>
			</g>
			<g>
				<path class="st8" d="M227.2,217.6c1.2-0.2,2.5-0.2,3.7,0c0.6,0.1,1.2,0.3,1.8,0.7c0.6,0.3,1.1,0.7,1.6,1.1c1,0.7,2,1.3,3.1,1.6
					c1.1,0.4,2.3,0.6,3.5,0.8c2.4,0.4,4.8,0.6,7.3,0.9c0.6,0.1,1.3,0.2,2,0.4c0.7,0.2,1.4,0.6,2,1.1c0.6,0.5,1,1.1,1.4,1.7
					c0.3,0.6,0.6,1.2,0.9,1.8c0.5,1.2,0.9,2.3,1.4,3.3c0.5,1,1.2,1.8,2,2.5c0.8,0.7,1.8,1.2,2.9,1.6c1.1,0.4,2.2,0.7,3.4,0.9
					c2.4,0.5,4.7,0.9,7.1,0.6c1.2-0.1,2.6-0.1,3.8,0.3c0.6,0.2,1.2,0.4,1.8,0.7c0.3,0.2,0.5,0.4,0.7,0.6c0.2,0.3,0.3,0.6,0.2,0.9
					c0-0.7-0.6-1-1.1-1.3c-0.5-0.2-1.1-0.3-1.7-0.4c-1.2-0.2-2.3-0.1-3.5,0.2c-1.2,0.3-2.5,0.4-3.8,0.4c-1.3,0-2.5-0.2-3.8-0.3
					c-2.5-0.3-5.1-0.9-7.4-2.6c-1.1-0.8-2-2-2.7-3.1c-0.7-1.2-1.1-2.4-1.6-3.5c-0.5-1.1-1-2.1-1.6-2.7c-0.6-0.6-1.7-0.8-2.9-1.1
					c-2.4-0.4-4.9-0.7-7.3-1.3c-1.2-0.3-2.5-0.6-3.7-1.1c-1.2-0.5-2.3-1.3-3.2-2.1c-0.5-0.4-0.9-0.9-1.3-1.2c-0.5-0.3-1-0.6-1.5-0.8
					C229.6,217.8,228.4,217.6,227.2,217.6z"/>
			</g>
			<g>
				<path class="st8" d="M258.9,220.8c1.5,1.2,3.1,2.3,4.7,3.1c0.8,0.4,1.6,0.6,2.4,0.7c0.4,0.1,0.8,0,1.2,0c0.2,0,0.4-0.1,0.6-0.1
					l0.3,0l0.4-0.1c1.9-0.5,3.8-0.8,5.9-0.9c1,0,2,0.1,3.1,0.3c0.5,0.1,1,0.4,1.4,0.7c0.4,0.3,0.8,0.7,1,1.2
					c-0.8-0.6-1.7-0.8-2.6-0.8c-0.9,0-1.8,0.2-2.7,0.3c-1.8,0.4-3.6,0.8-5.5,1.3l-0.3,0.1l-0.4,0.1c-0.3,0-0.6,0.1-0.8,0.1
					c-0.6,0-1.1,0-1.7-0.1c-1.1-0.2-2.1-0.6-3-1.2C261.1,224.2,259.7,222.6,258.9,220.8z"/>
			</g>
		</g>
		<circle class="st10" cx="155" cy="231.1" r="4.1"/>
		<path class="st7" d="M201.5,265.4c0,3.9-3.2,7.1-7.1,7.1c-3.9,0-7.1-3.2-7.1-7.1c0-3.9,3.2-7.1,7.1-7.1
			C198.3,258.3,201.5,261.4,201.5,265.4z"/>
		<circle class="st10" cx="130.5" cy="295.7" r="6.4"/>
		<path class="st10" d="M132.1,288c0,2.9,2.4,5.3,5.3,5.3c2.9,0,5.3-2.4,5.3-5.3c0-2.9-2.4-5.3-5.3-5.3
			C134.5,282.6,132.1,285,132.1,288z"/>
		<g>
			
				<ellipse transform="matrix(0.9731 -0.2305 0.2305 0.9731 -74.2792 47.6259)" class="st7" cx="166.7" cy="341.7" rx="7.5" ry="7.5"/>
			<path class="st7" d="M171,332.3c0,2.6-2.1,4.6-4.6,4.6c-2.6,0-4.6-2.1-4.6-4.6c0-2.6,2.1-4.6,4.6-4.6
				C168.9,327.6,171,329.7,171,332.3z"/>
		</g>
		<g>
			<path class="st12" d="M240.2,258.3c0,3.6-2.9,6.5-6.5,6.5s-6.5-2.9-6.5-6.5c0-3.6,2.9-6.5,6.5-6.5S240.2,254.7,240.2,258.3z"/>
			<path class="st12" d="M235.9,248.7c0,2.6,2.1,4.7,4.7,4.7c2.6,0,4.7-2.1,4.7-4.7c0-2.6-2.1-4.7-4.7-4.7
				C238,244,235.9,246.1,235.9,248.7z"/>
			<path class="st12" d="M215.4,335.5c0,2.4-2,4.4-4.4,4.4c-2.4,0-4.4-2-4.4-4.4c0-2.4,2-4.4,4.4-4.4
				C213.5,331.1,215.4,333.1,215.4,335.5z"/>
		</g>
		<g>
			<g>
				<path class="st8" d="M267.1,241.1c-2.6,9.9-5.4,19.7-8.3,29.5c-2.9,9.8-5.9,19.6-8.9,29.3c-3.1,9.8-6.2,19.5-9.4,29.2
					c-1.6,4.9-3.2,9.7-4.9,14.5c-1.7,4.8-3.4,9.7-5,14.5c1.1-5,2.6-9.9,3.9-14.8c1.4-4.9,2.8-9.8,4.3-14.7
					c2.9-9.8,5.9-19.6,8.9-29.4c3.1-9.8,6.2-19.5,9.4-29.2C260.3,260.4,263.6,250.7,267.1,241.1z"/>
			</g>
			<g>
				<path class="st8" d="M228.5,362.2c0.6,0.9,1.2,1.7,1.8,2.5c0.6,0.7,1.3,1.3,2,1.9c0.7,0.5,1.5,1,2.3,1.4
					c0.4,0.3,0.9,0.4,1.3,0.7c0.5,0.2,1,0.4,1.5,0.7c-0.5,0.2-1.1,0.3-1.6,0.4c-0.6,0-1.1,0.1-1.7-0.1c-1.1-0.1-2.2-0.6-3.2-1.3
					c-1-0.7-1.7-1.7-2.1-2.8C228.4,364.5,228.2,363.4,228.5,362.2z"/>
			</g>
		</g>
		<g>
			<g>
				<path class="st8" d="M115.6,365.8c1,0.1,1.8,0.4,2.6,0.8c0.8,0.3,1.5,0.8,2.2,1.2c0.7,0.5,1.4,1,2,1.5c0.6,0.6,1.2,1.2,1.8,2
					c-1,0.1-1.8-0.2-2.7-0.4c-0.8-0.3-1.6-0.7-2.3-1.2c-0.7-0.5-1.4-1-2-1.6C116.5,367.4,116,366.7,115.6,365.8z"/>
			</g>
			<g>
				<g>
					<path class="st8" d="M98.9,338.3c3.4,5,7.9,9,12.6,12.6c4.7,3.6,9.8,6.7,15.1,9.5c10.5,5.7,21.7,9.7,33.1,13.4
						c5.7,1.9,11.4,3.6,17.1,5.1c5.7,1.6,11.6,2.9,17.4,4c5.9,1.1,11.8,1.9,17.7,2.1c5.9,0.3,11.9,0,17.8-0.9
						c-5.8,1.5-11.9,2-17.9,2c-6,0-12-0.6-18-1.5c-11.9-1.8-23.6-5-35-8.7l-4.3-1.4l-4.2-1.5c-2.8-1-5.6-2.1-8.4-3.2
						c-1.4-0.5-2.8-1.2-4.1-1.8c-1.4-0.6-2.8-1.2-4.1-1.9c-2.7-1.4-5.4-2.7-8-4.2c-5.2-3-10.3-6.3-14.9-10.2c-1.1-1-2.3-2-3.4-3
						l-1.6-1.6l-1.5-1.6C102.2,343.3,100.3,340.9,98.9,338.3z"/>
				</g>
				<g>
					<path class="st8" d="M243.6,376.2c0.3,0.7,0.3,1.3,0.2,1.9c-0.1,0.6-0.4,1.2-0.8,1.7c-0.4,0.5-0.9,0.9-1.5,1.2
						c-0.6,0.3-1.3,0.4-2,0.2c0.3-0.7,0.6-1.1,0.8-1.5c0.3-0.4,0.5-0.8,0.8-1.2c0.3-0.4,0.6-0.7,1-1.1
						C242.6,376.9,243,376.6,243.6,376.2z"/>
				</g>
			</g>
			<g>
				<g>
					<path class="st8" d="M94.1,345.9c2.5,3,5.1,5.7,7.7,8.3c1.4,1.3,2.7,2.6,4.1,3.8c0.7,0.7,1.4,1.3,2.1,1.9
						c0.7,0.7,1.4,1.3,2.1,2c-0.9-0.3-1.8-0.7-2.7-1.1c-0.9-0.5-1.8-0.9-2.6-1.4c-1.7-1-3.2-2.3-4.6-3.6c-1.4-1.4-2.7-2.9-3.8-4.6
						C95.5,349.6,94.6,347.8,94.1,345.9z"/>
				</g>
				<g>
					<path class="st8" d="M96.9,334c0.5,0.1,0.8,0.3,1.1,0.5c0.2,0.2,0.4,0.4,0.5,0.7c0.1,0.2,0.1,0.5,0,0.8c-0.1,0.3-0.3,0.6-0.6,1
						c-0.5-0.1-0.8-0.3-1.1-0.5c-0.2-0.2-0.4-0.4-0.5-0.7c-0.1-0.2-0.1-0.5,0-0.8C96.3,334.7,96.5,334.3,96.9,334z"/>
				</g>
			</g>
		</g>
		<g>
			<path class="st7" d="M146.2,199.3c0,0-11.7-4-22.6-3.2s-17,6.7-23.7,19.4c-6.7,12.8-13.6,32.5-17.3,44.2
				c-3.7,11.7-8.5,35.1-3.7,44.5c4.8,9.3,18.9,19.7,22.4,21.6c3.5,1.9,9.3-2.1,12-8.3c2.7-6.1,3.5-13.8,2.1-15.2
				c-1.3-1.3-11.7-1.9-14.6-9.9c-2.9-8,2.7-29.8,7.2-43.7c4.5-13.8,8.5-24.5,16-23.4c7.5,1.1,9.9,2.4,9.9,2.4s12,1.1,15.4-8.3
				c3.5-9.3,0.8-14.1,0-16.2C148.3,201.2,148,199.8,146.2,199.3z"/>
			<path class="st10" d="M150.2,216c0,0-16.6-6.6-27.5-3.9c-10.9,2.7-13.9,14.5-18.2,26.1c-4.3,11.6-15.2,50.1-7.7,57.5
				c7.5,7.4,18.7,8.9,18.7,8.9s0.9-3.3-4.1-3.7c-5-0.4-12.1-7-11.6-14.1c0.5-7.1,5.2-33,11.4-47.7c6.1-14.7,9.8-14.6,17.1-13
				c7.4,1.6,8.1,2.8,12.3,0.8C145,224.9,149.4,224,150.2,216z"/>
			<path class="st11" d="M140.7,227c0,0-7.9-2.7-15-4.6c-7.2-1.9-12,3.8-16.4,15.6c-4.4,11.8-12.5,42.1-11.5,48.9
				c0.9,6.8,9.5,12.4,9.5,12.4s-8.8-4.5-7.2-14.7c1.6-10.3,8.9-44.4,14.5-52c5.6-7.6,7.3-7.8,12-6.7
				C131.3,226.9,135.8,230.2,140.7,227z"/>
			<g>
				<path class="st12" d="M134.6,196.6c0,0-13.7-2.6-21.5,2.6c-7.8,5.2-12.7,13.9-17.1,24.4c-4.4,10.5-10.1,23.1-13.5,36.2
					c-3.4,13-5.2,20.1-5.5,27.1c-0.2,7-1,14.2,2.7,19.1c3.7,4.9,2.3,0.3,0.7-5.5c-1.7-5.8-1.2-21.8,4.7-39.3
					c5.9-17.5,14.1-42.2,20.5-49.7c6.4-7.5,11.2-12.7,22.6-12.2C139.8,199.7,139.1,197.2,134.6,196.6z"/>
				<path class="st12" d="M90.7,309c1.7,2,2.2,4.3,1.2,5.1c-1,0.8-3.2-0.1-4.8-2.1c-1.7-2-2.2-4.3-1.2-5.1
					C86.9,306.1,89.1,307,90.7,309z"/>
				<circle class="st12" cx="84.4" cy="304.6" r="1.9"/>
				<path class="st12" d="M130.4,203.5c-0.2,1,1.5,2,3.7,2.4c2.2,0.4,4.1-0.1,4.3-1.1c0.2-1-1.5-2-3.7-2.4S130.6,202.5,130.4,203.5z
					"/>
			</g>
			<g>
				<path class="st8" d="M124.1,201.4c-1.1-0.6-2.3-0.8-3.5-0.7c-1.2,0.1-2.3,0.6-3.4,1.2c-2,1.3-3.7,3.1-5.1,5
					c-2.9,3.9-4.8,8.4-6.7,12.9c-3.7,9.1-6.8,18.4-9.8,27.7c-1.5,4.7-2.9,9.4-4.3,14.1c-1.4,4.7-2.7,9.4-3.9,14.2
					c-0.3,1.2-0.6,2.4-0.8,3.6c-0.3,1.2-0.4,2.3-0.5,3.5c-0.2,2.4-0.3,4.9-0.3,7.3c-0.1,2.4,0,4.9,0.3,7.3c0.3,2.4,0.8,4.8,1.9,7
					c-0.7-1-1.2-2.2-1.6-3.3c-0.4-1.2-0.7-2.4-0.9-3.6c-0.5-2.4-0.7-4.9-0.8-7.4c-0.1-2.5-0.1-4.9,0-7.4c0.1-1.3,0.2-2.6,0.4-3.8
					c0.2-1.2,0.4-2.4,0.7-3.7c2-9.7,4.8-19.1,7.7-28.5c3-9.4,6.3-18.7,10.3-27.7c2.1-4.5,4.3-9,7.5-12.9c1.6-1.9,3.5-3.7,5.7-4.9
					c1.1-0.5,2.4-1,3.6-1C121.8,200.4,123.1,200.7,124.1,201.4z"/>
			</g>
			<g>
				<path class="st8" d="M138.7,211c-0.8,0.4-1.5,0.5-2.2,0.5c-0.7,0-1.4,0-2.1-0.1c-0.7-0.1-1.4-0.3-2-0.6
					c-0.7-0.3-1.3-0.7-1.9-1.3c0.8-0.3,1.5-0.4,2.2-0.4c0.7,0,1.4,0,2.1,0.2c0.7,0.1,1.3,0.3,2,0.6
					C137.4,210.1,138.1,210.5,138.7,211z"/>
			</g>
			<g>
				<path class="st8" d="M121.7,212.1c-1,0.5-1.7,1.1-2.4,1.7c-0.7,0.6-1.4,1.2-2,1.9l-2,2.1c-0.3,0.4-0.7,0.7-1,1.1
					c-0.4,0.4-0.7,0.7-1.2,1.1c0-0.6,0.1-1.1,0.2-1.6c0.1-0.5,0.3-1,0.5-1.5c0.5-1,1-1.9,1.8-2.7c0.8-0.8,1.7-1.5,2.7-1.9
					C119.5,211.8,120.7,211.6,121.7,212.1z"/>
			</g>
			<g>
				<path class="st8" d="M146.2,199.3c-1.8-0.8-3.7-1.3-5.7-1.8c-1.9-0.4-3.9-0.7-5.9-0.9c-3.9-0.4-7.9-0.3-11.8,0.1
					c-3.9,0.4-7.7,1.4-10.9,3.5l-1.2,0.8c-0.4,0.3-0.7,0.6-1.1,0.9c-0.8,0.6-1.4,1.3-2.1,2c-1.3,1.5-2.4,3-3.4,4.7
					c-4,6.7-6.7,14.2-9.8,21.5c-3,7.3-6,14.7-8.5,22.2c-1.3,3.7-2.4,7.5-3.4,11.3c-1,3.8-1.9,7.7-2.7,11.5
					c-0.8,3.9-1.4,7.8-1.9,11.7c-0.4,3.9-0.6,7.8,0,11.6c0.3,1.9,0.8,3.7,1.6,5.5c0.8,1.7,1.9,3.3,3.1,4.8c1.2,1.5,2.7,2.8,4.1,4.2
					l4.4,4.1c2.9,2.7,5.9,5.3,9.1,7.6c0.8,0.5,1.6,1.2,2.5,1.3c0.9,0.1,1.9-0.1,2.8-0.4c1.8-0.8,3.4-2,4.7-3.5
					c-1.3,1.5-2.8,2.9-4.6,3.8c-0.9,0.4-1.9,0.7-3,0.6l-0.8-0.2l-0.7-0.3c-0.5-0.2-0.9-0.5-1.3-0.8c-3.4-2.1-6.5-4.7-9.5-7.2
					c-1.5-1.3-3-2.6-4.5-3.9c-1.5-1.3-3-2.7-4.3-4.2c-1.3-1.5-2.5-3.2-3.4-5.1c-0.9-1.9-1.5-3.9-1.9-5.9c-0.7-4-0.6-8.1-0.2-12.1
					c0.4-4,1-8,1.7-11.9c1.5-7.9,3.6-15.6,6.1-23.2c2.5-7.6,5.5-15,8.6-22.3l4.7-11c1.6-3.6,3.4-7.3,5.6-10.7
					c1.1-1.7,2.3-3.3,3.7-4.8c0.7-0.7,1.4-1.5,2.2-2.1c0.4-0.3,0.8-0.7,1.2-1l1.3-0.8c3.5-2.2,7.6-3.2,11.6-3.4c4-0.2,8-0.1,12,0.4
					C138.7,196.6,142.6,197.5,146.2,199.3z"/>
			</g>
			<g>
				<path class="st8" d="M100.7,292.5c1,1,2,1.9,3,2.7c1,0.9,2.1,1.6,3.2,2.3c1.1,0.7,2.2,1.3,3.4,1.8c1.2,0.5,2.4,0.7,3.6,0.9
					l-0.2,0c0.3,0,0.4,0,0.6,0c0.2,0,0.3,0.1,0.4,0.1c0.3,0.1,0.5,0.3,0.7,0.5c0.3,0.4,0.5,0.8,0.7,1.1c0.3,0.7,0.3,1.4,0.3,2.1
					c0,0.7-0.1,1.4-0.2,2c-0.1,0.7-0.3,1.3-0.5,1.9l-0.3-1.9c0-0.3-0.1-0.6-0.2-0.9c-0.1-0.3-0.1-0.6-0.2-0.9
					c-0.2-0.6-0.3-1.2-0.6-1.6c-0.1-0.2-0.3-0.4-0.4-0.5c-0.1,0-0.1-0.1-0.1-0.1c0,0,0,0,0,0c0,0,0,0,0.1,0l-0.2,0
					c-1.5,0-3-0.3-4.4-0.8c-1.4-0.6-2.6-1.3-3.8-2.2c-1.1-0.9-2.1-1.9-3-3.1C101.9,295,101.2,293.8,100.7,292.5z"/>
			</g>
			<g>
				<path class="st8" d="M113.8,233.5c1.1-2.5,2.6-4.8,4.6-6.8c0.3-0.2,0.5-0.5,0.8-0.7c0.3-0.2,0.6-0.4,0.9-0.6
					c0.3-0.2,0.7-0.4,1-0.5c0.4-0.1,0.8-0.3,1.2-0.3c0.2,0,0.4,0,0.7,0c0.2,0,0.4,0,0.5,0c0.4,0,0.7,0.1,1.1,0.1
					c0.7,0.1,1.4,0.2,2.1,0.4c1.3,0.3,2.7,0.7,3.9,1.1l3.7,1.3c2.3,0.7,4.9-0.2,7.5-0.9c-1.1,0.8-2.3,1.5-3.6,2
					c-0.6,0.3-1.3,0.5-2.1,0.6c-0.8,0.1-1.5,0.1-2.2,0c-0.8-0.1-1.4-0.3-2.1-0.5l-1.9-0.5c-1.3-0.3-2.6-0.7-3.8-0.9
					c-0.6-0.1-1.3-0.3-1.9-0.4c-0.3,0-0.6-0.1-0.9-0.1c-0.1,0-0.3,0-0.5,0c-0.1,0-0.2,0-0.3,0c-1,0-2.1,0.7-3.1,1.4
					C117.5,229.5,115.7,231.5,113.8,233.5z"/>
			</g>
			<g>
				<path class="st8" d="M150.2,205.8c0.9,1,1.3,2.2,1.6,3.4c0.3,1.2,0.3,2.5,0.2,3.7c-0.1,1.2-0.4,2.5-0.8,3.6
					c-0.4,1.2-1,2.3-1.8,3.2c-0.1-0.7,0-1.3,0-1.9c0-0.6,0.1-1.2,0.1-1.8l0.3-3.4l0.3-3.4C150.1,208.3,150.2,207.1,150.2,205.8z"/>
			</g>
		</g>
		<path class="st12" d="M212.9,227c0,0-26.7,76.1-32.7,95.4c-6,19.3-0.3,23.5-0.3,23.5l36.6-108.8
			C216.5,237.1,218.5,229.6,212.9,227z"/>
		<path class="st10" d="M256.8,246.6c0,0-1.6-6.3-3.8-5.5c-2.2,0.8-33.2,102.9-34.5,108.1c-1.2,5.2,1.7,9.5,1.7,9.5L256.8,246.6z"/>
		<path class="st10" d="M168.7,224.2c0,0-30,95.4-31.8,103.4c-1.8,8,1.8,8.8,1.8,8.8L174.2,223L168.7,224.2z"/>
		<g>
			<g>
				<path class="st8" d="M174.2,223c-2.6,9.9-5.4,19.7-8.3,29.5c-2.9,9.8-5.9,19.5-8.9,29.3c-3.1,9.7-6.2,19.5-9.4,29.1
					c-3.2,9.7-6.5,19.3-10,28.9c2.6-9.9,5.4-19.7,8.3-29.5c2.9-9.8,5.9-19.5,8.9-29.3c3.1-9.7,6.2-19.5,9.4-29.1
					C167.4,242.3,170.7,232.7,174.2,223z"/>
			</g>
			<g>
				<path class="st8" d="M107.3,329.8c1.7,1.4,2.9,2.9,4.2,4.3l1.9,2.1c0.7,0.7,1.4,1.3,2.1,2.1c-1.1,0.1-2.2-0.2-3.2-0.7
					c-1-0.5-1.8-1.2-2.6-2c-0.7-0.8-1.3-1.7-1.8-2.7C107.7,331.9,107.3,330.9,107.3,329.8z"/>
			</g>
			<g>
				<path class="st8" d="M121.4,341.7c2.6,0.5,4.8,1,7.1,1.2c1.1,0.1,2.2,0.1,3.3-0.1c1.1-0.2,2.2-0.6,3.4-1.1
					c-0.6,1.2-1.6,2.2-2.9,2.8c-1.3,0.6-2.7,0.8-4,0.7c-1.4-0.1-2.7-0.5-3.8-1.1C123.4,343.5,122.3,342.8,121.4,341.7z"/>
			</g>
		</g>
		<g>
			<g>
				<path class="st8" d="M187.2,221.1c-2.8,10.1-5.8,20.3-8.9,30.3c-3.1,10.1-6.3,20.1-9.5,30.1c-3.3,10-6.6,20-10,30
					c-1.7,5-3.4,9.9-5.2,14.9l-2.7,7.4c-0.5,1.2-0.9,2.5-1.4,3.7l-1.5,3.6c1.7-5,3-10.1,4.5-15.1c1.5-5.1,3-10.1,4.6-15.1
					c3.1-10.1,6.3-20.1,9.5-30.1c3.3-10,6.6-20,10-29.9C180,240.9,183.6,231,187.2,221.1z"/>
			</g>
			<g>
				<path class="st8" d="M148.1,344.1c0.5,0.4,0.9,0.8,1.2,1.2c0.3,0.4,0.5,0.8,0.7,1.2c0.2,0.4,0.3,0.8,0.5,1.2
					c0.1,0.4,0.2,0.9,0.4,1.5c-0.7,0.1-1.3-0.1-1.8-0.4c-0.5-0.4-0.9-0.8-1.1-1.3c-0.2-0.5-0.4-1.1-0.4-1.6
					C147.6,345.3,147.7,344.7,148.1,344.1z"/>
			</g>
			<g>
				<path class="st8" d="M152.6,351.6c1.7,1.2,3.3,2.2,5,3.1c1.7,0.9,3.4,1.6,5.2,2.1c1.8,0.5,3.6,0.9,5.5,1
					c0.9,0.1,1.9,0.1,2.9,0.1c1,0,1.9-0.1,3-0.1c-1.8,0.9-3.8,1.6-5.8,1.8c-2.1,0.3-4.2,0-6.2-0.6c-2-0.6-3.9-1.5-5.5-2.8
					C155,354.9,153.6,353.4,152.6,351.6z"/>
			</g>
			<g>
				<path class="st8" d="M178.4,350.3c2.9-10.1,6-20.1,9.2-30.1c3.2-10,6.5-19.9,9.8-29.9c3.4-9.9,6.7-19.8,10.3-29.7
					c3.5-9.9,7.1-19.7,10.8-29.5c-2.9,10.1-6,20.1-9.2,30.1c-3.2,10-6.5,19.9-9.8,29.9c-3.4,9.9-6.7,19.8-10.3,29.7
					C185.8,330.6,182.2,340.5,178.4,350.3z"/>
			</g>
		</g>
		<g>
			<g>
				<path class="st8" d="M227.2,232.6c-3.4,11.5-7,22.9-10.7,34.2c-3.7,11.4-7.5,22.7-11.3,34c-3.9,11.3-7.8,22.6-11.8,33.9l-3,8.4
					l-1.5,4.2l-0.8,2.1l-0.4,1c-0.1,0.3-0.2,0.6-0.3,1c-0.6,2.7,0.2,5.8,2.1,8c1.9,2.3,4.7,3.6,7.6,4.3c-1.5-0.3-3-0.6-4.3-1.2
					c-1.4-0.6-2.6-1.5-3.7-2.7c-2.1-2.2-3.2-5.5-2.7-8.6c0-0.4,0.2-0.8,0.3-1.2l0.3-1.1l0.7-2.1l1.4-4.3l2.8-8.5
					c3.7-11.4,7.5-22.7,11.3-34c3.9-11.3,7.8-22.6,11.8-33.9C218.8,255,222.9,243.8,227.2,232.6z"/>
			</g>
			<g>
				<path class="st8" d="M210.9,366.2c1.4,0.4,2.9,0.1,4-0.7c1.2-0.7,2.1-1.8,2.9-3l0.5-0.9l0.5-0.9c0.3-0.6,0.6-1.3,0.8-1.9
					c0.5-1.3,0.9-2.7,1.4-4l5.1-16.3c3.4-10.9,6.9-21.7,10.4-32.6c3.5-10.8,7.1-21.7,10.7-32.5c3.6-10.8,7.4-21.6,11.3-32.3
					c-3.1,11-6.3,21.9-9.6,32.9c-3.3,10.9-6.8,21.8-10.3,32.6c-3.5,10.8-7.1,21.7-10.9,32.5c-1.9,5.4-3.8,10.8-5.8,16.1
					c-0.5,1.3-1,2.7-1.6,4c-0.3,0.7-0.6,1.3-1,1.9l-0.5,0.9l-0.6,0.9c-0.9,1.2-1.9,2.2-3.2,2.9C213.9,366.6,212.3,366.8,210.9,366.2
					z"/>
			</g>
		</g>
		<g>
			<path class="st13" d="M156.3,157c-6.1,0.6-15.4,3.7-19.4,10.4c-4,6.7-6.3,13.3-2.1,16.2s12.5-2.1,18.6-4.3
				c6.1-2.1,9.3,5.9,8.5,10.9c-0.8,5.1-14.4,29.6,3.2,33.5c17.6,4,16.8-18.9,17-22.9c0.3-4,2-11.7,6.8-11.7c4.9,0,1.4,13.6,8.6,12
				c7.2-1.6,5.9-6.4,5.9-9.1c0-2.7,4.8-9.1,10.7-3.7c5.9,5.3,1.1,11.4,5.6,12.2c4.5,0.8,7.7-7.7,15.4-2.7c7.7,5.1-2.9,9.3-5.1,17.6
				c-2.1,8.3,1.9,16.2,9.9,15.4c8-0.8,10.4-8.3,14.4-14.4c4-6.1,8.3-7.2,10.9-3.7c2.7,3.5-1.6,9.3,6.1,9.6c7.7,0.3,4.5-5.1,10.4-3.5
				c5.9,1.6,6.7,6.5,5.6,10.8c-1.1,4.2-5.8,22.2-5.8,22.2s2.4,11.2,12.8,5.3c10.4-5.9,18.4-23.7,17.8-29.8c-0.5-6.1-5.9-14-5.9-19.5
				c0-5.5-1.1-8.1,10.1-12c11.2-3.9,4.3-18.3-11.4-18c-15.7,0.3-22.9,0.8-24-5.3c-1.1-6.1-2.1-16.5-20.5-12.2
				c-18.4,4.3-15.2,1.9-21.3-3.5c-6.1-5.3-17.3-8.3-31.7-4c-14.4,4.3-16.8,1.8-21.3-2c-4.5-3.8-16-0.1-20.8,2.8
				C160.6,156.7,159.4,156.7,156.3,157z"/>
			<g>
				<path class="st8" d="M163.8,165.2c-1.6,1-3,2-4.3,3.1c-0.6,0.6-1.1,1.2-1.3,1.8c-0.2,0.6-0.2,1.1,0.1,1.7c0.3,0.6,0.7,1,1.2,1.2
					c0.5,0.2,1.3,0.1,2.1-0.1c1.6-0.4,3.2-1.2,4.8-2.1c-1.1,1.5-2.4,2.8-4.2,3.7c-0.9,0.4-2,0.7-3.2,0.5c-0.6-0.1-1.2-0.4-1.7-0.9
					c-0.1-0.1-0.2-0.2-0.3-0.3l-0.3-0.4c-0.2-0.2-0.4-0.5-0.5-0.7c-0.6-1-0.6-2.5,0-3.5c0.5-1.1,1.3-1.8,2.2-2.3
					C160.1,165.9,161.9,165.3,163.8,165.2z"/>
			</g>
			<g>
				<path class="st8" d="M184,166.5c1.4-0.6,2.9-1,4.5-1.3c1.5-0.3,3.1-0.3,4.7-0.1c1.6,0.2,3.2,0.7,4.6,1.5
					c1.4,0.8,2.7,1.7,3.9,2.6c2.5,1.8,4.9,3.7,7.6,4.4c1.4,0.4,2.8,0.6,4.2,0.5c1.5-0.1,3-0.3,4.5-0.5c3.1-0.4,6.2-0.7,9.3-0.9
					c3.1-0.1,6.3,0,9.4,0.5c3.1,0.5,6.2,1.5,9,2.9c2.8,1.5,5.3,3.5,7.2,5.9c-2.3-2-4.9-3.7-7.7-4.9c-1.4-0.6-2.8-1.1-4.3-1.4
					c-1.5-0.4-2.9-0.6-4.4-0.8c-6-0.7-12.1,0-18.2,0.8c-1.5,0.2-3.1,0.4-4.7,0.4c-1.6,0.1-3.3-0.2-4.9-0.7c-3.2-1-5.8-3.1-8.1-5.1
					c-2.3-2-4.7-3.9-7.6-4.4c-1.4-0.3-3-0.4-4.5-0.3C187,166,185.5,166.2,184,166.5z"/>
			</g>
			<g>
				<path class="st8" d="M187.2,183.3c-3.3,2.1-5.7,5.2-6.8,8.7c-0.3,0.9-0.4,1.8-0.6,2.7l-0.1,1.4l-0.1,1.5c-0.2,2-0.4,3.9-0.7,5.8
					c-0.7,3.9-1.6,7.8-4,11.3c-0.6,0.8-1.4,1.6-2.2,2.2c-0.9,0.6-1.9,1-2.9,1.2c-1,0.2-2,0.3-3.1,0.1c-1-0.2-2-0.6-2.6-1.3
					c1.7,1.1,3.7,0.8,5.4,0.2c0.9-0.3,1.7-0.8,2.3-1.3c0.6-0.6,1.2-1.3,1.7-2c0.9-1.5,1.6-3.3,2.1-5.1c0.5-1.8,0.9-3.7,1.2-5.5
					c0.3-1.9,0.6-3.8,0.8-5.7l0.2-1.4l0.2-1.5c0.2-1,0.5-2,0.9-2.9C180.3,187.6,183.5,184.6,187.2,183.3z"/>
			</g>
			<g>
				<path class="st8" d="M276.4,198.8c1.7-0.5,3.5-0.5,5.3-0.4c1.8,0.2,3.5,0.6,5.2,1.3c1.7,0.7,3.2,1.6,4.6,2.7
					c1.4,1.1,2.5,2.5,3.4,4.1c-1.5-0.9-2.9-1.9-4.4-2.6c-0.7-0.4-1.5-0.7-2.2-1.1c-0.8-0.3-1.5-0.7-2.2-1c-1.5-0.6-3.1-1.2-4.7-1.6
					C279.7,199.6,278.1,199.2,276.4,198.8z"/>
			</g>
			<g>
				<path class="st8" d="M215,151.3c1.9-0.6,3.9-1,5.9-1.2c2-0.2,4.1-0.1,6.2,0.3c1,0.2,2.1,0.5,3,0.8c1,0.3,1.9,0.6,2.9,1
					c1.9,0.7,3.9,1.6,5.6,2.9c1.7,1.3,3.2,2.7,4.5,4.3c1.3,1.6,2.6,3,3.9,4.5c1.3,1.4,2.7,2.8,4.3,3.8c0.8,0.5,1.7,0.9,2.6,1.2
					c0.9,0.3,1.9,0.5,2.9,0.6c-1,0.1-2,0.1-3,0c-1-0.2-2-0.5-3-0.9c-1.9-0.9-3.6-2.2-5.1-3.6c-3-2.8-5.4-6-8.5-8.2
					c-1.5-1.1-3.2-2-5-2.7c-0.9-0.4-1.8-0.7-2.8-1.1c-1-0.4-1.8-0.7-2.7-1c-1.8-0.5-3.8-0.8-5.7-0.9C219,151.1,217,151.1,215,151.3z
					"/>
			</g>
			<path class="st14" d="M133.2,175.3c0,0-4,10.9,5.5,9.2c9.6-1.8,15.9-8.5,20.4-2.2c4.5,6.4,1.2,11.8-0.4,17.4
				c-1.6,5.7-7.8,17.3,3,22.9c10.9,5.5,18-0.8,19.1-9.7c1.2-8.9,1.4-20.5,6.4-22.8c5-2.3,1.6,6.8,7.1,10.4c5.5,3.6,10.3-2.2,9.1-7.4
				c-1.2-5.3,7.7-9.4,10.6-4.6c2.9,4.8-0.7,8.5,3.2,11.6c3.9,3.1,9.4-3,11.2-3.3c1.8-0.3,7,0.6,9.2,3.9c2.2,3.4-5.7,8.1-7.6,14.9
				c-1.9,6.8-0.3,12.8,5.9,15c6.1,2.2,11.9-1.5,15-8.2c3.1-6.7,8.7-16.3,16.2-15.9c7.5,0.4,7.6,5.6,7.6,5.6s-0.6-12.3-13.2-11.3
				c-12.6,1-13.8,13.8-18.1,15.2c-4.3,1.4-8.5-1.3-4.4-8.4c4.1-7.1,1.2-15.5-6.8-15.5c-8,0-10,3.5-10.9,2c-0.9-1.5-2-10.9-7.8-11.8
				c-5.8-0.9-11.1,1.4-13,4c-2,2.6-0.5,7.8-1.9,7.8c-1.4,0-3-8.6-6.3-9c-3.3-0.4-7.7,0.3-9.2,5c-1.5,4.7-3.1,25.4-7.4,27.5
				c-4.3,2.1-13.7,3-13.4-6.5c0.3-9.5,6.6-21.4,4.2-26.9c-2.4-5.5-10-12.4-18.1-8.9C140.4,178.7,133.7,178.6,133.2,175.3z"/>
			<path class="st14" d="M266.2,215.3c0,0-1.2,6.9,3.3,7c4.5,0,4.8,0.6,8.3-2.3c3.6-3,7.9,1,9.5,4c1.6,3-5.8,28.2-5.8,28.2
				s0.4,7.8,8.5,6.9c8.1-0.9,13.8-9.7,16.4-14.9c2.7-5.2,5.8-9.2,5.7-16.5c-0.2-7.3-5.7-12.4-5.7-18c0,0,0.7,24.7-5,32.1
				c-5.7,7.4-10.4,1.1-7.8-9c2.6-10.1-1.4-20.1-9.3-20.5c-7.9-0.4-7.5,4.7-11,4.7c-3.5,0-5.8-5.3-9.7-5.3
				C263.6,211.4,265.2,213.4,266.2,215.3z"/>
			<path class="st14" d="M268.4,181c4.1-1.5,10.8,3.2,15.8,1.2c5-2,13.4-2.4,14.4,1.1c1.1,3.8-0.5,8.2-8.6,7.7
				c-8.1-0.5-11.3-0.4-20.6,0C260.1,191.5,259.9,184.2,268.4,181z"/>
			<g>
				<path class="st8" d="M135.2,184.4c1.4,0.1,2.9,0,4.3-0.3c1.4-0.3,2.8-0.6,4.1-1.2c2.6-1.1,5.2-2.6,8-3.5c1.4-0.4,3-0.7,4.6-0.3
					c1.6,0.4,2.9,1.5,3.8,2.8c1.8,2.6,2.5,5.7,2.2,8.8c-0.1,0.8-0.3,1.6-0.5,2.3c-0.2,0.7-0.5,1.4-0.7,2.1l-1.5,4.1
					c-0.9,2.7-1.8,5.4-2.4,8.2c-0.6,2.7-1,5.6-0.2,8c0.8,2.5,2.6,4.6,4.9,6c2.3,1.4,5,2.1,7.6,2.1c2.7-0.1,5.4-0.8,7.2-2.7
					c1.8-1.8,2.7-4.5,3.3-7.3c0.5-2.7,0.7-5.6,1.1-8.5c0.4-2.9,0.8-5.8,1.6-8.7c0.4-1.4,1-2.8,1.8-4.2c0.8-1.3,2.1-2.5,3.7-2.8
					c0.4-0.1,0.9-0.1,1.4,0.1c0.5,0.2,0.9,0.6,1,1c0.3,0.8,0.4,1.5,0.5,2.3c0.2,1.4,0.3,2.9,0.8,4.2c0.5,1.3,1.3,2.5,2.5,3.2
					c1.2,0.8,2.6,1.1,4.1,1.3c-1.4,0-2.9-0.3-4.2-1c-1.3-0.7-2.3-1.9-2.9-3.3c-0.6-1.4-0.8-2.9-1.1-4.3c-0.1-0.7-0.3-1.4-0.6-1.9
					c-0.3-0.5-0.6-0.6-1.3-0.4c-1.2,0.3-2.2,1.3-2.9,2.4c-0.7,1.2-1.1,2.5-1.5,3.9c-0.7,2.7-1,5.6-1.3,8.5c-0.3,2.9-0.4,5.7-0.9,8.7
					c-0.3,1.5-0.7,2.9-1.2,4.4c-0.6,1.4-1.4,2.8-2.5,4c-1.1,1.2-2.5,2.1-4,2.6c-1.5,0.5-3,0.8-4.6,0.8c-3.1,0.1-6.2-0.7-8.9-2.4
					c-2.7-1.6-4.8-4.2-5.8-7.2c-0.5-1.6-0.5-3.2-0.5-4.7c0.1-1.5,0.4-3,0.7-4.5c0.7-2.9,1.6-5.7,2.7-8.4l1.5-4.1
					c0.3-0.7,0.5-1.3,0.7-2c0.2-0.7,0.4-1.3,0.5-1.9c0.4-2.6-0.2-5.5-1.7-7.7c-0.7-1.1-1.7-2-2.9-2.4c-1.2-0.4-2.6-0.2-4,0.1
					c-2.7,0.6-5.4,2-8.1,2.9C141,184.5,138,184.8,135.2,184.4z"/>
			</g>
			<g>
				<path class="st8" d="M209.2,186.3c1.5,0.1,3.1,0.6,4.3,1.6c0.6,0.5,1.2,1.1,1.5,1.9c0.3,0.8,0.4,1.6,0.5,2.3
					c0.1,1.6,0.1,3.1,0.3,4.6c0.1,0.7,0.3,1.4,0.7,2c0.4,0.6,1,0.9,1.6,1.1c1.3,0.5,2.8,0.3,4.1-0.4c1.3-0.6,2.5-1.5,3.8-2.5
					c1.4-1,3.2-1.3,4.8-1.2c1.7,0.1,3.3,0.6,4.7,1.5c1.4,1,2.6,2.3,3.1,4c0.3,0.9,0.3,2-0.1,2.8c-0.4,0.9-0.9,1.6-1.5,2.2
					c-1.1,1.2-2.2,2.2-3.2,3.3c-1,1.1-1.8,2.3-2.5,3.6c-1.3,2.6-1.9,5.6-1.5,8.4c0.4,2.8,1.7,5.6,4,6.9c0.5,0.3,1.3,0.6,2,0.8
					c0.7,0.2,1.4,0.4,2.1,0.5c1.4,0.3,2.8,0.2,4-0.3c2.6-0.9,4.7-3.1,6.4-5.6c0.9-1.2,1.6-2.5,2.5-3.9c0.8-1.3,1.7-2.6,2.6-3.9
					c0.9-1.3,1.9-2.5,3.2-3.7c0.6-0.5,1.3-1.1,2.1-1.5c0.8-0.4,1.7-0.7,2.6-0.8c0.4,0,0.9,0,1.3,0c0.2,0,0.4,0,0.6,0.1l0.3,0
					l0.4,0.1c0.6,0.1,1.2,0.5,1.5,1c0.4,0.5,0.5,1,0.6,1.5c0.2,0.9,0.1,1.7,0.2,2.5c0,0.8,0,1.5,0.1,2.2c0.1,1.4,0.7,2.6,1.7,3.2
					c0.1,0.1,0.3,0.2,0.4,0.2l0.5,0.2c0.3,0.2,0.7,0.3,1,0.4c0.7,0.2,1.3,0.3,2,0.3c1.3,0,2.6-0.6,3.7-1.5c0.3-0.2,0.6-0.5,0.8-0.7
					l0.4-0.4l0.2-0.2c0.1-0.1,0.2-0.2,0.3-0.2c0.8-0.6,1.7-0.8,2.6-0.9c1.8-0.2,3.5,0.4,4.9,1.5c1.4,1,2.3,2.5,2.9,4l0,0.1l0,0
					c0.2,1.2,0.2,2.3,0.1,3.5c-0.1,1.1-0.2,2.3-0.5,3.4c-0.2,1.1-0.5,2.2-0.9,3.2l-0.6,1.6c-0.1,0.3-0.2,0.5-0.3,0.8l-0.2,0.4l0,0.1
					c0,0,0,0,0,0.1c-0.1,0,0-0.1,0-0.1l0.1-0.2l0,0.2c-0.1,0,0-0.1,0-0.1l0.1-0.4c0-0.3,0.1-0.6,0.1-0.8l0.2-1.7
					c0.1-1.1,0.4-2.2,0.6-3.3c0.2-1.1,0.3-2.2,0.3-3.2c0-1.1,0-2.2-0.2-3.1l0,0.1c-0.6-1.3-1.4-2.6-2.5-3.4c-1.1-0.8-2.5-1.2-3.8-1
					c-0.7,0.1-1.3,0.3-1.8,0.7c-0.1,0-0.1,0.1-0.2,0.1l-0.2,0.2l-0.4,0.4c-0.3,0.3-0.6,0.5-0.9,0.8c-1.2,1.1-2.9,1.9-4.7,2
					c-0.9,0-1.8-0.1-2.6-0.3c-0.4-0.1-0.8-0.2-1.2-0.4l-0.6-0.2c-0.2-0.1-0.4-0.2-0.6-0.3c-0.8-0.5-1.5-1.2-1.9-2
					c-0.4-0.8-0.6-1.7-0.8-2.5c-0.2-1.7-0.1-3.3-0.3-4.6c-0.1-0.3-0.2-0.5-0.2-0.7c-0.1-0.1-0.2-0.2-0.4-0.2l-0.2,0l-0.3,0
					c-0.2,0-0.4,0-0.5,0c-0.3,0-0.7,0-1,0c-2.5,0.2-4.6,2.7-6.3,5.1c-0.9,1.2-1.7,2.5-2.5,3.8c-0.8,1.3-1.6,2.7-2.5,4
					c-0.9,1.3-1.9,2.6-3.2,3.7c-1.2,1.1-2.6,2.1-4.3,2.7c-1.7,0.6-3.5,0.6-5.1,0.3c-0.8-0.1-1.6-0.4-2.4-0.6
					c-0.8-0.3-1.5-0.5-2.3-0.9c-1.6-0.9-2.8-2.2-3.6-3.7c-0.8-1.5-1.2-3.2-1.4-4.8c-0.4-3.3,0.3-6.7,1.8-9.6c0.8-1.4,1.8-2.8,2.8-4
					c1.1-1.2,2.3-2.2,3.3-3.3c0.5-0.5,0.9-1.1,1.2-1.6c0.2-0.5,0.3-1.1,0.1-1.7c-0.4-1.2-1.3-2.4-2.4-3.2c-1.1-0.8-2.5-1.3-4-1.4
					c-1.4-0.1-2.9,0.2-4,0.9c-1.2,0.9-2.5,1.8-4,2.5c-1.5,0.7-3.3,0.9-4.9,0.2c-0.4-0.2-0.7-0.3-1.1-0.6c-0.4-0.3-0.7-0.6-0.9-1
					c-0.5-0.7-0.6-1.6-0.7-2.4c-0.2-1.6-0.1-3.1-0.1-4.7c0-0.8-0.1-1.5-0.3-2.2c-0.2-0.7-0.7-1.3-1.3-1.8
					C212.3,187.1,210.7,186.6,209.2,186.3z"/>
			</g>
		</g>
		<g>
			<path class="st8" d="M245.3,162.3c4.6,0,9.1-0.9,13.5-2c2.2-0.5,4.5-1.1,6.8-1.4c2.3-0.3,4.7-0.4,7.1,0.2
				c1.2,0.3,2.4,0.8,3.4,1.4c0.6,0.3,1,0.7,1.5,1.1c0.4,0.5,0.9,0.9,1.3,1.4c1.6,2,2.2,4.5,2.6,6.8c0.4,2.2,0.8,4.5,2.2,5.5l0.3,0.2
				c0.1,0.1,0.2,0.1,0.3,0.2c0.2,0.1,0.4,0.2,0.6,0.3l0.7,0.2c0.2,0.1,0.5,0.1,0.8,0.2c1,0.2,2.1,0.3,3.2,0.4c4.4,0.3,9-0.2,13.7,0
				c0.6,0,1.2,0.1,1.8,0.1c0.6,0.1,1.2,0.2,1.7,0.2c1.1,0.2,2.3,0.4,3.4,0.6c2.3,0.4,4.6,1.1,6.7,2.4c1.1,0.6,2,1.4,2.8,2.3
				c0.8,0.9,1.5,1.9,2,3.1c0.3,0.5,0.4,1.1,0.6,1.7c0.2,0.6,0.3,1.2,0.4,1.8c0.2,1.2-0.1,2.6-0.7,3.7c-0.6,1.1-1.6,1.9-2.6,2.5
				c-1,0.6-2.1,1.1-3.2,1.4c-1.1,0.4-2.2,0.7-3.3,1c-1.1,0.3-2.2,0.6-3.1,1.3c0.9-0.8,2-1.2,3-1.6c1.1-0.4,2.1-0.8,3.2-1.3
				c2-0.9,4.1-2.1,5-3.9c0.4-0.9,0.6-2,0.4-3c-0.1-0.5-0.2-1-0.4-1.5c-0.2-0.5-0.4-1-0.6-1.5c-0.5-1-1.1-1.8-1.8-2.6
				c-0.8-0.7-1.6-1.4-2.5-1.9c-1.9-1-4-1.6-6.2-2c-1.1-0.2-2.2-0.3-3.3-0.5c-0.6-0.1-1.1-0.1-1.6-0.2c-0.5,0-1.1-0.1-1.6-0.1
				c-4.5-0.1-9,0.4-13.7,0.2c-1.2-0.1-2.4-0.2-3.6-0.5c-0.3-0.1-0.6-0.1-0.9-0.2l-0.9-0.3c-0.3-0.1-0.6-0.3-0.9-0.4
				c-0.2-0.1-0.3-0.2-0.5-0.2l-0.4-0.3c-1.1-0.9-1.8-2.2-2.2-3.3c-0.4-1.2-0.6-2.4-0.8-3.5c-0.4-2.2-0.9-4.3-2.1-5.9
				c-0.3-0.4-0.7-0.8-1-1.1c-0.4-0.3-0.8-0.7-1.2-1c-0.8-0.6-1.8-1-2.8-1.3c-2-0.6-4.3-0.6-6.5-0.4c-2.2,0.2-4.5,0.6-6.7,1
				c-2.2,0.4-4.5,0.8-6.8,1C249.8,162.5,247.5,162.6,245.3,162.3z"/>
		</g>
	</g>
	<g>
		<g>
			<g>
				<path class="st15" d="M444.6,339c0,0,15.7-10.5,34.9-12.6c0,0-17.4-10.6-52.3-10.4c-35,0.2-50.4,12.2-50.4,12.2
					s7.1,25.3,5.9,48.3c0,0,57.3-21.1,90.5-13.7C473.1,362.8,460.3,345.6,444.6,339z"/>
				<g>
					<g>
						<path class="st16" d="M376.8,330.7c4.8-2,9.6-3.7,14.6-5.1c4.9-1.5,9.9-2.7,14.9-3.6c5-1,10.1-1.6,15.2-2
							c5.1-0.4,10.2-0.3,15.3,0c-5.1-0.1-10.2,0.1-15.2,0.8c-5,0.7-10,1.5-14.9,2.8c-4.9,1.2-9.8,2.7-14.5,4.3
							c-4.7,1.7-9.5,3.6-13.9,5.7l0,0c-0.8,0.4-1.8,0-2.1-0.7C375.5,332,375.9,331.1,376.8,330.7
							C376.7,330.7,376.7,330.7,376.8,330.7z"/>
					</g>
					<g>
						<path class="st16" d="M378.6,333.6c4.6-1.6,9.2-3,13.9-4.2c4.7-1.2,9.4-2.1,14.1-2.9c4.7-0.8,9.5-1.3,14.3-1.6
							c4.8-0.3,9.6-0.3,14.4,0c-4.8,0-9.6,0.2-14.3,0.8c-4.7,0.6-9.4,1.3-14.1,2.4c-4.6,1-9.2,2.2-13.8,3.6c-4.5,1.4-9,3-13.3,4.8
							l0,0c-0.8,0.3-1.8,0-2.1-0.9C377.4,334.9,377.7,334,378.6,333.6C378.6,333.6,378.6,333.6,378.6,333.6z"/>
					</g>
					<g>
						<path class="st16" d="M384.1,336c3.9-0.9,7.7-1.7,11.6-2.4c3.9-0.7,7.8-1.3,11.7-1.7c3.9-0.4,7.9-0.8,11.8-0.9
							c3.9-0.1,7.9,0,11.8,0.5c-3.9-0.2-7.8-0.1-11.7,0.3c-3.9,0.4-7.8,1-11.6,1.7c-3.8,0.7-7.7,1.6-11.5,2.5
							c-3.8,0.9-7.6,2-11.3,3.1l0,0c-0.8,0.3-1.7-0.2-2-1.1c-0.3-0.8,0.2-1.7,1.1-2C384.1,336,384.1,336,384.1,336z"/>
					</g>
					<g>
						<path class="st16" d="M393.3,337.3c3-0.4,6-0.8,9-1.1c3-0.3,6-0.5,9-0.6c3-0.1,6-0.2,9-0.1c3,0.1,6,0.3,9,1
							c-3-0.4-6-0.4-8.9-0.2c-3,0.1-5.9,0.5-8.9,0.9c-3,0.4-5.9,0.9-8.8,1.4c-2.9,0.5-5.9,1.1-8.7,1.8l0,0c-0.9,0.2-1.7-0.3-1.9-1.2
							c-0.2-0.9,0.3-1.7,1.2-1.9C393.2,337.4,393.2,337.4,393.3,337.3z"/>
					</g>
					<g>
						<path class="st16" d="M390.6,344.2c3-0.7,5.9-1.2,8.9-1.7c3-0.5,6-1,8.9-1.3c3-0.4,6-0.7,9-0.8c3-0.1,6-0.1,9,0.4
							c-3-0.2-6,0.1-8.9,0.4c-3,0.4-5.9,0.9-8.8,1.5c-2.9,0.6-5.8,1.3-8.7,2.1c-2.9,0.8-5.8,1.6-8.6,2.5l0,0c-0.8,0.3-1.7-0.2-2-1
							c-0.3-0.8,0.2-1.7,1-2C390.5,344.3,390.5,344.2,390.6,344.2z"/>
					</g>
					<g>
						<path class="st16" d="M388.7,348.5c3-0.7,5.9-1.2,8.9-1.7c3-0.5,6-1,8.9-1.3c3-0.4,6-0.7,9-0.8c3-0.1,6-0.1,9,0.4
							c-3-0.2-6,0.1-8.9,0.4c-3,0.4-5.9,0.9-8.8,1.5c-2.9,0.6-5.8,1.3-8.7,2.1c-2.9,0.8-5.8,1.6-8.6,2.5l0,0c-0.8,0.3-1.7-0.2-2-1
							c-0.3-0.8,0.2-1.7,1-2C388.6,348.5,388.6,348.5,388.7,348.5z"/>
					</g>
					<g>
						<path class="st16" d="M387.9,353.1c3-0.7,5.9-1.2,8.9-1.7c3-0.5,6-1,8.9-1.3c3-0.4,6-0.7,9-0.8c3-0.1,6-0.1,9,0.4
							c-3-0.2-6,0.1-8.9,0.4c-3,0.4-5.9,0.9-8.8,1.5c-2.9,0.6-5.8,1.3-8.7,2.1c-2.9,0.8-5.8,1.6-8.6,2.5l0,0c-0.8,0.3-1.7-0.2-2-1
							s0.2-1.7,1-2C387.8,353.1,387.8,353.1,387.9,353.1z"/>
					</g>
					<g>
						<path class="st16" d="M387.9,357.5c3-0.7,5.9-1.2,8.9-1.7c3-0.5,6-1,8.9-1.3c3-0.4,6-0.7,9-0.8c3-0.1,6-0.1,9,0.4
							c-3-0.2-6,0.1-8.9,0.4c-3,0.4-5.9,0.9-8.8,1.5c-2.9,0.6-5.8,1.3-8.7,2.1c-2.9,0.8-5.8,1.6-8.6,2.5l0,0c-0.8,0.3-1.7-0.2-2-1
							s0.2-1.7,1-2C387.8,357.5,387.8,357.5,387.9,357.5z"/>
					</g>
					<g>
						<path class="st16" d="M387.2,362.5c3-0.7,5.9-1.2,8.9-1.7c3-0.5,6-1,8.9-1.3c3-0.4,6-0.7,9-0.8c3-0.1,6-0.1,9,0.4
							c-3-0.2-6,0.1-8.9,0.4c-3,0.4-5.9,0.9-8.8,1.5c-2.9,0.6-5.8,1.3-8.7,2.1c-2.9,0.8-5.8,1.6-8.6,2.5l0,0c-0.8,0.3-1.7-0.2-2-1
							c-0.3-0.8,0.2-1.7,1-2C387.1,362.6,387.2,362.6,387.2,362.5z"/>
					</g>
					<g>
						<path class="st16" d="M387.2,368.6c3-0.7,5.9-1.2,8.9-1.7c3-0.5,6-1,8.9-1.3c3-0.4,6-0.7,9-0.8c3-0.1,6-0.1,9,0.4
							c-3-0.2-6,0.1-8.9,0.4c-3,0.4-5.9,0.9-8.8,1.5c-2.9,0.6-5.8,1.3-8.7,2.1c-2.9,0.8-5.8,1.6-8.6,2.5l0,0c-0.8,0.3-1.7-0.2-2-1
							s0.2-1.7,1-2C387.1,368.6,387.2,368.6,387.2,368.6z"/>
					</g>
				</g>
			</g>
			<g>
				<path class="st17" d="M376.7,328.2c0,0-3.5,11.6,35.2,7.4c0,0-8.7,17.8-33.7,19.8C378.2,355.5,375.1,335.6,376.7,328.2z"/>
				<g>
					<defs>
						<path id="SVGID_1_" d="M376.7,328.2c0,0-3.5,11.6,35.2,7.4c0,0-8.7,17.8-33.7,19.8C378.2,355.5,375.1,335.6,376.7,328.2z"/>
					</defs>
					<clipPath id="SVGID_2_">
						<use xlink:href="#SVGID_1_"  style="overflow:visible;"/>
					</clipPath>
					<g class="st18">
						<g>
							<path class="st16" d="M377.7,336.7c3.1,0.9,6.2,1.6,9.3,2.1c3.1,0.5,6.3,0.8,9.5,1c3.2,0.2,6.3,0,9.4-0.3
								c3.1-0.3,6.2-1,9.2-1.8l0.1,0c0.8-0.2,1.6,0.2,1.8,1c0.2,0.8-0.2,1.6-1,1.8c0,0-0.1,0-0.1,0c-3.2,0.6-6.5,1.1-9.7,1.2
								c-3.3,0.1-6.5,0-9.7-0.4c-3.2-0.4-6.4-0.9-9.5-1.7C383.8,338.8,380.7,337.9,377.7,336.7z"/>
						</g>
						<g>
							<path class="st16" d="M379.4,340.1c2.4,0.8,4.9,1.4,7.4,1.9c2.5,0.5,5,0.9,7.6,1.1c2.5,0.3,5.1,0.3,7.6,0.3
								c2.5,0,5-0.4,7.5-0.8l0.1,0c0.8-0.1,1.6,0.4,1.7,1.2c0.1,0.8-0.4,1.6-1.2,1.7c0,0-0.1,0-0.1,0c-2.7,0.2-5.3,0.3-7.9,0.1
								c-2.6-0.2-5.2-0.5-7.8-1c-2.6-0.5-5.1-1.1-7.5-1.9C384.2,342,381.8,341.2,379.4,340.1z"/>
						</g>
						<g>
							<path class="st16" d="M380.9,345c4,0.7,7.9,1.1,11.9,1.2c2,0.1,4,0,5.9-0.1c2-0.1,3.9-0.4,5.8-0.7l0,0
								c0.8-0.1,1.6,0.4,1.7,1.2c0.1,0.8-0.4,1.6-1.2,1.7c-0.1,0-0.1,0-0.2,0c-2.1,0.1-4.1,0.1-6.2,0c-2-0.1-4.1-0.3-6.1-0.6
								C388.7,347,384.7,346.2,380.9,345z"/>
						</g>
						<g>
							<path class="st16" d="M380.9,349.4c3.2,0.4,6.3,0.5,9.5,0.5c3.1,0,6.3-0.3,9.3-0.8l0,0c0.8-0.2,1.6,0.4,1.7,1.2
								c0.2,0.8-0.4,1.6-1.2,1.7c-0.1,0-0.2,0-0.2,0c-3.3,0.1-6.6-0.1-9.7-0.6C387.1,350.9,384,350.2,380.9,349.4z"/>
						</g>
						<g>
							<path class="st16" d="M382.3,354.1c1.8-0.1,3.6-0.3,5.3-0.5c1.8-0.2,3.5-0.5,5.2-0.9c0.8-0.2,1.6,0.3,1.8,1.1
								c0.2,0.8-0.3,1.6-1.1,1.8c-0.1,0-0.3,0-0.4,0l0,0c-1.9-0.1-3.7-0.3-5.5-0.5C385.9,354.8,384.1,354.5,382.3,354.1z"/>
						</g>
					</g>
				</g>
			</g>
		</g>
		<g>
			<g>
				<path class="st15" d="M55.4,339c0,0-15.7-10.5-34.9-12.6c0,0,17.4-10.6,52.3-10.4c35,0.2,50.4,12.2,50.4,12.2
					s-7.1,25.3-5.9,48.3c0,0-57.3-21.1-90.5-13.7C26.9,362.8,39.7,345.6,55.4,339z"/>
				<g>
					<g>
						<path class="st16" d="M121.9,333.6c-4.5-2.2-9.2-4-13.9-5.7c-4.8-1.7-9.6-3.1-14.5-4.3c-4.9-1.3-9.9-2.1-14.9-2.8
							c-5-0.7-10.1-0.8-15.2-0.8c5.1-0.3,10.2-0.4,15.3,0c5.1,0.4,10.2,1,15.2,2c5,1,10,2.2,14.9,3.6c4.9,1.5,9.7,3.1,14.6,5.1
							c0.8,0.3,1.2,1.3,0.9,2.1c-0.3,0.8-1.3,1.2-2.1,0.9C122,333.6,122,333.6,121.9,333.6L121.9,333.6z"/>
					</g>
					<g>
						<path class="st16" d="M120.2,336.5c-4.3-1.8-8.8-3.4-13.3-4.8c-4.5-1.4-9.1-2.6-13.8-3.6c-4.6-1-9.3-1.8-14.1-2.4
							c-4.7-0.6-9.5-0.8-14.3-0.8c4.8-0.2,9.6-0.3,14.4,0c4.8,0.3,9.6,0.8,14.3,1.6c4.7,0.8,9.5,1.7,14.1,2.9
							c4.7,1.2,9.3,2.5,13.9,4.2c0.8,0.3,1.3,1.2,1,2c-0.3,0.8-1.2,1.3-2,1C120.3,336.6,120.2,336.6,120.2,336.5L120.2,336.5z"/>
					</g>
					<g>
						<path class="st16" d="M115,339.1c-3.7-1.2-7.5-2.2-11.3-3.1c-3.8-0.9-7.6-1.8-11.5-2.5c-3.8-0.7-7.7-1.3-11.6-1.7
							c-3.9-0.4-7.8-0.6-11.7-0.3c3.9-0.5,7.9-0.6,11.8-0.5c3.9,0.1,7.9,0.5,11.8,0.9c3.9,0.5,7.8,1.1,11.7,1.7
							c3.9,0.7,7.8,1.5,11.6,2.4c0.9,0.2,1.4,1.1,1.2,1.9c-0.2,0.9-1.1,1.4-1.9,1.2C115.1,339.1,115.1,339.1,115,339.1L115,339.1z"
							/>
					</g>
					<g>
						<path class="st16" d="M106.1,340.5c-2.9-0.7-5.8-1.3-8.7-1.8c-2.9-0.5-5.9-1-8.8-1.4c-3-0.4-5.9-0.7-8.9-0.9
							c-3-0.1-6-0.2-8.9,0.2c2.9-0.7,5.9-0.9,9-1c3-0.1,6-0.1,9,0.1c3,0.1,6,0.4,9,0.6c3,0.3,6,0.6,9,1.1c0.9,0.1,1.5,0.9,1.4,1.8
							c-0.1,0.9-0.9,1.5-1.8,1.4C106.2,340.5,106.2,340.5,106.1,340.5L106.1,340.5z"/>
					</g>
					<g>
						<path class="st16" d="M108.6,347.3c-2.8-0.9-5.7-1.7-8.6-2.5c-2.9-0.8-5.8-1.5-8.7-2.1c-2.9-0.6-5.8-1.2-8.8-1.5
							c-3-0.4-5.9-0.6-8.9-0.4c3-0.5,6-0.5,9-0.4c3,0.1,6,0.4,9,0.8c3,0.4,6,0.8,8.9,1.3c3,0.5,5.9,1.1,8.9,1.7
							c0.9,0.2,1.4,1,1.2,1.9c-0.2,0.9-1,1.4-1.9,1.2C108.7,347.3,108.6,347.3,108.6,347.3L108.6,347.3z"/>
					</g>
					<g>
						<path class="st16" d="M110.5,351.6c-2.8-0.9-5.7-1.7-8.6-2.5c-2.9-0.8-5.8-1.5-8.7-2.1c-2.9-0.6-5.8-1.2-8.8-1.5
							c-3-0.4-5.9-0.6-8.9-0.4c3-0.5,6-0.5,9-0.4c3,0.1,6,0.4,9,0.8c3,0.4,6,0.8,8.9,1.3c3,0.5,5.9,1.1,8.9,1.7
							c0.9,0.2,1.4,1,1.2,1.9s-1,1.4-1.9,1.2C110.6,351.6,110.6,351.6,110.5,351.6L110.5,351.6z"/>
					</g>
					<g>
						<path class="st16" d="M111.3,356.2c-2.8-0.9-5.7-1.7-8.6-2.5c-2.9-0.8-5.8-1.5-8.7-2.1c-2.9-0.6-5.8-1.2-8.8-1.5
							c-3-0.4-5.9-0.6-8.9-0.4c3-0.5,6-0.5,9-0.4c3,0.1,6,0.4,9,0.8c3,0.4,6,0.8,8.9,1.3c3,0.5,5.9,1.1,8.9,1.7
							c0.9,0.2,1.4,1,1.2,1.9c-0.2,0.9-1,1.4-1.9,1.2C111.4,356.2,111.3,356.2,111.3,356.2L111.3,356.2z"/>
					</g>
					<g>
						<path class="st16" d="M111.3,360.6c-2.8-0.9-5.7-1.7-8.6-2.5c-2.9-0.8-5.8-1.5-8.7-2.1c-2.9-0.6-5.8-1.2-8.8-1.5
							c-3-0.4-5.9-0.6-8.9-0.4c3-0.5,6-0.5,9-0.4c3,0.1,6,0.4,9,0.8c3,0.4,6,0.8,8.9,1.3c3,0.5,5.9,1.1,8.9,1.7
							c0.9,0.2,1.4,1,1.2,1.9c-0.2,0.9-1,1.4-1.9,1.2C111.4,360.6,111.3,360.6,111.3,360.6L111.3,360.6z"/>
					</g>
					<g>
						<path class="st16" d="M111.9,365.6c-2.8-0.9-5.7-1.7-8.6-2.5c-2.9-0.8-5.8-1.5-8.7-2.1c-2.9-0.6-5.8-1.2-8.8-1.5
							c-3-0.4-5.9-0.6-8.9-0.4c3-0.5,6-0.5,9-0.4c3,0.1,6,0.4,9,0.8c3,0.4,6,0.8,8.9,1.3c3,0.5,5.9,1.1,8.9,1.7
							c0.9,0.2,1.4,1,1.2,1.9c-0.2,0.9-1,1.4-1.9,1.2C112,365.7,112,365.6,111.9,365.6L111.9,365.6z"/>
					</g>
					<g>
						<path class="st16" d="M111.9,371.7c-2.8-0.9-5.7-1.7-8.6-2.5c-2.9-0.8-5.8-1.5-8.7-2.1c-2.9-0.6-5.8-1.2-8.8-1.5
							c-3-0.4-5.9-0.6-8.9-0.4c3-0.5,6-0.5,9-0.4c3,0.1,6,0.4,9,0.8c3,0.4,6,0.8,8.9,1.3c3,0.5,5.9,1.1,8.9,1.7
							c0.9,0.2,1.4,1,1.2,1.9c-0.2,0.9-1,1.4-1.9,1.2C112,371.7,112,371.7,111.9,371.7L111.9,371.7z"/>
					</g>
				</g>
			</g>
			<g>
				<path class="st17" d="M123.3,328.2c0,0,3.5,11.6-35.2,7.4c0,0,8.7,17.8,33.7,19.8C121.8,355.5,124.9,335.6,123.3,328.2z"/>
				<g>
					<defs>
						<path id="SVGID_3_" d="M123.3,328.2c0,0,3.5,11.6-35.2,7.4c0,0,8.7,17.8,33.7,19.8C121.8,355.5,124.9,335.6,123.3,328.2z"/>
					</defs>
					<clipPath id="SVGID_4_">
						<use xlink:href="#SVGID_3_"  style="overflow:visible;"/>
					</clipPath>
					<g class="st19">
						<g>
							<path class="st16" d="M122.3,336.7c-3,1.2-6.1,2.1-9.2,2.9c-3.1,0.8-6.3,1.3-9.5,1.7c-3.2,0.4-6.4,0.5-9.7,0.4
								c-3.3-0.1-6.5-0.5-9.7-1.2c-0.8-0.2-1.3-0.9-1.2-1.7c0.2-0.8,0.9-1.3,1.7-1.2c0,0,0.1,0,0.1,0l0.1,0c3,0.8,6,1.5,9.2,1.8
								c3.1,0.3,6.3,0.5,9.4,0.3c3.2-0.1,6.3-0.4,9.5-1C116.1,338.3,119.2,337.6,122.3,336.7z"/>
						</g>
						<g>
							<path class="st16" d="M120.6,340.1c-2.4,1-4.8,1.9-7.3,2.6c-2.5,0.7-5,1.4-7.5,1.9c-2.6,0.5-5.1,0.8-7.8,1
								c-2.6,0.2-5.3,0.1-7.9-0.1c-0.8-0.1-1.4-0.8-1.4-1.6c0.1-0.8,0.8-1.4,1.6-1.4c0,0,0.1,0,0.1,0l0.1,0c2.5,0.4,4.9,0.7,7.5,0.8
								c2.5,0.1,5.1,0,7.6-0.3c2.5-0.2,5.1-0.6,7.6-1.1C115.7,341.6,118.2,340.9,120.6,340.1z"/>
						</g>
						<g>
							<path class="st16" d="M119.1,345c-3.8,1.2-7.8,2-11.8,2.6c-2,0.3-4,0.5-6.1,0.6c-2,0.1-4.1,0.1-6.2,0c-0.8,0-1.4-0.7-1.4-1.5
								c0-0.8,0.7-1.4,1.5-1.4c0.1,0,0.1,0,0.2,0l0,0c1.9,0.3,3.9,0.6,5.8,0.7c2,0.1,4,0.2,5.9,0.1
								C111.2,346.1,115.2,345.7,119.1,345z"/>
						</g>
						<g>
							<path class="st16" d="M119.1,349.4c-3.1,0.8-6.2,1.5-9.4,2c-3.2,0.5-6.4,0.7-9.7,0.6c-0.8,0-1.4-0.7-1.4-1.5
								c0-0.8,0.7-1.4,1.5-1.4c0.1,0,0.1,0,0.2,0l0,0c3,0.6,6.1,0.8,9.3,0.8C112.8,349.9,116,349.8,119.1,349.4z"/>
						</g>
						<g>
							<path class="st16" d="M117.7,354.1c-1.8,0.4-3.5,0.7-5.3,0.9c-1.8,0.3-3.6,0.5-5.5,0.5l0,0c-0.8,0-1.5-0.6-1.5-1.4
								c0-0.8,0.6-1.5,1.4-1.5c0.1,0,0.3,0,0.4,0c1.7,0.4,3.4,0.7,5.2,0.9C114.1,353.8,115.9,354,117.7,354.1z"/>
						</g>
					</g>
				</g>
			</g>
		</g>
		<path class="st20" d="M412.6,335.7c0,0-33.3,39.2-162.2,39.2S88.1,335.7,88.1,335.7s-4,15.1-3.5,27.1c0.5,12,6.4,24.5,6.4,24.5
			s60.1,31.1,159.4,31.1c99.3,0,159.4-31.1,159.4-31.1s5.8-12.5,6.4-24.5C416.6,350.8,412.6,335.7,412.6,335.7z"/>
		<g>
			<path class="st21" d="M109.7,392.7c0,0,121.3,45.6,281.2,0"/>
			<path class="st22" d="M170.6,364c-0.6,2.4-2.3,4.3-5,5.7c-2.8,1.4-5.8,2.1-9,2.3c-3.2,0.2-6.2-0.1-9-0.7
				c-0.7-0.2-1.3-0.3-1.6-0.5l0.6-2.5c0.1,0,1.6,0.1,4.4,0.3c2.8,0.2,5.3-0.1,7.5-0.8c2.2-0.7,3.4-1.8,3.8-3.3
				c0.4-1.8-0.7-3-3.3-3.6c-3.6-0.8-7.2-0.4-11,1.3c-3.8,1.7-5.9,3.9-6.6,6.6c-0.6,2.7,0.6,4.8,3.8,6.4c0.7,0.4,1.1,0.7,1.3,0.9
				c0.2,0.3,0.2,0.6,0.1,1.1c-0.1,0.5-0.4,0.8-1,1c-0.5,0.2-1.7,0.4-3.5,0.6c-9.7,1-15.3,4.7-16.9,11.2c-0.3,1.3-0.3,2.5-0.1,3.5
				c3.9-3.1,8.5-5.3,13.8-6.6c5.3-1.3,10.2-1.4,14.6-0.4c2.3,0.5,4,1.5,5.1,2.8c1.1,1.3,1.5,2.9,1.1,4.6c-0.6,2.7-2.6,5.2-5.7,7.3
				c-3.2,2.1-7,3.6-11.4,4.4c-4.4,0.8-8.7,0.7-12.6-0.2c-4-0.9-7-2.4-8.9-4.4c-0.1,0-0.4,0.4-0.9,0.9c-1.4,1.7-2.6,2.9-3.5,3.5
				l-2.2-1.6c0.7-1.3,2.2-3.1,4.5-5.5c-1.6-3.1-2.1-6.2-1.4-9.3c0.7-3.2,2.7-5.9,6-8.1s7.4-3.8,12.4-4.5c-1.8-2.4-2.5-4.7-2-6.8
				c0.7-2.8,2.8-5.3,6.4-7.5c3.6-2.2,7.8-3.7,12.4-4.5c4.7-0.8,8.8-0.8,12.6,0.1c2,0.5,3.4,1.3,4.4,2.4
				C170.6,361.3,170.9,362.6,170.6,364z M148.2,390.1c-2.9-0.7-6.5-0.4-10.9,0.9c-4.4,1.3-8.1,3.2-11.2,5.6c1.4,2.7,4,4.4,7.5,5.3
				c3.6,0.8,7.4,0.5,11.4-1c4-1.5,6.3-3.6,6.9-6.3c0.3-1.1,0-2-0.7-2.8C150.6,391,149.6,390.4,148.2,390.1z"/>
			<path class="st22" d="M170.9,399.8l1.4,1.5c-2.1,2.4-3.9,4-5.3,5s-2.8,1.3-4.3,1.1c-1.5-0.2-2.6-1-3.4-2.4
				c-0.7-1.3-1-2.9-0.7-4.7c0.6-3.5,4.1-10.6,10.5-21.3c6.4-10.7,12.8-20.1,19-28l3,2.3c-6.4,8.6-12.3,17.3-17.7,25.9
				s-8.5,15-9.1,19.1c-0.4,2.3,0.3,3.6,2,3.9C167.7,402.5,169.2,401.7,170.9,399.8z"/>
			<path class="st22" d="M241.3,365.5c1.9,0.1,3.3,0.7,4.3,1.7c1,1.1,1.4,2.5,1.4,4.2c-0.2,3.9-2.7,7.4-7.5,10.6
				c-4.8,3.1-10.2,4.6-16.2,4.3c-2.6-0.1-5.4-0.6-8.2-1.5c-2,3-3.1,6.4-3.3,10c-0.2,3.6,0.7,6.6,2.6,8.9c1.9,2.3,4.8,3.6,8.7,3.7
				c6.9,0.3,11.6-3.5,14.2-11.5l3.5,0.2c-0.8,4.6-3.1,8.7-7.1,12.1s-9.1,4.9-15.4,4.7c-3.3-0.1-6.3-1.5-9.1-4.1
				c-2.8-2.6-4-6.1-3.8-10.8c0.2-4.6,2.2-9.6,5.9-14.9c-2.5-1.6-4.4-3.6-5.8-5.8l2.1-2.2c0.3,0.4,0.8,0.9,1.4,1.6
				c1.1,1.4,2.6,2.7,4.5,3.7c3.1-4,7.6-7.5,13.4-10.6C232.5,366.8,237.4,365.4,241.3,365.5z M223.2,383.4c4.4,0.2,8.2-0.7,11.6-2.6
				c3.4-1.9,5.2-4.2,5.3-7c0-1-0.3-1.7-0.9-2.3c-0.7-0.6-1.5-0.9-2.6-1c-3.1-0.1-6.5,0.9-10.4,3.2c-3.9,2.3-7,5.1-9.3,8.4
				C218.7,382.8,220.8,383.2,223.2,383.4z"/>
			<path class="st22" d="M271.3,407l1.8,1.4c-2,3.6-4.7,5.4-8.1,5.4c-2.9,0.1-4.4-1.3-4.5-4.2c0-1.7,0.6-4.3,2-8
				c1.4-3.7,2-6.1,2-7.2c0-1.5-1-2.2-2.8-2.1c-1.9,0-4.3,2.1-7.4,6.1c-3.1,4.1-5.7,8.7-7.7,14.1L242,411
				c2.3-13.2,8.8-30.8,19.4-53.1l3.7,1.1c-5.3,11.3-9.1,20.2-11.4,26.8c-2.4,6.9-4.1,12.6-5.3,17.1c3.7-6.5,7-10.9,9.7-13.5
				c2.7-2.5,5.1-3.8,7.2-3.8c3.7-0.1,5.6,1.2,5.7,3.9c0,1.7-0.8,4.6-2.6,8.9c-1.8,4.3-2.6,7.2-2.6,8.6c0,1.4,0.7,2.1,2.1,2.1
				C268.5,409.1,269.7,408.4,271.3,407z"/>
			<path class="st22" d="M289,402.4l1.8,1.2c-1.4,2.3-3.4,4.2-6,5.8s-5.2,2.5-7.7,2.7c-2.6,0.2-4.7-0.4-6.3-1.8
				c-1.7-1.4-2.6-3.3-2.7-5.8c-0.3-4.6,1.8-9.3,6.4-14.1c4.6-4.8,9.4-7.4,14.4-7.7c3.3-0.2,5,1,5.2,3.6c0.2,2.7-1.4,5.6-4.7,8.5
				c-3.3,3-8,5.8-14.2,8.5c0.5,1.1,1.3,2,2.3,2.6c1,0.6,2,0.8,3,0.8C282.6,406.5,285.5,405.1,289,402.4z M274.7,401.1
				c4-1.7,7.3-3.7,10.1-6c2.8-2.3,4.1-4.3,4-6.1c0-0.7-0.3-1.2-0.9-1.7c-0.5-0.5-1.1-0.7-1.8-0.6c-2.4,0.2-4.8,1.8-7.3,4.9
				C276.2,394.7,274.9,397.9,274.7,401.1z"/>
			<path class="st22" d="M310.7,400.1l1.9,1.2c-1.3,2.3-3.2,4.3-5.8,6.1s-5.1,2.7-7.6,3c-2.5,0.3-4.7-0.2-6.4-1.6
				c-1.7-1.3-2.7-3.2-3-5.7c-0.5-4.6,1.4-9.4,5.8-14.4c4.4-5,9.1-7.8,14-8.3c3.3-0.4,5.1,0.8,5.4,3.3c0.3,2.7-1.1,5.6-4.3,8.7
				c-3.2,3.1-7.8,6.2-13.8,9.1c0.6,1.1,1.4,1.9,2.4,2.5c1,0.5,2,0.8,3,0.6C304.5,404.5,307.3,403,310.7,400.1z M296.3,399.4
				c3.9-1.8,7.2-4,9.8-6.4c2.7-2.4,3.9-4.5,3.7-6.2c-0.1-0.6-0.4-1.2-0.9-1.6c-0.6-0.4-1.2-0.6-1.8-0.6c-2.3,0.3-4.7,2-7.1,5.2
				C297.6,393,296.4,396.2,296.3,399.4z"/>
			<path class="st22" d="M362.1,390.6l1.8,1.2c-1.9,5.5-4.7,8.7-8.3,9.3c-1.5,0.3-2.7,0.1-3.7-0.6s-1.6-1.7-1.8-3
				c-0.2-1.4,0.1-3.8,1.2-7.4c1-3.6,1.4-6.3,1.2-8c-0.1-0.8-0.4-1.4-1.1-1.8c-0.6-0.4-1.4-0.5-2.2-0.4s-1.8,0.5-2.6,1.1
				c-0.8,0.6-1.6,1.4-2.3,2.5c-0.7,1.1-1.3,2.2-1.9,3.2c-0.6,1-1.1,2.4-1.7,4.2c-0.6,1.8-1.1,3.3-1.4,4.5c-0.7,2.2-1.6,5.5-2.8,9.9
				l-4.7-0.8c0-0.1,0.3-3.1,0.9-8.8c0.6-5.7,0.9-9.1,0.7-10.2c-0.2-1-0.6-1.7-1.2-2.1c-0.6-0.4-1.2-0.5-2-0.4
				c-2.2,0.4-4.8,3.7-7.7,10c-2.9,6.2-4.6,11.4-5,15.5l-4.5-0.6c-0.2-2.7,0.1-7.6,0.9-14.8c0.8-7.2,1.8-12.1,2.7-14.8l3.5,0.6
				c-0.9,3.7-1.5,6.8-1.6,9.2c-0.2,2.5-0.2,5.1-0.2,7.8c3.2-6.8,5.9-11.8,8.4-14.7c2.4-3,4.8-4.7,7.1-5.1c2.5-0.5,4,0.6,4.5,3.1
				c0.2,1,0.1,3-0.2,6.1c-0.3,3.1-0.6,5.5-0.8,7.3c4.8-12.2,9.9-18.8,15.3-19.8c1.3-0.2,2.5,0,3.4,0.6c0.9,0.7,1.6,1.8,1.8,3.4
				c0.3,1.6-0.2,4.4-1.3,8.5s-1.7,6.5-1.5,7.5c0.2,1,0.5,1.6,1,2c0.5,0.4,1,0.5,1.6,0.4C359.1,395,360.5,393.4,362.1,390.6z"/>
			<path class="st22" d="M378.2,365.8l0,3c-0.9,0.1-1.9,0.3-3.3,0.7c-4.9,1.2-6.9,3.4-6.1,6.6c0.2,0.7,1.7,2.4,4.4,5.3
				c2.8,2.8,4.3,4.8,4.6,5.9c0.7,2.6,0.3,4.9-1.1,6.8c-1.4,1.9-3.6,3.3-6.6,4c-4.1,1-7.9-0.4-11.6-4.4l2.3-2.7
				c0.8,0.4,1.7,0.8,2.7,1.4c1,0.6,1.7,0.9,2.1,1.1c1.1,0.6,2.3,0.8,3.4,0.5s2-0.9,2.6-1.9s0.8-2.1,0.5-3.3
				c-0.3-1.2-1.9-3.2-4.8-5.9c-2.9-2.7-4.6-4.8-4.9-6.1c-0.6-2.4,0-4.5,1.7-6.2c1.7-1.8,4.2-3.1,7.5-3.9
				C375.1,366,377.2,365.7,378.2,365.8z"/>
		</g>
		<g>
			<g>
				<path class="st21" d="M109.7,392.7c0,0,121.3,45.6,281.2,0"/>
				<path class="st23" d="M170.6,364c-0.6,2.4-2.3,4.3-5,5.7c-2.8,1.4-5.8,2.1-9,2.3c-3.2,0.2-6.2-0.1-9-0.7
					c-0.7-0.2-1.3-0.3-1.6-0.5l0.6-2.5c0.1,0,1.6,0.1,4.4,0.3c2.8,0.2,5.3-0.1,7.5-0.8c2.2-0.7,3.4-1.8,3.8-3.3
					c0.4-1.8-0.7-3-3.3-3.6c-3.6-0.8-7.2-0.4-11,1.3c-3.8,1.7-5.9,3.9-6.6,6.6c-0.6,2.7,0.6,4.8,3.8,6.4c0.7,0.4,1.1,0.7,1.3,0.9
					c0.2,0.3,0.2,0.6,0.1,1.1c-0.1,0.5-0.4,0.8-1,1c-0.5,0.2-1.7,0.4-3.5,0.6c-9.7,1-15.3,4.7-16.9,11.2c-0.3,1.3-0.3,2.5-0.1,3.5
					c3.9-3.1,8.5-5.3,13.8-6.6c5.3-1.3,10.2-1.4,14.6-0.4c2.3,0.5,4,1.5,5.1,2.8c1.1,1.3,1.5,2.9,1.1,4.6c-0.6,2.7-2.6,5.2-5.7,7.3
					c-3.2,2.1-7,3.6-11.4,4.4c-4.4,0.8-8.7,0.7-12.6-0.2c-4-0.9-7-2.4-8.9-4.4c-0.1,0-0.4,0.4-0.9,0.9c-1.4,1.7-2.6,2.9-3.5,3.5
					l-2.2-1.6c0.7-1.3,2.2-3.1,4.5-5.5c-1.6-3.1-2.1-6.2-1.4-9.3c0.7-3.2,2.7-5.9,6-8.1s7.4-3.8,12.4-4.5c-1.8-2.4-2.5-4.7-2-6.8
					c0.7-2.8,2.8-5.3,6.4-7.5c3.6-2.2,7.8-3.7,12.4-4.5c4.7-0.8,8.8-0.8,12.6,0.1c2,0.5,3.4,1.3,4.4,2.4
					C170.6,361.3,170.9,362.6,170.6,364z M148.2,390.1c-2.9-0.7-6.5-0.4-10.9,0.9c-4.4,1.3-8.1,3.2-11.2,5.6c1.4,2.7,4,4.4,7.5,5.3
					c3.6,0.8,7.4,0.5,11.4-1c4-1.5,6.3-3.6,6.9-6.3c0.3-1.1,0-2-0.7-2.8C150.6,391,149.6,390.4,148.2,390.1z"/>
				<path class="st23" d="M170.9,399.8l1.4,1.5c-2.1,2.4-3.9,4-5.3,5s-2.8,1.3-4.3,1.1c-1.5-0.2-2.6-1-3.4-2.4
					c-0.7-1.3-1-2.9-0.7-4.7c0.6-3.5,4.1-10.6,10.5-21.3c6.4-10.7,12.8-20.1,19-28l3,2.3c-6.4,8.6-12.3,17.3-17.7,25.9
					s-8.5,15-9.1,19.1c-0.4,2.3,0.3,3.6,2,3.9C167.7,402.5,169.2,401.7,170.9,399.8z"/>
				<path class="st23" d="M241.3,365.5c1.9,0.1,3.3,0.7,4.3,1.7c1,1.1,1.4,2.5,1.4,4.2c-0.2,3.9-2.7,7.4-7.5,10.6
					c-4.8,3.1-10.2,4.6-16.2,4.3c-2.6-0.1-5.4-0.6-8.2-1.5c-2,3-3.1,6.4-3.3,10c-0.2,3.6,0.7,6.6,2.6,8.9c1.9,2.3,4.8,3.6,8.7,3.7
					c6.9,0.3,11.6-3.5,14.2-11.5l3.5,0.2c-0.8,4.6-3.1,8.7-7.1,12.1c-4,3.4-9.1,5-15.4,4.7c-3.3-0.1-6.3-1.5-9.1-4.1
					c-2.8-2.6-4-6.1-3.8-10.8c0.2-4.6,2.2-9.6,5.9-14.9c-2.5-1.6-4.4-3.6-5.8-5.8l2.1-2.2c0.3,0.4,0.8,0.9,1.4,1.6
					c1.1,1.4,2.6,2.7,4.5,3.7c3.1-4,7.6-7.5,13.4-10.6C232.5,366.8,237.4,365.4,241.3,365.5z M223.2,383.4c4.4,0.2,8.2-0.7,11.6-2.6
					c3.4-1.9,5.2-4.2,5.3-7c0-1-0.3-1.7-0.9-2.3c-0.7-0.6-1.5-0.9-2.6-1c-3.1-0.1-6.5,0.9-10.4,3.2c-3.9,2.3-7,5.1-9.3,8.4
					C218.7,382.8,220.8,383.2,223.2,383.4z"/>
				<path class="st23" d="M271.3,407l1.8,1.4c-2,3.6-4.7,5.4-8.1,5.4c-2.9,0.1-4.4-1.3-4.5-4.2c0-1.7,0.6-4.3,2-8
					c1.4-3.7,2-6.1,2-7.2c0-1.5-1-2.2-2.8-2.1c-1.9,0-4.3,2.1-7.4,6.1c-3.1,4.1-5.7,8.7-7.7,14.1L242,411
					c2.3-13.2,8.8-30.8,19.4-53.1l3.7,1.1c-5.3,11.3-9.1,20.2-11.4,26.8c-2.4,6.9-4.1,12.6-5.3,17.1c3.7-6.5,7-10.9,9.7-13.5
					c2.7-2.5,5.1-3.8,7.2-3.8c3.7-0.1,5.6,1.2,5.7,3.9c0,1.7-0.8,4.6-2.6,8.9c-1.8,4.3-2.6,7.2-2.6,8.6c0,1.4,0.7,2.1,2.1,2.1
					C268.5,409.1,269.7,408.4,271.3,407z"/>
				<path class="st23" d="M289,402.4l1.8,1.2c-1.4,2.3-3.4,4.2-6,5.8s-5.2,2.5-7.7,2.7c-2.6,0.2-4.7-0.4-6.3-1.8
					c-1.7-1.4-2.6-3.3-2.7-5.8c-0.3-4.6,1.8-9.3,6.4-14.1c4.6-4.8,9.4-7.4,14.4-7.7c3.3-0.2,5,1,5.2,3.6c0.2,2.7-1.4,5.6-4.7,8.5
					c-3.3,3-8,5.8-14.2,8.5c0.5,1.1,1.3,2,2.3,2.6c1,0.6,2,0.8,3,0.8C282.6,406.5,285.5,405.1,289,402.4z M274.7,401.1
					c4-1.7,7.3-3.7,10.1-6c2.8-2.3,4.1-4.3,4-6.1c0-0.7-0.3-1.2-0.9-1.7c-0.5-0.5-1.1-0.7-1.8-0.6c-2.4,0.2-4.8,1.8-7.3,4.9
					C276.2,394.7,274.9,397.9,274.7,401.1z"/>
				<path class="st23" d="M310.7,400.1l1.9,1.2c-1.3,2.3-3.2,4.3-5.8,6.1c-2.5,1.7-5.1,2.7-7.6,3c-2.5,0.3-4.7-0.2-6.4-1.6
					c-1.7-1.3-2.7-3.2-3-5.7c-0.5-4.6,1.4-9.4,5.8-14.4c4.4-5,9.1-7.8,14-8.3c3.3-0.4,5.1,0.8,5.4,3.3c0.3,2.7-1.1,5.6-4.3,8.7
					c-3.2,3.1-7.8,6.2-13.8,9.1c0.6,1.1,1.4,1.9,2.4,2.5c1,0.5,2,0.8,3,0.6C304.5,404.5,307.3,402.9,310.7,400.1z M296.3,399.4
					c3.9-1.8,7.2-4,9.8-6.4c2.7-2.4,3.9-4.5,3.7-6.2c-0.1-0.6-0.4-1.2-0.9-1.6c-0.6-0.4-1.2-0.6-1.8-0.6c-2.3,0.3-4.7,2-7.1,5.2
					C297.6,393,296.4,396.2,296.3,399.4z"/>
				<path class="st23" d="M362.1,390.6l1.8,1.2c-1.9,5.5-4.7,8.7-8.3,9.3c-1.5,0.3-2.7,0.1-3.7-0.6c-1-0.7-1.6-1.7-1.8-3
					c-0.2-1.4,0.1-3.8,1.2-7.4s1.4-6.3,1.2-8c-0.1-0.8-0.4-1.4-1.1-1.8s-1.4-0.5-2.2-0.4c-0.9,0.2-1.8,0.5-2.6,1.1
					c-0.8,0.6-1.6,1.4-2.3,2.5c-0.7,1.1-1.3,2.2-1.9,3.2c-0.6,1-1.1,2.4-1.7,4.2s-1.1,3.3-1.4,4.5c-0.7,2.2-1.6,5.5-2.8,9.9
					l-4.7-0.8c0-0.1,0.3-3.1,0.9-8.8c0.6-5.7,0.9-9.1,0.7-10.2c-0.2-1-0.6-1.7-1.1-2.1c-0.6-0.4-1.2-0.5-2-0.4
					c-2.2,0.4-4.8,3.7-7.7,10c-2.9,6.2-4.6,11.4-5,15.5l-4.5-0.6c-0.2-2.7,0.1-7.6,0.9-14.8c0.8-7.2,1.8-12.1,2.7-14.8l3.5,0.6
					c-0.9,3.7-1.5,6.8-1.6,9.2c-0.2,2.5-0.2,5.1-0.2,7.8c3.2-6.8,5.9-11.8,8.4-14.7c2.4-3,4.8-4.7,7.1-5.1c2.5-0.5,4,0.6,4.5,3.1
					c0.2,1,0.1,3-0.2,6.1c-0.3,3.1-0.6,5.5-0.8,7.3c4.8-12.2,9.9-18.8,15.3-19.8c1.3-0.2,2.5,0,3.4,0.6c0.9,0.7,1.6,1.8,1.8,3.4
					c0.3,1.6-0.2,4.4-1.3,8.5s-1.7,6.5-1.5,7.5c0.2,1,0.5,1.6,1,2c0.5,0.4,1,0.5,1.6,0.4C359.1,395,360.5,393.4,362.1,390.6z"/>
				<path class="st23" d="M378.2,365.8l0,3c-0.9,0.1-1.9,0.3-3.3,0.7c-4.9,1.2-6.9,3.4-6.1,6.6c0.2,0.7,1.7,2.4,4.4,5.3
					c2.8,2.8,4.3,4.8,4.6,5.9c0.7,2.6,0.3,4.9-1.1,6.8c-1.4,1.9-3.6,3.3-6.6,4c-4.1,1-7.9-0.4-11.6-4.4l2.3-2.7
					c0.8,0.4,1.7,0.8,2.7,1.4c1,0.6,1.7,0.9,2.1,1.1c1.1,0.6,2.3,0.8,3.4,0.5s2-0.9,2.6-1.9s0.8-2.1,0.5-3.3
					c-0.3-1.2-1.9-3.2-4.8-5.9c-2.9-2.7-4.6-4.8-4.9-6.1c-0.6-2.4,0-4.5,1.7-6.2c1.7-1.8,4.2-3.1,7.5-3.9
					C375.1,366,377.2,365.6,378.2,365.8z"/>
			</g>
			<g>
				<path class="st21" d="M109.4,392.7c0,0,121.3,45.6,281.2,0"/>
				<path class="st13" d="M170.2,364c-0.6,2.4-2.3,4.3-5,5.7c-2.8,1.4-5.8,2.1-9,2.3c-3.2,0.2-6.2-0.1-9-0.7
					c-0.7-0.2-1.3-0.3-1.6-0.5l0.6-2.5c0.1,0,1.6,0.1,4.4,0.3c2.8,0.2,5.3-0.1,7.5-0.8c2.2-0.7,3.4-1.8,3.8-3.3
					c0.4-1.8-0.7-3-3.3-3.6c-3.6-0.8-7.2-0.4-11,1.3c-3.8,1.7-5.9,3.9-6.6,6.6c-0.6,2.7,0.6,4.8,3.8,6.4c0.7,0.4,1.1,0.7,1.3,0.9
					c0.2,0.3,0.2,0.6,0.1,1.1c-0.1,0.5-0.4,0.8-1,1c-0.5,0.2-1.7,0.4-3.5,0.6c-9.7,1-15.3,4.7-16.9,11.2c-0.3,1.3-0.3,2.5-0.1,3.5
					c3.9-3.1,8.5-5.3,13.8-6.6c5.3-1.3,10.2-1.4,14.6-0.4c2.3,0.5,4,1.5,5.1,2.8c1.1,1.3,1.5,2.9,1.1,4.6c-0.6,2.7-2.6,5.2-5.7,7.3
					c-3.2,2.1-7,3.6-11.4,4.4c-4.4,0.8-8.7,0.7-12.6-0.2c-4-0.9-7-2.4-8.9-4.4c-0.1,0-0.4,0.4-0.9,0.9c-1.4,1.7-2.6,2.9-3.5,3.5
					L114,404c0.7-1.3,2.2-3.1,4.5-5.5c-1.6-3.1-2.1-6.2-1.4-9.3c0.7-3.2,2.7-5.9,6-8.1s7.4-3.8,12.4-4.5c-1.8-2.4-2.5-4.7-2-6.8
					c0.7-2.8,2.8-5.3,6.4-7.5c3.6-2.2,7.8-3.7,12.4-4.5c4.7-0.8,8.8-0.8,12.6,0.1c2,0.5,3.4,1.3,4.4,2.4
					C170.2,361.3,170.5,362.6,170.2,364z M147.8,390.1c-2.9-0.7-6.5-0.4-10.9,0.9c-4.4,1.3-8.1,3.2-11.2,5.6c1.4,2.7,4,4.4,7.5,5.3
					c3.6,0.8,7.4,0.5,11.4-1c4-1.5,6.3-3.6,6.9-6.3c0.3-1.1,0-2-0.7-2.8C150.3,391,149.2,390.4,147.8,390.1z"/>
				<path class="st13" d="M170.6,399.8l1.4,1.5c-2.1,2.4-3.9,4-5.3,5s-2.8,1.3-4.3,1.1c-1.5-0.2-2.6-1-3.4-2.4
					c-0.7-1.3-1-2.9-0.7-4.7c0.6-3.5,4.1-10.6,10.5-21.3c6.4-10.7,12.8-20.1,19-28l3,2.3c-6.4,8.6-12.3,17.3-17.7,25.9
					s-8.5,15-9.1,19.1c-0.4,2.3,0.3,3.6,2,3.9C167.3,402.5,168.9,401.7,170.6,399.8z"/>
				<path class="st13" d="M241,365.5c1.9,0.1,3.3,0.7,4.3,1.7c1,1.1,1.4,2.5,1.4,4.2c-0.2,3.9-2.7,7.4-7.5,10.6
					c-4.8,3.1-10.2,4.6-16.2,4.3c-2.6-0.1-5.4-0.6-8.2-1.5c-2,3-3.1,6.4-3.3,10c-0.2,3.6,0.7,6.6,2.6,8.9c1.9,2.3,4.8,3.6,8.7,3.7
					c6.9,0.3,11.6-3.5,14.2-11.5l3.5,0.2c-0.8,4.6-3.1,8.7-7.1,12.1c-4,3.4-9.1,5-15.4,4.7c-3.3-0.1-6.3-1.5-9.1-4.1
					c-2.8-2.6-4-6.1-3.8-10.8c0.2-4.6,2.2-9.6,5.9-14.9c-2.5-1.6-4.4-3.6-5.8-5.8l2.1-2.2c0.3,0.4,0.8,0.9,1.4,1.6
					c1.1,1.4,2.6,2.7,4.5,3.7c3.1-4,7.6-7.5,13.4-10.6C232.2,366.8,237,365.4,241,365.5z M222.8,383.4c4.4,0.2,8.2-0.7,11.6-2.6
					c3.4-1.9,5.2-4.2,5.3-7c0-1-0.3-1.7-0.9-2.3c-0.7-0.6-1.5-0.9-2.6-1c-3.1-0.1-6.5,0.9-10.4,3.2c-3.9,2.3-7,5.1-9.3,8.4
					C218.3,382.8,220.4,383.2,222.8,383.4z"/>
				<path class="st13" d="M270.9,407l1.8,1.4c-2,3.6-4.7,5.4-8.1,5.4c-2.9,0.1-4.4-1.3-4.5-4.2c0-1.7,0.6-4.3,2-8
					c1.4-3.7,2-6.1,2-7.2c0-1.5-1-2.2-2.8-2.1c-1.9,0-4.3,2.1-7.4,6.1c-3.1,4.1-5.7,8.7-7.7,14.1l-4.5-1.5
					c2.3-13.2,8.8-30.8,19.4-53.1l3.7,1.1c-5.3,11.3-9.1,20.2-11.4,26.8c-2.4,6.9-4.1,12.6-5.3,17.1c3.7-6.5,7-10.9,9.7-13.5
					c2.7-2.5,5.1-3.8,7.2-3.8c3.7-0.1,5.6,1.2,5.7,3.9c0,1.7-0.8,4.6-2.6,8.9c-1.8,4.3-2.6,7.2-2.6,8.6c0,1.4,0.7,2.1,2.1,2.1
					C268.1,409.1,269.3,408.4,270.9,407z"/>
				<path class="st13" d="M288.7,402.4l1.8,1.2c-1.4,2.3-3.4,4.2-6,5.8s-5.2,2.5-7.7,2.7c-2.6,0.2-4.7-0.4-6.3-1.8
					c-1.7-1.4-2.6-3.3-2.7-5.8c-0.3-4.6,1.8-9.3,6.4-14.1c4.6-4.8,9.4-7.4,14.4-7.7c3.3-0.2,5,1,5.2,3.6c0.2,2.7-1.4,5.6-4.7,8.5
					c-3.3,3-8,5.8-14.2,8.5c0.5,1.1,1.3,2,2.3,2.6c1,0.6,2,0.8,3,0.8C282.3,406.5,285.1,405.1,288.7,402.4z M274.3,401.1
					c4-1.7,7.3-3.7,10.1-6c2.8-2.3,4.1-4.3,4-6.1c0-0.7-0.3-1.2-0.9-1.7c-0.5-0.5-1.1-0.7-1.8-0.6c-2.4,0.2-4.8,1.8-7.3,4.9
					C275.9,394.7,274.5,397.9,274.3,401.1z"/>
				<path class="st13" d="M310.4,400.1l1.9,1.2c-1.3,2.3-3.2,4.3-5.8,6.1c-2.5,1.7-5.1,2.7-7.6,3c-2.5,0.3-4.7-0.2-6.4-1.6
					c-1.7-1.3-2.7-3.2-3-5.7c-0.5-4.6,1.4-9.4,5.8-14.4c4.4-5,9.1-7.8,14-8.3c3.3-0.4,5.1,0.8,5.4,3.3c0.3,2.7-1.1,5.6-4.3,8.7
					c-3.2,3.1-7.8,6.2-13.8,9.1c0.6,1.1,1.4,1.9,2.4,2.5c1,0.5,2,0.8,3,0.6C304.2,404.5,306.9,402.9,310.4,400.1z M296,399.4
					c3.9-1.8,7.2-4,9.8-6.4c2.7-2.4,3.9-4.5,3.7-6.2c-0.1-0.6-0.4-1.2-0.9-1.6c-0.6-0.4-1.2-0.6-1.8-0.6c-2.3,0.3-4.7,2-7.1,5.2
					C297.2,393,296,396.2,296,399.4z"/>
				<path class="st13" d="M361.8,390.6l1.8,1.2c-1.9,5.5-4.7,8.7-8.3,9.3c-1.5,0.3-2.7,0.1-3.7-0.6c-1-0.7-1.6-1.7-1.8-3
					c-0.2-1.4,0.1-3.8,1.2-7.4s1.4-6.3,1.2-8c-0.1-0.8-0.4-1.4-1.1-1.8s-1.4-0.5-2.2-0.4c-0.9,0.2-1.8,0.5-2.6,1.1
					c-0.8,0.6-1.6,1.4-2.3,2.5c-0.7,1.1-1.3,2.2-1.9,3.2c-0.6,1-1.1,2.4-1.7,4.2s-1.1,3.3-1.4,4.5c-0.7,2.2-1.6,5.5-2.8,9.9
					l-4.7-0.8c0-0.1,0.3-3.1,0.9-8.8c0.6-5.7,0.9-9.1,0.7-10.2c-0.2-1-0.6-1.7-1.1-2.1c-0.6-0.4-1.2-0.5-2-0.4
					c-2.2,0.4-4.8,3.7-7.7,10c-2.9,6.2-4.6,11.4-5,15.5l-4.5-0.6c-0.2-2.7,0.1-7.6,0.9-14.8c0.8-7.2,1.8-12.1,2.7-14.8l3.5,0.6
					c-0.9,3.7-1.5,6.8-1.6,9.2c-0.2,2.5-0.2,5.1-0.2,7.8c3.2-6.8,5.9-11.8,8.4-14.7c2.4-3,4.8-4.7,7.1-5.1c2.5-0.5,4,0.6,4.5,3.1
					c0.2,1,0.1,3-0.2,6.1c-0.3,3.1-0.6,5.5-0.8,7.3c4.8-12.2,9.9-18.8,15.3-19.8c1.3-0.2,2.5,0,3.4,0.6c0.9,0.7,1.6,1.8,1.8,3.4
					c0.3,1.6-0.2,4.4-1.3,8.5s-1.7,6.5-1.5,7.5c0.2,1,0.5,1.6,1,2c0.5,0.4,1,0.5,1.6,0.4C358.7,395,360.2,393.4,361.8,390.6z"/>
				<path class="st13" d="M377.9,365.8l0,3c-0.9,0.1-1.9,0.3-3.3,0.7c-4.9,1.2-6.9,3.4-6.1,6.6c0.2,0.7,1.7,2.4,4.4,5.3
					c2.8,2.8,4.3,4.8,4.6,5.9c0.7,2.6,0.3,4.9-1.1,6.8c-1.4,1.9-3.6,3.3-6.6,4c-4.1,1-7.9-0.4-11.6-4.4l2.3-2.7
					c0.8,0.4,1.7,0.8,2.7,1.4c1,0.6,1.7,0.9,2.1,1.1c1.1,0.6,2.3,0.8,3.4,0.5s2-0.9,2.6-1.9s0.8-2.1,0.5-3.3
					c-0.3-1.2-1.9-3.2-4.8-5.9c-2.9-2.7-4.6-4.8-4.9-6.1c-0.6-2.4,0-4.5,1.7-6.2c1.7-1.8,4.2-3.1,7.5-3.9
					C374.7,366,376.9,365.6,377.9,365.8z"/>
			</g>
		</g>
	</g>
	<g>
	</g>
	<g>
	</g>
	<g>
	</g>
	<g>
	</g>
	<g>
	</g>
	<g>
	</g>
	<g>
	</g>
	<g>
	</g>
	<g>
	</g>
	<g>
	</g>
	<g>
	</g>
	<g>
	</g>
	<g>
	</g>
	<g>
	</g>
	<g>
	</g>
</g>
</svg>
