<svg xmlns="http://www.w3.org/2000/svg" xmlns:xlink="http://www.w3.org/1999/xlink" viewBox="0 0 500 500"><defs><style>.cls-1,.cls-10{fill:none;}.cls-2{fill:#273b5b;}.cls-3,.cls-4{fill:#d59a4e;}.cls-10,.cls-3{stroke:#000;}.cls-10,.cls-22,.cls-23,.cls-3{stroke-miterlimit:10;}.cls-3{stroke-width:9px;}.cls-5{fill:#e1be92;}.cls-6{fill:#bb8547;}.cls-7{fill:#e9d4b5;}.cls-8{fill:#ffd300;}.cls-9{fill:#774407;}.cls-10{stroke-width:1.12px;}.cls-11{fill:#f29f05;}.cls-12{fill:#aa6707;}.cls-13{fill:#ffea94;}.cls-14,.cls-24{fill:#fefdff;}.cls-15{fill:#edecc8;}.cls-16{fill:#d84821;}.cls-17{fill:#3a1f04;}.cls-18{fill:#ad321e;}.cls-19{clip-path:url(#clip-path);}.cls-20{clip-path:url(#clip-path-2);}.cls-21,.cls-23{fill:#ef5722;}.cls-22,.cls-23,.cls-24{font-size:75.32px;font-family:MarckScript-Regular, Marck Script;}.cls-22{fill:#381f03;stroke:#381f03;stroke-width:2.25px;}.cls-23{stroke:#ef5722;stroke-width:4.5px;}</style><clipPath id="clip-path"><path class="cls-1" d="M376.69,328.23s-3.51,11.62,35.18,7.44c0,0-8.74,17.83-33.71,19.79C378.16,355.46,375.11,335.6,376.69,328.23Z"/></clipPath><clipPath id="clip-path-2"><path class="cls-1" d="M123.31,328.23s3.51,11.62-35.18,7.44c0,0,8.74,17.83,33.71,19.79C121.84,355.46,124.89,335.6,123.31,328.23Z"/></clipPath></defs><title>Recurso 1</title><g id="Capa_2" data-name="Capa 2"><g id="OBJECTS"><rect class="cls-2" width="500" height="500"/><path class="cls-3" d="M172.38,116.52s8.25,2.42,6.31,11.12-1.94,15-1,18.85,1.45,16.91,0,23.68,3.4,30.45,3.4,38.19,0,21.26-.49,25.61-1.46,11.6-.48,13.05c0,0-9,6.53-12.14,6.77-2.9.22-9.7,3.87-14.56,4.35s-19.16,5.08-20.62,8.94-2.43,5.32.49,6.77,8.25,0,9.22,1,5.33,1.45,7.76-.49,12.62-5.8,18-5.8,6.3-4.35,10.67-3.86,1.46,19.33-7.76,21.26c-5.83,2.9-9.71,1.45-12.62,2.9s-8.25,2.42-10.19,2.9-4.85,2.42-6.31,2.42-6.31.48-7.76,1.93-4.37,4.84-3.89,7.25,2.43,7.74,5.83,9.67,1,4.84,2.42,5.8,3.89,3.39,6.8,3.87,17,1.93,22.32-3.38S189.12,299,193,292.7s11.16-1.93,16-.48,10.68.48,16.5-.49,12.13,3.39,20.38,1.94,9.71,2.9,9.71,2.9.48,9.66,1.45,13.05-3.39,7.73-3.39,11.6,2.42,12.57-1.95,19.82-8.73,11.11-8.25,15,2.43,2.42,2.43,2.42,0,2.9,5.34,2.41a7.44,7.44,0,0,0,3.88,1c2.43,0,5.82-1.93,5.82-1.93s1.46,1.93,3.89,0,5.82-4.84,9.7-5.32,2.43-14,3.88-16.43,1-8.22,3.89-11.6-3.89-7.74-1.94-17.89,5.82-16.92,11.64-18.85,26.21-13.53,29.12-15.47,20.87-14.5,23.29-17.88,39.8-40.6,20.39-77.82-9.71-42.53-30.09-63.8c0,0-14.49-13.32-22.33-18.37-8.25-5.32-14.16-15.59-15.52-19.33A28.08,28.08,0,0,0,291,67c-2.42-2.9-1-2.42-4.37-7.74-2.77-4.33-3.88-6.76-7.76-10.63-3.38-3.37-9.71-11.12-17.47-11.12s-18-2.42-29.6-3.38c-11.14-.93-12.62-1.94-20.87-1.94h-8.25s-5.82-5.8-12.13-3.86-4.85,11.11-4.85,11.11-13.59,11.12-16.5,22.24-.49,19.82-3.89,23.2-17,13-15,19.33S158.55,117.73,172.38,116.52Z"/><path class="cls-4" d="M344.41,256.45C342,259.83,324,272.4,321.12,274.34S297.83,287.87,292,289.8s-9.7,8.7-11.64,18.85,4.85,14.5,1.94,17.89-2.43,9.18-3.89,11.6,0,15.94-3.88,16.43-7.28,3.38-9.7,5.31-3.88,0-3.88,0-3.4,1.94-5.83,1.94a7.49,7.49,0,0,1-3.88-1c-5.34.49-5.34-2.41-5.34-2.41s-1.94,1.44-2.42-2.42,3.88-7.74,8.24-15,1.94-16,1.94-19.82,4.37-8.22,3.4-11.6-1.45-13.05-1.45-13.05-1.46-4.35-9.71-2.9-14.56-2.9-20.38-1.93-11.65,1.93-16.5.48-12.14-5.8-16,.48S173.11,314,167.77,319.28s-19.41,3.87-22.32,3.39-5.34-2.9-6.8-3.87,1-3.86-2.42-5.8-5.34-7.25-5.83-9.66,2.43-5.8,3.89-7.26,6.3-1.93,7.76-1.93,4.37-1.93,6.31-2.41,7.28-1.46,10.19-2.91,6.79,0,12.62-2.89c9.22-1.94,12.13-20.79,7.76-21.27s-5.34,3.87-10.67,3.87-15.54,3.86-18,5.8-6.79,1.44-7.77.48-6.3.48-9.22-1-1.94-2.9-.48-6.77,15.77-8.46,20.63-8.94S165.11,254,168,253.79c3.16-.24,12.14-6.77,12.14-6.77-1-1.44,0-8.69.48-13s.48-17.89.48-25.62-4.85-31.42-3.39-38.19,1-19.81,0-23.68-1-10.16,1-18.85-6.31-11.12-6.31-11.12c-13.83,1.21-20.14-6-22.08-12.32s11.65-16,15-19.34,1-12.08,3.89-23.2,16.5-22.23,16.5-22.23-1.46-9.19,4.85-11.12,12.13,3.87,12.13,3.87H211c8.25,0,9.73,1,20.87,1.93,11.65,1,21.83,3.38,29.6,3.38s14.09,7.75,17.47,11.12c3.88,3.87,5,6.3,7.76,10.63,3.4,5.32,1.94,4.84,4.38,7.74a28.11,28.11,0,0,1,5.82,10.14c1.36,3.75,7.27,14,15.53,19.34,7.83,5.05,22.32,18.37,22.32,18.37,20.38,21.26,10.67,26.58,30.09,63.8S346.84,253.07,344.41,256.45Z"/><path class="cls-5" d="M260.41,259.88s2.33-8.35,2-21.31,8.74-37.22,18.93-43,9.7-13.05,8.73-21.75-25.23,6.76-30.09-1.45,9.22-18.37,2.43-20.79-25.72,5.32-34-1.93,0-14,1.46-22.72,13.58-10.15,15.53-26.1S237.65,89.69,228,76.64s-32,9.19-39.8,15c-4.63,3.46-22.41,11.05-36,16.62,3.1,4.93,9.32,9.22,20.21,8.27,0,0,8.25,2.42,6.31,11.12s-1.94,15-1,18.85,1.45,16.91,0,23.68,3.21,29.57,3.39,37.73a45.75,45.75,0,0,1,5.1-6.07c11.16-11.12,6.56-.21,15.53,7.25,9.46,7.88,12.16,13.57,13.13,24.58.53,5.92-7.42,28.45-9.2,38.52-.31,1.74,25.5-9.66,33.57-11.89C243.44,259.13,259.88,259.84,260.41,259.88Z"/><path d="M156.12,96.46s-3.88.48-4.36,3.38-1.95,2.9-1,5.32,2.91,4.35,5.82,4.35,3.4,1.93,6.31,1,16-7.74,6.79-11.6C165.83,96.46,156.12,96.46,156.12,96.46Z"/><path d="M169.39,64.14c.91.35,5.17,2.13,5.17,4.29a5.62,5.62,0,0,1-4.36,4.35c-2.43,1-2.43-.49-2.43-.49s.8-6.76,1.31-8A.24.24,0,0,1,169.39,64.14Z"/><path class="cls-6" d="M242.36,47.46a.51.51,0,0,1-.08-.68c1.31-1.83,7.32-9.66,13.33-8.8,6.79,1,9.7,3.38,11.64,8.21s3.32,14.87.28,22.54a.52.52,0,0,1-.82.19Z"/><path d="M145.31,322.76s-3.4,1.93-3.89,3.87c0,0,2.92,1,4.37.48S145.79,322.76,145.31,322.76Z"/><path class="cls-6" d="M330.1,124.88c-2.76,4.07-16.43,23.6-28.76,29.74a.13.13,0,1,0,.11.24c6.45-2.32,22.94-10,28.9-29.86A.14.14,0,0,0,330.1,124.88Z"/><path class="cls-6" d="M341.24,134.21a0,0,0,0,0-.09,0c-1.13,2.64-10.38,24.2-14.93,28.73-4,3.93-2.12,11.07-1.3,13.59a.23.23,0,0,0,.44,0c.31-2.42,1.24-8.8,2.8-11.12C330.08,162.47,340.56,143.5,341.24,134.21Z"/><path class="cls-6" d="M192.44,121.86c5.34-1.45,7.28-7.25,9.22-9.19s6.31-.48,11.65-4.35-2.91-7.73-4.85-8.7-6.31,2.42-8.74,5.8-14.56,13-23.29,9.19c-7.14-3.16-15.56-1.16-18.41-.32,3.48,2.07,8.22,3.28,14.53,2.73,0,0,4.53,1.34,6.08,5.57l1.19.23C189.53,124.76,187.1,123.31,192.44,121.86Z"/><path class="cls-6" d="M367,183.69a49.47,49.47,0,0,0-2.09-4.54c-2.37-4.56-4.31-8.64-5.92-12.33-3.76,7.44-8.61,18.37-10,27.63a.92.92,0,0,0,1.49.85A145.69,145.69,0,0,1,367,183.69Z"/><path class="cls-6" d="M334.45,232.47a.89.89,0,0,0-1.15-1.24c-4.73,2.15-15.37,6.4-17.62,2.3s-1.32-18.51-1-22.29c0-.05-.08-.06-.08,0-.67,3.69-3.64,17.68-11.26,24a4.57,4.57,0,0,0-1.64,3.6c.14,8.5,0,37.37-7.82,48.85-.63.93-1.16,1.83-1.67,2.65,5.85-2,26.18-13.53,29.09-15.46,1.1-.73,4.34-3,8.08-5.66l-14.88-20.31a1.85,1.85,0,0,1,1-2.89C320.15,244.76,329.59,241.27,334.45,232.47Z"/><path d="M146.9,270.47s-3.39,1.93-3.39,2.9,3.88-.49,3.88-.49A2.52,2.52,0,0,0,146.9,270.47Z"/><path class="cls-6" d="M186,285.69c6.79-9.18-4.85-58.2-5.23-52.93,1.82,8.93-.3,27.44.62,33.84,1,6.77-4.85,19.82-6.8,21.75s-5.82,3.38-8.25,7.73-5.33,5.32-9.22,6.77-5.82,4.83-10.19,6.28c-3,1-6.9,3.81-9.06,5.48,0,.1.09.21.13.31,6.87-3.43,17-3.92,22.76-7.48C167,303.58,179.17,294.88,186,285.69Z"/><path d="M171.67,117.1c3-.2,6-.43,9-.73,1.5-.14,3-.31,4.49-.52.37,0,.74-.1,1.11-.17s.74-.12,1.11-.2a10,10,0,0,0,1.08-.26,6.79,6.79,0,0,0,1-.41,43.61,43.61,0,0,0,3.89-2.26l3.8-2.46c1.27-.81,2.54-1.63,3.87-2.36a7.78,7.78,0,0,1,2.14-.88,2.81,2.81,0,0,1,.59,0l.57,0,1.13.09a.13.13,0,0,1,.12.14.13.13,0,0,1-.14.13l-1.13-.08-.57,0a2.38,2.38,0,0,0-.53,0,7.46,7.46,0,0,0-2,.86c-1.31.73-2.57,1.56-3.83,2.39l-3.78,2.49a42.43,42.43,0,0,1-3.91,2.33,7.39,7.39,0,0,1-1.08.44c-.37.1-.74.21-1.12.28l-1.12.22-1.12.18c-1.5.22-3,.4-4.51.56-3,.33-6,.59-9,.81a.3.3,0,0,1-.33-.28.3.3,0,0,1,.28-.32Z"/><path d="M197.12,74a.26.26,0,0,1,0-.47c1.75-.75,7.79-3.25,10.68-3.66,3.06-.44,11.65.3,14,1.16a.27.27,0,0,1,0,.5,6.37,6.37,0,0,0-1.9,1.24c-1,1-3.88,3.38-5.34,3.86s-9.22.49-11.64,0A23.27,23.27,0,0,1,197.12,74Z"/><path class="cls-7" d="M206.92,72.9s-1.75.38-2,.8,2,.67,2,.67Z"/><path d="M213,73.46a3.17,3.17,0,1,1-3.15-2.9A3,3,0,0,1,213,73.46Z"/><path class="cls-8" d="M366.74,189s11.83-3.64,22.72-2.5,16.83,7.17,23.09,20.15,12.59,32.88,16,44.7,7.44,35.39,2.37,44.56-19.5,19.12-23,20.88-9.25-2.42-11.73-8.62-3-13.94-1.67-15.23,11.77-1.51,14.94-9.4-1.75-29.89-5.85-43.87-7.77-24.74-15.26-23.91-9.92,2.1-9.92,2.1-12,.7-15.18-8.72-.37-14.13.49-16.24S365,189.45,366.74,189Z"/><path class="cls-9" d="M388.77,191.8a5.81,5.81,0,0,1,3.56-.89,9.48,9.48,0,0,1,3.59,1.13,19.58,19.58,0,0,1,5.52,5.05,58.63,58.63,0,0,1,7.09,13.09,272.92,272.92,0,0,1,9.45,28c2.66,9.49,5.11,19,6.85,28.76.21,1.22.43,2.44.57,3.68a27.52,27.52,0,0,1,.31,3.77c0,2.46-.08,4.93-.25,7.4a52.12,52.12,0,0,1-1,7.36,27.57,27.57,0,0,1-1.05,3.57A17.84,17.84,0,0,1,421.7,296a21.92,21.92,0,0,0,2.16-7,52.22,52.22,0,0,0,.5-7.29c0-2.45,0-4.89-.12-7.34a33.59,33.59,0,0,0-.44-3.56c-.19-1.19-.44-2.39-.69-3.58q-1.56-7.17-3.42-14.29c-1.24-4.74-2.5-9.48-3.87-14.19-2.67-9.43-5.55-18.81-8.92-28a63.24,63.24,0,0,0-6.34-13.08,18.66,18.66,0,0,0-4.94-5.19,9.14,9.14,0,0,0-3.32-1.3A5.7,5.7,0,0,0,388.77,191.8Z"/><path class="cls-10" d="M390.8,202.49s4.71-.13,8.42,8.09"/><path class="cls-11" d="M394.37,302.07s19.38-10.28,22.51-22.32-2.07-30.28-7.15-47.18-8.07-26.49-17.47-31.79-29.83,5.7-29.83,5.7.55,11.6,15.95,11.35c0,0,7.7-2.3,11.16-2.12s6.77,3.44,9.68,12.24,6.73,20.42,8.4,28.86c1.73,8.75,3.17,21.49,2.48,24.09s-3.22,7.68-8.31,9.57c-6.47,2.41-7.63,1.83-7.83,3.56A31.57,31.57,0,0,0,394.37,302.07Z"/><path class="cls-12" d="M374.16,217.51s11-5.75,16.64-4.56,7.78,5.72,10.44,12,6.91,22.33,8.9,31.77,3.33,19.93,2.4,23.66-4.19,6.56-7.74,8.46c0,0,6.29-3.88,5.22-15s-5.35-28.94-7.17-34.62-4.57-14.5-5.88-16.8-4.38-7-7.43-6.66a68.61,68.61,0,0,0-11.16,2.12A9.6,9.6,0,0,1,374.16,217.51Z"/><path class="cls-13" d="M366.27,198.75s8.89-3.13,14.2-3.6,12.45-.71,16.49,2.38,7.62,10,8.8,13.05c0,0,.84,1.88-.71,2.77s-2.38-1.31-2.86-2.14-3.71-9.59-8.69-11.88-19,.32-23.7,1.88-5.79.56-5.55-.43A2.64,2.64,0,0,1,366.27,198.75Z"/><path class="cls-13" d="M379.12,190.05c-3,.15-5,1.17-5,2.6s3.85.36,6.31,0S383.64,189.83,379.12,190.05Z"/><path class="cls-13" d="M417.83,286.86c-1.06,4.3-5.48,7.61-10.32,11.14s-8.59,7.07-6.82,9.15,10.87-5.41,15.24-10.14,6.36-9.69,6.14-14.38S419.33,280.79,417.83,286.86Z"/><path class="cls-9" d="M371,195.89a7.18,7.18,0,0,1,2.13-1.48,10.37,10.37,0,0,1,4.84-1,6.41,6.41,0,0,1,2.54.65,12,12,0,0,1-2.29,1.11,16,16,0,0,1-2.29.64,14.47,14.47,0,0,1-2.38.29A9.46,9.46,0,0,1,371,195.89Z"/><path class="cls-9" d="M419.42,264.77a6.38,6.38,0,0,1,1.24,2.41,9.62,9.62,0,0,1,.38,2.6,9.24,9.24,0,0,1-.36,2.61,6.28,6.28,0,0,1-1.26,2.41,14.51,14.51,0,0,1-.5-2.57c-.08-.83-.13-1.63-.13-2.44a22.51,22.51,0,0,1,.12-2.44A13.51,13.51,0,0,1,419.42,264.77Z"/><path class="cls-9" d="M431.63,265.39a63,63,0,0,1,2.68,15.72,47.64,47.64,0,0,1-.37,8.08,26.27,26.27,0,0,1-2.43,7.88,28.57,28.57,0,0,1-4.9,6.57,49.21,49.21,0,0,1-6.05,5.33,70.91,70.91,0,0,1-13.68,8.19,141.26,141.26,0,0,0,12.57-9.55c1-.84,1.94-1.75,2.91-2.62s1.85-1.82,2.69-2.8a27.61,27.61,0,0,0,4.46-6.16c2.33-4.43,2.87-9.73,3.05-14.9A112.68,112.68,0,0,0,431.63,265.39Z"/><path class="cls-9" d="M370.3,188.05a50.08,50.08,0,0,1,13.48-2.79,40,40,0,0,1,7,.15,25.3,25.3,0,0,1,6.88,1.91A29.36,29.36,0,0,1,407.88,197a43.76,43.76,0,0,1,6,12.42A73.56,73.56,0,0,0,406.47,198a44.68,44.68,0,0,0-4.52-4.89,23.57,23.57,0,0,0-5.26-3.77,24.35,24.35,0,0,0-6.21-1.83,50.4,50.4,0,0,0-6.65-.5A93.94,93.94,0,0,0,370.3,188.05Z"/><path class="cls-10" d="M267.09,208.88s-7.72-6.13-14.11,3.19"/><path class="cls-8" d="M366.43,159.72l6.47,22.51s28.64,95.3,31.88,105.46,6.93,30.68,6.93,30.68,7.41.74,8.77,10c2.59,17.53-24.75,42.3-64.94,57.33s-110.28,15-90.56-25.09c0,0-28-87.7-36.81-120.18s-9.59-37.55-9.59-37.55,30.89-20.77,63.9-32.48S366.43,159.72,366.43,159.72Z"/><path class="cls-11" d="M341.77,359.1c-11.21,3.57-42.77,14.38-48.21,20.74s-14,13.31,4.07,15.26,48.22-5.16,67.42-13.26,47.79-26.16,52.42-41-5.37-14.3-9.32-14.58-4.69,15.43-13.14,19.65S356.48,354.43,341.77,359.1Z"/><path class="cls-12" d="M382.41,351.83a253.26,253.26,0,0,1-37.83,17.55c-18.28,6.5-36.73,10.49-41.73,10.93s-14.6,6.93-8.07,10.76,27.14.16,47.55-7,27.47-11.79,27.47-11.79,10.26,2.12,21.09-5.1,20.17-13.31,22.39-20.53-5.71-6.83-9.55-3.73S391.46,354.67,388,357.29,388.9,348.34,382.41,351.83Z"/><path class="cls-11" d="M225.24,205.79s20.23,65,30.35,99.58,15.37,56,18.06,52.88c7.73-9.05,43.89-24.36,72.38-33.95s60-6.15,59.73-10.41-28.75-106-36.47-129.13-9.33-25-9.33-25-40.73-1.32-77.48,10.66-58,28.71-58,28.71A16.71,16.71,0,0,0,225.24,205.79Z"/><path class="cls-13" d="M312.09,205.85l30.24,89.83s1.63,9.33,8.29,8.94L313.34,191.71S306.27,193.3,312.09,205.85Z"/><path class="cls-8" d="M411.71,318.37s-22.17,2.13-30.11-13.75-41.36-138.07-41.36-138.07,17.83-7.92,26.19-6.83Z"/><path class="cls-11" d="M361.72,184.19s17.2,49.19,23,68.42,14.11,43.38,12.75,49.46c0,0-2.34,2.93-10-20.9S354.14,179.6,354.14,179.6,356.1,172.39,361.72,184.19Z"/><path class="cls-12" d="M312.09,205.85s4.63,10.73,5.75,17.2.82,13.93-5.75,22.89-16.56,24.91-24.25,22.91c0,0,12.53,44.66,21.08,51.19s47.05-2.19,58.42,0,9.55,5.66,0,7.59-10.76,2-13.89,3.46-.38,4,20.65,0,28-4.43,28.81,2.18-2.48,5.05-9.41,5-74.91,20-95.87,34S290,386.47,290,386.47s-14.95,5.93-18.37-5.33,20.09-23.75,26-27.21,9.4-10.51,0-5.09S267,366.79,265,360.59s-28.81-95.53-44.89-151.1c0,0,45.73-24.56,82.76-37.36S371,190,371,190s.64,1.93,2.07,6.7-14.13,2.38-14.39-1.79.31,11-4.49,14.62-13.24,6.93-16.95,6.49-8.09-2.56-10.17-5.71-4.5,1.82-9.18,0S312.09,205.85,312.09,205.85Z"/><path class="cls-11" d="M265.22,309.75l9.43,30.42s-.34,5.44-2.15,1.82-9.42-27.8-9.42-27.8l2.14-6.93Z"/><path class="cls-14" d="M371,190s-.33,3.2-9.92,1.34-3.58-3.62-14.17-4.28-8.46-5.74-11.66-3.87-3.52,5.49-8.15,10.74-12.88,3.65-21.67,2.58-6.39,7.46-13.31,8.26-9.05-4.53-14.38-2.4-1.86,2.93-8.52,4.26-11.72.27-14.64,6.12-4.26,8.26-13.05,8.79-7.34-.65-10.73,2.07l-5-16.08s-2.06-4.72-1.29-8.4,8-8.51,21-16.35,35.93-16.62,56.7-20.88,54.05-5.33,55.51-5.33,3.05,4.29,4.79,8.95S371,190,371,190Z"/><path class="cls-15" d="M312.81,197.35s10,2.54,14.24-3.46,5.16-9.06,7.89-9.7,6.3,6.62,10.95,5.85,4.36-1.32,8.25,0,6.63,3.87,12.17,3.33,4.86-2.77,3.26-7.47l-4.72-13.77s4.57,13.48-1.3,14.52-10.19-3.14-12.93-4.4-8,.19-10.38-1.21-5.53-3.4-8.63-1.44-4.83,10.44-8.67,11.48-10.55,1.23-16.31,1.23a7.92,7.92,0,0,0-8.22,7s3.23-3.11,7-2.86S312.81,197.35,312.81,197.35Z"/><path class="cls-9" d="M271.62,365.81a143.6,143.6,0,0,1,14.2-10.69c5-3.23,10.06-6.32,15.31-9.09a213.09,213.09,0,0,1,32.67-14.19,215.44,215.44,0,0,1,34.52-8.71c2.94-.47,5.84-1.11,8.8-1.35l8.86-.94c2.94-.37,5.91-.36,8.87-.5s5.92-.22,8.88-.3q-4.43.48-8.83.89c-2.94.31-5.89.47-8.81,1-5.83.9-11.69,1.61-17.45,2.91l-4.33.88c-1.44.3-2.9.52-4.32.92l-8.57,2.18c-2.87.65-5.66,1.61-8.49,2.44s-5.65,1.64-8.41,2.7l-8.33,2.93L318,340.21c-5.43,2.29-10.8,4.72-16.06,7.37A208.31,208.31,0,0,0,271.62,365.81Z"/><path class="cls-9" d="M276.41,373.54a65.59,65.59,0,0,1,9.61-9.31,91.72,91.72,0,0,1,11-7.63c1-.59,1.94-1.12,2.93-1.65s1.95-1.09,3-1.56c2-.95,4-2,6.12-2.75a74.4,74.4,0,0,1,12.77-4c-4.06,1.86-8.12,3.58-12,5.59s-7.81,4.05-11.59,6.29-7.49,4.62-11.13,7.1S279.88,370.75,276.41,373.54Z"/><path class="cls-9" d="M327,344.11a10.68,10.68,0,0,1,2.31-1.93,16.8,16.8,0,0,1,2.57-1.31,15.27,15.27,0,0,1,2.77-.83,9.1,9.1,0,0,1,3-.16,13.26,13.26,0,0,1-2.38,1.81,19.66,19.66,0,0,1-2.56,1.27,18.5,18.5,0,0,1-2.74.85A11.13,11.13,0,0,1,327,344.11Z"/><path class="cls-9" d="M285.59,382a2.84,2.84,0,0,1,0-2,8.27,8.27,0,0,1,.84-1.9c.4-.55.78-1.14,1.23-1.66l1.4-1.52c1-.91,2-1.89,3.12-2.69l1.64-1.26c.55-.41,1.13-.77,1.69-1.16,2.26-1.58,4.65-2.9,7-4.28s4.82-2.61,7.3-3.75a315.06,315.06,0,0,1,30.32-12.41,273.53,273.53,0,0,1,31.43-9.25,121.4,121.4,0,0,1,16.22-2.57,55,55,0,0,1,8.22-.07,24.49,24.49,0,0,1,4.08.6,8.27,8.27,0,0,1,3.66,1.79,8.16,8.16,0,0,0-3.74-1.46,25.78,25.78,0,0,0-4-.34,54.71,54.71,0,0,0-8.08.58A139.67,139.67,0,0,0,372,341.84c-5.25,1.36-10.48,2.83-15.65,4.48s-10.33,3.35-15.44,5.18-10.22,3.7-15.28,5.66c-2.55.94-5.06,2-7.57,3s-5,2.1-7.48,3.2a131.13,131.13,0,0,0-14.47,7.37c-.58.35-1.17.67-1.74,1l-1.67,1.14c-1.15.72-2.16,1.62-3.23,2.44l-1.45,1.4c-.47.48-.87,1-1.3,1.54a8.59,8.59,0,0,0-1,1.76A2.76,2.76,0,0,0,285.59,382Z"/><path class="cls-9" d="M297.63,384.07a180.9,180.9,0,0,0,24.95-4.39q6.15-1.49,12.2-3.31l6-1.88,6-2.11c2-.65,3.94-1.49,5.91-2.25s3.94-1.5,5.85-2.39l5.79-2.53c1-.4,1.91-.91,2.86-1.36l2.84-1.38c3.84-1.77,7.5-3.86,11.24-5.85,1.9-.94,3.68-2.08,5.51-3.15s3.64-2.15,5.49-3.21q-2.56,1.89-5.17,3.71c-1.75,1.21-3.44,2.51-5.27,3.6-3.62,2.22-7.2,4.53-11,6.46a172.39,172.39,0,0,1-23.29,10.46,167.74,167.74,0,0,1-24.59,6.9A122.69,122.69,0,0,1,297.63,384.07Z"/><path class="cls-9" d="M413.24,334.29a18.5,18.5,0,0,1-1.82,6.38A36.55,36.55,0,0,1,408,346.4a53.49,53.49,0,0,1-9.19,9.64l-1.28,1.07-1.33,1-2.67,2c-1.85,1.21-3.69,2.44-5.6,3.55s-3.86,2.14-5.83,3.11-4,1.82-6.06,2.64c1.82-1.26,3.67-2.43,5.51-3.6l5.44-3.63,5.3-3.79,2.56-2,1.29-1,1.23-1.06c.82-.7,1.66-1.38,2.47-2.09l2.36-2.21c1.54-1.5,3-3.06,4.42-4.7a46.22,46.22,0,0,0,3.85-5.17A23.56,23.56,0,0,0,413.24,334.29Z"/><path class="cls-9" d="M367.34,196q4.73,12.19,9,24.54c1.43,4.12,2.85,8.23,4.16,12.41s2.48,8.36,3.69,12.55,2.42,8.37,3.59,12.56,2.36,8.38,3.5,12.58q3.45,12.6,6.66,25.27l0-.06a9.44,9.44,0,0,1,.5,3.16,10.74,10.74,0,0,1-.48,3.1,11,11,0,0,1-1.34,2.81c-.26.44-.62.82-.92,1.23s-.7.75-1.05,1.12c.31-.41.64-.79.94-1.21a13.09,13.09,0,0,0,.79-1.29,11.85,11.85,0,0,0,1.08-2.79,9.8,9.8,0,0,0,.25-3,8.72,8.72,0,0,0-.63-2.81v0l0,0q-4-12.43-7.69-25-1.87-6.26-3.68-12.54t-3.59-12.56l-3.51-12.56L374.8,221C372.25,212.71,369.74,204.37,367.34,196Z"/><path class="cls-9" d="M388.77,309.22a6.24,6.24,0,0,1-1.85,1.39,8.85,8.85,0,0,1-2,.72,8.24,8.24,0,0,1-2.17.17,4.63,4.63,0,0,1-2.25-.64,11.16,11.16,0,0,1,2-1.1,11,11,0,0,1,2-.63,10.3,10.3,0,0,1,2.09-.24A7.51,7.51,0,0,1,388.77,309.22Z"/><path class="cls-9" d="M332.35,212.07q5,13.22,9.58,26.55c3.09,8.88,6.05,17.8,9,26.74s5.77,17.9,8.52,26.9q2.07,6.74,4.07,13.52l.24.85.12.42c.05.13.1.23.15.35a3.92,3.92,0,0,0,.94,1.27,10.18,10.18,0,0,0,2.86,1.82,20.94,20.94,0,0,0,3.28,1.16,15.08,15.08,0,0,0,3.45.63,19.19,19.19,0,0,1-7-1.24,11,11,0,0,1-3.2-1.73,5.08,5.08,0,0,1-1.24-1.47c-.08-.15-.16-.3-.23-.45l-.15-.41-.3-.83c-1.58-4.42-3.16-8.86-4.69-13.3-3.08-8.89-6-17.82-9-26.76s-5.77-17.91-8.52-26.91S334.85,221.15,332.35,212.07Z"/><path class="cls-9" d="M317.84,204.16q5.22,13.91,10,27.94c3.24,9.35,6.35,18.74,9.44,28.13s6.07,18.83,9,28.28q2.19,7.08,4.29,14.2a40.3,40.3,0,0,1,1.61,7.29,14.79,14.79,0,0,1-.09,3.76,7.6,7.6,0,0,1-1.48,3.4,7.36,7.36,0,0,0,1.14-3.45,13.81,13.81,0,0,0-.17-3.63,39,39,0,0,0-2.07-7.06q-2.49-7-4.91-14c-3.24-9.35-6.35-18.73-9.44-28.12s-6.06-18.82-9-28.27S320.5,213.7,317.84,204.16Z"/><path class="cls-9" d="M299.12,259.12c2.78,5.82,5.35,11.72,7.85,17.65s4.9,11.89,7.26,17.87,4.63,12,6.81,18.06l.82,2.27.41,1.14a10.51,10.51,0,0,0,.41,1.07,6.73,6.73,0,0,0,3.1,3,16.17,16.17,0,0,0,4.4,1.59,21.65,21.65,0,0,0,4.76.55,18.81,18.81,0,0,1-4.86.07,16.32,16.32,0,0,1-4.79-1.22,7.93,7.93,0,0,1-3.92-3.34,7.74,7.74,0,0,1-.54-1.14l-.47-1.11-.94-2.22c-2.51-5.93-4.9-11.9-7.27-17.89s-4.62-12-6.8-18.08S301,265.28,299.12,259.12Z"/><path class="cls-9" d="M341.77,320a2.5,2.5,0,0,1,.8-.88,1.48,1.48,0,0,1,.79-.24,1.42,1.42,0,0,1,.79.24,2.32,2.32,0,0,1,.79.88,2.44,2.44,0,0,1-.79.89,1.4,1.4,0,0,1-1.58,0A2.33,2.33,0,0,1,341.77,320Z"/><path class="cls-9" d="M292.35,258.26q4.36,10.89,8.34,21.93c2.67,7.35,5.22,14.74,7.75,22.14l3.7,11.13c1.2,3.62,2.6,7.62,1.95,11.84a10,10,0,0,1-1,3,8.37,8.37,0,0,1-2,2.51,13,13,0,0,1-2.59,1.68c-.88.47-1.78.88-2.68,1.27a110.67,110.67,0,0,1-11.08,3.95c3.58-1.59,7.17-3.13,10.61-4.94.85-.45,1.71-.9,2.52-1.4a11,11,0,0,0,2.22-1.65,7.35,7.35,0,0,0,1.53-2.14,8.23,8.23,0,0,0,.69-2.56,11.78,11.78,0,0,0,0-2.72,22.07,22.07,0,0,0-.46-2.76,55.64,55.64,0,0,0-1.79-5.49L306.29,303c-2.48-7.4-4.93-14.81-7.26-22.27S294.44,265.8,292.35,258.26Z"/><path class="cls-9" d="M269.49,293.28a83.25,83.25,0,0,1,3.42,8c1,2.69,1.93,5.42,2.82,8.16s1.65,5.51,2.34,8.31a82.58,82.58,0,0,1,1.75,8.5,83.25,83.25,0,0,1-3.42-8c-1-2.69-1.94-5.42-2.82-8.16s-1.65-5.51-2.34-8.31A85.91,85.91,0,0,1,269.49,293.28Z"/><path class="cls-9" d="M281.38,331.09a4.42,4.42,0,0,1,1.34.77,4,4,0,0,1,.83.94,4.09,4.09,0,0,1,.51,1.12,5.33,5.33,0,0,1,.2,1.52,2.64,2.64,0,0,1-1.58-.41,3.39,3.39,0,0,1-1-1,3.44,3.44,0,0,1-.49-1.33A2.9,2.9,0,0,1,281.38,331.09Z"/><path class="cls-9" d="M265.22,307.26c1.46,3.23,2.72,6.52,3.9,9.83s2.26,6.66,3.31,10,2,6.74,2.83,10.16a15.55,15.55,0,0,1-.61,10.64,19.31,19.31,0,0,0-1.06-10.12c-1.2-3.31-2.27-6.66-3.31-10s-2-6.75-2.83-10.17S265.79,310.76,265.22,307.26Z"/><circle class="cls-13" cx="354.14" cy="220.81" r="4.82"/><path class="cls-13" d="M358.63,230.08a7,7,0,1,1-7-7A7,7,0,0,1,358.63,230.08Z"/><path class="cls-8" d="M323.8,255.43a6.75,6.75,0,1,1-6.75-6.75A6.75,6.75,0,0,1,323.8,255.43Z"/><circle class="cls-8" cx="369.8" cy="279.56" r="4.75"/><circle class="cls-11" cx="287.3" cy="307.15" r="7.48"/><path class="cls-14" d="M238.7,146c2.24.84,3.05-2.15,1.08-5.92s-5-14.17,2.33-20.81,14.89-3.4,19.55,6.28,12.56,10.76,17.4,11.3,8.07,5.56,8.07,5.56,9-11.66,20.45-10.76,12.55,6.82,19,6.28,15.57-9.33,25.45-8.61,14,5.2,14.55,10.94-1.08,10,2.87,14.53,15.48,15.77,9.14,20.5-11.83,1.07-15.78-3.17-11.12-7.9-15.07,1.73,8.35,19.46,5.7,28.63-19.68,14.24-21.1.13-.74-11.58-.74-11.58-1.42,12.09-9.77,13.12a9.15,9.15,0,0,1-10.32-6.49s-8.25-10.92-14.7-6.63S290,203.22,282.47,206.9,263.1,199,255.2,204.16s-11,16.35-21.33,17.58-10.84,1.57-15.29-7.93-.27-23.2,7.5-27.83,7-8.17,1.11-13.85-1.58-11.41-1.58-11.41-5.74-6.28-2.15-12.92S231.53,143.32,238.7,146Z"/><path class="cls-15" d="M317.84,188.09s2.71,9.93,6,7.86,8.39-6.27,5.11-15.8c0,0,4.6,2.32,5.65,11.56S341,204.42,346,202.49s-.61-15.33-4.44-20.24,1.12-15.88,7.75-18.07,15.15,6.73,20.49,7.35,5.55-9.71,1.22-15c0,0,8,7.71,9.44,13.11s-4.48,9.59-10.66,7.78-10.38-9.12-13.65-9.49-9.24,3.47-8.67,9.49,5.61,14.85,6.66,18.71,1.7,10.61-8.13,14.14-11.93-.8-13.66-7.65-.72-9.93-3.05-4.27-7.64,8.76-14.48,4.14-3.6-14.12-2.73-16.76,5-7.08,7.53-8.31C319.62,177.42,317.54,183.67,317.84,188.09Z"/><path class="cls-9" d="M272.06,150.85a52.94,52.94,0,0,0,7.89-4,33.94,33.94,0,0,0,6.83-5.34,78.2,78.2,0,0,1,6.52-6.18,21.9,21.9,0,0,1,8.22-4.27,19,19,0,0,1,9.33,0,35.81,35.81,0,0,1,8.32,3.68c2.6,1.48,5.07,3.1,7.62,4.55s5.16,2.89,8.15,3a11.6,11.6,0,0,1-4.45-.45,32.82,32.82,0,0,1-4.2-1.62c-2.72-1.25-5.33-2.67-8-4a38.55,38.55,0,0,0-8-3.17,17.19,17.19,0,0,0-8.25.07,20,20,0,0,0-7.46,3.77c-2.3,1.72-4.41,3.78-6.62,5.76a30.89,30.89,0,0,1-7.51,5A38.63,38.63,0,0,1,272.06,150.85Z"/><path class="cls-9" d="M356.72,141.24a3.8,3.8,0,0,0-.09,1c0,.34,0,.68,0,1,0,.68,0,1.36.09,2,.09,1.35.25,2.68.44,4a19.08,19.08,0,0,0,2.46,7.22,15,15,0,0,0,2.51,2.82,28.93,28.93,0,0,0,3.09,2.45,39.17,39.17,0,0,1,3.33,2.47,7.87,7.87,0,0,1,2.4,3.46c-1.69-2.25-4.21-3.1-6.65-4.44a22.38,22.38,0,0,1-3.56-2.32,15.81,15.81,0,0,1-1.58-1.48c-.25-.27-.5-.52-.73-.81l-.69-.91a15.33,15.33,0,0,1-1.73-4.06,22,22,0,0,1-.59-4.23,26.74,26.74,0,0,1,.2-4.2c.11-.69.22-1.38.39-2.06A7.19,7.19,0,0,1,356.72,141.24Z"/><path class="cls-9" d="M337.19,160.15a10.44,10.44,0,0,1,1.93,2.45,19.54,19.54,0,0,1,1.37,2.84,28,28,0,0,1,1.53,6.1c.31,2.11.38,4.12.7,6.09a27.34,27.34,0,0,0,1.39,5.74c.63,1.85,1.61,3.61,2.45,5.55a19.75,19.75,0,0,1,1.65,6.21,11.89,11.89,0,0,1-1,6.39,5.3,5.3,0,0,1-2.34,2.32,5.67,5.67,0,0,1-3.14.32,6,6,0,0,0,2.83-.87,4.54,4.54,0,0,0,1.64-2.23,11.58,11.58,0,0,0,.26-5.71,22.52,22.52,0,0,0-.71-2.83,23.45,23.45,0,0,0-1.14-2.72c-.84-1.8-1.88-3.63-2.62-5.66a27.26,27.26,0,0,1-1.38-6.24c-.22-2.09-.24-4.2-.33-6.18a35.1,35.1,0,0,0-.85-5.95,21.06,21.06,0,0,0-.88-2.9A12,12,0,0,0,337.19,160.15Z"/><path class="cls-15" d="M331.61,191a28.46,28.46,0,0,0-2.7-10.89c-2.65-5.46-9.29-9.11-9.29-9.11"/><path class="cls-15" d="M243.58,125.1c0,.18-.05.37-.07.58-.35,4.34,1.8,15.74,6.89,18.46,5.33,2.86,5,9.43,0,8.56s-7.15-6.68-10-11.09-5-14.67-.56-19.77S244.32,120.94,243.58,125.1Z"/><path class="cls-8" d="M142.14,175.32l-6.47,22.51S107,293.13,103.79,303.29,96.86,334,96.86,334s-7.39.74-8.78,10,17.56,27.69,57.75,42.72,111.86,19.6,97.76-10.48c0,0,28-87.7,36.81-120.19S290,218.46,290,218.46,259.1,197.69,226.08,186,142.14,175.32,142.14,175.32Z"/><path class="cls-11" d="M283.33,221.39S263.09,286.36,253,321s-15.18,56.72-25.3,58.58-51.12-5.59-79.61-15.18-45.8-26.36-45.53-30.62,29-110.23,36.74-133.39,9.32-25,9.32-25S189.34,174,226.08,186s58,28.71,58,28.71A16.71,16.71,0,0,1,283.33,221.39Z"/><path class="cls-8" d="M247.5,194.08s24.56,8.41,36.59,20.61c0,0,1,1.08-3.77,16.42S240.6,362.24,240.6,362.24s8.92,37.77-42.14,18.07c0,0-12.81-35.05,3-95.73S247.5,194.08,247.5,194.08Z"/><path class="cls-12" d="M206.65,180.76s-16.27,55.85-31,106.1-27.59,83.29,9,95.16c0,0-76.14-15.35-87.63-50.93,0,0,5.23-24.55,12.28-46.78s32.88-109,32.88-109S174.66,174.59,206.65,180.76Z"/><path class="cls-11" d="M134.41,237.1s7.44,3.63,14.94,2.07c0,0-8.35,15.48-17.26,45.41s-11.59,47.18-8,50.86c0,0-14.2,1.22-15.85-11.37,0,0,9.08-25,15.52-45.41S134.41,237.1,134.41,237.1Z"/><path class="cls-12" d="M101.35,342.92s-5.52-4.82-8.56-1.71,1.72,17.22,20.3,27.08a283.67,283.67,0,0,0,46.16,19.79c12.46,4,16.38,0,16.38,0s24.88,5.35,35.31,3,11.68-5.39,11.68-5.39-40.05-1.14-73.27-14.12S101.35,342.92,101.35,342.92Z"/><path class="cls-12" d="M216.76,379.48s13.53,7.7,23.84-27.89,39.86-139.52,39.86-139.52,6.48,4.1,9.53,6.39c0,0-42,144-44.21,150.86s-.29,15.64-23.16,16.36S206.63,378.78,216.76,379.48Z"/><path class="cls-14" d="M137.62,205.56s.33,3.2,9.92,1.34,3.58-3.62,14.17-4.28,8.46-5.74,11.65-3.87,3.53,5.49,8.16,10.74,12.88,3.65,21.67,2.58,6.39,7.46,13.31,8.26,9.05-4.53,14.38-2.4,1.86,2.93,8.52,4.26,11.71.27,14.64,6.12,4.26,8.26,13,8.79,7.34-.65,10.73,2.07l5-16.08s2.05-4.72,1.29-8.4-8-8.52-21-16.35-35.93-16.62-56.7-20.88-54-5.33-55.51-5.33-3.05,4.29-4.79,9S137.62,205.56,137.62,205.56Z"/><path class="cls-15" d="M171,191s.87,3.58-9.29,5-14.3,5.27-16.71,2.76-4.42-3-1.67-10.35l-5.71,17.16a2.84,2.84,0,0,0,2.63,1.75,20.61,20.61,0,0,0,6-.17c2.21-.42,4.16-.53,5.84-1.49s2.85-2.24,5.28-2.56,8,.08,11.61-2.32,4.09-3.93,4.7-6.69-.86-6.81-2.33-7.36S171.61,189.33,171,191Z"/><path class="cls-15" d="M176.76,202.62a14.7,14.7,0,0,0,8.4,9.45c7,3.1,19.84-1.38,22.15.39S211,219.65,215,220s6.72.36,12.15-2.45,5.81-7.63,3.62-8.06-8.95,7.36-12.31,4.41-4.89-10.56-11.19-11.28-9,7.19-16,3.23-9.06-10.49-12.64-9.65S176,200.52,176.76,202.62Z"/><path class="cls-15" d="M243.32,223.05s6.58-.35,8.65,2.46,2.09,6.61,7.18,9.73,14.11,1.13,15.5,1.86a29.6,29.6,0,0,1,3.17,2.07s2-6.09,2.86-9.25c0,0-5.43,2.78-8.62,2.65s-8.22-1.78-12-7.06-6.54-6.5-12.65-7.58-9-1.71-9.87-.66S237.57,222.29,243.32,223.05Z"/><path class="cls-9" d="M137.62,205.56a9.64,9.64,0,0,0,6.11,1.48,20.21,20.21,0,0,0,6.15-1.45,27.19,27.19,0,0,0,5.61-2.79,9.08,9.08,0,0,1,.75-.54,3.41,3.41,0,0,1,1.09-.41,13.71,13.71,0,0,1,1.79-.21c1.1-.09,2.25-.1,3.26-.2a15.39,15.39,0,0,0,5.91-1.49,8.47,8.47,0,0,0,4.16-4l.23-.67c0-.22.12-.45.14-.68,0-.42,0-1,.05-1.57a28.92,28.92,0,0,0,0-3.22,7.93,7.93,0,0,0-.77-3,12.2,12.2,0,0,0-1.87-2.64,10.15,10.15,0,0,1,2.4,2.32,8.29,8.29,0,0,1,1.33,3.18,26.18,26.18,0,0,1,.36,3.34,14.51,14.51,0,0,1,.1,1.72c0,.31-.07.62-.11.94s-.15.61-.24.91a9.9,9.9,0,0,1-4.82,5.24,17,17,0,0,1-6.72,1.84c-1.17.09-2.21.08-3.3.15a12.43,12.43,0,0,0-1.48.14,1.25,1.25,0,0,0-.44.15c-.11.06-.36.24-.6.4a16.11,16.11,0,0,1-3.11,1.6,33.16,33.16,0,0,1-3.17,1.12,18.7,18.7,0,0,1-6.73.9A9.16,9.16,0,0,1,137.62,205.56Z"/><path class="cls-9" d="M172,198.35a4.07,4.07,0,0,1,2.39.74,5.83,5.83,0,0,1,1.73,1.9c.82,1.5,1.47,3,2.36,4.35a13.79,13.79,0,0,0,7.09,6A21.28,21.28,0,0,0,195,212c1.61-.17,3.23-.4,4.87-.66a33.34,33.34,0,0,1,5.14-.58,5.5,5.5,0,0,1,.77.07,4.13,4.13,0,0,1,.86.26A5.24,5.24,0,0,1,208,212a12.15,12.15,0,0,1,1.75,2.11,16.81,16.81,0,0,0,3,3.61,6.64,6.64,0,0,0,.85.63,7.22,7.22,0,0,0,1,.46,8.51,8.51,0,0,0,2.17.53,14.82,14.82,0,0,0,4.64-.21,16.22,16.22,0,0,0,8.3-4.34,8.85,8.85,0,0,0,2.35-4.06,11.56,11.56,0,0,0,.12-4.87,10.78,10.78,0,0,1,.49,5,8,8,0,0,1-.75,2.47,9.68,9.68,0,0,1-1.38,2.2,16.74,16.74,0,0,1-8.75,5.32,15,15,0,0,1-5.23.46,10.44,10.44,0,0,1-2.67-.57,8.64,8.64,0,0,1-1.3-.56,9.62,9.62,0,0,1-1.17-.81,18,18,0,0,1-3.4-4c-.92-1.33-1.88-2.44-3-2.33a34.87,34.87,0,0,0-4.74.51c-1.64.24-3.31.48-5,.61a31.38,31.38,0,0,1-5.13,0,16.38,16.38,0,0,1-5.09-1.21,13.77,13.77,0,0,1-4.38-2.88,16.32,16.32,0,0,1-3-4.17c-.79-1.51-1.34-3.12-2-4.61A4.67,4.67,0,0,0,172,198.35Z"/><path class="cls-9" d="M227.19,217.55a9.66,9.66,0,0,1,3.75,0,6.45,6.45,0,0,1,1.82.67,15.51,15.51,0,0,1,1.58,1.07,10.78,10.78,0,0,0,3.08,1.64,21.51,21.51,0,0,0,3.46.79c2.38.37,4.8.58,7.3.9a11.6,11.6,0,0,1,2,.42,5.68,5.68,0,0,1,2,1.08,6.74,6.74,0,0,1,1.37,1.71,16.17,16.17,0,0,1,.88,1.77c.5,1.18.89,2.31,1.43,3.3a8,8,0,0,0,2,2.5,10.55,10.55,0,0,0,2.91,1.62,29.49,29.49,0,0,0,3.42.92,22.92,22.92,0,0,0,7.13.59,9.76,9.76,0,0,1,3.8.32,7.22,7.22,0,0,1,1.77.74,2.59,2.59,0,0,1,.71.65,1,1,0,0,1,.21.9c0-.65-.57-1-1.08-1.25a6.82,6.82,0,0,0-1.74-.43,9.27,9.27,0,0,0-3.52.16,17.25,17.25,0,0,1-3.8.37,31.25,31.25,0,0,1-3.77-.32,15.38,15.38,0,0,1-7.36-2.59A9.93,9.93,0,0,1,253.9,232a36.33,36.33,0,0,1-1.56-3.46,7.81,7.81,0,0,0-1.64-2.72,5.81,5.81,0,0,0-2.86-1.06c-2.36-.42-4.86-.69-7.3-1.27a20.41,20.41,0,0,1-3.66-1.15,11.75,11.75,0,0,1-3.23-2.15,17.4,17.4,0,0,0-1.34-1.19,6.31,6.31,0,0,0-1.55-.8A10.59,10.59,0,0,0,227.19,217.55Z"/><path class="cls-9" d="M259,220.81a21.46,21.46,0,0,0,4.69,3.07,8.62,8.62,0,0,0,2.45.67,5.35,5.35,0,0,0,1.2,0,5.81,5.81,0,0,0,.58-.09l.3-.05.35-.09a25.82,25.82,0,0,1,5.86-.85,10.62,10.62,0,0,1,3.05.34,5.05,5.05,0,0,1,1.43.67,2.71,2.71,0,0,1,1,1.2,3.71,3.71,0,0,0-2.56-.78,15.63,15.63,0,0,0-2.71.31c-1.82.36-3.65.84-5.5,1.29l-.34.08-.42.07a7.9,7.9,0,0,1-.85.12,7.28,7.28,0,0,1-1.68-.13,7.78,7.78,0,0,1-3-1.24A10.79,10.79,0,0,1,259,220.81Z"/><circle class="cls-11" cx="154.99" cy="231.11" r="4.13"/><path class="cls-8" d="M201.47,265.39a7.13,7.13,0,1,1-7.13-7.13A7.13,7.13,0,0,1,201.47,265.39Z"/><circle class="cls-11" cx="130.5" cy="295.68" r="6.39"/><path class="cls-11" d="M132.09,288a5.33,5.33,0,1,0,5.33-5.33A5.33,5.33,0,0,0,132.09,288Z"/><circle class="cls-8" cx="166.71" cy="341.74" r="7.46" transform="translate(-74.28 47.63) rotate(-13.33)"/><path class="cls-8" d="M171,332.27a4.65,4.65,0,1,1-4.65-4.64A4.65,4.65,0,0,1,171,332.27Z"/><path class="cls-13" d="M240.22,258.26a6.52,6.52,0,1,1-6.51-6.52A6.52,6.52,0,0,1,240.22,258.26Z"/><path class="cls-13" d="M235.94,248.68A4.66,4.66,0,1,0,240.6,244,4.65,4.65,0,0,0,235.94,248.68Z"/><path class="cls-13" d="M215.43,335.48a4.39,4.39,0,1,1-4.39-4.39A4.39,4.39,0,0,1,215.43,335.48Z"/><path class="cls-9" d="M267.09,241.09q-4,14.83-8.32,29.54c-2.88,9.81-5.89,19.57-8.92,29.34s-6.17,19.49-9.39,29.2q-2.4,7.29-4.89,14.54c-1.69,4.84-3.42,9.66-5,14.54,1-5,2.57-9.9,3.9-14.83s2.81-9.83,4.26-14.73c2.88-9.82,5.89-19.59,8.93-29.36s6.17-19.5,9.4-29.21S263.62,250.72,267.09,241.09Z"/><path class="cls-9" d="M228.48,362.24a23,23,0,0,0,1.82,2.47,12.87,12.87,0,0,0,2,1.87,15.19,15.19,0,0,0,2.35,1.44c.42.26.89.4,1.34.66a14.77,14.77,0,0,1,1.46.7,7.45,7.45,0,0,1-1.63.39,7.36,7.36,0,0,1-1.69-.06,6.88,6.88,0,0,1-3.19-1.34,6.56,6.56,0,0,1-2.13-2.77A5.26,5.26,0,0,1,228.48,362.24Z"/><path class="cls-9" d="M115.59,365.81a9.5,9.5,0,0,1,2.55.78,15.66,15.66,0,0,1,2.21,1.2,16.89,16.89,0,0,1,2,1.53,11.76,11.76,0,0,1,1.78,2,6.93,6.93,0,0,1-2.68-.44,11.22,11.22,0,0,1-2.32-1.17,11.51,11.51,0,0,1-2-1.64A7.92,7.92,0,0,1,115.59,365.81Z"/><path class="cls-9" d="M98.88,338.28c3.36,5,7.87,9,12.57,12.61a108.25,108.25,0,0,0,15,9.54c10.48,5.67,21.72,9.71,33.06,13.44,5.66,1.9,11.38,3.59,17.14,5.14s11.57,2.85,17.42,3.95a135.53,135.53,0,0,0,17.73,2.13,82.17,82.17,0,0,0,17.85-.92,75,75,0,0,1-17.88,2,119,119,0,0,1-18-1.5,218.65,218.65,0,0,1-35-8.69l-4.27-1.43-4.24-1.51c-2.84-1-5.63-2.12-8.43-3.22-1.41-.53-2.77-1.19-4.15-1.79s-2.76-1.21-4.11-1.88c-2.7-1.35-5.41-2.67-8-4.21a99.71,99.71,0,0,1-14.9-10.21c-1.12-1-2.29-2-3.35-3l-1.62-1.57-1.55-1.65A37.36,37.36,0,0,1,98.88,338.28Z"/><path class="cls-9" d="M243.59,376.19a3.2,3.2,0,0,1,.15,1.92,4.11,4.11,0,0,1-.77,1.67,3.93,3.93,0,0,1-1.46,1.18,2.84,2.84,0,0,1-2,.18c.31-.67.58-1.1.83-1.55s.53-.8.81-1.19a10.92,10.92,0,0,1,1-1.1A8.35,8.35,0,0,1,243.59,376.19Z"/><path class="cls-9" d="M94.14,345.88a108.23,108.23,0,0,0,7.74,8.32c1.37,1.29,2.73,2.58,4.14,3.85.69.65,1.42,1.25,2.12,1.92s1.44,1.28,2.12,2a24,24,0,0,1-2.74-1.09,26.77,26.77,0,0,1-2.56-1.45,28,28,0,0,1-4.64-3.63,26.92,26.92,0,0,1-3.76-4.55A16.43,16.43,0,0,1,94.14,345.88Z"/><path class="cls-9" d="M96.86,334a2.43,2.43,0,0,1,1.07.48,1.43,1.43,0,0,1,.45.67,1.4,1.4,0,0,1,0,.81,2.32,2.32,0,0,1-.63,1,2.28,2.28,0,0,1-1.06-.49,1.38,1.38,0,0,1-.45-.67,1.29,1.29,0,0,1,0-.8A2.33,2.33,0,0,1,96.86,334Z"/><path class="cls-8" d="M146.21,199.29s-11.72-4-22.64-3.19-17,6.65-23.69,19.43S86.3,248,82.57,259.73s-8.52,35.15-3.73,44.47,18.91,19.7,22.37,21.57,9.32-2.13,12-8.26,3.46-13.84,2.13-15.18-11.72-1.86-14.65-9.85,2.67-29.82,7.19-43.66,8.52-24.5,16-23.44,9.85,2.4,9.85,2.4,12,1.07,15.44-8.25.8-14.12,0-16.25S148,199.83,146.21,199.29Z"/><path class="cls-11" d="M150.22,216s-16.6-6.63-27.46-3.91-13.9,14.53-18.17,26.1-15.21,50.1-7.73,57.51,18.73,8.94,18.73,8.94.86-3.27-4.13-3.7-12.07-7-11.6-14.06,5.25-33,11.36-47.69,9.76-14.61,17.15-13,8,2.84,12.34.8S149.35,224,150.22,216Z"/><path class="cls-12" d="M140.71,227s-7.89-2.7-15-4.61-12,3.76-16.41,15.56-12.45,42.14-11.52,48.93,9.52,12.44,9.52,12.44-8.8-4.47-7.17-14.72,8.85-44.38,14.46-52,7.31-7.79,12-6.74S135.75,230.2,140.71,227Z"/><path class="cls-13" d="M134.59,196.62s-13.7-2.64-21.5,2.58S100.41,213.06,96,223.57s-10.1,23.13-13.46,36.16-5.23,20.11-5.48,27.13-1,14.16,2.75,19.08,2.31.34.66-5.5-1.17-21.82,4.73-39.33,14.1-42.22,20.5-49.7,11.25-12.67,22.64-12.2S139.14,197.16,134.59,196.62Z"/><path class="cls-13" d="M90.73,309c1.65,2,2.17,4.28,1.16,5.13s-3.18-.08-4.83-2.07-2.18-4.28-1.16-5.13S89.08,307,90.73,309Z"/><circle class="cls-13" cx="84.39" cy="304.62" r="1.9"/><path class="cls-13" d="M130.41,203.47c-.17,1,1.49,2,3.7,2.41s4.13-.1,4.29-1.06-1.49-2-3.7-2.42S130.57,202.51,130.41,203.47Z"/><path class="cls-9" d="M124.11,201.45a5.72,5.72,0,0,0-3.52-.66,9.1,9.1,0,0,0-3.35,1.2,18.39,18.39,0,0,0-5.1,5,62.64,62.64,0,0,0-6.74,12.88c-3.65,9.07-6.82,18.36-9.77,27.71-1.51,4.66-2.91,9.36-4.3,14.06s-2.67,9.44-3.85,14.18c-.29,1.18-.58,2.37-.8,3.56a31,31,0,0,0-.55,3.54c-.17,2.44-.3,4.89-.34,7.33a50.82,50.82,0,0,0,.28,7.3,21.77,21.77,0,0,0,1.94,7,17.36,17.36,0,0,1-1.59-3.34,27.87,27.87,0,0,1-.94-3.59,54,54,0,0,1-.8-7.39c-.09-2.47-.06-4.94,0-7.41a29.22,29.22,0,0,1,.42-3.76c.19-1.23.44-2.44.69-3.65,2-9.68,4.77-19.14,7.72-28.54a274,274,0,0,1,10.3-27.73,59,59,0,0,1,7.48-12.86,19.46,19.46,0,0,1,5.68-4.88,9.21,9.21,0,0,1,3.62-1A5.8,5.8,0,0,1,124.11,201.45Z"/><path class="cls-9" d="M138.69,211.05a6.12,6.12,0,0,1-2.21.52,9.29,9.29,0,0,1-2.11-.13,8.14,8.14,0,0,1-2-.65,5.93,5.93,0,0,1-1.86-1.3,6.5,6.5,0,0,1,2.21-.43,9.58,9.58,0,0,1,2.08.17,9.79,9.79,0,0,1,2,.61A6.6,6.6,0,0,1,138.69,211.05Z"/><path class="cls-9" d="M121.75,212.07a12.48,12.48,0,0,0-2.45,1.66,24.15,24.15,0,0,0-2,1.92l-2,2.08c-.33.37-.68.73-1,1.09a11.44,11.44,0,0,1-1.19,1.08,8.66,8.66,0,0,1,.23-1.62,13.67,13.67,0,0,1,.53-1.52,9.73,9.73,0,0,1,1.83-2.68,8,8,0,0,1,2.75-1.88A4.54,4.54,0,0,1,121.75,212.07Z"/><path class="cls-9" d="M146.21,199.29a28.47,28.47,0,0,0-5.68-1.75,48.16,48.16,0,0,0-5.86-.88,62.23,62.23,0,0,0-11.82.06,23.75,23.75,0,0,0-10.93,3.54l-1.18.82c-.39.28-.73.62-1.1.93a24.43,24.43,0,0,0-2.06,2,33.8,33.8,0,0,0-3.42,4.7c-4,6.69-6.68,14.24-9.79,21.54s-6,14.68-8.45,22.19c-1.25,3.75-2.41,7.53-3.44,11.34s-1.89,7.67-2.68,11.54S78.35,283.1,77.93,287a46.75,46.75,0,0,0,0,11.64,23.74,23.74,0,0,0,1.62,5.49A23.51,23.51,0,0,0,82.61,309a50.64,50.64,0,0,0,4.11,4.19l4.36,4a80.13,80.13,0,0,0,9.12,7.57,6.36,6.36,0,0,0,2.54,1.28,5.21,5.21,0,0,0,2.79-.43,14.4,14.4,0,0,0,4.73-3.49,14.55,14.55,0,0,1-4.59,3.8,5.59,5.59,0,0,1-3,.59l-.77-.17-.73-.32c-.45-.24-.87-.5-1.3-.76A81.86,81.86,0,0,1,90.34,318c-1.51-1.3-3-2.62-4.48-4a53.4,53.4,0,0,1-4.33-4.2,21.84,21.84,0,0,1-5.33-11A45.26,45.26,0,0,1,76,286.8c.38-4,1-7.95,1.74-11.88a181.58,181.58,0,0,1,6.07-23.18c2.54-7.58,5.53-15,8.64-22.3l4.71-11a75.9,75.9,0,0,1,5.58-10.68,35.3,35.3,0,0,1,3.71-4.84,27.83,27.83,0,0,1,2.25-2.09c.4-.32.78-.66,1.21-1l1.28-.84a24.76,24.76,0,0,1,11.6-3.45,63.9,63.9,0,0,1,12,.45A36.54,36.54,0,0,1,146.21,199.29Z"/><path class="cls-9" d="M100.67,292.48c1,1,2,1.86,3,2.73a33.13,33.13,0,0,0,3.17,2.34,19.28,19.28,0,0,0,3.37,1.75,14.64,14.64,0,0,0,3.62.89l-.21,0a1.58,1.58,0,0,1,.6,0,2.72,2.72,0,0,1,.43.15,2.31,2.31,0,0,1,.65.47A3.47,3.47,0,0,1,116,302a5.85,5.85,0,0,1,.34,2.13,11.13,11.13,0,0,1-.15,2,14.11,14.11,0,0,1-.46,1.92l-.31-1.92a9,9,0,0,0-.18-.93c-.06-.31-.12-.61-.2-.91a6.12,6.12,0,0,0-.6-1.58,1.33,1.33,0,0,0-.4-.46.3.3,0,0,0-.14-.06h0s0,0,.11,0h-.21a12.14,12.14,0,0,1-4.35-.79,15.08,15.08,0,0,1-3.78-2.18,18.21,18.21,0,0,1-3-3.07A14.59,14.59,0,0,1,100.67,292.48Z"/><path class="cls-9" d="M113.85,233.46a20.85,20.85,0,0,1,4.59-6.8c.26-.24.54-.47.82-.71s.6-.42.91-.63a11.2,11.2,0,0,1,1-.52,5.46,5.46,0,0,1,1.22-.31l.66-.05c.21,0,.36,0,.55,0,.36,0,.7.08,1,.12.7.09,1.38.22,2.06.35,1.34.32,2.65.68,3.94,1.09l3.72,1.26c2.33.72,4.93-.18,7.54-.88a17.55,17.55,0,0,1-3.56,2,9.26,9.26,0,0,1-2.08.59,9,9,0,0,1-2.2,0,19.54,19.54,0,0,1-2.07-.45l-1.94-.49c-1.28-.34-2.56-.68-3.83-.94-.63-.15-1.27-.28-1.9-.38-.31,0-.63-.1-.94-.13-.14,0-.32,0-.45,0h-.34a6.28,6.28,0,0,0-3.07,1.4A45.71,45.71,0,0,0,113.85,233.46Z"/><path class="cls-9" d="M150.22,205.85a7.65,7.65,0,0,1,1.58,3.43A13.06,13.06,0,0,1,152,213a14,14,0,0,1-.82,3.63,11.2,11.2,0,0,1-1.85,3.25,14.33,14.33,0,0,1,0-1.86c0-.61.07-1.19.11-1.78l.3-3.43.26-3.41C150.11,208.27,150.19,207.12,150.22,205.85Z"/><path class="cls-13" d="M212.87,227s-26.73,76.07-32.72,95.41-.25,23.49-.25,23.49L216.48,237.1S218.45,229.57,212.87,227Z"/><path class="cls-11" d="M256.82,246.57s-1.62-6.32-3.84-5.48S219.73,344,218.5,349.2a12.76,12.76,0,0,0,1.73,9.45Z"/><path class="cls-11" d="M168.67,224.25s-30,95.37-31.78,103.38,1.8,8.82,1.8,8.82l35.47-113.4Z"/><path class="cls-9" d="M174.16,223.05q-3.94,14.79-8.3,29.47C163,262.31,160,272.06,157,281.8s-6.15,19.45-9.37,29.13-6.51,19.34-10,28.95q3.94-14.81,8.3-29.47c2.87-9.79,5.87-19.54,8.9-29.28S161,261.68,164.19,252,170.7,232.65,174.16,223.05Z"/><path class="cls-9" d="M107.33,329.76a47.59,47.59,0,0,1,4.18,4.29l1.93,2.08c.66.7,1.36,1.35,2.15,2.15a6.09,6.09,0,0,1-3.19-.72,9.27,9.27,0,0,1-2.56-2,10.44,10.44,0,0,1-1.75-2.67A7.92,7.92,0,0,1,107.33,329.76Z"/><path class="cls-9" d="M121.44,341.74c2.58.46,4.85,1,7.11,1.21a16,16,0,0,0,3.32-.11,16.45,16.45,0,0,0,3.42-1.1,6.1,6.1,0,0,1-2.87,2.78,8.56,8.56,0,0,1-4,.67,10.67,10.67,0,0,1-3.83-1.07A9.23,9.23,0,0,1,121.44,341.74Z"/><path class="cls-9" d="M187.21,221.12q-4.25,15.23-8.91,30.32c-3.08,10.07-6.28,20.1-9.51,30.13s-6.56,20-10,30q-2.55,7.49-5.18,14.91L151,333.87c-.46,1.23-.86,2.48-1.36,3.7l-1.54,3.64c1.7-5,3-10.09,4.54-15.15s3-10.09,4.56-15.12c3.08-10.07,6.28-20.1,9.5-30.11s6.56-20,10-29.95S183.55,231,187.21,221.12Z"/><path class="cls-9" d="M148.07,344.11a6.06,6.06,0,0,1,1.19,1.19,7.17,7.17,0,0,1,.71,1.15,7.06,7.06,0,0,1,.47,1.21c.14.42.25.87.43,1.54a2.35,2.35,0,0,1-1.8-.43,3.48,3.48,0,0,1-1.12-1.33,3.66,3.66,0,0,1-.37-1.62A3,3,0,0,1,148.07,344.11Z"/><path class="cls-9" d="M152.6,351.59a42.63,42.63,0,0,0,5,3.07,29.22,29.22,0,0,0,5.22,2.1,25,25,0,0,0,5.52,1,27.2,27.2,0,0,0,2.87.08c1,0,1.94-.13,3-.1a14.63,14.63,0,0,1-5.82,1.77,15.19,15.19,0,0,1-6.17-.58,16.82,16.82,0,0,1-5.53-2.77A14.3,14.3,0,0,1,152.6,351.59Z"/><path class="cls-9" d="M178.42,350.26q4.4-15.11,9.19-30.07c3.17-10,6.47-19.93,9.78-29.86s6.75-19.84,10.26-29.71,7.09-19.72,10.85-29.51q-4.4,15.1-9.19,30.07c-3.17,10-6.46,19.93-9.79,29.86s-6.74,19.84-10.25,29.71S182.17,340.47,178.42,350.26Z"/><path class="cls-9" d="M227.19,232.57q-5.15,17.19-10.71,34.25c-3.68,11.38-7.48,22.72-11.3,34.05s-7.76,22.62-11.77,33.88l-3,8.44-1.53,4.21-.76,2.11-.38,1a8.22,8.22,0,0,0-.29,1,9.61,9.61,0,0,0,2.07,8,13.35,13.35,0,0,0,7.56,4.26,16.53,16.53,0,0,1-4.33-1.21,12,12,0,0,1-3.68-2.66,10.43,10.43,0,0,1-2.7-8.63,7,7,0,0,1,.29-1.18l.34-1.07.67-2.14,1.36-4.28,2.75-8.53c3.68-11.38,7.48-22.71,11.3-34s7.76-22.61,11.77-33.87S222.94,243.75,227.19,232.57Z"/><path class="cls-9" d="M210.94,366.24a4.8,4.8,0,0,0,4-.66,9.5,9.5,0,0,0,2.87-3l.55-.9.47-.94a20.82,20.82,0,0,0,.84-1.93c.48-1.32.92-2.67,1.35-4l5.14-16.31q5.1-16.32,10.38-32.6c3.53-10.84,7.07-21.68,10.73-32.48s7.39-21.59,11.28-32.32Q254,257.59,249,274c-3.32,10.91-6.77,21.78-10.27,32.64s-7.1,21.67-10.85,32.45c-1.87,5.39-3.76,10.77-5.77,16.12-.51,1.34-1,2.68-1.61,4-.32.65-.59,1.32-1,1.94l-.55.94-.62.89a9.9,9.9,0,0,1-3.19,2.95A5,5,0,0,1,210.94,366.24Z"/><path class="cls-14" d="M156.32,157c-6.1.56-15.44,3.73-19.43,10.39s-6.31,13.34-2.13,16.24,12.51-2.13,18.63-4.26,9.32,5.86,8.53,10.92-14.38,29.55,3.19,33.55,16.77-18.91,17-22.9,2-11.72,6.85-11.72,1.41,13.58,8.59,12,5.86-6.39,5.86-9.05,4.79-9,10.65-3.73,1.07,11.45,5.59,12.25,7.73-7.72,15.45-2.66-2.93,9.32-5.06,17.57,1.86,16.24,9.85,15.45,10.38-8.26,14.38-14.38,8.25-7.19,10.92-3.73-1.6,9.32,6.12,9.59,4.53-5.06,10.38-3.47,6.67,6.54,5.58,10.79S281.48,252,281.48,252s2.38,11.18,12.77,5.33,18.37-23.7,17.84-29.83-5.86-14-5.86-19.52-1.07-8.11,10.12-12,4.26-18.27-11.45-18-22.9.8-24-5.33-2.13-16.5-20.5-12.24-15.17,1.86-21.3-3.47-17.31-8.25-31.68-4-16.78,1.78-21.31-2-16-.09-20.76,2.84S159.38,156.68,156.32,157Z"/><path class="cls-9" d="M163.78,165.21a32.8,32.8,0,0,0-4.27,3.09,5.28,5.28,0,0,0-1.28,1.77,2,2,0,0,0,.11,1.69,2.17,2.17,0,0,0,1.2,1.17,3.8,3.8,0,0,0,2.07-.08,27.27,27.27,0,0,0,4.83-2,10.85,10.85,0,0,1-4.22,3.7,5,5,0,0,1-3.2.5,3.63,3.63,0,0,1-1.66-.86c-.11-.1-.24-.2-.34-.31l-.25-.36a3.38,3.38,0,0,1-.46-.74,4,4,0,0,1,0-3.51,5.88,5.88,0,0,1,2.16-2.3A11.39,11.39,0,0,1,163.78,165.21Z"/><path class="cls-9" d="M184,166.54a19.69,19.69,0,0,1,4.49-1.26,16.62,16.62,0,0,1,4.73-.13,13,13,0,0,1,4.58,1.52,32.93,32.93,0,0,1,3.94,2.63c2.47,1.84,4.86,3.67,7.63,4.42a13,13,0,0,0,4.21.5c1.47-.08,3-.27,4.51-.46,3.05-.36,6.16-.72,9.28-.85a46.42,46.42,0,0,1,9.41.53,29.21,29.21,0,0,1,9,2.94,24,24,0,0,1,7.23,5.87,27.58,27.58,0,0,0-7.71-4.87A26,26,0,0,0,241,176a33.28,33.28,0,0,0-4.44-.79c-6-.67-12.07,0-18.17.82-1.54.17-3.08.35-4.7.42a14.63,14.63,0,0,1-4.91-.65c-3.2-1-5.78-3.11-8.1-5.09s-4.69-3.86-7.61-4.43a16.8,16.8,0,0,0-4.49-.35A24.34,24.34,0,0,0,184,166.54Z"/><path class="cls-9" d="M187.21,183.31a16.32,16.32,0,0,0-6.76,8.74,18.74,18.74,0,0,0-.6,2.67l-.14,1.36-.1,1.46c-.15,2-.39,3.9-.7,5.85-.71,3.85-1.6,7.84-4,11.26a9.64,9.64,0,0,1-2.25,2.21,10.23,10.23,0,0,1-2.88,1.21,7.7,7.7,0,0,1-3.06.14,4.58,4.58,0,0,1-2.63-1.35,5.84,5.84,0,0,0,5.36.16,9.15,9.15,0,0,0,2.33-1.34,8.9,8.9,0,0,0,1.68-2,20.46,20.46,0,0,0,2.08-5.1,48.25,48.25,0,0,0,1.2-5.54c.33-1.88.57-3.78.8-5.68l.17-1.43.24-1.52a15.6,15.6,0,0,1,.89-2.94A14.32,14.32,0,0,1,187.21,183.31Z"/><path class="cls-9" d="M276.41,198.76a13.92,13.92,0,0,1,5.26-.38,18.08,18.08,0,0,1,5.16,1.28,16.45,16.45,0,0,1,4.59,2.74,13.47,13.47,0,0,1,3.36,4.08c-1.53-.91-2.88-1.87-4.36-2.63-.71-.42-1.47-.75-2.19-1.13s-1.47-.69-2.24-1c-1.51-.61-3.06-1.15-4.65-1.64S278.12,199.2,276.41,198.76Z"/><path class="cls-9" d="M215,151.31a24.91,24.91,0,0,1,6-1.18,21.41,21.41,0,0,1,6.17.33,21.86,21.86,0,0,1,3,.85c1,.31,1.91.63,2.87,1a22.55,22.55,0,0,1,5.56,2.86,28.25,28.25,0,0,1,4.52,4.27c1.31,1.55,2.58,3,3.89,4.51a21.79,21.79,0,0,0,4.33,3.83,12.76,12.76,0,0,0,2.61,1.24,17.31,17.31,0,0,0,2.91.64,13.54,13.54,0,0,1-3,0,11.71,11.71,0,0,1-3-.88,19.09,19.09,0,0,1-5.06-3.56c-3-2.77-5.4-6-8.49-8.2a22,22,0,0,0-5-2.71c-.9-.38-1.83-.74-2.76-1.11s-1.81-.73-2.73-1a24.68,24.68,0,0,0-5.73-.93A39.62,39.62,0,0,0,215,151.31Z"/><path class="cls-15" d="M133.16,175.27s-4,10.91,5.53,9.16,15.9-8.54,20.43-2.18,1.19,11.78-.44,17.44-7.84,17.34,3,22.89,18-.79,19.15-9.71,1.35-20.49,6.35-22.82,1.6,6.83,7.13,10.4,10.32-2.16,9.15-7.44,7.69-9.43,10.61-4.64-.73,8.46,3.19,11.6,9.41-3,11.17-3.32,7,.57,9.19,3.95-5.69,8.13-7.57,14.93-.3,12.85,5.85,15,11.89-1.45,14.95-8.2,8.71-16.25,16.21-15.89,7.56,5.59,7.56,5.59-.62-12.3-13.19-11.29-13.83,13.8-18.14,15.2-8.53-1.25-4.45-8.38,1.19-15.48-6.81-15.48-10,3.48-10.86,2-2-10.94-7.82-11.83-11.07,1.42-13,4-.45,7.81-1.87,7.83-3-8.55-6.28-9-7.66.26-9.2,5-3.06,25.38-7.35,27.46-13.74,3-13.41-6.46,6.58-21.39,4.22-26.86-10-12.37-18.06-8.92S133.66,178.63,133.16,175.27Z"/><path class="cls-15" d="M266.16,215.27s-1.15,6.94,3.33,7,4.78.61,8.35-2.34,7.89,1,9.46,4S281.48,252,281.48,252s.4,7.83,8.51,6.92,13.75-9.73,16.42-14.91,5.83-9.23,5.68-16.51-5.67-12.38-5.73-18c0,0,.74,24.7-5,32.11s-10.39,1.11-7.83-9-1.38-20.1-9.3-20.5-7.48,4.67-11,4.66-5.84-5.25-9.68-5.32A25.82,25.82,0,0,1,266.16,215.27Z"/><path class="cls-15" d="M268.44,181c4.13-1.54,10.78,3.2,15.82,1.21s13.37-2.43,14.35,1.06c1.08,3.81-.47,8.19-8.62,7.73a160.78,160.78,0,0,0-20.61,0C260.09,191.46,259.87,184.24,268.44,181Z"/><path class="cls-9" d="M135.16,184.42a18.3,18.3,0,0,0,4.31-.3,18.06,18.06,0,0,0,4.1-1.2c2.64-1.13,5.16-2.6,8-3.46a8.8,8.8,0,0,1,4.6-.25A7.11,7.11,0,0,1,160,182a12.86,12.86,0,0,1,2.21,8.81,12.51,12.51,0,0,1-.49,2.28c-.22.71-.46,1.4-.69,2.09l-1.46,4.09a71.73,71.73,0,0,0-2.43,8.2c-.56,2.72-1,5.61-.24,8a11.43,11.43,0,0,0,4.89,6,13.91,13.91,0,0,0,7.65,2.08c2.69-.09,5.39-.82,7.16-2.69s2.74-4.54,3.32-7.26.74-5.64,1.13-8.52a59,59,0,0,1,1.61-8.65,15.57,15.57,0,0,1,1.8-4.16,6.14,6.14,0,0,1,3.74-2.81,2.43,2.43,0,0,1,1.38.05,1.87,1.87,0,0,1,1,1,7.83,7.83,0,0,1,.52,2.25,19.66,19.66,0,0,0,.78,4.19,6.16,6.16,0,0,0,2.52,3.25,9.32,9.32,0,0,0,4.06,1.28,9.56,9.56,0,0,1-4.24-1,6.57,6.57,0,0,1-2.89-3.32,19.87,19.87,0,0,1-1.07-4.28,7.06,7.06,0,0,0-.55-1.93c-.28-.53-.64-.59-1.26-.43a5,5,0,0,0-2.9,2.43,14,14,0,0,0-1.48,3.85,60.54,60.54,0,0,0-1.28,8.46c-.3,2.86-.4,5.75-.94,8.71a24.59,24.59,0,0,1-1.24,4.37,12.89,12.89,0,0,1-2.49,4,10.07,10.07,0,0,1-4,2.58,15.15,15.15,0,0,1-4.59.82,16,16,0,0,1-8.89-2.36,13.65,13.65,0,0,1-5.79-7.23,12.53,12.53,0,0,1-.45-4.71,27.15,27.15,0,0,1,.69-4.45,75.33,75.33,0,0,1,2.66-8.4l1.54-4.06c.26-.67.51-1.34.74-2a12.21,12.21,0,0,0,.48-1.94,11.47,11.47,0,0,0-1.68-7.75,5.75,5.75,0,0,0-2.94-2.41,7.88,7.88,0,0,0-4,.08,77.43,77.43,0,0,0-8.09,2.95A18.68,18.68,0,0,1,135.16,184.42Z"/><path class="cls-9" d="M209.23,186.33a8.37,8.37,0,0,1,4.35,1.57,4.54,4.54,0,0,1,1.45,1.89,8.54,8.54,0,0,1,.47,2.33c.13,1.56.09,3.11.33,4.59a5.13,5.13,0,0,0,.72,2,3,3,0,0,0,1.64,1.13,5.35,5.35,0,0,0,4.12-.38A20.52,20.52,0,0,0,226.1,197a8.09,8.09,0,0,1,4.83-1.24,9.3,9.3,0,0,1,4.74,1.5,7.86,7.86,0,0,1,3.14,4,4.06,4.06,0,0,1-.11,2.83,7.45,7.45,0,0,1-1.46,2.16c-1.09,1.2-2.21,2.23-3.19,3.35a18.1,18.1,0,0,0-2.51,3.61,14.55,14.55,0,0,0-1.49,8.4c.35,2.81,1.66,5.65,4,6.87a15.57,15.57,0,0,0,2,.79,14.48,14.48,0,0,0,2.08.54,7.84,7.84,0,0,0,4-.27c2.56-.9,4.65-3.15,6.36-5.56.87-1.21,1.63-2.51,2.47-3.85s1.69-2.64,2.64-3.91a23.7,23.7,0,0,1,3.18-3.66,10.58,10.58,0,0,1,2.11-1.51,7.36,7.36,0,0,1,2.6-.76,9.72,9.72,0,0,1,1.32,0c.22,0,.42,0,.63.06l.32,0,.41.09a2.71,2.71,0,0,1,1.52,1.05,3.63,3.63,0,0,1,.57,1.47,14.81,14.81,0,0,1,.16,2.49,19.53,19.53,0,0,0,.1,2.21,4.08,4.08,0,0,0,1.72,3.22l.41.23.48.22a9.94,9.94,0,0,0,1,.37,6.27,6.27,0,0,0,2,.32,5.82,5.82,0,0,0,3.7-1.46q.42-.34.84-.72l.43-.39.23-.2a2,2,0,0,1,.28-.23,5.22,5.22,0,0,1,2.56-.91,6.93,6.93,0,0,1,4.87,1.45,9.37,9.37,0,0,1,2.88,4l0,.07v0a14.37,14.37,0,0,1,.12,3.51,23.54,23.54,0,0,1-.45,3.37,19.82,19.82,0,0,1-.92,3.25l-.58,1.58q-.14.39-.3.78l-.16.39,0,.1,0,.07c-.09,0,0-.08,0-.07l.07-.19,0,.21c-.1,0,0-.08,0-.15l.05-.42c0-.28.07-.55.11-.83l.25-1.66c.13-1.12.4-2.17.57-3.25a25.4,25.4,0,0,0,.34-3.25,14,14,0,0,0-.18-3.14l0,.1a8,8,0,0,0-2.54-3.38,5.45,5.45,0,0,0-3.84-1,3.7,3.7,0,0,0-1.76.66,2,2,0,0,0-.16.14l-.2.19-.42.4c-.29.27-.59.55-.9.81a7.65,7.65,0,0,1-4.72,2,7.93,7.93,0,0,1-2.58-.34,8.41,8.41,0,0,1-1.19-.42l-.58-.25c-.2-.11-.4-.2-.6-.33a5.28,5.28,0,0,1-1.9-2.05,7.34,7.34,0,0,1-.76-2.54c-.23-1.65-.07-3.3-.3-4.56a1.92,1.92,0,0,0-.25-.67.66.66,0,0,0-.37-.23l-.16,0-.25,0c-.17,0-.36,0-.53,0a6.65,6.65,0,0,0-1,0c-2.53.25-4.57,2.73-6.33,5.11-.89,1.21-1.72,2.5-2.53,3.79s-1.59,2.66-2.52,4a22.94,22.94,0,0,1-3.16,3.7,12.34,12.34,0,0,1-4.3,2.67,10.09,10.09,0,0,1-5.13.34,16.91,16.91,0,0,1-2.4-.64,16,16,0,0,1-2.31-.94,8.9,8.9,0,0,1-3.61-3.74,13.38,13.38,0,0,1-1.44-4.8,16.61,16.61,0,0,1,1.84-9.57,19.7,19.7,0,0,1,2.84-4c1.08-1.18,2.28-2.22,3.3-3.28a6.06,6.06,0,0,0,1.18-1.62,2.42,2.42,0,0,0,.11-1.7,6.37,6.37,0,0,0-2.41-3.22,7.82,7.82,0,0,0-4-1.37,6.76,6.76,0,0,0-4,.91,22.41,22.41,0,0,1-4,2.46,6.31,6.31,0,0,1-4.9.21,5.76,5.76,0,0,1-1.13-.58,3.46,3.46,0,0,1-.89-1,5.85,5.85,0,0,1-.73-2.35c-.19-1.59-.07-3.14-.13-4.67a7.8,7.8,0,0,0-.34-2.22,4.44,4.44,0,0,0-1.26-1.81A8.13,8.13,0,0,0,209.23,186.33Z"/><path class="cls-9" d="M245.26,162.3a53.73,53.73,0,0,0,13.46-2,65.11,65.11,0,0,1,6.78-1.39,18.75,18.75,0,0,1,7.11.21,11.84,11.84,0,0,1,3.4,1.44,14.81,14.81,0,0,1,1.5,1.1A12.93,12.93,0,0,1,278.8,163a15.08,15.08,0,0,1,2.63,6.76c.42,2.25.79,4.45,2.22,5.49l.25.21c.1.06.21.1.31.15a4.75,4.75,0,0,0,.64.3l.73.24c.25.07.51.12.77.18a19.82,19.82,0,0,0,3.22.41c4.43.3,9-.19,13.66,0,.59,0,1.18.07,1.78.13s1.2.15,1.74.24c1.13.19,2.27.36,3.42.6a20.87,20.87,0,0,1,6.72,2.38,13.08,13.08,0,0,1,2.85,2.3,11.5,11.5,0,0,1,2,3.08,10.38,10.38,0,0,1,.62,1.69,8.14,8.14,0,0,1,.38,1.79,6,6,0,0,1-.68,3.67,7.45,7.45,0,0,1-2.62,2.53,17.38,17.38,0,0,1-3.18,1.44c-1.09.39-2.19.7-3.28,1a10.73,10.73,0,0,0-3.15,1.29,11.17,11.17,0,0,1,3-1.61c1.07-.42,2.14-.81,3.18-1.26,2-.9,4.13-2.07,5.05-3.94a4.83,4.83,0,0,0,.37-3,6.79,6.79,0,0,0-.42-1.54,8.44,8.44,0,0,0-.63-1.48,10.31,10.31,0,0,0-1.82-2.6,10.92,10.92,0,0,0-2.53-1.89,20.85,20.85,0,0,0-6.22-2c-1.09-.2-2.21-.34-3.35-.5-.57-.08-1.11-.14-1.65-.19s-1.09-.07-1.64-.08c-4.46-.1-9,.42-13.74.15a23.41,23.41,0,0,1-3.56-.49l-.89-.22-.9-.31a6.66,6.66,0,0,1-.91-.42,4,4,0,0,1-.45-.25l-.42-.32a6.64,6.64,0,0,1-2.19-3.35,24,24,0,0,1-.76-3.48,13,13,0,0,0-2.1-5.95,9.14,9.14,0,0,0-1-1.14,12.69,12.69,0,0,0-1.23-1,10.42,10.42,0,0,0-2.84-1.34,17.77,17.77,0,0,0-6.49-.43,65.48,65.48,0,0,0-6.71,1c-2.25.4-4.53.77-6.82,1A34.29,34.29,0,0,1,245.26,162.3Z"/><path class="cls-16" d="M444.6,339s15.73-10.51,34.86-12.62c0,0-17.36-10.57-52.32-10.39s-50.45,12.25-50.45,12.25,7.09,25.27,5.91,48.32c0,0,57.33-21.11,90.49-13.75C473.09,362.8,460.33,345.65,444.6,339Z"/><path class="cls-17" d="M376.75,330.67a143.94,143.94,0,0,1,14.56-5.12c4.91-1.45,9.9-2.66,14.92-3.63a129.28,129.28,0,0,1,15.18-2,106.61,106.61,0,0,1,15.27,0,105.55,105.55,0,0,0-15.19.79,125.26,125.26,0,0,0-14.92,2.79q-7.36,1.83-14.52,4.35a141,141,0,0,0-13.94,5.73l-.05,0a1.6,1.6,0,0,1-1.38-2.88Z"/><path class="cls-17" d="M378.64,333.58c4.62-1.65,9.21-3,13.89-4.16s9.39-2.13,14.13-2.9A140,140,0,0,1,421,324.9a120.54,120.54,0,0,1,14.35,0,121.48,121.48,0,0,0-14.28.84A139.13,139.13,0,0,0,407,328.09q-7,1.53-13.78,3.64c-4.52,1.41-9,3-13.33,4.81l-.05,0a1.6,1.6,0,0,1-1.24-2.95Z"/><path class="cls-17" d="M384.13,336c3.88-.93,7.74-1.7,11.64-2.4s7.79-1.29,11.71-1.74,7.86-.82,11.81-.92a77.32,77.32,0,0,1,11.79.48,75.41,75.41,0,0,0-11.74.32c-3.9.36-7.77,1-11.62,1.69s-7.66,1.58-11.46,2.52-7.58,2-11.27,3.12h0a1.6,1.6,0,1,1-1-3.05Z"/><path class="cls-17" d="M393.28,337.35c3-.44,6-.77,9-1.06s6-.52,9-.65,6-.2,9-.08a47.22,47.22,0,0,1,9,1,47,47,0,0,0-9-.23c-3,.14-5.94.47-8.9.87s-5.89.88-8.82,1.43-5.86,1.15-8.73,1.82h0a1.6,1.6,0,0,1-.73-3.12Z"/><path class="cls-17" d="M390.58,344.23c3-.66,5.92-1.22,8.9-1.74s5.95-1,8.94-1.32,6-.66,9-.77a48.33,48.33,0,0,1,9,.35,46.86,46.86,0,0,0-8.94.45c-3,.37-5.89.92-8.81,1.54s-5.81,1.32-8.69,2.09-5.76,1.59-8.56,2.48h0a1.6,1.6,0,1,1-1-3.05Z"/><path class="cls-17" d="M388.66,348.51c3-.66,5.92-1.22,8.9-1.74s5.95-1,8.94-1.33,6-.65,9-.76a46.74,46.74,0,0,1,9,.35,46.85,46.85,0,0,0-8.94.44c-3,.37-5.89.92-8.81,1.55s-5.81,1.32-8.69,2.09-5.76,1.59-8.57,2.48h0a1.6,1.6,0,1,1-1-3Z"/><path class="cls-17" d="M387.87,353.12c3-.66,5.92-1.22,8.9-1.74s6-1,8.94-1.33,6-.65,9-.76a48.33,48.33,0,0,1,9,.35,46.86,46.86,0,0,0-8.94.45c-3,.37-5.89.92-8.81,1.54s-5.81,1.32-8.69,2.09-5.76,1.59-8.56,2.48h0a1.6,1.6,0,1,1-1-3Z"/><path class="cls-17" d="M387.87,357.49c3-.66,5.92-1.22,8.9-1.74s6-1,8.94-1.33,6-.65,9-.76a47.49,47.49,0,0,1,9,.35,47.68,47.68,0,0,0-8.94.44c-3,.37-5.89.92-8.81,1.55s-5.81,1.32-8.69,2.09-5.76,1.59-8.56,2.48h0a1.6,1.6,0,1,1-1-3.05Z"/><path class="cls-17" d="M387.22,362.55c3-.66,5.93-1.22,8.9-1.74s5.95-1,8.95-1.33,6-.66,9-.77a47.42,47.42,0,0,1,9,.36,46.75,46.75,0,0,0-8.93.44c-3,.37-5.9.92-8.81,1.54s-5.81,1.33-8.69,2.1-5.76,1.59-8.57,2.48h0a1.6,1.6,0,0,1-1-3.05Z"/><path class="cls-17" d="M387.22,368.59c3-.66,5.93-1.22,8.9-1.74s5.95-1,8.95-1.33,6-.65,9-.76a46.61,46.61,0,0,1,9,.35,46.75,46.75,0,0,0-8.93.44c-3,.37-5.9.92-8.81,1.55s-5.81,1.32-8.69,2.09-5.76,1.59-8.57,2.48h0a1.6,1.6,0,1,1-1-3Z"/><path class="cls-18" d="M376.69,328.23s-3.51,11.62,35.18,7.44c0,0-8.74,17.83-33.71,19.79C378.16,355.46,375.11,335.6,376.69,328.23Z"/><g class="cls-19"><path class="cls-17" d="M377.7,336.7a71.65,71.65,0,0,0,9.31,2.14,79.58,79.58,0,0,0,9.46,1,63.22,63.22,0,0,0,9.44-.31,53.13,53.13,0,0,0,9.15-1.82l.07,0a1.47,1.47,0,0,1,.78,2.83l-.11,0a55.49,55.49,0,0,1-9.74,1.18,62.78,62.78,0,0,1-9.7-.43,79.87,79.87,0,0,1-9.49-1.69A72.7,72.7,0,0,1,377.7,336.7Z"/><path class="cls-17" d="M379.39,340.13a64.74,64.74,0,0,0,7.45,1.94,72.14,72.14,0,0,0,7.58,1.12,58.41,58.41,0,0,0,7.59.26,51.39,51.39,0,0,0,7.47-.77h.07a1.46,1.46,0,0,1,.47,2.89h-.14a52.26,52.26,0,0,1-7.91.07,59.23,59.23,0,0,1-7.76-1,74.92,74.92,0,0,1-7.55-1.86A64.41,64.41,0,0,1,379.39,340.13Z"/><path class="cls-17" d="M380.89,345a77.23,77.23,0,0,0,11.92,1.16c2,.06,4,0,5.94-.12a53.17,53.17,0,0,0,5.82-.72h0a1.47,1.47,0,1,1,.5,2.89l-.17,0a55.4,55.4,0,0,1-6.18,0c-2-.12-4.06-.31-6.07-.61A78.34,78.34,0,0,1,380.89,345Z"/><path class="cls-17" d="M380.89,349.39a77.38,77.38,0,0,0,9.49.51,49.9,49.9,0,0,0,9.28-.84h0a1.47,1.47,0,0,1,.57,2.88l-.23,0a51.57,51.57,0,0,1-9.74-.6A77.7,77.7,0,0,1,380.89,349.39Z"/><path class="cls-17" d="M382.32,354.15c1.79-.13,3.57-.31,5.33-.54a46.81,46.81,0,0,0,5.17-.92,1.48,1.48,0,0,1,.71,2.87,1.37,1.37,0,0,1-.4.05h0a51.13,51.13,0,0,1-5.48-.52Q385,354.69,382.32,354.15Z"/></g><path class="cls-16" d="M55.4,339s-15.73-10.51-34.86-12.62c0,0,17.36-10.57,52.32-10.39s50.45,12.25,50.45,12.25-7.09,25.27-5.91,48.32c0,0-57.33-21.11-90.49-13.75C26.91,362.8,39.67,345.65,55.4,339Z"/><path class="cls-17" d="M121.89,333.56A141,141,0,0,0,108,327.83q-7.14-2.52-14.52-4.35a125.26,125.26,0,0,0-14.92-2.79,105.55,105.55,0,0,0-15.19-.79,106.61,106.61,0,0,1,15.27,0,129.28,129.28,0,0,1,15.18,2c5,1,10,2.18,14.92,3.63a143.94,143.94,0,0,1,14.56,5.12,1.6,1.6,0,0,1-1.24,2.95l-.07,0Z"/><path class="cls-17" d="M120.15,336.54c-4.29-1.81-8.81-3.4-13.33-4.81s-9.13-2.62-13.78-3.64A139.13,139.13,0,0,0,79,325.7a121.48,121.48,0,0,0-14.28-.84,120.54,120.54,0,0,1,14.35,0,140,140,0,0,1,14.3,1.62c4.74.77,9.46,1.73,14.13,2.9s9.27,2.51,13.89,4.16a1.6,1.6,0,0,1-1.08,3l-.08,0Z"/><path class="cls-17" d="M115,339.06c-3.69-1.15-7.49-2.18-11.27-3.12s-7.62-1.81-11.46-2.52-7.72-1.33-11.62-1.69a75.41,75.41,0,0,0-11.74-.32,77.32,77.32,0,0,1,11.79-.48c4,.1,7.88.47,11.81.92s7.82,1.06,11.71,1.74,7.76,1.47,11.64,2.4a1.6,1.6,0,1,1-.74,3.11l-.1,0Z"/><path class="cls-17" d="M106.11,340.48c-2.87-.67-5.8-1.27-8.73-1.82s-5.87-1-8.82-1.43-5.93-.73-8.9-.87a47,47,0,0,0-9,.23,47.22,47.22,0,0,1,9-1c3-.12,6-.06,9,.08s6,.36,9,.65,6,.62,9,1.06a1.6,1.6,0,1,1-.45,3.16l-.14,0Z"/><path class="cls-17" d="M108.57,347.31c-2.8-.89-5.69-1.71-8.56-2.48s-5.78-1.47-8.69-2.09-5.85-1.17-8.81-1.54a46.86,46.86,0,0,0-8.94-.45,48.33,48.33,0,0,1,9-.35c3,.11,6,.4,9,.77s6,.81,8.94,1.32,5.92,1.08,8.9,1.74a1.6,1.6,0,0,1-.69,3.13l-.14,0Z"/><path class="cls-17" d="M110.5,351.59c-2.81-.89-5.69-1.71-8.57-2.48s-5.78-1.48-8.69-2.09-5.85-1.18-8.81-1.55a46.85,46.85,0,0,0-8.94-.44,46.74,46.74,0,0,1,9-.35c3,.11,6,.39,9,.76s6,.81,8.94,1.33,5.93,1.08,8.9,1.74a1.6,1.6,0,1,1-.69,3.12l-.14,0Z"/><path class="cls-17" d="M111.28,356.2c-2.8-.89-5.69-1.71-8.56-2.48s-5.78-1.47-8.69-2.09-5.85-1.17-8.81-1.54a46.86,46.86,0,0,0-8.94-.45,48.33,48.33,0,0,1,9-.35c3,.11,6,.4,9,.76s6,.82,8.94,1.33,5.92,1.08,8.9,1.74a1.6,1.6,0,0,1-.69,3.13l-.14,0Z"/><path class="cls-17" d="M111.28,360.57c-2.8-.89-5.69-1.71-8.56-2.48S96.94,356.62,94,356s-5.85-1.18-8.81-1.55a47.68,47.68,0,0,0-8.94-.44,47.49,47.49,0,0,1,9-.35c3,.11,6,.4,9,.76s6,.81,8.94,1.33,5.92,1.08,8.9,1.74a1.6,1.6,0,0,1-.69,3.12l-.14,0Z"/><path class="cls-17" d="M111.93,365.63c-2.81-.89-5.69-1.71-8.57-2.48s-5.77-1.48-8.69-2.1-5.85-1.17-8.81-1.54a46.75,46.75,0,0,0-8.93-.44,47.42,47.42,0,0,1,9-.36c3,.11,6,.4,9,.77s6,.81,8.95,1.33,5.92,1.08,8.9,1.74a1.6,1.6,0,0,1-.7,3.12l-.13,0Z"/><path class="cls-17" d="M111.93,371.67c-2.81-.89-5.69-1.71-8.57-2.48s-5.77-1.48-8.69-2.09-5.85-1.18-8.81-1.55a46.75,46.75,0,0,0-8.93-.44,46.61,46.61,0,0,1,9-.35c3,.11,6,.39,9,.76s6,.81,8.95,1.33,5.92,1.08,8.9,1.74a1.6,1.6,0,1,1-.7,3.12l-.13,0Z"/><path class="cls-18" d="M123.31,328.23s3.51,11.62-35.18,7.44c0,0,8.74,17.83,33.71,19.79C121.84,355.46,124.89,335.6,123.31,328.23Z"/><g class="cls-20"><path class="cls-17" d="M122.3,336.7a72.7,72.7,0,0,1-9.17,2.86,79.87,79.87,0,0,1-9.49,1.69,62.73,62.73,0,0,1-9.7.43,55.49,55.49,0,0,1-9.74-1.18,1.46,1.46,0,1,1,.56-2.87l.11,0,.07,0a53.13,53.13,0,0,0,9.15,1.82,63.22,63.22,0,0,0,9.44.31,79.58,79.58,0,0,0,9.46-1A71.65,71.65,0,0,0,122.3,336.7Z"/><path class="cls-17" d="M120.61,340.13a64.41,64.41,0,0,1-7.27,2.65,74.92,74.92,0,0,1-7.55,1.86,59.23,59.23,0,0,1-7.76,1,52.26,52.26,0,0,1-7.91-.07,1.46,1.46,0,0,1,.2-2.92l.13,0h.07a51.39,51.39,0,0,0,7.47.77,58.41,58.41,0,0,0,7.59-.26,72.14,72.14,0,0,0,7.58-1.12A64.74,64.74,0,0,0,120.61,340.13Z"/><path class="cls-17" d="M119.11,345a78.34,78.34,0,0,1-11.8,2.62c-2,.3-4,.49-6.07.61a55.41,55.41,0,0,1-6.18,0,1.47,1.47,0,0,1,.15-2.93l.17,0h.05a53.17,53.17,0,0,0,5.82.72c2,.12,4,.18,5.94.12A77.23,77.23,0,0,0,119.11,345Z"/><path class="cls-17" d="M119.11,349.39a77.7,77.7,0,0,1-9.38,2,51.57,51.57,0,0,1-9.74.6,1.47,1.47,0,1,1,.12-2.93l.21,0h0a49.9,49.9,0,0,0,9.28.84A77.38,77.38,0,0,0,119.11,349.39Z"/><path class="cls-17" d="M117.68,354.15q-2.64.54-5.32.93a51.13,51.13,0,0,1-5.48.52h0a1.48,1.48,0,0,1-.1-3,1.84,1.84,0,0,1,.41,0,46.81,46.81,0,0,0,5.17.92C114.11,353.84,115.89,354,117.68,354.15Z"/></g><path class="cls-21" d="M412.58,335.67s-33.33,39.17-162.22,39.17S88.13,335.67,88.13,335.67s-4,15.09-3.51,27.13S91,387.32,91,387.32s60.1,31.06,159.38,31.06,159.37-31.06,159.37-31.06,5.83-12.48,6.36-24.52S412.58,335.67,412.58,335.67Z"/><text class="cls-22" transform="translate(113.79 395.04) rotate(13.27)">E</text><text class="cls-22" transform="matrix(0.99, 0.16, -0.16, 0.99, 157.43, 404.97)">l</text><text class="cls-22" transform="translate(171.26 407.55) rotate(6.61)"> </text><text class="cls-22" transform="matrix(1, 0.04, -0.04, 1, 201.58, 411.43)">C</text><text class="cls-22" transform="matrix(1, -0.02, 0.02, 1, 241.59, 413.17)">h</text><text class="cls-22" transform="translate(267.83 412.71) rotate(-3.9)">e</text><text class="cls-22" transform="translate(289.99 411.34) rotate(-6.34)">e</text><text class="cls-22" transform="translate(312.96 409.42) rotate(-10.25)">m</text><text class="cls-22" transform="matrix(0.97, -0.24, 0.24, 0.97, 360.69, 400.5)">s</text><text class="cls-23" transform="translate(113.79 395.04) rotate(13.27)">E</text><text class="cls-23" transform="matrix(0.99, 0.16, -0.16, 0.99, 157.43, 404.97)">l</text><text class="cls-23" transform="translate(171.26 407.55) rotate(6.61)"> </text><text class="cls-23" transform="matrix(1, 0.04, -0.04, 1, 201.58, 411.43)">C</text><text class="cls-23" transform="matrix(1, -0.02, 0.02, 1, 241.59, 413.17)">h</text><text class="cls-23" transform="translate(267.83 412.71) rotate(-3.9)">e</text><text class="cls-23" transform="matrix(0.99, -0.11, 0.11, 0.99, 289.99, 411.34)">e</text><text class="cls-23" transform="matrix(0.98, -0.18, 0.18, 0.98, 312.96, 409.42)">m</text><text class="cls-23" transform="translate(360.69 400.5) rotate(-13.91)">s</text><text class="cls-24" transform="translate(113.44 395.04) rotate(13.27)">E</text><text class="cls-24" transform="matrix(0.99, 0.16, -0.16, 0.99, 157.07, 404.97)">l</text><text class="cls-24" transform="translate(170.9 407.55) rotate(6.61)"> </text><text class="cls-24" transform="matrix(1, 0.04, -0.04, 1, 201.23, 411.43)">C</text><text class="cls-24" transform="matrix(1, -0.02, 0.02, 1, 241.23, 413.17)">h</text><text class="cls-24" transform="translate(267.48 412.71) rotate(-3.9)">e</text><text class="cls-24" transform="matrix(0.99, -0.11, 0.11, 0.99, 289.64, 411.34)">e</text><text class="cls-24" transform="matrix(0.98, -0.18, 0.18, 0.98, 312.6, 409.42)">m</text><text class="cls-24" transform="translate(360.33 400.5) rotate(-13.91)">s</text></g></g></svg>